<svg xmlns="http://www.w3.org/2000/svg" xmlns:xlink="http://www.w3.org/1999/xlink" width="500" zoomAndPan="magnify" viewBox="0 0 375 374.999991" height="500" preserveAspectRatio="xMidYMid meet" version="1.0"><defs><clipPath id="9147bf3071"><path d="M 136 167 L 239 167 L 239 262.5 L 136 262.5 Z M 136 167 " clip-rule="nonzero"/></clipPath><clipPath id="74b21d2300"><path d="M 135 170 L 239.90625 170 L 239.90625 262 L 135 262 Z M 135 170 " clip-rule="nonzero"/></clipPath></defs><g clip-path="url(#9147bf3071)"><path fill="#ffffff" d="M 184.550781 169.613281 C 187.820312 167.09375 196.054688 165.960938 199.578125 168.417969 C 203.035156 170.808594 203.410156 174.777344 205.046875 178.367188 C 206.554688 177.675781 209.070312 178.683594 209.511719 180.070312 C 210.078125 180.761719 210.078125 182.589844 210.453125 183.535156 C 226.863281 186.179688 229.316406 198.964844 231.328125 213.515625 C 233.96875 228.253906 239.878906 242.992188 237.300781 258.171875 C 237.613281 258.675781 237.929688 259.117188 238.117188 259.683594 C 238.683594 260.691406 237.929688 262.078125 236.796875 262.015625 C 235.289062 261.890625 233.78125 261.699219 232.207031 261.636719 C 227.933594 261.511719 223.65625 261.511719 219.445312 261.574219 L 218.878906 261.574219 C 197.4375 261.824219 175.933594 262.394531 154.496094 262.519531 C 153.742188 262.519531 153.363281 261.824219 153.425781 261.132812 C 153.613281 259.746094 153.804688 258.363281 154.054688 256.976562 C 148.960938 258.296875 143.554688 258.675781 138.523438 257.101562 C 138.148438 256.722656 139.34375 256.914062 139.53125 256.851562 C 134.878906 253.636719 136.261719 246.960938 136.703125 242.109375 C 139.28125 225.546875 140.160156 207.152344 150.09375 192.980469 C 154.179688 187.1875 160.53125 182.652344 167.699219 181.582031 L 167.886719 181.582031 C 170.023438 181.328125 172.351562 181.203125 174.175781 180.070312 C 176.25 178.433594 177.128906 175.34375 179.332031 175.28125 C 180.023438 175.28125 181.027344 176.164062 182.097656 176.792969 C 182.160156 175.410156 182.914062 174.273438 183.101562 173.203125 L 183.101562 173.140625 C 183.292969 171.882812 183.101562 170.808594 184.550781 169.613281 Z M 219.757812 213.894531 C 215.167969 210.679688 203.222656 212.320312 202.972656 212.507812 C 202.34375 212.886719 202.089844 212.949219 201.777344 213.453125 C 201.460938 213.515625 201.148438 213.515625 200.832031 213.578125 C 200.203125 213.765625 200.644531 214.585938 201.398438 214.269531 C 200.960938 216.222656 202.28125 217.546875 202.78125 219.5 C 202.972656 220.128906 202.78125 221.199219 202.78125 221.890625 C 202.84375 222.710938 203.726562 223.65625 203.601562 224.476562 C 203.097656 227.371094 200.203125 230.144531 201.398438 232.914062 C 202.21875 234.488281 204.605469 235.308594 206.179688 235.8125 C 209.511719 237.070312 215.230469 235.75 217.179688 232.914062 C 218.1875 231.402344 219.382812 227.5625 220.011719 226.363281 L 220.136719 224.476562 C 220.511719 219.6875 220.765625 214.585938 219.757812 213.894531 Z M 219.757812 213.894531 " fill-opacity="1" fill-rule="evenodd"/></g><g clip-path="url(#74b21d2300)"><path fill="#000000" d="M 178.578125 175.03125 C 178.890625 174.777344 179.394531 175.09375 179.140625 175.472656 C 178.703125 176.351562 178.199219 177.171875 177.632812 177.929688 C 177.253906 178.367188 176.878906 178.808594 176.4375 179.25 C 177.445312 180.132812 178.324219 181.265625 179.203125 182.273438 C 180.273438 183.597656 181.28125 184.980469 182.472656 186.179688 C 183.667969 187.375 184.988281 188.195312 186.5625 188.761719 L 186.875 188.886719 C 188.449219 189.453125 190.144531 190.210938 191.023438 191.722656 C 191.214844 192.035156 190.835938 192.414062 190.523438 192.226562 C 188.949219 191.28125 187.128906 191.09375 185.429688 190.460938 C 183.792969 189.832031 182.347656 188.886719 181.089844 187.691406 C 179.832031 186.492188 178.765625 185.109375 177.695312 183.785156 C 176.628906 182.464844 175.433594 181.328125 174.175781 180.195312 C 172.164062 181.519531 169.898438 182.085938 167.636719 182.714844 L 167.449219 182.652344 C 165.121094 183.21875 162.859375 183.910156 160.65625 184.855469 C 158.769531 185.738281 156.882812 186.808594 155.3125 188.195312 C 153.679688 189.707031 152.359375 191.660156 151.226562 193.546875 C 148.585938 197.832031 146.761719 202.492188 145.128906 207.214844 C 143.429688 212.128906 142.046875 217.105469 140.851562 222.144531 C 140.285156 224.726562 139.78125 227.308594 139.40625 229.890625 C 139.21875 231.152344 139.027344 232.410156 138.902344 233.671875 C 138.777344 234.992188 138.714844 236.378906 138.273438 237.703125 C 138.085938 238.269531 137.707031 238.457031 137.269531 238.457031 L 137.203125 239.527344 C 137.078125 240.914062 137.015625 242.363281 136.953125 243.8125 C 136.890625 246.207031 136.890625 248.535156 137.078125 250.929688 L 137.078125 251.246094 C 137.203125 252.945312 137.519531 254.898438 138.777344 256.15625 C 140.097656 257.480469 142.171875 257.859375 143.996094 257.921875 C 148.269531 257.921875 152.359375 255.90625 156.066406 254.140625 C 159.902344 252.316406 163.613281 250.363281 167.257812 248.15625 C 169.082031 247.023438 170.96875 245.890625 172.730469 244.757812 C 173.609375 244.191406 174.488281 243.621094 175.371094 242.992188 C 175.871094 242.679688 176.375 242.300781 176.878906 241.984375 C 176.628906 241.734375 176.5 241.355469 176.753906 241.039062 C 175.308594 239.78125 174.679688 237.449219 174.613281 235.625 C 174.550781 234.113281 174.804688 232.664062 174.929688 231.152344 C 174.992188 230.394531 175.117188 229.640625 175.242188 228.882812 C 175.308594 228.570312 175.308594 228.253906 175.371094 227.9375 C 171.34375 230.207031 167.257812 232.160156 163.046875 233.921875 C 160.910156 234.804688 158.707031 235.625 156.507812 236.316406 L 156.066406 236.503906 C 153.992188 237.199219 151.792969 237.828125 149.652344 238.207031 C 149.527344 238.207031 149.464844 238.078125 149.589844 238.015625 C 151.730469 237.070312 153.867188 236.316406 156.066406 235.433594 L 156.445312 235.308594 C 156.382812 235.308594 156.382812 235.308594 156.320312 235.308594 C 155.0625 234.992188 153.804688 234.554688 152.609375 234.113281 C 151.476562 233.734375 150.15625 233.546875 149.089844 232.976562 C 149.023438 232.914062 149.023438 232.851562 149.152344 232.789062 C 150.34375 232.726562 151.664062 233.042969 152.859375 233.292969 L 153.300781 233.355469 C 154.054688 233.480469 154.808594 233.609375 155.5625 233.796875 C 155.5625 233.546875 155.753906 233.292969 155.941406 233.167969 C 158.078125 231.53125 157.890625 228.316406 158.140625 225.921875 L 158.332031 224.160156 C 158.644531 221.074219 158.960938 217.925781 159.460938 214.839844 C 159.460938 214.648438 159.714844 214.710938 159.714844 214.902344 C 159.714844 218.742188 159.460938 222.523438 159.335938 226.363281 L 159.335938 226.996094 C 159.273438 229.324219 159.210938 231.78125 157.703125 233.609375 C 157.890625 233.480469 158.203125 233.480469 158.332031 233.671875 C 158.519531 233.921875 158.644531 234.175781 158.644531 234.488281 C 159.964844 233.921875 161.285156 233.355469 162.667969 232.789062 C 166.945312 230.898438 171.09375 228.757812 175.179688 226.492188 C 175.621094 226.238281 176.0625 226.425781 176.25 226.742188 C 176.816406 226.425781 177.570312 226.679688 178.074219 227.121094 C 178.074219 227.121094 178.074219 227.121094 178.136719 227.183594 C 178.765625 226.929688 179.332031 226.554688 179.832031 226.050781 C 180.902344 225.042969 181.84375 223.84375 182.601562 222.648438 C 184.046875 220.445312 185.304688 217.925781 187.316406 216.097656 C 188.949219 214.585938 190.898438 213.640625 193.039062 213.074219 C 193.039062 213.011719 193.039062 212.949219 193.101562 212.886719 C 193.226562 212.757812 193.289062 212.757812 193.414062 212.824219 L 193.601562 212.445312 C 193.730469 212.253906 193.855469 212.066406 193.855469 212.003906 C 194.105469 211.6875 194.359375 211.4375 194.609375 211.121094 C 195.050781 210.617188 195.488281 210.113281 196.054688 209.800781 C 197.25 209.042969 198.570312 209.484375 199.828125 209.863281 C 200.582031 210.113281 201.335938 210.367188 202.089844 210.617188 L 202.152344 210.617188 C 202.71875 210.808594 203.347656 210.933594 203.601562 211.5625 C 203.726562 211.816406 203.726562 212.066406 203.664062 212.253906 C 209.007812 210.871094 214.917969 211.5 220.136719 213.136719 C 220.324219 213.199219 220.511719 213.390625 220.578125 213.578125 C 221.140625 216.664062 221.457031 219.8125 221.140625 222.898438 C 220.890625 225.609375 220.324219 228.253906 219.191406 230.710938 L 219.003906 230.835938 C 217.933594 233.105469 216.300781 235.9375 213.722656 236.632812 C 212.152344 237.070312 210.453125 236.820312 208.882812 236.757812 C 207.371094 236.695312 205.800781 236.695312 204.292969 236.441406 C 202.972656 236.253906 201.777344 235.625 200.960938 234.554688 C 200.269531 233.609375 199.890625 232.472656 199.578125 231.339844 C 199.449219 231.402344 199.324219 231.402344 199.136719 231.464844 C 198.570312 231.71875 198.066406 232.097656 197.628906 232.472656 C 196.683594 233.417969 195.929688 234.488281 194.921875 235.371094 C 194.042969 236.191406 192.972656 236.757812 191.90625 237.261719 C 189.640625 238.269531 187.191406 238.648438 184.800781 239.152344 L 184.613281 239.214844 C 182.789062 239.589844 180.964844 240.09375 179.332031 241.039062 C 179.332031 241.292969 179.140625 241.605469 178.953125 241.734375 C 179.203125 241.984375 179.332031 242.425781 179.078125 242.804688 C 178.386719 243.875 177.191406 244.503906 176.125 245.261719 L 176.0625 245.324219 C 174.992188 246.015625 173.921875 246.710938 172.855469 247.402344 C 170.652344 248.789062 168.453125 250.046875 166.191406 251.308594 C 162.542969 253.261719 158.898438 255.148438 155.125 256.851562 C 155.375 257.984375 155.25 259.117188 155.4375 260.25 L 155.4375 260.441406 C 155.5 260.882812 155.4375 261.195312 155.125 261.449219 C 155.0625 261.449219 155.0625 261.511719 155 261.511719 L 154.933594 261.511719 C 154.683594 261.699219 154.308594 261.699219 153.992188 261.511719 L 153.867188 261.511719 C 153.488281 261.320312 153.238281 260.753906 153.363281 260.3125 C 153.742188 259.242188 153.867188 258.171875 154.242188 257.101562 L 153.992188 257.226562 L 153.613281 257.417969 C 149.652344 259.117188 145.253906 260.566406 140.914062 259.433594 C 139.027344 258.929688 137.203125 257.792969 136.261719 256.03125 C 135.320312 254.265625 135.191406 252.253906 135.128906 250.300781 C 135.066406 247.90625 135.191406 245.449219 135.507812 243.054688 C 135.695312 241.417969 135.949219 239.84375 136.386719 238.207031 C 136.199219 238.015625 136.011719 237.765625 136.011719 237.449219 C 135.820312 235.9375 136.136719 234.363281 136.324219 232.851562 C 136.511719 231.402344 136.765625 229.890625 136.953125 228.441406 C 137.457031 225.484375 138.023438 222.523438 138.714844 219.625 C 139.910156 214.398438 141.480469 209.296875 143.367188 204.320312 L 143.554688 203.878906 C 145.316406 199.28125 147.328125 194.871094 150.15625 190.839844 C 151.539062 188.949219 152.921875 187.1875 154.871094 185.800781 C 156.632812 184.476562 158.707031 183.597656 160.78125 182.839844 C 162.859375 182.148438 164.996094 181.644531 167.195312 181.328125 C 169.398438 181.015625 171.722656 180.824219 173.796875 179.945312 C 173.546875 179.503906 173.734375 178.808594 174.175781 178.558594 C 175.871094 177.488281 177.253906 176.164062 178.578125 175.03125 Z M 225.984375 217.671875 C 226.046875 217.609375 226.171875 217.609375 226.171875 217.734375 C 225.480469 220.695312 224.789062 223.65625 224.347656 226.679688 C 223.53125 232.097656 223.71875 237.640625 223.78125 243.117188 L 223.78125 243.371094 C 223.84375 246.332031 223.84375 249.292969 223.972656 252.253906 C 224.035156 253.765625 224.097656 255.273438 224.035156 256.722656 C 224.035156 257.542969 223.78125 258.296875 223.71875 259.117188 C 223.65625 259.808594 223.71875 260.503906 223.71875 261.195312 C 223.71875 261.636719 223.027344 261.636719 223.027344 261.195312 L 222.964844 260.628906 C 222.902344 259.875 222.777344 259.179688 222.523438 258.488281 C 222.210938 257.667969 222.085938 256.851562 222.023438 255.96875 C 221.898438 254.644531 221.769531 253.261719 221.769531 251.875 L 221.707031 250.929688 C 221.457031 245.261719 221.457031 239.527344 221.898438 233.859375 L 221.898438 233.480469 C 222.273438 228.066406 222.964844 222.269531 225.984375 217.671875 Z M 210.640625 183.785156 C 210.453125 183.722656 210.515625 183.40625 210.703125 183.472656 L 211.082031 183.535156 C 213.847656 184.226562 216.550781 184.917969 219.191406 186.179688 C 221.769531 187.4375 223.972656 189.265625 225.730469 191.53125 C 229.128906 195.941406 230.511719 201.359375 231.640625 206.710938 C 232.898438 212.695312 234.03125 218.679688 235.226562 224.664062 L 235.476562 225.796875 C 236.609375 231.339844 237.742188 236.945312 238.496094 242.550781 L 238.558594 242.929688 C 239.375 248.726562 239.878906 254.707031 239 260.503906 C 238.808594 261.636719 236.921875 261.386719 236.988281 260.25 C 237.175781 256.976562 237.363281 253.699219 237.238281 250.425781 C 237.113281 247.148438 236.796875 243.875 236.292969 240.597656 C 235.917969 237.828125 235.351562 235.183594 234.847656 232.410156 L 234.785156 231.96875 C 234.34375 229.640625 233.90625 227.371094 233.464844 225.042969 L 232.835938 221.578125 C 231.832031 216.414062 230.824219 211.183594 229.691406 206.082031 L 229.628906 205.769531 C 228.5 200.792969 226.863281 195.628906 223.59375 191.722656 C 220.199219 187.753906 215.359375 185.738281 210.640625 183.785156 Z M 198.382812 236.316406 C 198.445312 236.128906 198.757812 236.128906 198.820312 236.316406 C 199.136719 236.945312 199.199219 237.765625 199.261719 238.457031 L 199.261719 238.519531 C 199.324219 239.402344 199.386719 240.285156 199.449219 241.167969 C 199.511719 242.804688 199.578125 244.503906 199.578125 246.140625 C 199.578125 247.84375 199.511719 249.542969 199.449219 251.246094 L 199.449219 251.683594 C 199.386719 253.132812 199.199219 254.835938 198.507812 256.09375 C 198.253906 256.535156 197.5625 256.410156 197.4375 255.96875 C 196.933594 254.394531 197.1875 252.566406 197.3125 250.992188 L 197.4375 249.734375 C 197.5625 248.472656 197.628906 247.277344 197.691406 246.015625 C 197.816406 244.316406 197.878906 242.613281 197.941406 240.914062 C 197.941406 240.347656 198.003906 239.78125 198.003906 239.277344 L 198.066406 238.457031 C 198.128906 237.765625 198.128906 237.007812 198.382812 236.316406 Z M 144.183594 238.519531 L 144.371094 238.332031 C 145 237.703125 145.882812 236.695312 146.824219 236.757812 C 147.203125 236.757812 147.453125 237.070312 147.390625 237.511719 C 147.203125 238.332031 146.382812 238.773438 145.820312 239.277344 C 145.191406 239.84375 144.5625 240.410156 143.933594 240.976562 C 143.367188 241.480469 142.863281 242.046875 142.359375 242.613281 L 142.171875 242.804688 C 141.984375 242.992188 140.664062 244.191406 140.851562 244.503906 C 140.914062 244.566406 140.851562 244.628906 140.789062 244.628906 C 140.222656 244.441406 140.285156 243.9375 140.472656 243.496094 C 140.914062 242.550781 141.605469 241.671875 142.234375 240.851562 C 142.800781 239.96875 143.429688 239.277344 144.183594 238.519531 Z M 200.457031 214.902344 C 200.015625 213.894531 198.382812 213.894531 197.5 213.957031 C 195.175781 214.082031 192.722656 214.710938 190.648438 215.78125 C 188.511719 216.917969 187.128906 218.679688 185.808594 220.632812 L 185.742188 220.695312 C 184.488281 222.648438 183.292969 224.914062 181.34375 226.238281 C 180.335938 226.929688 179.203125 227.5625 178.011719 227.8125 C 177.949219 227.9375 177.820312 228.066406 177.632812 228.128906 L 177.570312 228.128906 C 177.253906 228.191406 176.691406 228.316406 176.25 228.253906 C 176.25 228.507812 176.25 228.695312 176.25 228.945312 C 176.25 229.578125 176.25 230.207031 176.25 230.773438 C 176.25 232.035156 176.1875 233.355469 176.25 234.617188 C 176.3125 235.75 176.4375 236.945312 177.003906 237.953125 C 177.382812 238.710938 177.949219 239.214844 178.578125 239.65625 C 180.148438 238.710938 181.910156 238.144531 183.730469 237.703125 C 185.933594 237.199219 188.132812 236.820312 190.269531 236.128906 C 191.277344 235.8125 192.28125 235.308594 193.164062 234.742188 C 194.105469 234.113281 194.859375 233.230469 195.550781 232.347656 L 195.679688 232.222656 C 196.433594 231.339844 197.25 230.523438 198.320312 230.019531 C 199.261719 229.640625 200.457031 229.515625 201.273438 228.882812 C 201.714844 228.570312 201.714844 228.066406 201.777344 227.5625 C 201.273438 227.625 200.707031 227.5 200.203125 227.433594 L 199.953125 227.433594 C 199.449219 227.371094 199.011719 227.308594 198.507812 227.183594 C 198.445312 227.183594 198.445312 226.996094 198.507812 226.996094 C 199.074219 226.867188 199.640625 226.804688 200.203125 226.742188 L 200.332031 226.742188 C 200.832031 226.679688 201.398438 226.554688 201.902344 226.679688 C 201.964844 226.300781 202.152344 225.988281 202.34375 225.671875 C 202.59375 225.167969 203.097656 224.664062 203.160156 224.097656 C 203.160156 223.90625 203.160156 223.71875 203.035156 223.59375 L 203.035156 223.53125 C 202.972656 223.46875 202.972656 223.402344 202.910156 223.402344 C 202.910156 223.402344 202.910156 223.402344 202.84375 223.402344 C 202.46875 223.53125 202.089844 223.339844 201.902344 223.027344 C 201.148438 223.152344 200.269531 223.089844 199.511719 223.152344 L 198.757812 223.214844 C 197.941406 223.277344 197.125 223.277344 196.433594 223.089844 C 196.308594 223.089844 196.308594 222.898438 196.433594 222.835938 C 197.375 222.460938 198.445312 222.332031 199.449219 222.144531 C 200.015625 222.082031 200.519531 222.019531 201.085938 221.890625 C 201.460938 221.828125 201.839844 221.765625 202.21875 221.765625 C 203.160156 220.570312 202.65625 218.742188 201.335938 218.238281 C 200.832031 218.429688 200.457031 218.300781 199.890625 218.300781 C 199.386719 218.238281 198.820312 218.238281 198.320312 218.238281 C 197.25 218.238281 196.179688 218.492188 195.113281 218.429688 C 194.921875 218.429688 194.796875 218.175781 194.921875 218.050781 C 195.742188 217.421875 196.871094 217.167969 197.878906 217.042969 L 198.066406 217.042969 C 198.382812 216.980469 198.820312 216.917969 199.261719 216.917969 C 199.386719 216.726562 199.511719 216.601562 199.765625 216.539062 C 199.828125 216.539062 199.890625 216.539062 200.015625 216.539062 C 200.644531 216.351562 200.644531 215.277344 200.457031 214.902344 Z M 156.882812 235.058594 C 156.820312 235.058594 156.820312 235.058594 156.882812 235.058594 L 156.820312 235.121094 Z M 211.523438 212.570312 C 208.820312 212.253906 206.179688 212.320312 203.472656 212.445312 C 203.285156 213.136719 202.53125 213.765625 201.777344 213.765625 C 202.34375 214.648438 202.40625 215.78125 202.027344 216.726562 C 202.84375 217.042969 203.601562 217.671875 204.039062 218.554688 C 204.667969 219.75 204.542969 221.074219 203.976562 222.207031 C 204.480469 222.648438 204.792969 223.46875 204.792969 224.160156 C 204.730469 224.980469 204.292969 225.671875 203.914062 226.300781 C 203.472656 226.996094 203.472656 227.625 203.347656 228.441406 C 203.160156 229.640625 202.34375 230.332031 201.335938 230.773438 L 201.398438 230.960938 C 201.652344 231.96875 201.964844 233.042969 202.71875 233.796875 C 203.664062 234.742188 205.171875 234.742188 206.429688 234.804688 L 206.492188 234.804688 C 207.6875 234.867188 208.820312 234.929688 210.011719 234.992188 L 210.894531 235.058594 C 212.214844 235.121094 213.535156 235.121094 214.601562 234.238281 C 216.363281 232.789062 217.621094 230.394531 218.375 228.253906 C 220.011719 223.78125 220.011719 218.871094 219.253906 214.207031 C 216.804688 213.390625 214.164062 212.824219 211.523438 212.570312 Z M 189.265625 220.003906 C 189.832031 220.066406 190.207031 220.507812 190.332031 221.074219 C 190.523438 221.828125 190.460938 222.523438 190.898438 223.214844 C 191.402344 223.90625 191.652344 224.476562 191.78125 225.417969 C 191.78125 225.796875 191.78125 226.175781 191.90625 226.492188 L 191.96875 226.742188 C 192.03125 226.996094 192.09375 227.246094 192.03125 227.5625 C 192.03125 227.8125 191.90625 228.003906 191.589844 228.128906 C 190.773438 228.316406 190.082031 227.6875 189.894531 226.929688 C 189.703125 226.238281 189.957031 225.417969 189.703125 224.789062 C 189.578125 224.410156 189.265625 224.160156 189.140625 223.78125 C 189.011719 223.402344 188.886719 223.027344 188.886719 222.648438 C 188.824219 221.890625 189.515625 221.011719 189.140625 220.378906 C 189.011719 220.191406 189.078125 220.003906 189.265625 220.003906 Z M 177.949219 212.445312 C 178.511719 212.320312 179.203125 212.066406 179.769531 212.253906 C 180.085938 212.382812 180.210938 212.695312 179.960938 212.949219 C 179.519531 213.390625 178.890625 213.390625 178.324219 213.515625 L 178.261719 213.515625 C 177.570312 213.640625 176.878906 213.765625 176.1875 213.894531 C 174.929688 214.082031 173.609375 214.269531 172.289062 214.460938 C 170.96875 214.648438 169.648438 214.773438 168.265625 214.902344 L 167.761719 214.964844 C 166.628906 215.027344 165.433594 215.152344 164.367188 214.964844 C 164.179688 214.964844 164.242188 214.710938 164.367188 214.648438 C 165.5625 214.269531 166.882812 214.207031 168.140625 214.019531 C 169.460938 213.832031 170.78125 213.703125 172.101562 213.453125 C 173.421875 213.261719 174.742188 213.011719 176.0625 212.757812 C 176.753906 212.632812 177.382812 212.507812 177.949219 212.445312 Z M 198.757812 211.246094 C 198.253906 211.058594 197.691406 210.808594 197.125 210.871094 C 196.179688 210.996094 195.363281 211.941406 194.609375 212.570312 L 194.988281 212.507812 C 196.933594 212.128906 199.449219 211.75 201.085938 212.949219 C 201.210938 212.757812 201.335938 212.570312 201.523438 212.445312 C 201.523438 212.445312 201.523438 212.445312 201.589844 212.382812 L 201.652344 212.253906 L 201.460938 212.191406 C 201.023438 212.066406 200.519531 211.816406 200.457031 211.816406 C 199.890625 211.625 199.324219 211.4375 198.757812 211.246094 Z M 182.976562 170.875 C 182.914062 169.867188 184.488281 169.867188 184.550781 170.875 C 184.738281 173.078125 184.234375 175.28125 183.164062 177.171875 C 183.164062 177.171875 183.164062 177.171875 183.164062 177.234375 C 183.859375 177.613281 184.488281 177.929688 185.179688 178.242188 C 186.058594 178.621094 186.9375 179 187.882812 179.25 C 188.699219 179.503906 189.703125 179.628906 190.398438 180.195312 C 191.84375 181.390625 191.339844 183.785156 191.023438 185.359375 L 190.960938 185.613281 C 190.835938 186.429688 190.710938 187.25 191.089844 188.003906 C 191.464844 188.824219 192.15625 189.453125 192.847656 190.019531 L 192.972656 190.148438 C 193.539062 190.652344 194.230469 191.34375 194.671875 192.035156 C 195.050781 191.21875 195.613281 190.589844 196.179688 189.832031 C 196.558594 189.328125 196.308594 189.140625 195.992188 188.636719 C 195.742188 188.132812 195.550781 187.628906 195.679688 187.0625 C 195.867188 185.988281 196.683594 185.234375 197.5 184.667969 C 198.507812 183.976562 199.578125 183.472656 200.582031 182.839844 C 202.65625 181.582031 204.730469 180.070312 206.554688 178.433594 C 206.617188 178.367188 206.679688 178.433594 206.679688 178.496094 C 205.234375 180.699219 203.539062 182.589844 201.460938 184.226562 C 200.644531 184.855469 199.703125 185.421875 198.820312 185.988281 L 198.570312 186.179688 C 198.191406 186.429688 197.753906 186.746094 197.628906 187.125 C 197.4375 187.5 197.816406 187.816406 198.003906 188.132812 C 198.570312 189.203125 198.320312 190.148438 197.628906 191.027344 L 197.5 191.15625 C 196.808594 192.035156 196.242188 192.855469 195.992188 193.925781 C 195.425781 196.320312 196.179688 198.839844 197 201.042969 L 197.0625 201.105469 C 197.5 202.304688 197.941406 203.5 198.320312 204.761719 L 198.445312 205.074219 C 198.757812 206.207031 199.074219 207.34375 198.695312 208.476562 C 198.570312 208.855469 198.003906 208.980469 197.816406 208.601562 C 197.0625 207.28125 196.808594 205.703125 196.371094 204.257812 C 195.867188 202.871094 195.363281 201.484375 194.859375 200.097656 C 194.292969 198.273438 193.855469 196.320312 194.105469 194.429688 C 194.105469 194.429688 194.105469 194.429688 194.105469 194.367188 L 193.855469 194.117188 C 193.414062 193.234375 193.039062 192.414062 192.28125 191.722656 C 191.527344 190.964844 190.648438 190.335938 190.019531 189.390625 C 188.699219 187.4375 189.515625 185.234375 189.640625 183.09375 L 189.640625 182.839844 C 189.640625 182.398438 189.703125 181.769531 189.390625 181.457031 C 189.078125 181.078125 188.320312 181.015625 187.882812 180.886719 C 186.75 180.511719 185.617188 180.007812 184.613281 179.441406 C 183.605469 178.9375 182.664062 178.304688 181.71875 177.613281 L 181.28125 177.234375 C 180.523438 176.667969 179.832031 176.101562 179.332031 175.34375 C 179.269531 175.28125 179.394531 175.09375 179.457031 175.15625 C 180.273438 175.472656 181.027344 176.039062 181.78125 176.480469 C 181.78125 176.480469 181.78125 176.417969 181.84375 176.417969 C 182.726562 174.714844 183.101562 172.824219 182.976562 170.875 Z M 208.882812 182.527344 C 209.195312 181.644531 210.703125 181.707031 210.640625 182.777344 C 210.578125 183.597656 210.265625 184.289062 209.949219 185.046875 L 209.886719 185.109375 C 209.574219 185.863281 209.195312 186.621094 208.753906 187.3125 C 207.875 188.636719 206.871094 189.894531 205.800781 191.09375 C 204.859375 192.164062 203.539062 192.792969 202.089844 192.730469 C 201.460938 192.667969 200.832031 192.539062 200.332031 192.226562 C 199.703125 191.847656 199.011719 190.777344 198.191406 191.027344 C 198.128906 191.027344 198.066406 190.964844 198.128906 190.902344 C 199.074219 190.148438 200.140625 191.34375 201.085938 191.597656 C 202.46875 192.035156 203.851562 191.53125 204.730469 190.460938 C 205.675781 189.328125 206.492188 188.003906 207.246094 186.746094 C 207.625 186.117188 208 185.421875 208.316406 184.730469 C 208.566406 184.039062 208.628906 183.28125 208.882812 182.527344 Z M 206.679688 177.109375 C 206.617188 176.984375 206.808594 176.855469 206.871094 176.921875 C 207.5 177.296875 208 177.863281 208.628906 178.304688 C 209.257812 178.808594 209.886719 179.3125 210.578125 179.816406 C 211.523438 180.574219 210.453125 181.894531 209.574219 181.078125 C 208.441406 180.070312 207.183594 178.621094 206.679688 177.109375 Z M 203.222656 172.761719 C 203.472656 171.753906 204.984375 172.195312 204.730469 173.140625 C 204.292969 174.714844 204.921875 176.351562 206.179688 177.425781 L 206.242188 177.488281 C 207.058594 178.117188 205.925781 179.25 205.109375 178.621094 C 203.410156 177.234375 202.71875 174.90625 203.222656 172.761719 Z M 203.222656 172.761719 " fill-opacity="1" fill-rule="evenodd"/></g><path fill="#ffffff" d="M 196.644531 122.117188 C 216.636719 122.746094 217.832031 132.257812 217.832031 148.253906 C 217.832031 164.253906 207.457031 174.207031 203.621094 175.96875 C 199.789062 177.734375 189.726562 185.292969 180.671875 181.828125 C 171.621094 178.363281 174.199219 163.6875 174.199219 157.324219 C 174.199219 150.964844 176.648438 121.484375 196.644531 122.117188 Z M 196.644531 122.117188 " fill-opacity="1" fill-rule="evenodd"/><path fill="#000000" d="M 204.753906 170.742188 C 201.046875 172.820312 196.832031 172.882812 192.933594 171.558594 C 190.546875 170.804688 188.40625 169.605469 186.332031 168.160156 C 184.570312 166.898438 183 165.511719 181.429688 164.066406 C 180.171875 161.230469 178.976562 158.394531 178.472656 155.308594 C 177.96875 152.539062 177.90625 149.640625 178.472656 146.871094 C 182.621094 143.46875 186.710938 140.066406 190.796875 136.601562 C 192.871094 134.839844 194.945312 133.136719 197.082031 131.375 C 198.152344 130.492188 199.222656 129.609375 200.289062 128.730469 C 200.480469 128.601562 200.667969 128.414062 200.792969 128.289062 C 202.992188 129.925781 205.382812 131.3125 207.582031 132.949219 C 208.714844 133.832031 209.847656 134.777344 210.917969 135.71875 C 211.480469 136.222656 212.046875 136.726562 212.550781 137.296875 C 213.054688 137.800781 213.492188 138.492188 214.1875 138.679688 C 214.3125 138.679688 214.375 138.679688 214.4375 138.679688 C 215.378906 146.742188 216.007812 155.5 212.046875 162.867188 C 210.351562 166.082031 207.960938 168.976562 204.753906 170.742188 Z M 180.863281 173.703125 C 180.359375 173.261719 181.113281 172.503906 181.617188 172.945312 C 184.761719 175.84375 188.910156 177.417969 193.058594 178.109375 C 193.75 178.238281 193.4375 179.246094 192.808594 179.117188 C 188.40625 178.425781 184.132812 176.726562 180.863281 173.703125 Z M 177.027344 178.171875 C 176.398438 177.859375 176.964844 176.914062 177.59375 177.230469 C 180.046875 178.550781 182.75 179.246094 185.515625 179.683594 C 186.207031 179.8125 185.890625 180.820312 185.261719 180.691406 C 182.371094 180.253906 179.605469 179.558594 177.027344 178.171875 Z M 187.085938 133.328125 C 189.160156 131.5 191.300781 129.738281 193.625 128.289062 C 195.953125 126.777344 198.53125 125.894531 201.296875 125.894531 C 201.109375 126.019531 200.917969 126.210938 200.730469 126.398438 C 200.226562 126.839844 199.660156 127.28125 199.160156 127.722656 C 198.089844 128.601562 197.082031 129.546875 196.015625 130.429688 C 194.003906 132.257812 191.929688 134.019531 189.917969 135.847656 C 186.082031 139.246094 182.308594 142.839844 178.535156 146.492188 C 178.535156 146.429688 178.597656 146.300781 178.597656 146.238281 C 179.855469 141.074219 183.1875 136.792969 187.085938 133.328125 Z M 203.121094 126.019531 C 203.121094 125.957031 203.121094 125.957031 203.121094 125.894531 C 208.464844 126.585938 212.867188 130.492188 214.375 135.65625 C 214.25 135.847656 214.1875 136.035156 214.1875 136.289062 C 214.1875 136.414062 214.1875 136.539062 214.25 136.601562 C 214.058594 136.476562 213.871094 136.351562 213.683594 136.160156 C 213.179688 135.59375 212.613281 135.089844 212.046875 134.585938 C 210.917969 133.515625 209.722656 132.570312 208.464844 131.691406 C 206.261719 130.113281 203.9375 128.667969 201.359375 127.910156 C 201.546875 127.785156 201.671875 127.660156 201.863281 127.46875 C 202.429688 127.027344 202.867188 126.714844 203.121094 126.019531 Z M 212.613281 120.539062 C 209.34375 116.949219 204.816406 114.367188 200.039062 113.421875 C 195.511719 112.542969 190.796875 113.109375 186.457031 114.808594 C 177.46875 118.335938 170.363281 126.148438 167.03125 135.152344 C 165.082031 140.382812 164.453125 146.175781 165.019531 151.71875 C 165.582031 157.261719 167.28125 162.992188 170.300781 167.71875 C 170.550781 168.160156 170.867188 168.535156 171.179688 168.976562 C 171.054688 170.613281 170.488281 172.191406 169.671875 173.574219 C 169.609375 173.636719 169.609375 173.703125 169.546875 173.765625 C 168.664062 174.394531 167.785156 175.023438 166.902344 175.652344 C 166.148438 176.222656 165.394531 176.789062 164.640625 177.355469 C 163.949219 177.921875 163.195312 178.550781 162.691406 179.371094 C 162.3125 180 162.1875 180.882812 162.691406 181.449219 C 163.320312 182.203125 164.390625 181.953125 165.207031 181.953125 C 165.269531 181.953125 165.332031 181.953125 165.394531 181.953125 C 165.648438 182.140625 165.898438 182.269531 166.148438 182.394531 C 168.664062 183.714844 171.242188 185.101562 173.820312 186.425781 C 179.039062 189.132812 184.070312 191.839844 189.289062 194.296875 C 191.675781 195.433594 194.253906 196.441406 196.957031 196.441406 C 199.472656 196.441406 201.800781 195.433594 203.75 193.921875 C 206.011719 192.15625 207.898438 189.953125 209.722656 187.808594 C 210.476562 186.929688 211.167969 186.046875 211.859375 185.164062 C 213.179688 184.722656 214.5625 184.597656 215.757812 185.480469 C 216.699219 186.171875 218.019531 185.226562 218.019531 184.15625 C 218.019531 183.78125 218.019531 183.402344 217.957031 183.085938 C 217.707031 180.820312 216.636719 178.804688 215.378906 176.976562 C 214.6875 175.96875 213.996094 174.960938 213.304688 173.953125 C 213.117188 173.703125 212.992188 173.511719 212.800781 173.261719 C 215.632812 169.039062 217.957031 164.378906 219.339844 159.464844 C 220.789062 154.300781 221.289062 149.011719 220.976562 143.65625 C 220.535156 135.34375 218.273438 126.714844 212.613281 120.539062 Z M 212.613281 120.539062 " fill-opacity="1" fill-rule="evenodd"/><path fill="#000000" d="M 202.609375 164.953125 C 201.730469 164.574219 200.914062 164.007812 200.347656 163.191406 C 200.160156 162.875 200.097656 162.621094 200.160156 162.371094 C 200.222656 162.054688 200.347656 161.804688 200.597656 161.613281 C 200.851562 161.425781 201.164062 161.363281 201.417969 161.425781 C 201.667969 161.425781 201.917969 161.550781 202.109375 161.867188 L 202.171875 161.929688 C 202.484375 162.371094 202.988281 162.75 203.492188 163 C 203.996094 163.253906 204.496094 163.378906 205.125 163.316406 C 206.195312 163.191406 206.949219 162.558594 207.765625 161.804688 C 207.890625 161.679688 207.957031 161.613281 208.082031 161.488281 C 208.144531 161.363281 208.207031 161.300781 208.332031 161.300781 C 208.457031 161.238281 208.585938 161.238281 208.648438 161.300781 C 208.773438 161.363281 208.835938 161.425781 208.898438 161.488281 C 208.960938 161.550781 209.023438 161.679688 208.960938 161.804688 C 208.898438 162.621094 208.457031 163.378906 207.890625 164.007812 C 207.199219 164.636719 206.320312 165.078125 205.441406 165.269531 C 204.496094 165.394531 203.492188 165.269531 202.609375 164.953125 Z M 205.878906 152.042969 C 206.886719 152.671875 208.394531 154.058594 207.328125 155.566406 C 206.070312 156.890625 204.246094 155.378906 203.304688 154.6875 C 202.484375 154.183594 201.542969 155.566406 202.296875 156.199219 C 208.835938 161.046875 211.476562 152.230469 206.320312 151.347656 C 205.816406 151.285156 205.566406 151.851562 205.878906 152.042969 Z M 194.1875 146.433594 C 194.3125 145.050781 196.386719 144.734375 196.574219 146.121094 C 196.765625 147.316406 196.511719 148.449219 196.007812 149.585938 C 195.507812 150.65625 194.1875 150.152344 194.058594 149.207031 C 193.933594 147.882812 194.125 147.316406 194.1875 146.433594 Z M 210.15625 145.867188 C 210.46875 145.492188 210.847656 145.238281 211.351562 145.363281 C 212.921875 145.804688 212.480469 148.074219 211.917969 149.144531 C 211.601562 149.710938 210.660156 149.898438 210.21875 149.394531 C 209.464844 148.515625 209.148438 146.8125 210.03125 145.996094 C 210.09375 145.929688 210.09375 145.867188 210.15625 145.867188 Z M 196.007812 140.386719 L 196.261719 140.324219 C 197.015625 140.199219 198.019531 140.074219 198.523438 140.703125 C 198.839844 141.019531 198.902344 141.648438 198.523438 141.964844 C 197.832031 142.53125 197.078125 142.277344 196.261719 142.339844 C 195.570312 142.402344 194.941406 142.46875 194.3125 142.65625 C 192.867188 143.035156 191.734375 143.789062 190.476562 144.609375 C 190.289062 144.734375 190.160156 144.484375 190.226562 144.355469 C 190.917969 142.972656 192.300781 141.835938 193.683594 141.144531 C 194.375 140.890625 195.191406 140.578125 196.007812 140.386719 Z M 208.710938 139.820312 L 208.898438 139.882812 C 210.972656 140.324219 213.675781 141.207031 214.683594 143.222656 C 214.746094 143.539062 214.683594 143.601562 214.621094 143.601562 C 214.621094 143.664062 214.558594 143.664062 214.429688 143.726562 C 214.367188 143.726562 214.367188 143.726562 214.304688 143.726562 C 213.867188 143.601562 213.488281 143.476562 213.175781 143.285156 L 212.796875 143.035156 C 212.355469 142.84375 211.917969 142.59375 211.476562 142.46875 C 210.46875 142.152344 209.464844 141.898438 208.457031 141.773438 C 208.207031 141.773438 208.019531 141.648438 207.828125 141.523438 C 207.640625 141.394531 207.515625 141.207031 207.515625 141.019531 C 207.453125 140.703125 207.453125 140.515625 207.640625 140.261719 C 207.765625 140.074219 207.957031 139.949219 208.144531 139.820312 C 208.269531 139.757812 208.457031 139.757812 208.710938 139.820312 Z M 208.710938 139.820312 " fill-opacity="1" fill-rule="evenodd"/><path fill="#000000" d="M 217.726562 152.875 C 216.089844 154.574219 213.449219 155.015625 211.25 154.132812 C 205.714844 151.804688 208.417969 144.625 212.695312 142.671875 C 213.199219 142.546875 213.953125 142.230469 214.582031 142.167969 C 214.644531 142.167969 214.769531 142.230469 214.894531 142.167969 C 219.609375 142.671875 220.679688 149.976562 217.726562 152.875 M 199.996094 153.316406 C 198.171875 155.710938 194.839844 156.464844 192.070312 155.332031 C 186.601562 153.191406 188.550781 146.828125 192.261719 144.308594 C 200.121094 141.347656 203.328125 148.90625 199.996094 153.316406 M 188.238281 147.960938 C 188.175781 147.960938 188.175781 147.960938 188.238281 147.960938 C 188.238281 147.960938 188.300781 147.960938 188.300781 147.898438 C 188.300781 147.960938 188.238281 147.960938 188.238281 147.960938 C 188.238281 148.023438 188.238281 147.960938 188.238281 147.960938 M 221.496094 145.378906 C 221.058594 145.378906 220.429688 145.441406 220.050781 145.757812 C 219.171875 142.671875 215.839844 139.898438 212.882812 141.914062 C 210.621094 142.671875 208.921875 144.308594 207.917969 146.449219 C 206.15625 145.441406 203.453125 145.882812 201.945312 147.207031 C 200.9375 143.929688 198.546875 142.796875 195.65625 142.609375 C 192.511719 142.105469 189.367188 145.191406 188.363281 147.648438 C 187.546875 147.585938 186.351562 147.269531 185.535156 147.773438 C 180.566406 146.449219 171.828125 145.757812 170.820312 146.449219 C 170.128906 146.703125 169.6875 148.464844 170.695312 148.527344 C 171.574219 148.402344 170.570312 147.269531 171.449219 147.144531 C 176.164062 146.828125 180.753906 147.773438 185.40625 148.214844 C 185.847656 148.78125 187.167969 148.96875 187.859375 148.71875 C 186.855469 153 189.304688 155.835938 192.953125 156.71875 C 198.609375 158.039062 203.578125 152.9375 202.070312 147.648438 C 203.765625 146.765625 205.777344 146.828125 207.601562 147.269531 C 204.457031 158.796875 223.007812 158.292969 220.113281 146.136719 C 222.0625 147.144531 222.503906 145.570312 221.496094 145.378906 " fill-opacity="1" fill-rule="evenodd"/></svg>