<svg xmlns="http://www.w3.org/2000/svg" xmlns:xlink="http://www.w3.org/1999/xlink" width="500" zoomAndPan="magnify" viewBox="0 0 375 374.999991" height="500" preserveAspectRatio="xMidYMid meet" version="1.0"><defs><clipPath id="c03d887b96"><path d="M 137 168 L 238 168 L 238 262.5 L 137 262.5 Z M 137 168 " clip-rule="nonzero"/></clipPath><clipPath id="9bdb786dab"><path d="M 161 112.5 L 219 112.5 L 219 178 L 161 178 Z M 161 112.5 " clip-rule="nonzero"/></clipPath></defs><g clip-path="url(#c03d887b96)"><path fill="#ffffff" d="M 184.871094 171.445312 C 188.09375 168.976562 196.214844 167.863281 199.683594 170.273438 C 203.09375 172.621094 203.464844 176.511719 205.074219 180.03125 C 206.5625 179.351562 209.042969 180.339844 209.476562 181.695312 C 210.035156 182.375 210.035156 184.167969 210.40625 185.09375 C 226.582031 187.6875 229 200.222656 230.980469 214.488281 C 233.585938 228.9375 239.410156 243.386719 236.871094 258.269531 C 237.179688 258.761719 237.488281 259.195312 237.675781 259.75 C 238.234375 260.738281 237.488281 262.097656 236.375 262.035156 C 234.886719 261.914062 233.398438 261.726562 231.847656 261.664062 C 227.632812 261.542969 223.421875 261.542969 219.269531 261.605469 L 218.710938 261.605469 C 197.578125 261.851562 176.378906 262.40625 155.246094 262.53125 C 154.503906 262.53125 154.132812 261.851562 154.191406 261.171875 C 154.378906 259.8125 154.566406 258.453125 154.8125 257.097656 C 149.792969 258.390625 144.464844 258.761719 139.503906 257.21875 C 139.132812 256.847656 140.308594 257.035156 140.496094 256.972656 C 135.910156 253.824219 137.273438 247.277344 137.707031 242.523438 C 140.25 226.28125 141.117188 208.25 150.910156 194.355469 C 154.9375 188.675781 161.195312 184.230469 168.261719 183.179688 L 168.449219 183.179688 C 170.554688 182.933594 172.847656 182.808594 174.644531 181.695312 C 176.691406 180.089844 177.558594 177.066406 179.726562 177.003906 C 180.410156 177.003906 181.402344 177.867188 182.453125 178.484375 C 182.515625 177.128906 183.261719 176.015625 183.445312 174.964844 L 183.445312 174.90625 C 183.632812 173.667969 183.445312 172.621094 184.871094 171.445312 Z M 219.578125 214.859375 C 215.054688 211.707031 203.277344 213.3125 203.03125 213.5 C 202.410156 213.871094 202.164062 213.929688 201.851562 214.425781 C 201.542969 214.488281 201.234375 214.488281 200.921875 214.550781 C 200.304688 214.734375 200.738281 215.535156 201.480469 215.226562 C 201.046875 217.140625 202.347656 218.4375 202.84375 220.355469 C 203.03125 220.972656 202.84375 222.019531 202.84375 222.699219 C 202.90625 223.503906 203.773438 224.429688 203.648438 225.230469 C 203.152344 228.074219 200.304688 230.789062 201.480469 233.507812 C 202.285156 235.050781 204.640625 235.851562 206.191406 236.347656 C 209.476562 237.582031 215.117188 236.285156 217.035156 233.507812 C 218.027344 232.023438 219.207031 228.257812 219.824219 227.085938 L 219.949219 225.230469 C 220.320312 220.539062 220.570312 215.535156 219.578125 214.859375 Z M 219.578125 214.859375 " fill-opacity="1" fill-rule="evenodd"/></g><path fill="#000000" d="M 178.984375 176.757812 C 179.292969 176.511719 179.789062 176.820312 179.542969 177.1875 C 179.109375 178.054688 178.613281 178.855469 178.054688 179.597656 C 177.683594 180.03125 177.308594 180.460938 176.875 180.894531 C 177.867188 181.757812 178.734375 182.871094 179.601562 183.859375 C 180.65625 185.15625 181.648438 186.515625 182.824219 187.6875 C 184.003906 188.859375 185.304688 189.664062 186.855469 190.21875 L 187.164062 190.34375 C 188.714844 190.898438 190.386719 191.640625 191.253906 193.121094 C 191.441406 193.429688 191.070312 193.800781 190.757812 193.613281 C 189.210938 192.6875 187.414062 192.503906 185.738281 191.886719 C 184.128906 191.269531 182.703125 190.34375 181.460938 189.167969 C 180.222656 187.996094 179.167969 186.636719 178.117188 185.339844 C 177.0625 184.042969 175.886719 182.933594 174.644531 181.820312 C 172.660156 183.117188 170.429688 183.671875 168.199219 184.289062 L 168.015625 184.230469 C 165.71875 184.785156 163.488281 185.464844 161.320312 186.390625 C 159.460938 187.253906 157.601562 188.304688 156.050781 189.664062 C 154.441406 191.144531 153.140625 193.058594 152.023438 194.910156 C 149.421875 199.050781 147.625 203.617188 146.011719 208.25 C 144.339844 213.066406 142.976562 217.945312 141.796875 222.886719 C 141.238281 225.417969 140.746094 227.949219 140.371094 230.480469 C 140.1875 231.714844 140 232.949219 139.875 234.1875 C 139.753906 235.484375 139.691406 236.839844 139.257812 238.136719 C 139.070312 238.695312 138.699219 238.878906 138.265625 238.878906 L 138.203125 239.929688 C 138.078125 241.289062 138.015625 242.707031 137.957031 244.128906 C 137.894531 246.472656 137.894531 248.757812 138.078125 251.105469 L 138.078125 251.414062 C 138.203125 253.082031 138.511719 254.996094 139.753906 256.230469 C 141.054688 257.527344 143.097656 257.898438 144.898438 257.960938 C 149.050781 258.023438 153.015625 256.046875 156.734375 254.316406 C 160.515625 252.527344 164.171875 250.613281 167.765625 248.449219 C 169.5625 247.339844 171.421875 246.226562 173.15625 245.117188 C 174.027344 244.558594 174.894531 244.003906 175.761719 243.386719 C 176.257812 243.078125 176.753906 242.707031 177.25 242.398438 C 177 242.152344 176.875 241.78125 177.125 241.472656 C 175.699219 240.238281 175.078125 237.953125 175.015625 236.160156 C 174.957031 234.679688 175.203125 233.257812 175.328125 231.777344 C 175.390625 231.035156 175.511719 230.296875 175.636719 229.554688 C 175.699219 229.246094 175.699219 228.9375 175.761719 228.628906 C 171.855469 230.789062 167.765625 232.703125 163.613281 234.371094 C 161.566406 235.359375 159.398438 236.160156 157.230469 236.839844 L 156.796875 236.964844 C 154.75 237.644531 152.582031 238.261719 150.472656 238.632812 C 150.351562 238.632812 150.289062 238.507812 150.414062 238.445312 C 152.519531 237.519531 154.628906 236.78125 156.796875 235.914062 L 157.167969 235.792969 C 157.105469 235.792969 157.105469 235.792969 157.042969 235.792969 C 155.804688 235.484375 154.566406 235.050781 153.386719 234.617188 C 152.273438 234.246094 150.96875 234.0625 149.917969 233.507812 C 149.855469 233.445312 149.855469 233.382812 149.980469 233.320312 C 151.15625 233.257812 152.457031 233.570312 153.636719 233.816406 L 154.070312 233.878906 C 154.8125 234 155.554688 234.125 156.300781 234.308594 C 156.300781 234.0625 156.484375 233.816406 156.671875 233.691406 C 158.78125 232.085938 158.59375 228.9375 158.839844 226.589844 L 159.027344 224.863281 C 159.335938 221.835938 159.648438 218.75 160.144531 215.722656 C 160.144531 215.535156 160.390625 215.597656 160.390625 215.785156 C 160.203125 219.550781 159.957031 223.257812 159.769531 227.023438 L 159.769531 227.640625 C 159.710938 229.925781 159.648438 232.332031 158.160156 234.125 C 158.34375 234 158.65625 234 158.78125 234.1875 C 158.964844 234.433594 159.089844 234.679688 159.089844 234.988281 C 160.390625 234.433594 161.691406 233.878906 163.054688 233.320312 C 167.269531 231.46875 171.359375 229.371094 175.390625 227.144531 C 175.824219 226.898438 176.257812 227.085938 176.441406 227.394531 C 177 227.085938 177.742188 227.332031 178.238281 227.765625 C 178.238281 227.765625 178.238281 227.765625 178.300781 227.824219 C 178.921875 227.578125 179.480469 227.207031 179.976562 226.714844 C 181.027344 225.726562 181.957031 224.550781 182.703125 223.378906 C 184.128906 221.21875 185.367188 218.75 187.351562 216.957031 C 188.960938 215.476562 190.882812 214.550781 192.988281 213.992188 C 192.988281 213.929688 192.988281 213.871094 193.050781 213.808594 C 193.175781 213.683594 193.238281 213.683594 193.363281 213.746094 L 193.546875 213.375 C 193.671875 213.191406 193.796875 213.003906 193.796875 212.945312 C 194.042969 212.632812 194.292969 212.386719 194.539062 212.078125 C 194.972656 211.585938 195.40625 211.089844 195.964844 210.78125 C 197.140625 210.042969 198.445312 210.472656 199.683594 210.84375 C 200.425781 211.089844 201.171875 211.339844 201.914062 211.585938 L 201.976562 211.585938 C 202.535156 211.769531 203.152344 211.894531 203.402344 212.511719 C 203.527344 212.757812 203.527344 213.003906 203.464844 213.191406 C 208.730469 211.832031 214.558594 212.449219 219.703125 214.054688 C 219.886719 214.117188 220.074219 214.300781 220.136719 214.488281 C 220.695312 217.511719 221.003906 220.601562 220.695312 223.625 C 220.445312 226.28125 219.886719 228.875 218.773438 231.285156 L 218.710938 231.40625 C 217.65625 233.628906 216.046875 236.410156 213.503906 237.089844 C 211.953125 237.519531 210.28125 237.273438 208.730469 237.210938 C 207.246094 237.148438 205.695312 237.148438 204.207031 236.902344 C 202.90625 236.71875 201.730469 236.101562 200.921875 235.050781 C 200.242188 234.125 199.871094 233.011719 199.558594 231.902344 C 199.4375 231.964844 199.3125 231.964844 199.125 232.023438 C 198.566406 232.273438 198.070312 232.640625 197.636719 233.011719 C 196.707031 233.9375 195.964844 234.988281 194.972656 235.851562 C 194.105469 236.65625 193.050781 237.210938 192 237.707031 C 189.765625 238.695312 187.351562 239.0625 184.996094 239.558594 L 184.808594 239.621094 C 183.011719 239.992188 181.214844 240.484375 179.601562 241.410156 C 179.601562 241.65625 179.417969 241.964844 179.230469 242.089844 C 179.480469 242.335938 179.601562 242.769531 179.355469 243.140625 C 178.671875 244.191406 177.496094 244.808594 176.441406 245.546875 L 176.378906 245.609375 C 175.328125 246.289062 174.273438 246.96875 173.21875 247.648438 C 171.050781 249.007812 168.882812 250.242188 166.648438 251.476562 C 163.054688 253.390625 159.460938 255.242188 155.742188 256.910156 C 155.992188 258.023438 155.867188 259.132812 156.050781 260.246094 L 156.050781 260.429688 C 156.113281 260.863281 156.050781 261.171875 155.742188 261.417969 C 155.679688 261.417969 155.679688 261.480469 155.617188 261.480469 L 155.554688 261.480469 C 155.308594 261.664062 154.9375 261.664062 154.628906 261.480469 L 154.503906 261.480469 C 154.132812 261.292969 153.882812 260.738281 154.007812 260.308594 C 154.378906 259.257812 154.503906 258.207031 154.875 257.15625 L 154.628906 257.28125 L 154.253906 257.464844 C 150.351562 259.132812 146.011719 260.554688 141.734375 259.441406 C 139.875 258.949219 138.078125 257.835938 137.148438 256.109375 C 136.21875 254.378906 136.097656 252.402344 136.035156 250.488281 C 135.972656 248.140625 136.097656 245.734375 136.40625 243.386719 C 136.59375 241.78125 136.839844 240.238281 137.273438 238.632812 C 137.085938 238.445312 136.902344 238.199219 136.902344 237.890625 C 136.714844 236.410156 137.027344 234.863281 137.210938 233.382812 C 137.398438 231.964844 137.644531 230.480469 137.832031 229.0625 C 138.328125 226.160156 138.886719 223.257812 139.566406 220.414062 C 140.746094 215.289062 142.292969 210.289062 144.152344 205.410156 L 144.339844 204.976562 C 146.074219 200.46875 148.058594 196.148438 150.847656 192.195312 C 152.210938 190.34375 153.574219 188.613281 155.496094 187.253906 C 157.230469 185.957031 159.273438 185.09375 161.320312 184.351562 C 163.367188 183.671875 165.472656 183.179688 167.640625 182.871094 C 169.8125 182.5625 172.105469 182.375 174.148438 181.511719 C 173.902344 181.078125 174.085938 180.402344 174.519531 180.152344 C 176.320312 179.164062 177.683594 177.867188 178.984375 176.757812 Z M 225.714844 218.5 C 225.777344 218.4375 225.898438 218.4375 225.898438 218.5625 C 225.21875 221.464844 224.535156 224.367188 224.101562 227.332031 C 223.296875 232.640625 223.480469 238.078125 223.542969 243.449219 L 223.542969 243.695312 C 223.605469 246.597656 223.605469 249.5 223.730469 252.402344 C 223.792969 253.882812 223.855469 255.367188 223.792969 256.785156 C 223.792969 257.589844 223.542969 258.332031 223.480469 259.132812 C 223.421875 259.8125 223.480469 260.492188 223.480469 261.171875 C 223.480469 261.605469 222.800781 261.605469 222.800781 261.171875 L 222.738281 260.617188 C 222.675781 259.875 222.550781 259.195312 222.304688 258.515625 C 221.996094 257.714844 221.871094 256.910156 221.808594 256.046875 C 221.683594 254.75 221.5625 253.390625 221.5625 252.03125 L 221.5 251.105469 C 221.25 245.546875 221.25 239.929688 221.683594 234.371094 L 221.683594 234 C 222.058594 228.691406 222.738281 223.007812 225.714844 218.5 Z M 210.589844 185.339844 C 210.40625 185.277344 210.46875 184.96875 210.652344 185.03125 L 211.023438 185.09375 C 213.753906 185.773438 216.417969 186.453125 219.019531 187.6875 C 221.5625 188.921875 223.730469 190.714844 225.464844 192.9375 C 228.8125 197.257812 230.175781 202.570312 231.292969 207.816406 C 232.53125 213.683594 233.644531 219.550781 234.824219 225.417969 L 235.070312 226.527344 C 236.1875 231.964844 237.304688 237.457031 238.046875 242.953125 L 238.109375 243.324219 C 238.914062 249.007812 239.410156 254.871094 238.542969 260.554688 C 238.355469 261.664062 236.496094 261.417969 236.558594 260.308594 C 236.746094 257.097656 236.929688 253.882812 236.808594 250.671875 C 236.683594 247.460938 236.375 244.25 235.878906 241.039062 C 235.503906 238.324219 234.949219 235.730469 234.453125 233.011719 L 234.390625 232.582031 C 233.957031 230.296875 233.523438 228.074219 233.089844 225.789062 L 232.46875 222.390625 C 231.476562 217.328125 230.484375 212.203125 229.371094 207.199219 L 229.308594 206.890625 C 228.191406 202.011719 226.582031 196.949219 223.359375 193.121094 C 220.011719 189.230469 215.238281 187.253906 210.589844 185.339844 Z M 198.507812 236.839844 C 198.566406 236.65625 198.878906 236.65625 198.941406 236.839844 C 199.25 237.457031 199.3125 238.261719 199.375 238.941406 L 199.375 239.003906 C 199.4375 239.867188 199.496094 240.730469 199.558594 241.597656 C 199.621094 243.203125 199.683594 244.867188 199.683594 246.472656 C 199.683594 248.140625 199.621094 249.808594 199.558594 251.476562 L 199.558594 251.910156 C 199.496094 253.328125 199.3125 254.996094 198.628906 256.230469 C 198.382812 256.664062 197.699219 256.539062 197.578125 256.109375 C 197.082031 254.5625 197.328125 252.773438 197.453125 251.230469 L 197.578125 249.996094 C 197.699219 248.757812 197.761719 247.585938 197.824219 246.351562 C 197.949219 244.683594 198.011719 243.015625 198.070312 241.347656 C 198.070312 240.792969 198.132812 240.238281 198.132812 239.742188 L 198.195312 238.941406 C 198.257812 238.199219 198.257812 237.457031 198.507812 236.839844 Z M 145.082031 239.003906 L 145.269531 238.816406 C 145.886719 238.199219 146.757812 237.210938 147.6875 237.273438 C 148.058594 237.273438 148.304688 237.582031 148.242188 238.015625 C 148.058594 238.816406 147.25 239.25 146.695312 239.742188 C 146.074219 240.300781 145.453125 240.855469 144.835938 241.410156 C 144.277344 241.90625 143.78125 242.460938 143.285156 243.015625 L 143.097656 243.203125 C 142.914062 243.386719 141.613281 244.558594 141.796875 244.867188 C 141.859375 244.929688 141.796875 244.992188 141.734375 244.992188 C 141.179688 244.808594 141.238281 244.3125 141.425781 243.882812 C 141.859375 242.953125 142.542969 242.089844 143.160156 241.289062 C 143.71875 240.421875 144.339844 239.683594 145.082031 239.003906 Z M 200.550781 215.785156 C 200.117188 214.796875 198.507812 214.796875 197.636719 214.859375 C 195.34375 214.980469 192.929688 215.597656 190.882812 216.648438 C 188.777344 217.761719 187.414062 219.488281 186.109375 221.402344 L 186.050781 221.464844 C 184.808594 223.378906 183.632812 225.601562 181.710938 226.898438 C 180.71875 227.578125 179.601562 228.195312 178.425781 228.441406 C 178.363281 228.566406 178.238281 228.691406 178.054688 228.75 L 177.992188 228.75 C 177.683594 228.8125 177.125 228.9375 176.691406 228.875 C 176.691406 229.121094 176.691406 229.308594 176.691406 229.554688 C 176.691406 230.171875 176.691406 230.789062 176.691406 231.34375 C 176.691406 232.582031 176.628906 233.878906 176.691406 235.113281 C 176.753906 236.222656 176.875 237.398438 177.433594 238.386719 C 177.804688 239.125 178.363281 239.621094 178.984375 240.050781 C 180.53125 239.125 182.269531 238.570312 184.066406 238.136719 C 186.234375 237.644531 188.402344 237.273438 190.511719 236.59375 C 191.503906 236.285156 192.496094 235.792969 193.363281 235.234375 C 194.292969 234.617188 195.035156 233.753906 195.71875 232.890625 L 195.839844 232.765625 C 196.585938 231.902344 197.390625 231.097656 198.445312 230.605469 C 199.375 230.234375 200.550781 230.109375 201.355469 229.492188 C 201.789062 229.183594 201.789062 228.691406 201.851562 228.195312 C 201.355469 228.257812 200.800781 228.132812 200.304688 228.074219 L 200.054688 228.074219 C 199.558594 228.011719 199.125 227.949219 198.628906 227.824219 C 198.566406 227.824219 198.566406 227.640625 198.628906 227.640625 C 199.1875 227.515625 199.746094 227.453125 200.304688 227.394531 L 200.425781 227.394531 C 200.921875 227.332031 201.480469 227.207031 201.976562 227.332031 C 202.039062 226.960938 202.222656 226.652344 202.410156 226.34375 C 202.660156 225.847656 203.152344 225.355469 203.214844 224.800781 C 203.214844 224.613281 203.214844 224.429688 203.09375 224.304688 L 203.09375 224.242188 C 203.03125 224.183594 203.03125 224.121094 202.96875 224.121094 C 202.96875 224.121094 202.96875 224.121094 202.90625 224.121094 C 202.535156 224.242188 202.164062 224.058594 201.976562 223.75 C 201.171875 223.875 200.367188 223.875 199.621094 223.875 L 198.878906 223.933594 C 198.070312 223.996094 197.265625 223.996094 196.585938 223.8125 C 196.460938 223.8125 196.460938 223.625 196.585938 223.566406 C 197.515625 223.195312 198.566406 223.070312 199.558594 222.886719 C 200.117188 222.824219 200.613281 222.761719 201.171875 222.636719 C 201.542969 222.578125 201.914062 222.515625 202.285156 222.515625 C 203.214844 221.339844 202.71875 219.550781 201.417969 219.058594 C 200.921875 219.242188 200.550781 219.117188 199.992188 219.117188 C 199.496094 219.058594 198.941406 219.058594 198.445312 219.058594 C 197.390625 219.058594 196.335938 219.304688 195.285156 219.242188 C 195.097656 219.242188 194.972656 218.996094 195.097656 218.871094 C 195.902344 218.253906 197.019531 218.007812 198.011719 217.882812 L 198.195312 217.882812 C 198.507812 217.820312 198.941406 217.761719 199.375 217.761719 C 199.496094 217.574219 199.621094 217.453125 199.871094 217.390625 C 199.929688 217.390625 199.992188 217.390625 200.117188 217.390625 C 200.738281 217.265625 200.738281 216.214844 200.550781 215.785156 Z M 157.601562 235.542969 C 157.539062 235.605469 157.539062 235.605469 157.601562 235.542969 L 157.539062 235.605469 Z M 211.460938 213.5625 C 208.792969 213.253906 206.191406 213.3125 203.527344 213.4375 C 203.339844 214.117188 202.597656 214.734375 201.851562 214.734375 C 202.410156 215.597656 202.472656 216.710938 202.101562 217.636719 C 202.90625 217.945312 203.648438 218.5625 204.082031 219.425781 C 204.703125 220.601562 204.578125 221.898438 204.023438 223.007812 C 204.519531 223.441406 204.828125 224.242188 204.828125 224.921875 C 204.765625 225.726562 204.332031 226.40625 203.960938 227.023438 C 203.527344 227.703125 203.527344 228.320312 203.402344 229.121094 C 203.214844 230.296875 202.410156 230.976562 201.417969 231.40625 L 201.480469 231.59375 C 201.730469 232.582031 202.039062 233.628906 202.78125 234.371094 C 203.710938 235.296875 205.199219 235.296875 206.4375 235.359375 L 206.5 235.359375 C 207.679688 235.421875 208.792969 235.484375 209.972656 235.542969 L 210.777344 235.605469 C 212.078125 235.667969 213.378906 235.667969 214.433594 234.804688 C 216.167969 233.382812 217.410156 231.035156 218.152344 228.9375 C 219.765625 224.550781 219.765625 219.734375 219.019531 215.167969 C 216.664062 214.363281 214.0625 213.808594 211.460938 213.5625 Z M 189.519531 220.785156 C 190.078125 220.847656 190.449219 221.28125 190.574219 221.835938 C 190.757812 222.578125 190.695312 223.257812 191.132812 223.933594 C 191.625 224.613281 191.875 225.171875 192 226.097656 C 192 226.46875 192 226.835938 192.121094 227.144531 L 192.183594 227.394531 C 192.246094 227.640625 192.308594 227.886719 192.246094 228.195312 C 192.246094 228.441406 192.121094 228.628906 191.8125 228.75 C 190.945312 229 190.324219 228.382812 190.140625 227.640625 C 189.953125 226.960938 190.203125 226.160156 189.953125 225.539062 C 189.828125 225.171875 189.519531 224.921875 189.394531 224.550781 C 189.273438 224.183594 189.148438 223.8125 189.148438 223.441406 C 189.085938 222.699219 189.765625 221.835938 189.394531 221.21875 C 189.273438 221.03125 189.332031 220.785156 189.519531 220.785156 Z M 178.363281 213.375 C 178.921875 213.253906 179.601562 213.003906 180.160156 213.191406 C 180.472656 213.3125 180.59375 213.621094 180.347656 213.871094 C 179.914062 214.300781 179.292969 214.300781 178.734375 214.425781 L 178.671875 214.425781 C 177.992188 214.550781 177.308594 214.671875 176.628906 214.796875 C 175.390625 214.980469 174.085938 215.167969 172.785156 215.351562 C 171.484375 215.535156 170.183594 215.660156 168.820312 215.785156 L 168.386719 215.847656 C 167.269531 215.90625 166.09375 216.03125 165.039062 215.847656 C 164.851562 215.847656 164.914062 215.597656 165.039062 215.535156 C 166.214844 215.167969 167.519531 215.105469 168.757812 214.917969 C 170.058594 214.734375 171.359375 214.609375 172.660156 214.363281 C 173.964844 214.179688 175.265625 213.929688 176.566406 213.683594 C 177.1875 213.621094 177.804688 213.5 178.363281 213.375 Z M 198.878906 212.265625 C 198.382812 212.078125 197.824219 211.832031 197.265625 211.894531 C 196.335938 212.015625 195.53125 212.945312 194.789062 213.5625 L 195.160156 213.5 C 197.082031 213.128906 199.558594 212.757812 201.171875 213.929688 C 201.296875 213.746094 201.417969 213.5625 201.605469 213.4375 C 201.605469 213.4375 201.605469 213.4375 201.667969 213.375 L 201.730469 213.253906 L 201.542969 213.191406 C 201.109375 213.066406 200.613281 212.820312 200.550781 212.820312 C 199.992188 212.632812 199.4375 212.449219 198.878906 212.265625 Z M 183.320312 172.679688 C 183.261719 171.695312 184.808594 171.695312 184.871094 172.679688 C 185.058594 174.84375 184.5625 177.003906 183.507812 178.855469 C 183.507812 178.855469 183.507812 178.855469 183.507812 178.917969 C 184.191406 179.289062 184.808594 179.597656 185.492188 179.90625 C 186.359375 180.277344 187.226562 180.648438 188.15625 180.894531 C 188.960938 181.140625 189.953125 181.265625 190.636719 181.820312 C 192.058594 182.992188 191.566406 185.339844 191.253906 186.882812 L 191.191406 187.132812 C 191.070312 187.933594 190.945312 188.738281 191.316406 189.476562 C 191.6875 190.28125 192.371094 190.898438 193.050781 191.453125 L 193.175781 191.578125 C 193.734375 192.070312 194.414062 192.75 194.847656 193.429688 C 195.222656 192.628906 195.777344 192.007812 196.335938 191.269531 C 196.707031 190.773438 196.460938 190.589844 196.152344 190.09375 C 195.902344 189.601562 195.71875 189.105469 195.839844 188.550781 C 196.027344 187.5 196.832031 186.761719 197.636719 186.203125 C 198.628906 185.527344 199.683594 185.03125 200.675781 184.414062 C 202.71875 183.179688 204.765625 181.695312 206.5625 180.089844 C 206.625 180.03125 206.6875 180.089844 206.6875 180.152344 C 205.261719 182.316406 203.589844 184.167969 201.542969 185.773438 C 200.738281 186.390625 199.808594 186.945312 198.941406 187.5 L 198.691406 187.6875 C 198.320312 187.933594 197.886719 188.242188 197.761719 188.613281 C 197.578125 188.984375 197.949219 189.292969 198.132812 189.601562 C 198.691406 190.652344 198.445312 191.578125 197.761719 192.441406 L 197.699219 192.503906 C 197.019531 193.367188 196.460938 194.171875 196.214844 195.222656 C 195.59375 197.628906 196.335938 200.097656 197.140625 202.261719 L 197.203125 202.320312 C 197.636719 203.496094 198.070312 204.667969 198.445312 205.902344 L 198.566406 206.210938 C 198.878906 207.324219 199.1875 208.4375 198.816406 209.546875 C 198.691406 209.917969 198.132812 210.042969 197.949219 209.671875 C 197.203125 208.375 196.957031 206.828125 196.523438 205.410156 C 196.027344 204.050781 195.53125 202.691406 195.035156 201.335938 C 194.476562 199.542969 194.042969 197.628906 194.292969 195.777344 C 194.292969 195.777344 194.292969 195.777344 194.292969 195.714844 L 194.042969 195.46875 C 193.609375 194.601562 193.238281 193.800781 192.496094 193.121094 C 191.75 192.378906 190.882812 191.761719 190.261719 190.835938 C 188.960938 188.921875 189.765625 186.761719 189.890625 184.660156 L 189.890625 184.414062 C 189.890625 183.980469 189.953125 183.363281 189.644531 183.054688 C 189.332031 182.683594 188.589844 182.625 188.15625 182.5 C 187.039062 182.128906 185.925781 181.636719 184.933594 181.078125 C 183.941406 180.585938 183.011719 179.96875 182.082031 179.289062 L 181.648438 178.917969 C 180.90625 178.363281 180.222656 177.808594 179.726562 177.066406 C 179.664062 177.003906 179.789062 176.820312 179.851562 176.878906 C 180.65625 177.1875 181.402344 177.746094 182.144531 178.175781 C 182.144531 178.175781 182.144531 178.117188 182.207031 178.117188 C 183.074219 176.449219 183.445312 174.597656 183.320312 172.679688 Z M 208.855469 184.105469 C 209.164062 183.242188 210.652344 183.300781 210.589844 184.351562 C 210.53125 185.15625 210.21875 185.835938 209.910156 186.574219 L 209.847656 186.636719 C 209.539062 187.378906 209.164062 188.121094 208.730469 188.796875 C 207.863281 190.09375 206.871094 191.332031 205.820312 192.503906 C 204.890625 193.554688 203.589844 194.171875 202.164062 194.109375 C 201.542969 194.046875 200.921875 193.925781 200.425781 193.613281 C 199.808594 193.246094 199.125 192.195312 198.320312 192.441406 C 198.257812 192.441406 198.195312 192.378906 198.257812 192.320312 C 199.1875 191.578125 200.242188 192.75 201.171875 192.996094 C 202.535156 193.429688 203.898438 192.9375 204.765625 191.886719 C 205.695312 190.773438 206.5 189.476562 207.246094 188.242188 C 207.617188 187.625 207.988281 186.945312 208.296875 186.265625 C 208.546875 185.527344 208.609375 184.785156 208.855469 184.105469 Z M 206.6875 178.792969 C 206.625 178.671875 206.8125 178.546875 206.871094 178.609375 C 207.492188 178.980469 207.988281 179.535156 208.609375 179.96875 C 209.226562 180.460938 209.847656 180.957031 210.53125 181.449219 C 211.460938 182.191406 210.40625 183.488281 209.539062 182.683594 C 208.421875 181.695312 207.183594 180.277344 206.6875 178.792969 Z M 203.277344 174.535156 C 203.527344 173.546875 205.011719 173.976562 204.765625 174.90625 C 204.332031 176.449219 204.953125 178.054688 206.191406 179.105469 L 206.253906 179.164062 C 207.058594 179.78125 205.941406 180.894531 205.136719 180.277344 C 203.464844 178.917969 202.78125 176.632812 203.277344 174.535156 Z M 203.277344 174.535156 " fill-opacity="1" fill-rule="evenodd"/><path fill="#ffffff" d="M 216.128906 144.023438 C 215.632812 140.132812 214.085938 136.058594 212.472656 132.476562 C 208.878906 124.878906 200.574219 123.828125 193.199219 122.222656 C 185.886719 121.175781 178.136719 120.1875 170.949219 122.347656 C 166.921875 123.335938 165.308594 128.152344 165.929688 131.917969 C 166.300781 134.265625 167.355469 136.488281 168.285156 138.710938 C 170.144531 143.21875 171.257812 148.035156 171.257812 152.914062 C 171.136719 156.125 170.699219 159.707031 174.359375 161.066406 C 177.890625 162.734375 178.199219 167.425781 182.601562 170.144531 C 184.398438 173.726562 189.171875 174.035156 192.640625 174.835938 C 194.808594 175.269531 197.039062 175.578125 199.273438 175.761719 C 205.71875 176.566406 210.863281 174.714844 214.207031 169.03125 C 216.4375 165.574219 218.113281 161.558594 217.742188 157.300781 C 217.308594 152.851562 216.625 148.46875 216.128906 144.023438 Z M 216.128906 144.023438 " fill-opacity="1" fill-rule="evenodd"/><g clip-path="url(#9bdb786dab)"><path fill="#000000" d="M 193.261719 112.960938 C 193.632812 112.53125 194.191406 112.714844 194.5625 113.023438 C 194.808594 113.085938 194.996094 113.207031 195.179688 113.332031 C 195.617188 113.269531 196.109375 113.269531 196.605469 113.269531 C 196.730469 113.207031 196.855469 113.148438 196.980469 113.085938 C 197.910156 112.777344 198.714844 112.898438 199.394531 113.394531 C 199.707031 113.085938 200.140625 112.898438 200.636719 112.898438 C 201.070312 112.898438 201.441406 113.148438 201.6875 113.457031 C 202 113.023438 202.433594 112.777344 202.992188 112.714844 C 203.796875 112.652344 204.539062 112.960938 205.160156 113.457031 C 205.53125 113.023438 206.027344 112.777344 206.585938 112.777344 C 206.957031 112.714844 207.328125 112.714844 207.699219 112.839844 C 208.195312 112.960938 208.628906 113.269531 209.003906 113.640625 C 209.558594 113.085938 210.242188 112.714844 211.046875 112.777344 C 212.101562 112.839844 212.90625 113.578125 213.339844 114.566406 C 214.023438 114.875 214.703125 115.246094 215.199219 115.800781 C 215.199219 115.800781 215.261719 115.863281 215.261719 115.925781 C 215.570312 116.050781 215.820312 116.171875 216.066406 116.359375 C 216.8125 116.976562 216.996094 117.902344 216.75 118.828125 C 216.8125 118.953125 216.8125 119.136719 216.8125 119.261719 C 217.554688 119.382812 218.175781 119.753906 218.546875 120.433594 C 219.042969 121.359375 218.980469 122.53125 218.421875 123.460938 C 218.175781 123.828125 217.863281 124.136719 217.554688 124.449219 C 217.925781 125.3125 217.742188 126.363281 217.121094 127.039062 C 216.996094 127.289062 216.8125 127.472656 216.5625 127.71875 C 216.8125 128.585938 216.378906 129.511719 215.570312 130.003906 L 215.511719 130.191406 C 215.511719 130.191406 215.511719 130.253906 215.449219 130.253906 C 215.449219 130.3125 215.449219 130.3125 215.449219 130.375 C 215.449219 130.683594 215.324219 130.992188 215.136719 131.300781 C 214.703125 131.917969 214.207031 132.289062 213.898438 132.96875 L 213.898438 133.03125 C 213.773438 133.339844 213.402344 133.585938 213.09375 133.464844 C 214.890625 137.230469 215.882812 141.367188 216.5625 145.441406 C 216.875 147.480469 217.121094 149.519531 217.367188 151.554688 L 217.554688 153.59375 C 217.742188 155.386719 217.863281 157.238281 217.863281 159.027344 C 217.863281 163.164062 216.6875 167.117188 214.144531 170.390625 C 211.730469 173.476562 208.382812 175.699219 204.539062 176.628906 C 200.574219 177.554688 195.925781 177.183594 192.394531 175.082031 C 191.339844 174.464844 192.269531 172.984375 193.324219 173.476562 C 195.367188 174.40625 197.414062 175.082031 199.644531 175.269531 C 201.8125 175.390625 203.980469 175.144531 206.089844 174.464844 C 209.5 173.230469 212.410156 170.761719 214.269531 167.671875 C 215.199219 166.191406 215.882812 164.523438 216.191406 162.796875 C 216.625 160.632812 216.5625 158.410156 216.378906 156.1875 L 216.378906 156.0625 C 216.066406 151.863281 215.632812 147.605469 214.953125 143.40625 C 214.332031 139.699219 213.402344 136.117188 212.226562 132.535156 C 211.730469 132.105469 211.234375 131.796875 210.675781 131.546875 C 206.523438 131.363281 202.371094 131.425781 198.28125 131.734375 C 194.746094 131.980469 191.214844 132.414062 187.746094 132.96875 L 187.371094 133.09375 C 186.628906 133.214844 185.761719 133.277344 185.015625 133.585938 C 184.398438 133.832031 184.148438 134.390625 183.964844 135.007812 C 183.59375 136.613281 183.53125 138.339844 183.46875 139.945312 C 183.40625 141.550781 183.53125 143.15625 183.40625 144.761719 C 183.34375 146.058594 182.972656 147.417969 181.980469 148.40625 C 181.484375 148.902344 180.804688 149.210938 180.246094 149.582031 C 179.875 149.828125 179.6875 150.074219 179.75 150.566406 C 179.875 151.554688 180.679688 152.851562 179.75 153.65625 C 179.5625 153.78125 179.316406 153.839844 179.128906 153.65625 C 178.757812 153.222656 178.261719 152.914062 177.765625 152.605469 C 177.582031 152.484375 177.703125 152.234375 177.953125 152.296875 C 178.199219 152.421875 178.511719 152.542969 178.820312 152.667969 C 178.199219 152.171875 177.269531 151.863281 176.527344 151.742188 C 176.15625 151.679688 175.722656 151.617188 175.347656 151.679688 C 175.039062 151.804688 174.730469 151.925781 174.480469 152.050781 C 174.109375 152.234375 173.738281 152.359375 173.304688 152.484375 C 171.941406 153.59375 171.320312 155.324219 171.570312 157.113281 C 171.691406 158.101562 172.1875 159.089844 172.996094 159.644531 C 173.984375 160.324219 175.289062 160.015625 176.402344 160.511719 C 177.394531 160.941406 178.015625 161.929688 178.449219 162.855469 L 178.632812 163.226562 C 179.066406 164.09375 179.5 164.957031 180.058594 165.757812 C 180.742188 166.683594 181.546875 167.550781 182.476562 168.230469 C 182.910156 168.601562 183.34375 168.910156 183.839844 169.15625 L 183.964844 169.21875 C 184.460938 169.527344 184.769531 169.773438 184.832031 170.390625 C 184.832031 170.574219 184.707031 170.761719 184.523438 170.882812 C 183.777344 171.378906 183.035156 170.761719 182.476562 170.390625 C 181.792969 169.957031 181.175781 169.464844 180.617188 168.910156 C 179.5 167.921875 178.570312 166.683594 177.828125 165.386719 C 177.269531 164.402344 176.960938 162.980469 176.03125 162.238281 C 175.472656 161.746094 174.730469 161.746094 174.046875 161.683594 C 173.429688 161.621094 172.808594 161.5 172.25 161.191406 C 169.957031 159.953125 169.335938 156.867188 169.894531 154.519531 C 169.957031 154.148438 170.144531 153.71875 170.265625 153.347656 C 169.398438 153.46875 168.46875 152.605469 168.78125 151.742188 C 168.78125 151.679688 168.84375 151.617188 168.84375 151.554688 C 168.285156 151.1875 167.851562 150.628906 167.601562 149.890625 C 167.476562 149.519531 167.476562 149.148438 167.539062 148.777344 C 167.292969 148.59375 167.042969 148.34375 166.921875 148.035156 C 166.488281 147.851562 166.054688 147.542969 165.804688 147.046875 C 165.496094 146.429688 165.496094 145.875 165.742188 145.382812 C 165.679688 145.320312 165.679688 145.257812 165.617188 145.195312 C 164.6875 144.640625 164.070312 143.589844 164.132812 142.480469 C 164.132812 142.109375 164.253906 141.800781 164.378906 141.492188 C 164.378906 141.429688 164.378906 141.429688 164.316406 141.367188 C 163.574219 140.996094 162.890625 140.316406 162.707031 139.453125 C 162.457031 138.589844 162.769531 137.722656 163.265625 137.042969 C 162.457031 136.488281 162.023438 135.6875 162.273438 134.449219 C 162.394531 133.957031 162.644531 133.523438 162.953125 133.15625 C 162.953125 133.15625 162.953125 133.15625 162.953125 133.09375 L 162.890625 133.03125 C 162.085938 132.476562 161.527344 131.488281 162.148438 130.3125 C 162.394531 129.757812 162.769531 129.386719 163.265625 129.140625 L 163.265625 129.078125 C 162.953125 128.398438 162.832031 127.660156 163.078125 126.855469 C 163.265625 126.175781 163.699219 125.683594 164.253906 125.3125 C 164.195312 125.003906 164.195312 124.695312 164.253906 124.386719 C 164.378906 123.828125 164.628906 123.335938 165.0625 122.964844 C 165.0625 122.902344 165.125 122.84375 165.125 122.71875 C 165.246094 122.285156 165.558594 121.792969 165.804688 121.421875 C 166.054688 121.113281 166.363281 120.988281 166.671875 120.988281 C 166.671875 120.679688 166.671875 120.433594 166.734375 120.125 C 166.921875 119.261719 167.476562 118.394531 168.347656 118.023438 C 168.71875 117.839844 169.027344 117.839844 169.398438 117.839844 C 169.710938 117.222656 170.265625 116.789062 171.011719 116.667969 C 171.320312 116.605469 171.570312 116.605469 171.816406 116.667969 C 171.941406 116.605469 172.066406 116.542969 172.25 116.480469 C 172.375 116.417969 172.4375 116.417969 172.558594 116.359375 C 172.871094 115.925781 173.304688 115.617188 173.863281 115.433594 C 174.417969 115.183594 175.039062 115.246094 175.597656 115.433594 L 175.78125 115.371094 C 176.03125 114.9375 176.464844 114.566406 177.148438 114.382812 C 177.890625 114.195312 178.632812 114.445312 179.191406 114.9375 C 179.5 114.257812 179.996094 113.765625 180.863281 113.824219 C 181.421875 113.824219 181.917969 114.136719 182.289062 114.503906 C 182.476562 114.503906 182.722656 114.445312 182.910156 114.445312 C 183.160156 114.195312 183.40625 113.949219 183.652344 113.703125 C 184.089844 113.332031 184.707031 113.394531 185.015625 113.886719 C 185.078125 114.011719 185.140625 114.136719 185.203125 114.195312 L 185.511719 114.195312 C 185.886719 113.703125 186.382812 113.394531 187 113.394531 C 187.621094 113.394531 188.054688 113.640625 188.363281 114.074219 C 188.613281 114.074219 188.921875 114.074219 189.171875 114.074219 C 189.417969 113.640625 189.789062 113.332031 190.222656 113.085938 C 190.535156 112.898438 191.027344 112.960938 191.277344 113.207031 C 191.464844 113.394531 191.648438 113.578125 191.773438 113.765625 C 192.144531 113.332031 192.703125 113.085938 193.261719 112.960938 Z M 173.984375 154.398438 C 174.605469 154.027344 175.410156 154.398438 176.03125 154.707031 C 176.773438 155.074219 177.457031 155.632812 177.890625 156.3125 C 178.511719 157.238281 177.085938 157.976562 176.464844 157.175781 C 176.09375 156.683594 175.78125 156.125 175.289062 155.695312 C 174.851562 155.261719 174.234375 154.953125 173.984375 154.398438 Z M 174.417969 131.980469 C 174.605469 131.488281 173.863281 131.238281 173.675781 131.734375 C 173.429688 132.476562 173.738281 133.214844 174.417969 133.523438 C 174.605469 133.585938 174.851562 133.585938 174.976562 133.402344 C 175.101562 133.214844 175.039062 132.96875 174.851562 132.84375 C 174.417969 132.660156 174.296875 132.351562 174.417969 131.980469 Z M 167.914062 130.621094 C 168.285156 130.3125 167.726562 129.757812 167.355469 130.066406 C 166.984375 130.375 166.734375 130.808594 166.796875 131.300781 C 166.859375 131.796875 167.230469 132.167969 167.664062 132.414062 C 168.097656 132.660156 168.46875 131.980469 168.035156 131.734375 L 167.972656 131.734375 C 167.789062 131.609375 167.601562 131.488281 167.539062 131.238281 C 167.539062 130.929688 167.726562 130.746094 167.914062 130.621094 Z M 170.019531 124.757812 C 170.453125 124.449219 170.082031 123.769531 169.648438 124.078125 C 169.277344 124.324219 168.964844 124.695312 168.902344 125.1875 C 168.84375 125.683594 169.089844 126.054688 169.398438 126.421875 C 169.769531 126.792969 170.328125 126.238281 169.957031 125.867188 C 169.710938 125.433594 169.648438 125.066406 170.019531 124.757812 Z M 170.019531 124.757812 " fill-opacity="1" fill-rule="evenodd"/></g><path fill="#000000" d="M 205.339844 164.285156 C 205.527344 163.914062 206.023438 163.605469 206.457031 163.667969 C 208.378906 163.914062 208.316406 166.199219 207.632812 167.496094 C 207.011719 168.667969 205.648438 169.347656 204.285156 169.285156 C 202.859375 169.164062 201.683594 168.359375 201.125 167.0625 C 200.753906 166.199219 200.628906 164.59375 201.558594 163.976562 C 201.558594 163.976562 201.621094 163.976562 201.621094 163.976562 C 202.054688 164.46875 202.054688 165.273438 202.488281 165.828125 C 202.800781 166.382812 203.417969 166.816406 204.039062 166.878906 C 204.535156 166.9375 205.03125 166.753906 205.214844 166.320312 C 205.339844 166.074219 205.339844 165.953125 205.277344 165.828125 L 205.277344 165.640625 C 205.152344 165.148438 205.09375 164.777344 205.339844 164.285156 Z M 205.898438 154.21875 C 206.890625 154.835938 208.378906 156.195312 207.324219 157.675781 C 206.082031 158.972656 204.285156 157.492188 203.355469 156.8125 C 202.550781 156.257812 201.621094 157.613281 202.367188 158.230469 C 208.8125 163.050781 211.414062 154.402344 206.394531 153.539062 C 205.835938 153.414062 205.589844 154.03125 205.898438 154.21875 Z M 195.425781 150.144531 C 196.042969 149.214844 197.40625 149.339844 197.777344 150.453125 C 197.964844 151.007812 197.71875 151.5625 197.71875 152.117188 C 197.71875 152.613281 197.71875 153.167969 197.53125 153.664062 C 197.160156 154.773438 196.230469 155.515625 195.050781 155.515625 C 193.875 155.453125 192.882812 154.773438 192.386719 153.722656 C 191.890625 152.675781 192.015625 151.625 192.386719 150.574219 C 192.386719 150.511719 192.449219 150.511719 192.511719 150.511719 C 192.945312 150.945312 193.253906 151.441406 193.566406 151.933594 L 193.875 152.425781 C 194.121094 152.796875 194.496094 153.292969 194.929688 153.292969 L 194.988281 153.292969 C 195.113281 153.292969 195.113281 153.292969 195.175781 153.105469 C 195.238281 153.046875 195.238281 152.859375 195.238281 152.796875 L 195.238281 152.738281 C 195.238281 152.675781 195.238281 152.613281 195.238281 152.425781 L 195.238281 152.367188 C 195.175781 151.6875 194.988281 150.761719 195.425781 150.144531 Z M 210.792969 150.761719 C 210.671875 149.585938 212.34375 149.339844 212.839844 150.203125 C 213.148438 150.636719 213.210938 151.191406 213.273438 151.75 L 213.273438 151.996094 C 213.335938 152.550781 213.335938 153.105469 213.148438 153.601562 C 212.777344 154.402344 211.972656 154.835938 211.105469 154.773438 C 210.234375 154.710938 209.492188 154.21875 209.121094 153.476562 C 208.75 152.796875 208.378906 151.5625 208.8125 150.820312 C 208.8125 150.761719 208.871094 150.761719 208.933594 150.820312 C 209.367188 151.191406 209.429688 151.871094 209.679688 152.304688 C 209.925781 152.796875 210.296875 153.292969 210.917969 153.355469 C 211.476562 153.414062 211.660156 153.105469 211.539062 152.613281 C 211.351562 151.933594 210.855469 151.5 210.792969 150.761719 Z M 195.859375 143.226562 L 196.105469 143.101562 C 197.035156 142.734375 198.273438 142.363281 199.019531 143.101562 C 199.453125 143.535156 199.578125 144.214844 199.265625 144.769531 C 198.894531 145.449219 198.152344 145.449219 197.46875 145.574219 C 196.664062 145.695312 195.859375 145.882812 195.175781 146.191406 C 194.371094 146.5625 193.566406 146.992188 192.820312 147.425781 C 192.140625 147.859375 191.394531 148.660156 190.527344 148.785156 C 190.464844 148.785156 190.464844 148.785156 190.464844 148.722656 C 190.28125 147.917969 190.835938 147.054688 191.273438 146.4375 C 191.828125 145.636719 192.574219 145.015625 193.316406 144.460938 C 194.121094 143.96875 194.988281 143.535156 195.859375 143.226562 Z M 212.53125 146.191406 L 212.589844 146.191406 C 213.148438 146.128906 213.644531 146.128906 214.078125 146.5625 C 214.386719 146.871094 214.511719 147.300781 214.386719 147.796875 C 214.265625 148.230469 213.953125 148.597656 213.460938 148.722656 C 211.910156 149.03125 210.234375 148.96875 208.6875 148.722656 C 208.003906 148.597656 207.261719 148.476562 206.578125 148.289062 L 206.269531 148.226562 C 205.710938 148.042969 205.03125 147.917969 204.597656 147.488281 C 204.472656 147.363281 204.535156 147.117188 204.71875 147.054688 C 205.464844 146.746094 206.457031 146.933594 207.261719 146.871094 C 208.191406 146.871094 209.058594 146.746094 209.988281 146.683594 C 210.792969 146.5625 211.660156 146.3125 212.53125 146.191406 Z M 212.53125 146.191406 " fill-opacity="1" fill-rule="evenodd"/><path fill="#000000" d="M 194.179688 167.632812 C 195.234375 165.164062 197.527344 163.3125 200.191406 162.695312 C 202.175781 162.199219 204.222656 162.199219 206.203125 162.386719 C 207.257812 162.507812 208.375 162.570312 209.363281 162.941406 C 210.234375 163.25 210.914062 163.867188 211.410156 164.609375 C 212.03125 165.472656 212.464844 166.460938 212.710938 167.511719 C 212.773438 167.632812 212.773438 167.820312 212.835938 167.941406 C 212.710938 168.683594 212.464844 169.363281 211.71875 169.859375 C 211.039062 170.351562 210.171875 170.535156 209.363281 170.597656 C 209.304688 170.535156 209.179688 170.535156 209.117188 170.476562 C 207.816406 169.734375 206.886719 168.003906 205.273438 168.253906 C 203.847656 168.4375 202.855469 170.289062 201.988281 171.339844 C 199.199219 171.648438 196.410156 170.84375 194.179688 169.238281 C 194.117188 168.746094 194.117188 168.191406 194.179688 167.632812 M 214.757812 165.78125 C 214.507812 165.164062 214.261719 164.546875 213.949219 163.992188 C 212.835938 162.136719 211.164062 160.59375 209.179688 159.792969 C 204.46875 157.753906 198.332031 159.175781 194.492188 162.507812 C 193.1875 163.621094 191.886719 165.289062 191.453125 167.078125 C 191.328125 167.078125 191.207031 167.140625 191.144531 167.265625 C 188.355469 165.535156 185.566406 163.867188 183.335938 161.460938 C 181.722656 159.730469 180.609375 157.628906 179.925781 155.40625 C 179.863281 155.222656 179.554688 155.222656 179.554688 155.46875 C 179.554688 155.53125 179.554688 155.59375 179.554688 155.59375 C 179.554688 155.53125 179.367188 155.53125 179.367188 155.65625 C 178.996094 158.433594 178.5625 161.335938 178.933594 164.113281 C 179.183594 165.78125 179.925781 166.957031 180.980469 168.3125 C 182.035156 169.734375 183.273438 171.03125 184.511719 172.265625 C 185.316406 173.070312 186.125 173.996094 187.117188 174.550781 C 188.230469 175.230469 189.53125 175.722656 190.710938 176.28125 C 191.949219 176.835938 193.1875 177.328125 194.429688 177.699219 C 196.96875 178.441406 199.632812 179.058594 202.300781 179.304688 C 204.40625 179.492188 206.886719 179.738281 208.929688 178.933594 C 210.480469 178.316406 211.71875 177.207031 212.710938 175.910156 C 213.828125 174.425781 214.695312 172.820312 215.128906 171.03125 C 215.6875 169.238281 214.878906 166.089844 214.757812 165.78125 " fill-opacity="1" fill-rule="evenodd"/></svg>