<svg xmlns="http://www.w3.org/2000/svg" xmlns:xlink="http://www.w3.org/1999/xlink" width="500" zoomAndPan="magnify" viewBox="0 0 375 374.999991" height="500" preserveAspectRatio="xMidYMid meet" version="1.0"><defs><g/></defs><g fill="#5b3722" fill-opacity="1"><g transform="translate(58.492842, 182.948484)"><g><path d="M 5.78125 0.328125 C 4.03125 0.328125 3.15625 -0.570312 3.15625 -2.375 L 3.15625 -26.5625 C 3.15625 -28.363281 4.03125 -29.265625 5.78125 -29.265625 C 7.539062 -29.265625 8.421875 -28.363281 8.421875 -26.5625 L 8.421875 -16.875 L 23.3125 -16.875 L 23.3125 -26.5625 C 23.3125 -28.363281 24.1875 -29.265625 25.9375 -29.265625 C 27.6875 -29.265625 28.5625 -28.363281 28.5625 -26.5625 L 28.5625 -2.375 C 28.5625 -0.570312 27.6875 0.328125 25.9375 0.328125 C 24.1875 0.328125 23.3125 -0.570312 23.3125 -2.375 L 23.3125 -12.484375 L 8.421875 -12.484375 L 8.421875 -2.375 C 8.421875 -0.570312 7.539062 0.328125 5.78125 0.328125 Z M 5.78125 0.328125 "/></g></g></g><g fill="#5b3722" fill-opacity="1"><g transform="translate(88.574302, 182.948484)"><g><path d="M 11.828125 0.40625 C 9.742188 0.40625 7.9375 -0.015625 6.40625 -0.859375 C 4.875 -1.710938 3.679688 -2.925781 2.828125 -4.5 C 1.984375 -6.070312 1.5625 -7.925781 1.5625 -10.0625 C 1.5625 -12.195312 1.984375 -14.039062 2.828125 -15.59375 C 3.679688 -17.15625 4.875 -18.359375 6.40625 -19.203125 C 7.9375 -20.054688 9.742188 -20.484375 11.828125 -20.484375 C 13.898438 -20.484375 15.703125 -20.054688 17.234375 -19.203125 C 18.765625 -18.359375 19.953125 -17.15625 20.796875 -15.59375 C 21.648438 -14.039062 22.078125 -12.195312 22.078125 -10.0625 C 22.078125 -7.925781 21.648438 -6.070312 20.796875 -4.5 C 19.953125 -2.925781 18.765625 -1.710938 17.234375 -0.859375 C 15.703125 -0.015625 13.898438 0.40625 11.828125 0.40625 Z M 11.828125 -3.484375 C 13.359375 -3.484375 14.585938 -4.035156 15.515625 -5.140625 C 16.441406 -6.253906 16.90625 -7.894531 16.90625 -10.0625 C 16.90625 -12.25 16.441406 -13.878906 15.515625 -14.953125 C 14.585938 -16.035156 13.359375 -16.578125 11.828125 -16.578125 C 10.285156 -16.578125 9.050781 -16.035156 8.125 -14.953125 C 7.195312 -13.878906 6.734375 -12.25 6.734375 -10.0625 C 6.734375 -7.894531 7.195312 -6.253906 8.125 -5.140625 C 9.050781 -4.035156 10.285156 -3.484375 11.828125 -3.484375 Z M 11.828125 -3.484375 "/></g></g></g><g fill="#5b3722" fill-opacity="1"><g transform="translate(110.571072, 182.948484)"><g><path d="M 5.296875 0.328125 C 3.597656 0.328125 2.75 -0.546875 2.75 -2.296875 L 2.75 -17.8125 C 2.75 -19.539062 3.582031 -20.40625 5.25 -20.40625 C 6.925781 -20.40625 7.765625 -19.539062 7.765625 -17.8125 L 7.765625 -17 C 8.359375 -18.09375 9.1875 -18.945312 10.25 -19.5625 C 11.320312 -20.175781 12.554688 -20.484375 13.953125 -20.484375 C 16.960938 -20.484375 18.929688 -19.171875 19.859375 -16.546875 C 20.492188 -17.773438 21.398438 -18.738281 22.578125 -19.4375 C 23.753906 -20.132812 25.09375 -20.484375 26.59375 -20.484375 C 31.113281 -20.484375 33.375 -17.734375 33.375 -12.234375 L 33.375 -2.296875 C 33.375 -0.546875 32.507812 0.328125 30.78125 0.328125 C 29.082031 0.328125 28.234375 -0.546875 28.234375 -2.296875 L 28.234375 -12.03125 C 28.234375 -13.5625 27.976562 -14.679688 27.46875 -15.390625 C 26.96875 -16.097656 26.117188 -16.453125 24.921875 -16.453125 C 23.578125 -16.453125 22.519531 -15.976562 21.75 -15.03125 C 20.988281 -14.09375 20.609375 -12.789062 20.609375 -11.125 L 20.609375 -2.296875 C 20.609375 -0.546875 19.757812 0.328125 18.0625 0.328125 C 16.332031 0.328125 15.46875 -0.546875 15.46875 -2.296875 L 15.46875 -12.03125 C 15.46875 -13.5625 15.210938 -14.679688 14.703125 -15.390625 C 14.203125 -16.097656 13.363281 -16.453125 12.1875 -16.453125 C 10.84375 -16.453125 9.785156 -15.976562 9.015625 -15.03125 C 8.253906 -14.09375 7.875 -12.789062 7.875 -11.125 L 7.875 -2.296875 C 7.875 -0.546875 7.015625 0.328125 5.296875 0.328125 Z M 5.296875 0.328125 "/></g></g></g><g fill="#5b3722" fill-opacity="1"><g transform="translate(144.920598, 182.948484)"><g><path d="M 12.5625 0.40625 C 10.289062 0.40625 8.332031 -0.015625 6.6875 -0.859375 C 5.050781 -1.710938 3.785156 -2.914062 2.890625 -4.46875 C 2.003906 -6.03125 1.5625 -7.878906 1.5625 -10.015625 C 1.5625 -12.097656 1.988281 -13.914062 2.84375 -15.46875 C 3.707031 -17.03125 4.898438 -18.253906 6.421875 -19.140625 C 7.941406 -20.035156 9.671875 -20.484375 11.609375 -20.484375 C 14.460938 -20.484375 16.71875 -19.578125 18.375 -17.765625 C 20.03125 -15.960938 20.859375 -13.503906 20.859375 -10.390625 C 20.859375 -9.367188 20.195312 -8.859375 18.875 -8.859375 L 6.484375 -8.859375 C 6.867188 -5.273438 8.921875 -3.484375 12.640625 -3.484375 C 13.347656 -3.484375 14.144531 -3.570312 15.03125 -3.75 C 15.925781 -3.925781 16.769531 -4.234375 17.5625 -4.671875 C 18.28125 -5.085938 18.882812 -5.21875 19.375 -5.0625 C 19.863281 -4.914062 20.210938 -4.625 20.421875 -4.1875 C 20.628906 -3.75 20.65625 -3.257812 20.5 -2.71875 C 20.351562 -2.1875 19.960938 -1.734375 19.328125 -1.359375 C 18.367188 -0.753906 17.265625 -0.304688 16.015625 -0.015625 C 14.773438 0.265625 13.625 0.40625 12.5625 0.40625 Z M 11.828125 -17 C 10.316406 -17 9.09375 -16.53125 8.15625 -15.59375 C 7.226562 -14.664062 6.671875 -13.410156 6.484375 -11.828125 L 16.578125 -11.828125 C 16.472656 -13.492188 16.015625 -14.769531 15.203125 -15.65625 C 14.398438 -16.550781 13.273438 -17 11.828125 -17 Z M 11.828125 -17 "/></g></g></g><g fill="#5b3722" fill-opacity="1"><g transform="translate(165.522033, 182.948484)"><g><path d="M 5.953125 0 C 4.085938 0 3.15625 -0.929688 3.15625 -2.796875 L 3.15625 -26.140625 C 3.15625 -28.003906 4.085938 -28.9375 5.953125 -28.9375 L 15.796875 -28.9375 C 18.835938 -28.9375 21.191406 -28.269531 22.859375 -26.9375 C 24.523438 -25.613281 25.359375 -23.773438 25.359375 -21.421875 C 25.359375 -19.867188 24.960938 -18.53125 24.171875 -17.40625 C 23.378906 -16.28125 22.285156 -15.457031 20.890625 -14.9375 C 22.535156 -14.476562 23.816406 -13.664062 24.734375 -12.5 C 25.648438 -11.332031 26.109375 -9.863281 26.109375 -8.09375 C 26.109375 -5.519531 25.238281 -3.523438 23.5 -2.109375 C 21.757812 -0.703125 19.34375 0 16.25 0 Z M 8.203125 -16.671875 L 14.90625 -16.671875 C 18.488281 -16.671875 20.28125 -18.050781 20.28125 -20.8125 C 20.28125 -23.570312 18.488281 -24.953125 14.90625 -24.953125 L 8.203125 -24.953125 Z M 8.203125 -3.984375 L 15.59375 -3.984375 C 19.207031 -3.984375 21.015625 -5.429688 21.015625 -8.328125 C 21.015625 -11.234375 19.207031 -12.6875 15.59375 -12.6875 L 8.203125 -12.6875 Z M 8.203125 -3.984375 "/></g></g></g><g fill="#5b3722" fill-opacity="1"><g transform="translate(192.115171, 182.948484)"><g><path d="M 5.296875 0.328125 C 3.546875 0.328125 2.671875 -0.546875 2.671875 -2.296875 L 2.671875 -17.8125 C 2.671875 -19.539062 3.503906 -20.40625 5.171875 -20.40625 C 6.835938 -20.40625 7.671875 -19.539062 7.671875 -17.8125 L 7.671875 -16.546875 C 8.660156 -18.898438 10.769531 -20.210938 14 -20.484375 C 15.175781 -20.617188 15.832031 -19.945312 15.96875 -18.46875 C 16.101562 -17.019531 15.390625 -16.210938 13.828125 -16.046875 L 12.9375 -15.96875 C 9.5625 -15.632812 7.875 -13.910156 7.875 -10.796875 L 7.875 -2.296875 C 7.875 -0.546875 7.015625 0.328125 5.296875 0.328125 Z M 5.296875 0.328125 "/></g></g></g><g fill="#5b3722" fill-opacity="1"><g transform="translate(206.56075, 182.948484)"><g><path d="M 12.5625 0.40625 C 10.289062 0.40625 8.332031 -0.015625 6.6875 -0.859375 C 5.050781 -1.710938 3.785156 -2.914062 2.890625 -4.46875 C 2.003906 -6.03125 1.5625 -7.878906 1.5625 -10.015625 C 1.5625 -12.097656 1.988281 -13.914062 2.84375 -15.46875 C 3.707031 -17.03125 4.898438 -18.253906 6.421875 -19.140625 C 7.941406 -20.035156 9.671875 -20.484375 11.609375 -20.484375 C 14.460938 -20.484375 16.71875 -19.578125 18.375 -17.765625 C 20.03125 -15.960938 20.859375 -13.503906 20.859375 -10.390625 C 20.859375 -9.367188 20.195312 -8.859375 18.875 -8.859375 L 6.484375 -8.859375 C 6.867188 -5.273438 8.921875 -3.484375 12.640625 -3.484375 C 13.347656 -3.484375 14.144531 -3.570312 15.03125 -3.75 C 15.925781 -3.925781 16.769531 -4.234375 17.5625 -4.671875 C 18.28125 -5.085938 18.882812 -5.21875 19.375 -5.0625 C 19.863281 -4.914062 20.210938 -4.625 20.421875 -4.1875 C 20.628906 -3.75 20.65625 -3.257812 20.5 -2.71875 C 20.351562 -2.1875 19.960938 -1.734375 19.328125 -1.359375 C 18.367188 -0.753906 17.265625 -0.304688 16.015625 -0.015625 C 14.773438 0.265625 13.625 0.40625 12.5625 0.40625 Z M 11.828125 -17 C 10.316406 -17 9.09375 -16.53125 8.15625 -15.59375 C 7.226562 -14.664062 6.671875 -13.410156 6.484375 -11.828125 L 16.578125 -11.828125 C 16.472656 -13.492188 16.015625 -14.769531 15.203125 -15.65625 C 14.398438 -16.550781 13.273438 -17 11.828125 -17 Z M 11.828125 -17 "/></g></g></g><g fill="#5b3722" fill-opacity="1"><g transform="translate(227.162185, 182.948484)"><g><path d="M 10.421875 0.328125 C 9.003906 0.328125 8.019531 -0.382812 7.46875 -1.8125 L 1.515625 -17 C 1.160156 -17.957031 1.179688 -18.765625 1.578125 -19.421875 C 1.972656 -20.078125 2.675781 -20.40625 3.6875 -20.40625 C 4.289062 -20.40625 4.785156 -20.257812 5.171875 -19.96875 C 5.554688 -19.675781 5.882812 -19.132812 6.15625 -18.34375 L 10.671875 -6 L 15.3125 -18.671875 C 15.75 -19.828125 16.53125 -20.40625 17.65625 -20.40625 C 18.800781 -20.40625 19.578125 -19.828125 19.984375 -18.671875 L 24.625 -5.875 L 29.1875 -18.46875 C 29.457031 -19.207031 29.804688 -19.710938 30.234375 -19.984375 C 30.660156 -20.265625 31.128906 -20.40625 31.640625 -20.40625 C 32.628906 -20.40625 33.273438 -20.054688 33.578125 -19.359375 C 33.878906 -18.660156 33.851562 -17.875 33.5 -17 L 27.578125 -1.8125 C 27.003906 -0.382812 26.019531 0.328125 24.625 0.328125 C 23.175781 0.328125 22.191406 -0.382812 21.671875 -1.8125 L 17.484375 -12.9375 L 13.375 -1.84375 C 12.851562 -0.394531 11.867188 0.328125 10.421875 0.328125 Z M 10.421875 0.328125 "/></g></g></g><g fill="#5b3722" fill-opacity="1"><g transform="translate(260.52678, 182.948484)"><g><path d="M 5.21875 -24.171875 C 4.257812 -24.171875 3.507812 -24.410156 2.96875 -24.890625 C 2.4375 -25.367188 2.171875 -26.035156 2.171875 -26.890625 C 2.171875 -27.765625 2.4375 -28.429688 2.96875 -28.890625 C 3.507812 -29.359375 4.257812 -29.59375 5.21875 -29.59375 C 7.238281 -29.59375 8.25 -28.691406 8.25 -26.890625 C 8.25 -25.078125 7.238281 -24.171875 5.21875 -24.171875 Z M 5.21875 0.28125 C 4.394531 0.28125 3.765625 0.0351562 3.328125 -0.453125 C 2.890625 -0.941406 2.671875 -1.625 2.671875 -2.5 L 2.671875 -17.5625 C 2.671875 -19.425781 3.519531 -20.359375 5.21875 -20.359375 C 6.9375 -20.359375 7.796875 -19.425781 7.796875 -17.5625 L 7.796875 -2.5 C 7.796875 -1.625 7.578125 -0.941406 7.140625 -0.453125 C 6.703125 0.0351562 6.0625 0.28125 5.21875 0.28125 Z M 5.21875 0.28125 "/></g></g></g><g fill="#5b3722" fill-opacity="1"><g transform="translate(269.350014, 182.948484)"><g><path d="M 5.21875 0.328125 C 3.519531 0.328125 2.671875 -0.546875 2.671875 -2.296875 L 2.671875 -17.8125 C 2.671875 -19.539062 3.503906 -20.40625 5.171875 -20.40625 C 6.835938 -20.40625 7.671875 -19.539062 7.671875 -17.8125 L 7.671875 -16.953125 C 8.359375 -18.097656 9.28125 -18.972656 10.4375 -19.578125 C 11.601562 -20.179688 12.910156 -20.484375 14.359375 -20.484375 C 19.097656 -20.484375 21.46875 -17.734375 21.46875 -12.234375 L 21.46875 -2.296875 C 21.46875 -0.546875 20.617188 0.328125 18.921875 0.328125 C 17.203125 0.328125 16.34375 -0.546875 16.34375 -2.296875 L 16.34375 -11.984375 C 16.34375 -13.546875 16.046875 -14.679688 15.453125 -15.390625 C 14.867188 -16.097656 13.957031 -16.453125 12.71875 -16.453125 C 11.21875 -16.453125 10.019531 -15.976562 9.125 -15.03125 C 8.238281 -14.09375 7.796875 -12.84375 7.796875 -11.28125 L 7.796875 -2.296875 C 7.796875 -0.546875 6.9375 0.328125 5.21875 0.328125 Z M 5.21875 0.328125 "/></g></g></g><g fill="#5b3722" fill-opacity="1"><g transform="translate(291.71614, 182.948484)"><g><path d="M 12.03125 7.796875 C 10.550781 7.796875 9.117188 7.660156 7.734375 7.390625 C 6.359375 7.117188 5.109375 6.691406 3.984375 6.109375 C 3.328125 5.785156 2.9375 5.367188 2.8125 4.859375 C 2.6875 4.359375 2.734375 3.875 2.953125 3.40625 C 3.171875 2.9375 3.503906 2.597656 3.953125 2.390625 C 4.410156 2.191406 4.898438 2.21875 5.421875 2.46875 C 6.617188 3.0625 7.757812 3.445312 8.84375 3.625 C 9.925781 3.8125 10.847656 3.90625 11.609375 3.90625 C 15.273438 3.90625 17.109375 2.140625 17.109375 -1.390625 L 17.109375 -4.140625 C 16.535156 -3.023438 15.65625 -2.140625 14.46875 -1.484375 C 13.28125 -0.828125 11.960938 -0.5 10.515625 -0.5 C 8.703125 -0.5 7.125 -0.914062 5.78125 -1.75 C 4.445312 -2.582031 3.410156 -3.75 2.671875 -5.25 C 1.929688 -6.757812 1.5625 -8.515625 1.5625 -10.515625 C 1.5625 -12.503906 1.929688 -14.242188 2.671875 -15.734375 C 3.410156 -17.234375 4.445312 -18.398438 5.78125 -19.234375 C 7.125 -20.066406 8.703125 -20.484375 10.515625 -20.484375 C 11.960938 -20.484375 13.273438 -20.164062 14.453125 -19.53125 C 15.628906 -18.90625 16.488281 -18.046875 17.03125 -16.953125 L 17.03125 -17.8125 C 17.03125 -18.664062 17.253906 -19.3125 17.703125 -19.75 C 18.160156 -20.1875 18.785156 -20.40625 19.578125 -20.40625 C 21.273438 -20.40625 22.125 -19.539062 22.125 -17.8125 L 22.125 -2.015625 C 22.125 1.242188 21.257812 3.691406 19.53125 5.328125 C 17.8125 6.972656 15.3125 7.796875 12.03125 7.796875 Z M 11.90625 -4.390625 C 13.488281 -4.390625 14.742188 -4.9375 15.671875 -6.03125 C 16.609375 -7.125 17.078125 -8.617188 17.078125 -10.515625 C 17.078125 -12.398438 16.609375 -13.878906 15.671875 -14.953125 C 14.742188 -16.035156 13.488281 -16.578125 11.90625 -16.578125 C 10.3125 -16.578125 9.050781 -16.035156 8.125 -14.953125 C 7.195312 -13.878906 6.734375 -12.398438 6.734375 -10.515625 C 6.734375 -8.617188 7.195312 -7.125 8.125 -6.03125 C 9.050781 -4.9375 10.3125 -4.390625 11.90625 -4.390625 Z M 11.90625 -4.390625 "/></g></g></g></svg>