<svg xmlns="http://www.w3.org/2000/svg" xmlns:xlink="http://www.w3.org/1999/xlink" width="500" zoomAndPan="magnify" viewBox="0 0 375 374.999991" height="500" preserveAspectRatio="xMidYMid meet" version="1.0"><defs><clipPath id="f0daebb4ae"><path d="M 142 112.507812 L 232.75 112.507812 L 232.75 262.492188 L 142 262.492188 Z M 142 112.507812 " clip-rule="nonzero"/></clipPath></defs><g clip-path="url(#f0daebb4ae)"><path fill="#000000" d="M 229.679688 249.140625 C 229.628906 249.148438 229.582031 249.160156 229.53125 249.179688 C 213.902344 255.25 196.261719 253.527344 181.082031 260.925781 C 181.007812 225.457031 180.933594 189.984375 180.859375 154.515625 C 181.179688 154.523438 181.507812 154.324219 181.664062 154.035156 C 198.027344 153.109375 214.359375 151.738281 230.648438 149.925781 C 230.34375 166.402344 229.613281 182.941406 230.1875 199.417969 C 230.765625 215.988281 232.292969 232.664062 229.679688 249.140625 Z M 163.328125 130.980469 C 167.042969 131.1875 170.839844 130.488281 174.535156 130.300781 C 176.769531 130.1875 179.003906 130.128906 181.238281 130.117188 C 182.371094 130.109375 183.503906 130.117188 184.636719 130.136719 C 185.203125 130.144531 185.765625 130.15625 186.332031 130.171875 C 186.789062 130.183594 187.375 130.308594 187.804688 130.132812 C 187.585938 130.707031 187.121094 131.089844 187.011719 131.761719 C 186.941406 132.191406 186.96875 132.664062 186.75 133.054688 C 186.550781 133.410156 186.171875 133.585938 185.90625 133.882812 C 185.605469 134.226562 185.503906 134.703125 185.53125 135.15625 C 185.5625 135.613281 185.710938 136.046875 185.863281 136.476562 C 187.011719 139.671875 188.578125 142.945312 191.316406 145.101562 C 192.371094 145.933594 193.558594 146.59375 194.8125 147.082031 C 199.335938 148.839844 204.511719 149.816406 209.222656 148.203125 C 209.765625 148.015625 210.386719 147.917969 210.886719 147.601562 C 211.6875 147.089844 211.273438 146.484375 211.507812 145.734375 C 211.636719 145.328125 211.78125 144.925781 211.921875 144.523438 C 212.21875 143.691406 212.535156 142.867188 212.847656 142.039062 C 213.460938 140.417969 214.070312 138.785156 214.492188 137.097656 C 215.15625 134.441406 215.21875 131.472656 213.828125 129.113281 C 214.328125 128.894531 214.875 129.273438 215.285156 129.636719 C 217.464844 131.554688 219.574219 133.550781 221.601562 135.625 C 224.933594 139.03125 227.972656 142.644531 230.113281 146.929688 C 230.292969 147.289062 230.402344 147.726562 230.226562 148.089844 C 229.878906 148.808594 228.792969 148.796875 228.128906 148.898438 C 226.15625 149.199219 224.15625 148.984375 222.179688 149.1875 C 219.324219 149.480469 216.46875 149.757812 213.609375 150.019531 C 208.019531 150.53125 202.429688 150.996094 196.832031 151.40625 C 195.519531 151.503906 181.164062 152.34375 181.164062 152.421875 C 176.589844 144.21875 171.261719 136.152344 163.328125 130.980469 Z M 145.476562 247.21875 C 144.707031 214.234375 143.503906 181.210938 144.105469 148.214844 C 144.105469 148.195312 144.101562 148.175781 144.101562 148.160156 C 155.902344 149.542969 167.617188 151.527344 179.222656 154.09375 C 179.296875 189.625 179.371094 225.160156 179.445312 260.695312 C 167.980469 256.570312 156.652344 252.078125 145.476562 247.21875 Z M 161.210938 131.601562 C 169.347656 136.421875 174.71875 144.316406 179.292969 152.429688 C 167.90625 149.929688 156.414062 147.988281 144.839844 146.605469 C 149.675781 141 154.546875 134.957031 161.210938 131.601562 Z M 200.789062 132.886719 C 197.113281 131.507812 193.671875 129.253906 192.394531 125.523438 C 192.535156 125.300781 192.683594 125.082031 192.832031 124.863281 C 192.867188 124.808594 192.894531 124.746094 192.917969 124.691406 C 196.605469 123.375 200.601562 123.25 204.394531 124.410156 C 208.996094 125.8125 214.539062 129.660156 213.277344 135.199219 C 213.257812 135.292969 213.25 135.378906 213.261719 135.460938 C 213.210938 135.480469 213.160156 135.507812 213.109375 135.539062 C 208.910156 135.582031 204.6875 134.351562 200.789062 132.886719 Z M 208.691406 143.832031 C 209.433594 141.617188 210.011719 139.367188 210.417969 137.0625 C 210.417969 137.0625 210.417969 137.0625 210.421875 137.0625 C 211.136719 137.132812 211.84375 137.171875 212.546875 137.171875 C 212.160156 139.414062 211.460938 141.5625 210.464844 143.609375 C 209.886719 143.722656 209.292969 143.796875 208.691406 143.832031 Z M 197.519531 142.84375 C 201.3125 144.574219 205.730469 145.914062 209.929688 145.355469 C 209.832031 145.664062 209.738281 145.972656 209.640625 146.28125 C 205.34375 148.191406 200.445312 147.367188 196.125 145.820312 C 190.917969 143.953125 188.554688 140.078125 187.21875 134.894531 C 187.554688 134.664062 187.890625 134.429688 188.226562 134.199219 C 190.75 137.699219 193.496094 141.007812 197.519531 142.84375 Z M 192.445312 129.113281 C 191.585938 130.640625 190.726562 132.164062 189.867188 133.691406 C 189.503906 133.191406 189.144531 132.683594 188.789062 132.179688 C 189.53125 130.480469 190.375 128.839844 191.324219 127.246094 C 191.636719 127.902344 192.015625 128.519531 192.457031 129.097656 C 192.453125 129.105469 192.449219 129.109375 192.445312 129.113281 Z M 192.078125 136.527344 C 191.585938 135.953125 191.113281 135.363281 190.65625 134.757812 C 190.6875 134.722656 190.71875 134.683594 190.742188 134.636719 L 193.300781 130.101562 C 193.863281 130.703125 194.484375 131.253906 195.152344 131.753906 C 195.15625 131.753906 195.15625 131.753906 195.15625 131.753906 C 193.976562 133.246094 192.941406 134.828125 192.078125 136.527344 Z M 198.410156 134.019531 C 197.445312 135.84375 196.484375 137.671875 195.523438 139.5 C 195.480469 139.582031 195.457031 139.660156 195.449219 139.738281 C 194.527344 139.050781 193.683594 138.273438 192.894531 137.433594 C 192.976562 137.382812 193.054688 137.308594 193.109375 137.195312 C 193.964844 135.507812 194.976562 133.921875 196.164062 132.445312 C 196.164062 132.445312 196.164062 132.445312 196.164062 132.449219 C 196.914062 132.929688 197.707031 133.351562 198.523438 133.722656 C 198.5625 133.738281 198.601562 133.753906 198.640625 133.769531 C 198.640625 133.769531 198.640625 133.769531 198.644531 133.769531 C 198.644531 133.769531 198.644531 133.773438 198.648438 133.773438 C 198.554688 133.820312 198.472656 133.898438 198.410156 134.019531 Z M 206.488281 136.429688 L 206.492188 136.429688 C 207.390625 136.636719 208.292969 136.800781 209.195312 136.925781 C 208.773438 139.28125 208.171875 141.582031 207.394531 143.84375 C 206.253906 143.804688 205.097656 143.644531 203.953125 143.390625 C 205.003906 141.148438 205.855469 138.832031 206.488281 136.429688 Z M 202.746094 143.085938 C 201.769531 142.816406 200.808594 142.484375 199.890625 142.113281 C 201.101562 140.027344 202.121094 137.851562 202.957031 135.585938 C 202.972656 135.542969 202.980469 135.5 202.988281 135.460938 C 203.742188 135.710938 204.515625 135.9375 205.292969 136.144531 C 204.65625 138.539062 203.808594 140.851562 202.746094 143.085938 Z M 199.511719 134.148438 C 200.277344 134.476562 201.0625 134.789062 201.867188 135.078125 L 201.875 135.078125 C 201.835938 135.128906 201.796875 135.1875 201.773438 135.257812 C 200.957031 137.476562 199.949219 139.589844 198.757812 141.625 C 198.34375 141.4375 197.941406 141.246094 197.554688 141.046875 C 197.140625 140.835938 196.742188 140.605469 196.359375 140.359375 C 196.445312 140.308594 196.523438 140.234375 196.582031 140.121094 C 197.542969 138.292969 198.507812 136.464844 199.46875 134.640625 C 199.558594 134.464844 199.5625 134.296875 199.511719 134.148438 Z M 162.15625 120.503906 C 162.203125 120.046875 162.328125 119.601562 162.597656 119.152344 C 162.960938 118.546875 163.515625 118.09375 164.128906 117.761719 C 165.429688 117.058594 166.933594 116.835938 168.367188 116.570312 C 171.394531 116.007812 174.445312 115.566406 177.5 115.207031 C 183.066406 114.550781 188.667969 114.199219 194.269531 114.15625 C 197.074219 114.136719 199.875 114.191406 202.671875 114.324219 C 205.230469 114.445312 210.703125 113.828125 212.003906 116.652344 C 212.695312 118.148438 212.757812 120.355469 213.023438 121.96875 C 213.316406 123.761719 213.636719 125.601562 213.613281 127.421875 C 213.308594 127.417969 213.003906 127.410156 212.699219 127.402344 C 212.207031 127.390625 211.855469 126.8125 211.511719 126.5 C 211.054688 126.089844 210.574219 125.710938 210.074219 125.359375 C 209.09375 124.667969 208.035156 124.082031 206.933594 123.605469 C 204.632812 122.601562 202.140625 122.050781 199.628906 121.972656 C 198.0625 121.925781 196.457031 122 194.921875 122.339844 C 193.65625 122.625 192.238281 122.890625 191.277344 123.832031 C 190.710938 124.382812 190.527344 125.183594 190.203125 125.882812 C 189.953125 126.414062 189.679688 126.933594 189.378906 127.4375 C 189.136719 127.84375 188.625 128.339844 188.582031 128.820312 C 188.171875 128.523438 187.683594 128.570312 187.207031 128.566406 C 186.640625 128.558594 186.070312 128.523438 185.5 128.511719 C 184.28125 128.484375 183.0625 128.472656 181.84375 128.472656 C 179.40625 128.476562 176.96875 128.535156 174.535156 128.660156 C 170.511719 128.867188 166.355469 129.671875 162.328125 129.257812 C 162.003906 129.222656 162.320312 126.425781 162.328125 126.152344 C 162.355469 125.179688 162.339844 124.203125 162.28125 123.230469 C 162.226562 122.328125 162.0625 121.410156 162.15625 120.503906 Z M 231.917969 200.476562 C 231.621094 193.226562 231.382812 185.972656 231.488281 178.714844 C 231.5625 173.484375 232.222656 168.300781 232.460938 163.085938 C 232.816406 155.21875 232.25 146.511719 227.742188 139.777344 C 225.660156 136.667969 222.867188 134.566406 220.128906 132.101562 C 217.671875 129.886719 215.296875 127.328125 214.640625 123.964844 C 213.945312 120.40625 214.929688 115.789062 211.847656 113.894531 C 210.855469 113.285156 209.648438 113.15625 208.488281 113.058594 C 194.65625 111.878906 180.664062 112.59375 167.023438 115.167969 C 164.941406 115.5625 162.667969 116.128906 161.457031 117.871094 C 159.152344 121.199219 162.308594 126.296875 160.074219 129.671875 C 159.472656 130.582031 158.550781 131.222656 157.667969 131.863281 C 152.375 135.6875 147.632812 140.277344 143.621094 145.4375 C 143.175781 146.011719 142.492188 146.667969 142.199219 147.332031 C 141.878906 148.042969 142.035156 148.949219 142.050781 149.753906 C 142.078125 151.648438 142.109375 153.546875 142.140625 155.445312 C 142.199219 159.238281 142.261719 163.035156 142.320312 166.828125 C 142.5625 182.007812 142.804688 197.1875 143.042969 212.367188 C 143.234375 224.28125 143.421875 236.195312 143.613281 248.113281 C 154.726562 253.03125 166.007812 257.582031 177.425781 261.753906 C 178.570312 262.171875 179.769531 262.59375 180.984375 262.472656 C 181.917969 262.375 182.789062 261.96875 183.648438 261.589844 C 197.867188 255.324219 214.304688 256.378906 228.957031 251.21875 C 229.597656 250.992188 230.257812 250.742188 230.742188 250.261719 C 231.515625 249.496094 231.6875 248.328125 231.800781 247.246094 C 233.46875 231.726562 232.558594 216.101562 231.917969 200.476562 " fill-opacity="1" fill-rule="nonzero"/></g><path fill="#000000" d="M 202.714844 183.789062 C 200.394531 182.144531 198.464844 183.984375 197.605469 186.125 C 196.972656 187.703125 196.738281 189.375 196.480469 191.035156 C 196.0625 189.722656 195.53125 188.453125 194.800781 187.269531 C 193.734375 185.546875 191.261719 183.164062 189.273438 185.21875 C 188.464844 186.054688 188.535156 187.390625 188.496094 188.457031 C 188.417969 190.59375 188.398438 192.734375 188.398438 194.875 C 188.398438 199.511719 188.5625 204.148438 188.859375 208.773438 C 188.992188 210.871094 192.265625 210.886719 192.132812 208.773438 C 191.765625 203.078125 191.605469 197.375 191.695312 191.664062 C 191.714844 190.246094 191.699219 188.804688 191.804688 187.386719 C 191.691406 188.933594 192.546875 189.769531 193.085938 191.191406 C 193.894531 193.332031 194.257812 195.628906 194.628906 197.875 C 194.875 199.332031 196.949219 199.378906 197.621094 198.265625 C 198.757812 196.386719 199.242188 194.410156 199.597656 192.257812 C 199.78125 191.117188 199.90625 189.957031 200.1875 188.835938 C 200.34375 188.136719 200.5625 187.457031 200.847656 186.800781 C 201.242188 187.371094 201.398438 188.011719 201.324219 188.726562 C 201.9375 194.160156 202.238281 199.625 202.324219 205.09375 C 202.359375 207.199219 205.632812 207.207031 205.597656 205.09375 C 205.53125 200.992188 205.34375 196.894531 204.996094 192.808594 C 204.773438 190.210938 205.160156 185.519531 202.714844 183.789062 " fill-opacity="1" fill-rule="nonzero"/><path fill="#000000" d="M 207.605469 191.605469 C 207.753906 196.34375 207.902344 201.082031 208.050781 205.820312 C 208.117188 207.929688 211.386719 207.9375 211.324219 205.820312 C 211.175781 201.082031 211.027344 196.34375 210.878906 191.605469 C 210.8125 189.5 207.539062 189.488281 207.605469 191.605469 " fill-opacity="1" fill-rule="nonzero"/><path fill="#000000" d="M 208.269531 184.128906 C 206.164062 184.128906 206.160156 187.410156 208.269531 187.410156 C 210.375 187.410156 210.378906 184.128906 208.269531 184.128906 " fill-opacity="1" fill-rule="nonzero"/><path fill="#000000" d="M 213.742188 185.035156 C 213.902344 191.476562 214.066406 197.921875 214.226562 204.363281 C 214.277344 206.472656 217.550781 206.480469 217.496094 204.363281 C 217.335938 197.921875 217.175781 191.476562 217.015625 185.035156 C 216.964844 182.925781 213.691406 182.917969 213.742188 185.035156 " fill-opacity="1" fill-rule="nonzero"/><path fill="#000000" d="M 227.699219 188.378906 C 229.496094 187.285156 227.851562 184.445312 226.046875 185.546875 C 224.640625 186.402344 223.449219 187.492188 222.503906 188.75 C 222.484375 188.597656 222.472656 188.449219 222.457031 188.296875 C 222.214844 186.222656 218.9375 186.199219 219.183594 188.296875 C 219.707031 192.792969 219.789062 197.273438 219.429688 201.785156 C 219.261719 203.890625 222.535156 203.878906 222.703125 201.785156 C 222.808594 200.46875 222.871094 199.15625 222.898438 197.84375 C 224.109375 198.71875 224.855469 199.976562 225.09375 201.535156 C 225.226562 202.410156 226.324219 202.898438 227.105469 202.679688 C 228.039062 202.425781 228.382812 201.542969 228.25 200.664062 C 227.84375 198.011719 226.078125 195.652344 223.679688 194.476562 C 223.597656 194.4375 223.519531 194.414062 223.441406 194.390625 C 223.957031 191.894531 225.472656 189.738281 227.699219 188.378906 " fill-opacity="1" fill-rule="nonzero"/></svg>