<svg xmlns="http://www.w3.org/2000/svg" xmlns:xlink="http://www.w3.org/1999/xlink" width="500" zoomAndPan="magnify" viewBox="0 0 375 374.999991" height="500" preserveAspectRatio="xMidYMid meet" version="1.0"><defs><clipPath id="e9dfa4173f"><path d="M 123.46875 112.5 L 251.71875 112.5 L 251.71875 262.5 L 123.46875 262.5 Z M 123.46875 112.5 " clip-rule="nonzero"/></clipPath></defs><g clip-path="url(#e9dfa4173f)"><path fill="#231f20" d="M 251.132812 147.039062 C 250.578125 145.140625 249.609375 143.324219 248.203125 141.894531 C 245.394531 139.027344 241.292969 137.566406 237.25 137.59375 C 235.199219 137.59375 233.210938 138.207031 231.363281 138.9375 C 229.519531 139.671875 227.703125 140.519531 225.945312 141.425781 C 222.753906 143.0625 219.679688 144.816406 216.632812 146.746094 L 213.46875 136.597656 L 212.824219 134.550781 L 212.09375 135.429688 C 211.683594 134.640625 211.039062 133.96875 210.335938 133.441406 C 209.339844 132.679688 208.199219 132.15625 207.054688 131.714844 L 206.996094 131.6875 C 206.761719 130.546875 205.941406 129.640625 205.09375 128.964844 C 204.15625 128.234375 203.042969 127.710938 201.960938 127.242188 C 199.734375 126.335938 197.390625 125.777344 194.988281 125.429688 C 191.53125 124.871094 188.046875 124.902344 184.589844 125.222656 C 184.300781 124.492188 184.066406 123.730469 183.859375 122.972656 C 183.070312 120.136719 182.746094 117.210938 182.863281 114.285156 C 182.835938 114.257812 182.804688 114.226562 182.777344 114.199219 C 182.660156 114.050781 182.542969 113.90625 182.394531 113.757812 C 182.21875 113.613281 181.984375 113.378906 181.664062 113.203125 C 181.574219 113.144531 181.28125 113 180.902344 112.851562 C 180.257812 112.617188 179.730469 112.589844 179.378906 112.558594 C 178.617188 112.53125 178.089844 112.589844 176.480469 112.824219 C 174.722656 113.058594 174.3125 113.117188 173.695312 113.378906 C 173.050781 113.671875 172.640625 113.992188 172.40625 114.167969 C 172.203125 114.34375 172 114.550781 171.824219 114.78125 C 171.675781 115.015625 171.441406 115.339844 171.472656 115.835938 C 171.472656 115.894531 171.472656 115.953125 171.5 116.011719 L 171.53125 116.097656 L 171.53125 116.128906 L 171.589844 116.214844 L 171.589844 116.246094 C 171.589844 116.214844 171.589844 116.1875 171.589844 116.1875 L 171.617188 116.273438 L 171.5 116.332031 C 171.5 116.363281 171.53125 116.390625 171.53125 116.421875 L 171.558594 116.421875 C 171.558594 116.421875 171.558594 116.421875 171.53125 116.449219 C 172.117188 117.589844 172.640625 118.9375 173.082031 120.425781 C 173.636719 122.503906 173.753906 124.140625 173.785156 124.785156 C 173.84375 125.632812 173.8125 126.480469 173.753906 127.328125 C 173.726562 127.328125 173.695312 127.359375 173.667969 127.359375 C 171.382812 128.058594 169.128906 128.910156 166.929688 129.933594 C 164.734375 130.957031 162.597656 132.15625 160.722656 133.792969 C 159.785156 134.582031 158.90625 135.546875 158.203125 136.628906 C 157.734375 137.359375 157.382812 138.265625 157.296875 139.203125 C 155.917969 140.285156 154.570312 141.511719 153.605469 143.121094 C 153.109375 143.941406 152.757812 144.90625 152.757812 145.929688 C 152.757812 146.398438 152.84375 146.894531 152.992188 147.332031 L 152.902344 147.363281 L 153.019531 148.503906 C 153.578125 154.117188 154.21875 159.703125 155.070312 165.289062 C 155.1875 166.078125 155.304688 166.867188 155.449219 167.65625 C 153.664062 166.984375 151.9375 166.222656 150.238281 165.375 C 148.011719 164.265625 145.875 162.976562 143.851562 161.546875 C 141.832031 160.082031 139.871094 158.53125 138.082031 156.808594 C 136.265625 155.082031 134.570312 153.238281 132.988281 151.308594 L 132.839844 151.132812 L 132.636719 151.105469 C 131.816406 150.957031 131.054688 150.871094 130.234375 150.839844 C 129.445312 150.8125 128.625 150.839844 127.832031 150.988281 C 127.042969 151.132812 126.222656 151.339844 125.488281 151.71875 C 124.757812 152.128906 124.082031 152.683594 123.644531 153.386719 L 123.46875 153.621094 L 123.644531 153.855469 C 127.480469 158.738281 131.257812 163.652344 134.890625 168.679688 C 138.492188 173.742188 141.890625 178.917969 145.375 184.035156 C 148.859375 189.152344 152.492188 194.183594 155.917969 199.359375 L 161.191406 207.019531 C 162.070312 208.308594 162.949219 209.566406 163.828125 210.851562 L 165.203125 212.839844 C 165.4375 213.164062 165.644531 213.425781 165.847656 213.71875 L 166.113281 214.742188 L 166.113281 214.800781 C 166.84375 217.226562 167.605469 219.683594 168.367188 222.082031 C 169.15625 224.507812 169.917969 226.9375 170.710938 229.335938 C 171.96875 233.046875 173.257812 236.734375 174.574219 240.449219 L 175.308594 243.722656 C 176.039062 247.085938 177.535156 250.273438 179.671875 252.933594 C 180.753906 254.25 181.984375 255.449219 183.363281 256.445312 C 184.707031 257.46875 186.171875 258.285156 187.667969 259.046875 C 190.710938 260.507812 193.964844 261.386719 197.273438 261.855469 C 200.582031 262.382812 203.980469 262.46875 207.347656 262.117188 C 214.054688 261.359375 220.792969 258.402344 225.390625 253.109375 C 226.503906 251.765625 227.496094 250.332031 228.257812 248.78125 C 228.992188 247.230469 229.605469 245.59375 229.957031 243.925781 C 230.339844 242.261719 230.515625 240.566406 230.515625 238.898438 C 230.515625 238.050781 230.484375 237.230469 230.398438 236.382812 C 230.367188 236.03125 230.308594 235.679688 230.28125 235.328125 C 230.425781 234.980469 230.601562 234.597656 230.75 234.246094 L 230.808594 234.101562 L 230.808594 233.898438 C 230.632812 226.496094 230.164062 219.070312 229.402344 211.730469 C 229.371094 211.496094 229.371094 211.261719 229.3125 211.027344 L 237.777344 206.347656 L 237.953125 206.261719 L 238.070312 206.113281 C 240.765625 202.226562 242.550781 197.894531 244.015625 193.539062 C 245.480469 189.152344 246.5625 184.679688 247.472656 180.175781 C 248.410156 175.671875 249.140625 171.167969 249.785156 166.605469 C 250.429688 162.070312 251.015625 157.507812 251.484375 152.976562 C 251.660156 150.957031 251.71875 148.941406 251.132812 147.039062 Z M 124.257812 153.503906 L 124.257812 153.296875 C 124.316406 153.355469 124.347656 153.414062 124.40625 153.472656 Z M 189.394531 127.386719 C 189.804688 127.5625 190.15625 127.855469 190.273438 128.292969 C 190.332031 128.734375 190.070312 129.171875 189.746094 129.464844 C 189.394531 129.785156 189.015625 130.046875 188.605469 130.253906 C 188.195312 130.457031 187.753906 130.632812 187.316406 130.78125 L 187.226562 130.632812 L 186.933594 130.136719 C 186.757812 129.816406 186.554688 129.492188 186.378906 129.140625 C 186.144531 128.675781 185.910156 128.234375 185.703125 127.769531 C 186.90625 127.59375 188.164062 127.476562 189.394531 127.386719 Z M 172.496094 115.835938 L 172.347656 115.660156 C 172.40625 115.691406 172.464844 115.777344 172.523438 115.835938 Z M 172.757812 116.128906 C 172.699219 116.097656 172.640625 116.039062 172.582031 115.980469 C 172.582031 115.980469 172.582031 115.980469 172.582031 116.011719 L 172.582031 115.980469 C 172.582031 115.980469 172.554688 115.953125 172.554688 115.953125 L 172.582031 115.953125 L 172.582031 115.835938 L 172.582031 115.863281 C 172.582031 115.863281 172.582031 115.894531 172.582031 115.894531 L 172.582031 115.835938 C 172.582031 115.863281 172.640625 115.835938 172.730469 115.777344 C 172.847656 115.71875 173.082031 115.574219 173.285156 115.484375 C 173.636719 115.339844 174.019531 115.191406 174.429688 115.046875 C 175.21875 114.8125 176.070312 114.667969 176.890625 114.460938 C 177.738281 114.285156 178.558594 114.082031 179.40625 113.816406 C 179.847656 113.699219 180.285156 113.585938 180.695312 113.554688 C 181.105469 113.527344 181.632812 113.640625 181.75 113.992188 L 181.75 114.199219 C 181.75 114.226562 181.722656 114.257812 181.722656 114.285156 C 181.574219 114.609375 181.195312 114.8125 180.8125 114.929688 C 180.8125 114.929688 180.8125 114.929688 180.785156 114.929688 C 180.375 115.046875 179.933594 115.074219 179.523438 115.132812 C 178.675781 115.222656 177.886719 115.398438 177.066406 115.691406 C 176.273438 115.980469 175.453125 116.363281 174.574219 116.449219 C 174.136719 116.480469 173.695312 116.449219 173.316406 116.363281 C 173.109375 116.273438 172.90625 116.214844 172.757812 116.128906 Z M 174.457031 132.796875 C 174.605469 131.832031 174.664062 130.898438 174.664062 129.933594 C 174.664062 129.667969 174.664062 129.40625 174.664062 129.140625 C 174.664062 128.46875 174.632812 127.828125 174.605469 127.152344 L 174.605469 127.066406 C 174.546875 126.277344 174.488281 125.488281 174.429688 124.726562 C 174.28125 123.234375 174.078125 121.742188 173.785156 120.28125 C 173.636719 119.316406 173.402344 118.351562 173.140625 117.414062 C 173.140625 117.414062 173.140625 117.414062 173.109375 117.414062 C 173.109375 117.414062 173.109375 117.386719 173.109375 117.386719 C 173.109375 117.386719 173.109375 117.386719 173.109375 117.414062 C 173.609375 117.53125 174.078125 117.5625 174.546875 117.589844 C 175.511719 117.621094 176.421875 117.53125 177.359375 117.386719 C 178.296875 117.238281 179.171875 117.003906 180.082031 116.683594 C 180.285156 116.597656 180.519531 116.507812 180.753906 116.421875 C 180.785156 117.269531 180.871094 118.117188 181.019531 118.964844 C 181.253906 120.515625 181.691406 122.066406 182.25 123.527344 C 182.484375 124.171875 182.777344 124.8125 183.097656 125.398438 C 183.128906 125.488281 183.15625 125.574219 183.214844 125.632812 C 183.507812 126.1875 183.800781 126.746094 184.152344 127.242188 C 184.210938 127.386719 184.300781 127.535156 184.386719 127.652344 C 184.445312 127.738281 184.503906 127.828125 184.5625 127.914062 C 184.941406 128.46875 185.324219 129.023438 185.761719 129.523438 C 185.996094 129.816406 186.261719 130.105469 186.523438 130.398438 C 186.640625 130.546875 186.789062 130.691406 186.933594 130.839844 L 186.964844 130.867188 C 186.613281 130.984375 186.261719 131.074219 185.910156 131.160156 L 180.433594 132.417969 C 180.257812 132.445312 180.082031 132.503906 179.90625 132.535156 C 178.089844 132.769531 176.246094 132.855469 174.457031 132.796875 C 174.429688 132.972656 174.398438 133.179688 174.371094 133.351562 C 174.253906 133.351562 174.105469 133.351562 173.988281 133.324219 L 173.550781 132.738281 C 173.84375 132.769531 174.136719 132.769531 174.457031 132.796875 Z M 170.59375 131.160156 C 171.5 130.839844 172.40625 130.546875 173.34375 130.28125 C 173.167969 131.246094 172.933594 132.214844 172.699219 133.179688 C 172.496094 133.148438 172.292969 133.089844 172.085938 133.03125 C 171.648438 132.914062 171.207031 132.738281 170.855469 132.503906 C 170.503906 132.269531 170.242188 131.980469 170.269531 131.746094 C 170.242188 131.570312 170.386719 131.363281 170.59375 131.160156 Z M 159.667969 137.625 C 160.019531 137.214844 160.339844 136.832031 160.75 136.484375 C 161.132812 136.101562 161.570312 135.78125 162.011719 135.429688 C 163.796875 134.113281 165.820312 133.089844 167.925781 132.183594 C 168.335938 132.007812 168.746094 131.832031 169.15625 131.6875 C 169.15625 131.773438 169.15625 131.863281 169.1875 131.949219 C 169.363281 132.710938 169.976562 133.0625 170.445312 133.265625 C 170.945312 133.46875 171.441406 133.585938 171.941406 133.703125 C 172.144531 133.734375 172.347656 133.761719 172.554688 133.792969 L 172.40625 134.320312 L 173.375 134.433594 C 175.628906 134.699219 177.855469 134.492188 180.023438 134.054688 L 180.050781 134.054688 C 180.257812 134.054688 180.492188 134.027344 180.695312 133.996094 C 182.660156 133.792969 184.589844 133.238281 186.320312 132.269531 C 187.199219 131.804688 188.019531 131.246094 188.808594 130.632812 C 189.191406 130.3125 189.570312 130.019531 189.894531 129.609375 C 190.1875 129.230469 190.507812 128.761719 190.421875 128.207031 C 190.363281 127.828125 190.097656 127.535156 189.835938 127.300781 C 191.503906 127.183594 193.171875 127.09375 194.84375 127.09375 C 197.125 127.125 199.46875 127.269531 201.695312 127.855469 C 202.808594 128.148438 203.863281 128.617188 204.828125 129.230469 C 205.648438 129.785156 206.351562 130.574219 206.644531 131.539062 L 206.558594 131.539062 L 206.585938 132.097656 C 206.675781 133.179688 206.175781 134.203125 205.503906 135.050781 C 204.800781 135.898438 203.921875 136.628906 202.984375 137.242188 C 201.109375 138.5 198.972656 139.40625 196.832031 140.226562 C 192.527344 141.835938 188.046875 143.003906 183.507812 143.734375 C 178.96875 144.496094 174.339844 144.875 169.773438 144.613281 C 167.515625 144.464844 165.234375 144.117188 163.183594 143.441406 C 161.160156 142.769531 159.199219 141.601562 159.023438 139.933594 L 158.9375 138.96875 C 159.113281 138.5 159.347656 138.03125 159.667969 137.625 Z M 154.394531 147.363281 C 154.367188 147.332031 154.367188 147.273438 154.335938 147.246094 L 155.246094 147.59375 C 155.1875 147.507812 155.097656 147.421875 154.980469 147.332031 C 154.746094 147.15625 154.484375 147.097656 154.277344 147.097656 C 154.160156 146.71875 154.101562 146.367188 154.160156 145.988281 C 154.21875 145.285156 154.542969 144.613281 154.980469 144 C 155.597656 143.152344 156.386719 142.417969 157.265625 141.746094 C 157.0625 141.21875 156.914062 140.605469 156.914062 140.019531 L 157.265625 140.195312 C 157.265625 140.3125 157.296875 140.429688 157.324219 140.546875 C 157.382812 140.871094 157.5 141.191406 157.648438 141.484375 C 157.53125 141.570312 157.414062 141.660156 157.265625 141.746094 C 157.324219 141.921875 157.414062 142.066406 157.5 142.242188 C 157.882812 142.886719 158.351562 143.441406 158.878906 143.910156 C 159.933594 144.847656 161.101562 145.429688 162.304688 145.898438 C 164.675781 146.835938 167.136719 147.246094 169.566406 147.535156 C 174.429688 148.035156 179.320312 147.742188 184.066406 146.921875 C 188.808594 146.046875 193.523438 144.757812 197.886719 142.566406 C 200.054688 141.484375 202.136719 140.136719 203.980469 138.5 C 204.886719 137.652344 205.738281 136.746094 206.410156 135.664062 C 206.96875 134.726562 207.40625 133.644531 207.320312 132.503906 C 207.261719 132.476562 207.171875 132.476562 207.113281 132.445312 C 207.113281 132.359375 207.113281 132.242188 207.085938 132.15625 L 207.261719 132.007812 C 207.289062 132.183594 207.320312 132.359375 207.320312 132.535156 C 208.285156 132.855469 209.25 133.238281 210.101562 133.792969 C 210.832031 134.289062 211.507812 134.933594 211.886719 135.691406 L 211.476562 136.160156 L 211.417969 136.21875 C 208.929688 138.765625 206.148438 141.015625 203.1875 142.976562 C 200.203125 144.964844 197.007812 146.628906 193.640625 147.886719 C 193.054688 148.121094 192.46875 148.328125 191.855469 148.53125 C 188.957031 149.234375 185.996094 149.875 183.070312 150.433594 C 181.398438 150.753906 179.699219 151.046875 178.03125 151.28125 C 176.214844 151.398438 174.398438 151.398438 172.582031 151.308594 L 172.496094 151.308594 C 169.332031 151.398438 166.199219 151.28125 163.125 150.8125 C 161.601562 150.578125 160.078125 150.226562 158.703125 149.730469 C 157.355469 149.234375 156.035156 148.53125 155.273438 147.625 C 155.390625 147.800781 155.449219 147.976562 155.480469 148.09375 Z M 132.226562 152.214844 L 132.285156 152.273438 C 132.253906 152.273438 132.226562 152.273438 132.195312 152.246094 C 132.195312 152.246094 132.195312 152.214844 132.226562 152.214844 Z M 125.871094 152.480469 C 126.515625 152.15625 127.21875 152.011719 127.949219 151.921875 C 128.652344 151.835938 129.414062 151.835938 130.144531 151.921875 C 130.527344 151.953125 130.878906 152.011719 131.257812 152.039062 C 130.90625 152.15625 130.585938 152.246094 130.261719 152.363281 C 129.589844 152.566406 128.945312 152.742188 128.273438 152.890625 C 127.597656 153.035156 126.953125 153.152344 126.25 153.269531 L 124.550781 153.472656 C 124.902344 153.0625 125.34375 152.714844 125.871094 152.480469 Z M 165.46875 212.429688 C 165.144531 211.816406 164.734375 211.144531 164.355469 210.472656 C 163.59375 209.125 162.800781 207.78125 162.011719 206.4375 C 160.398438 203.773438 158.789062 201.113281 157.148438 198.480469 C 153.753906 193.277344 150.414062 188.039062 146.78125 182.980469 C 143.148438 177.953125 139.34375 173.007812 135.507812 168.15625 C 131.902344 163.652344 128.476562 159 125.050781 154.378906 C 125.402344 154.554688 125.753906 154.671875 126.132812 154.789062 C 126.953125 154.996094 127.832031 154.996094 128.683594 154.789062 C 129.53125 154.613281 130.320312 154.234375 130.996094 153.707031 C 131.464844 153.328125 131.875 152.890625 132.167969 152.332031 C 133.632812 154.320312 135.214844 156.195312 136.941406 157.917969 C 138.757812 159.761719 140.691406 161.457031 142.769531 162.976562 C 144.847656 164.5 147.046875 165.875 149.328125 167.101562 C 151.4375 168.214844 153.578125 169.207031 155.800781 169.996094 C 155.832031 170.230469 155.890625 170.496094 155.917969 170.726562 C 156.417969 174.121094 156.972656 177.484375 157.617188 180.847656 C 158.320312 184.679688 159.171875 188.449219 160.050781 192.222656 C 160.488281 194.09375 160.957031 195.996094 161.425781 197.867188 C 161.777344 199.066406 162.128906 200.234375 162.507812 201.433594 L 163.945312 206.523438 L 165.585938 212.664062 C 165.554688 212.605469 165.496094 212.519531 165.46875 212.429688 Z M 171.53125 228.984375 C 170.710938 226.585938 169.890625 224.1875 169.15625 221.761719 C 168.425781 219.363281 167.691406 216.933594 167.019531 214.507812 C 167.019531 214.507812 167.019531 214.507812 167.019531 214.476562 L 167.019531 214.449219 L 164.941406 206.289062 L 163.796875 201.640625 C 163.503906 200.292969 163.183594 198.921875 162.890625 197.574219 L 161.71875 191.902344 C 160.957031 188.128906 160.3125 184.296875 159.640625 180.496094 C 159.140625 177.511719 158.644531 174.5 158.203125 171.519531 C 157.882812 169.324219 157.589844 167.160156 157.324219 164.96875 C 156.769531 160.375 156.242188 155.785156 155.832031 151.191406 C 156.503906 151.574219 157.207031 151.867188 157.882812 152.15625 C 159.492188 152.773438 161.132812 153.152344 162.773438 153.445312 C 166.023438 154 169.304688 154.144531 172.554688 154.089844 C 176.304688 154.292969 180.109375 154.089844 183.832031 153.472656 C 187.550781 152.859375 191.238281 151.867188 194.726562 150.433594 C 201.167969 147.859375 207.085938 144.058594 211.945312 139.144531 L 213.265625 142.859375 C 213.878906 144.699219 214.582031 146.511719 215.253906 148.328125 L 215.285156 148.386719 L 215.695312 149.644531 C 216.601562 152.742188 217.453125 155.8125 218.390625 158.914062 C 218.917969 160.667969 219.472656 162.394531 219.941406 164.175781 C 220.410156 165.933594 220.851562 167.714844 221.289062 169.5 C 223.015625 176.605469 224.421875 183.769531 225.652344 190.964844 L 225.742188 191.257812 L 226.648438 192.019531 C 226.824219 193.101562 226.972656 194.183594 227.117188 195.265625 C 227.207031 195.761719 227.261719 196.257812 227.320312 196.785156 L 226.824219 196.902344 L 226.882812 197.488281 L 227.292969 201.757812 C 227.261719 202.167969 227.234375 202.546875 227.207031 202.984375 C 227.148438 204.214844 227.265625 205.558594 227.4375 206.785156 C 227.554688 207.839844 227.820312 208.835938 228.113281 209.769531 L 228.171875 210.355469 L 228.289062 211.640625 L 228.699219 211.40625 C 228.726562 211.523438 228.726562 211.640625 228.726562 211.757812 C 228.960938 216.027344 229.109375 220.328125 229.136719 224.597656 C 227.261719 226 225.417969 227.375 223.515625 228.632812 C 221.40625 230.035156 219.238281 231.324219 217.042969 232.492188 C 214.847656 233.664062 212.589844 234.773438 210.277344 235.710938 C 209.691406 235.945312 209.105469 236.179688 208.519531 236.382812 C 207.933594 236.585938 207.347656 236.820312 206.734375 237.027344 C 206.148438 237.203125 205.53125 237.433594 204.945312 237.640625 L 203.128906 238.167969 C 200.671875 238.867188 198.121094 239.277344 195.574219 239.25 C 192.996094 239.21875 190.480469 238.664062 188.019531 238.136719 C 186.789062 237.902344 185.558594 237.640625 184.328125 237.40625 C 183.714844 237.289062 183.097656 237.144531 182.484375 236.996094 C 181.867188 236.878906 181.253906 236.703125 180.636719 236.558594 C 178.324219 236.03125 176.011719 235.328125 173.636719 234.6875 C 172.875 232.84375 172.203125 230.941406 171.53125 228.984375 Z M 230.601562 185.378906 L 229.429688 179.0625 C 228.640625 174.882812 227.878906 170.609375 227.03125 166.488281 C 226.621094 164.410156 226.296875 162.304688 226.0625 160.230469 C 225.976562 159.207031 225.886719 158.125 226.003906 157.246094 C 226.035156 157.160156 226.035156 157.042969 226.0625 156.953125 C 226.09375 156.894531 226.121094 156.835938 226.152344 156.75 C 226.296875 156.574219 226.386719 156.398438 226.589844 156.222656 C 226.914062 155.871094 227.292969 155.519531 227.703125 155.199219 C 229.3125 153.914062 231.128906 152.832031 233.035156 151.894531 C 234.90625 150.957031 236.898438 150.167969 238.921875 149.816406 C 239.914062 149.644531 240.941406 149.644531 241.820312 150.023438 C 242.699219 150.375 243.34375 151.164062 243.636719 152.097656 C 243.722656 152.332031 243.78125 152.566406 243.8125 152.800781 L 243.871094 153.589844 L 243.988281 155.171875 C 243.988281 156.222656 243.929688 157.277344 243.871094 158.359375 C 243.519531 162.597656 242.726562 166.78125 241.730469 170.933594 C 240.707031 175.085938 239.535156 179.179688 238.246094 183.246094 C 236.957031 187.191406 235.582031 191.140625 234.085938 195 L 227.585938 196.667969 C 227.378906 195.117188 227.117188 193.539062 226.882812 191.988281 L 227.320312 191.519531 C 228.082031 190.703125 228.785156 189.914062 229.460938 189.007812 C 229.8125 188.539062 230.132812 188.097656 230.425781 187.515625 C 230.515625 187.339844 230.574219 187.222656 230.632812 187.015625 L 230.71875 186.695312 C 230.75 186.550781 230.75 186.34375 230.75 186.167969 Z M 173.84375 235.445312 C 173.84375 235.417969 173.8125 235.417969 173.8125 235.417969 C 175.71875 236.703125 177.796875 237.757812 179.964844 238.574219 C 181.195312 239.042969 182.453125 239.425781 183.742188 239.714844 C 185 240.066406 186.320312 240.242188 187.636719 240.359375 C 190.273438 240.566406 192.910156 240.273438 195.515625 240.15625 C 198.121094 240.007812 200.699219 239.832031 203.304688 239.628906 C 205.941406 239.453125 208.550781 238.898438 211.039062 238.078125 C 213.558594 237.289062 216.046875 236.292969 218.332031 234.980469 C 222.519531 232.550781 226.238281 229.304688 229.078125 225.445312 C 229.078125 225.445312 229.078125 225.445312 229.078125 225.472656 C 229.109375 228.222656 229.078125 230.972656 228.992188 233.722656 C 229.019531 233.691406 229.019531 233.632812 229.050781 233.605469 L 228.992188 233.925781 L 228.992188 233.722656 C 226.855469 238.3125 223.484375 242.523438 219.472656 245.683594 C 218.976562 246.121094 218.417969 246.441406 217.890625 246.824219 L 217.101562 247.378906 L 216.25 247.875 C 215.988281 248.023438 215.753906 248.167969 215.488281 248.34375 C 215.460938 248.34375 215.460938 248.371094 215.429688 248.371094 C 214.582031 248.8125 213.703125 249.25 212.796875 249.601562 C 210.394531 250.566406 207.933594 251.296875 205.386719 251.707031 C 200.289062 252.496094 195.046875 252.234375 190.097656 250.769531 C 185.175781 249.308594 180.609375 246.558594 177.066406 242.816406 L 176.332031 242.054688 C 175.511719 239.832031 174.664062 237.640625 173.84375 235.445312 Z M 177.476562 243.753906 C 177.359375 243.636719 177.242188 243.519531 177.125 243.371094 L 177.386719 243.253906 C 177.417969 243.429688 177.417969 243.605469 177.476562 243.753906 Z M 229.78125 236.441406 C 229.753906 237.230469 229.664062 238.019531 229.578125 238.78125 C 229.371094 240.390625 229.019531 241.96875 228.523438 243.488281 C 228.023438 245.007812 227.378906 246.472656 226.589844 247.847656 C 225.769531 249.191406 224.832031 250.449219 223.777344 251.617188 C 221.609375 253.898438 218.976562 255.714844 216.132812 257.085938 C 213.292969 258.460938 210.21875 259.484375 207.085938 260.128906 C 203.921875 260.742188 200.671875 260.976562 197.417969 260.742188 C 194.167969 260.480469 190.945312 259.71875 188.046875 258.257812 C 185.148438 256.824219 182.542969 254.75 180.726562 252.117188 C 179.613281 250.535156 178.792969 248.78125 178.207031 246.96875 C 177.242188 246.089844 176.363281 245.183594 175.542969 244.191406 L 175.953125 243.984375 C 176.566406 244.71875 177.210938 245.417969 177.914062 246.0625 C 178.003906 246.382812 178.089844 246.675781 178.179688 246.96875 C 181.371094 249.863281 185.207031 252.027344 189.308594 253.375 C 194.609375 255.128906 200.378906 255.539062 205.882812 254.484375 C 207.261719 254.25 208.609375 253.839844 209.953125 253.460938 C 210.628906 253.285156 211.273438 252.992188 211.917969 252.730469 C 212.5625 252.4375 213.234375 252.261719 213.851562 251.910156 C 214.90625 251.414062 215.929688 250.859375 216.894531 250.246094 C 218.300781 249.453125 219.648438 248.519531 220.910156 247.496094 C 223.074219 245.769531 225.007812 243.722656 226.648438 241.53125 C 227.847656 239.863281 228.902344 238.226562 229.78125 236.441406 Z M 251.339844 152.917969 C 250.839844 157.480469 250.226562 162.011719 249.464844 166.515625 C 248.671875 171.019531 247.734375 175.496094 246.652344 179.941406 C 245.570312 184.355469 244.28125 188.742188 242.667969 193.011719 C 241.878906 195.148438 241.027344 197.253906 240.03125 199.269531 C 239.59375 200.324219 238.980469 201.257812 238.480469 202.253906 C 237.953125 203.160156 237.339844 204.039062 236.78125 204.914062 L 236.957031 204.828125 L 236.664062 205.089844 C 236.695312 205.03125 236.722656 204.972656 236.753906 204.945312 L 229.753906 208.921875 C 229.78125 208.367188 229.8125 207.839844 229.753906 207.34375 C 229.695312 206.4375 229.578125 205.644531 229.285156 204.738281 C 229.195312 204.449219 229.109375 204.183594 228.992188 203.863281 L 228.992188 203.773438 L 228.257812 197.894531 L 234.613281 196.054688 L 234.90625 195.964844 L 234.996094 195.703125 C 236.402344 191.636719 237.660156 187.574219 238.890625 183.449219 C 240.121094 179.355469 241.261719 175.230469 242.230469 171.050781 C 243.195312 166.867188 244.105469 162.6875 244.484375 158.386719 C 244.542969 157.304688 244.601562 156.222656 244.632812 155.171875 L 244.574219 153.53125 L 244.542969 152.714844 C 244.515625 152.421875 244.457031 152.128906 244.367188 151.835938 C 244.046875 150.726562 243.253906 149.671875 242.140625 149.203125 C 241.058594 148.707031 239.855469 148.675781 238.746094 148.824219 C 236.546875 149.175781 234.46875 149.933594 232.507812 150.839844 C 230.515625 151.75 228.640625 152.800781 226.855469 154.117188 C 226.414062 154.46875 225.976562 154.789062 225.566406 155.226562 C 225.359375 155.402344 225.15625 155.667969 224.949219 155.929688 C 224.863281 156.078125 224.773438 156.28125 224.6875 156.425781 C 224.628906 156.601562 224.597656 156.777344 224.570312 156.925781 C 224.394531 158.152344 224.480469 159.207031 224.570312 160.316406 C 224.746094 162.480469 225.066406 164.617188 225.417969 166.75 C 226.210938 170.992188 226.882812 175.171875 227.644531 179.382812 L 228.726562 185.671875 L 228.84375 186.34375 C 228.84375 186.34375 228.84375 186.375 228.84375 186.375 C 228.84375 186.402344 228.757812 186.519531 228.726562 186.609375 C 228.523438 186.988281 228.230469 187.398438 227.90625 187.777344 C 227.703125 188.070312 227.46875 188.332031 227.234375 188.625 C 226.765625 185.644531 226.238281 182.660156 225.625 179.707031 C 224.890625 176.109375 224.070312 172.511719 223.191406 168.945312 C 222.753906 167.160156 222.285156 165.375 221.816406 163.59375 C 221.347656 161.808594 220.761719 160.082031 220.234375 158.300781 C 219.296875 155.226562 218.332031 152.15625 217.363281 149.085938 L 217.160156 148.386719 C 220.234375 146.339844 223.367188 144.378906 226.589844 142.535156 C 228.289062 141.570312 230.015625 140.664062 231.804688 139.847656 C 233.589844 139.054688 235.40625 138.414062 237.308594 138.324219 C 241.117188 138.148438 245.1875 139.347656 247.96875 142.097656 C 249.347656 143.441406 250.371094 145.199219 250.898438 147.039062 C 251.484375 148.96875 251.425781 150.957031 251.339844 152.917969 Z M 251.339844 152.917969 " fill-opacity="1" fill-rule="nonzero"/></g><path fill="#231f20" d="M 148.949219 181.929688 C 146.957031 179.210938 144.996094 176.488281 142.914062 173.855469 C 140.867188 171.195312 138.757812 168.5625 136.589844 166.019531 L 142.535156 174.148438 C 144.527344 176.871094 146.519531 179.558594 148.449219 182.308594 C 150.414062 185.027344 152.316406 187.777344 154.191406 190.554688 C 156.066406 193.335938 157.882812 196.140625 159.464844 199.125 C 158.117188 196.054688 156.359375 193.160156 154.570312 190.292969 C 152.816406 187.457031 150.910156 184.679688 148.949219 181.929688 Z M 148.949219 181.929688 " fill-opacity="1" fill-rule="nonzero"/><path fill="#231f20" d="M 244.601562 141.21875 C 242.875 140.253906 240.941406 139.699219 238.980469 139.464844 C 237.015625 139.261719 234.964844 139.40625 233.0625 140.078125 C 231.1875 140.753906 229.460938 141.660156 227.761719 142.625 C 226.09375 143.617188 224.453125 144.640625 222.871094 145.753906 C 222.078125 146.308594 221.289062 146.894531 220.527344 147.480469 C 220.148438 147.769531 219.765625 148.0625 219.386719 148.414062 C 219.296875 148.503906 219.210938 148.589844 219.09375 148.707031 C 219.035156 148.765625 219.003906 148.792969 218.917969 148.910156 C 218.886719 148.96875 218.828125 149.058594 218.800781 149.144531 L 218.769531 149.292969 C 218.742188 149.644531 218.769531 149.875 218.800781 150.140625 C 219.503906 154.03125 220.761719 157.625 221.992188 161.28125 C 221.640625 159.382812 221.144531 157.539062 220.761719 155.636719 C 220.351562 153.765625 219.914062 151.867188 219.738281 150.050781 C 219.707031 149.847656 219.707031 149.613281 219.738281 149.46875 L 219.796875 149.410156 C 219.855469 149.351562 219.941406 149.292969 220.03125 149.203125 C 220.382812 148.910156 220.761719 148.621094 221.140625 148.355469 C 221.902344 147.800781 222.695312 147.273438 223.484375 146.71875 C 225.066406 145.664062 226.679688 144.640625 228.347656 143.675781 C 229.988281 142.710938 231.6875 141.835938 233.414062 141.160156 C 234.292969 140.8125 235.140625 140.605469 236.078125 140.488281 C 236.988281 140.402344 237.925781 140.34375 238.863281 140.402344 C 240.734375 140.488281 242.582031 140.929688 244.28125 141.746094 C 245.128906 142.15625 245.949219 142.625 246.652344 143.265625 C 247.355469 143.910156 247.96875 144.640625 248.46875 145.460938 C 247.765625 143.648438 246.300781 142.214844 244.601562 141.21875 Z M 244.601562 141.21875 " fill-opacity="1" fill-rule="nonzero"/><path fill="#231f20" d="M 180.167969 158.648438 C 181.046875 158.589844 181.925781 158.53125 182.777344 158.445312 L 185.382812 158.09375 C 187.109375 157.773438 188.808594 157.449219 190.507812 156.984375 C 191.355469 156.777344 192.207031 156.515625 193.027344 156.222656 C 193.847656 155.929688 194.695312 155.695312 195.515625 155.375 C 197.125 154.671875 198.765625 154.058594 200.289062 153.179688 C 203.421875 151.632812 206.265625 149.527344 208.871094 147.273438 C 205.824219 148.910156 202.835938 150.609375 199.675781 151.894531 C 196.542969 153.269531 193.347656 154.351562 190.039062 155.226562 C 186.757812 156.136719 183.421875 156.777344 180.050781 157.246094 C 176.65625 157.683594 173.257812 157.949219 169.800781 157.976562 C 173.167969 158.707031 176.683594 158.855469 180.167969 158.648438 Z M 180.167969 158.648438 " fill-opacity="1" fill-rule="nonzero"/><path fill="#231f20" d="M 178.003906 138.996094 C 178.558594 138.9375 179.144531 138.96875 179.699219 138.910156 C 180.257812 138.820312 180.84375 138.792969 181.398438 138.765625 C 182.511719 138.558594 183.683594 138.382812 184.738281 137.886719 C 185.265625 137.652344 185.851562 137.507812 186.320312 137.183594 C 186.816406 136.921875 187.316406 136.597656 187.8125 136.308594 C 188.3125 136.015625 188.75 135.632812 189.191406 135.253906 C 189.628906 134.875 190.070312 134.492188 190.480469 134.113281 C 191.238281 133.265625 191.972656 132.386719 192.644531 131.480469 L 192.558594 131.394531 C 191.589844 132.007812 190.742188 132.710938 189.835938 133.382812 C 189.367188 133.675781 188.898438 133.996094 188.457031 134.289062 C 187.988281 134.582031 187.578125 134.960938 187.082031 135.195312 C 185.265625 136.394531 183.304688 137.300781 181.222656 138.089844 C 180.695312 138.207031 180.167969 138.382812 179.613281 138.5 C 179.054688 138.617188 178.5 138.589844 177.945312 138.617188 C 177.386719 138.648438 176.832031 138.5 176.304688 138.414062 C 175.746094 138.355469 175.21875 138.148438 174.691406 138.03125 C 172.582031 137.535156 170.535156 136.863281 168.453125 135.957031 L 168.367188 136.042969 C 170.007812 137.683594 172.203125 138.707031 174.488281 139.027344 C 175.71875 139.144531 176.859375 139.085938 178.003906 138.996094 Z M 178.003906 138.996094 " fill-opacity="1" fill-rule="nonzero"/><path fill="#231f20" d="M 185 139.464844 C 183.332031 139.992188 181.632812 140.34375 179.90625 140.664062 C 181.664062 140.605469 183.421875 140.34375 185.148438 139.933594 C 186.875 139.496094 188.546875 138.851562 190.097656 137.972656 C 191.621094 137.039062 193.054688 135.898438 194.023438 134.347656 C 194.519531 133.585938 194.8125 132.738281 195.046875 131.863281 C 195.222656 130.984375 195.222656 130.078125 195.078125 129.230469 C 195.136719 130.984375 194.609375 132.710938 193.613281 134.085938 C 192.644531 135.488281 191.269531 136.570312 189.777344 137.449219 C 188.3125 138.324219 186.671875 138.9375 185 139.464844 Z M 185 139.464844 " fill-opacity="1" fill-rule="nonzero"/><path fill="#231f20" d="M 192.324219 234.421875 C 188.984375 234.21875 185.644531 233.925781 182.484375 233.136719 C 180.902344 232.726562 179.378906 232.140625 178.003906 231.292969 C 177.652344 231.089844 177.300781 230.855469 176.976562 230.652344 L 176.449219 230.300781 L 176.1875 230.125 C 176.097656 230.066406 176.011719 230.007812 175.980469 229.976562 C 175.777344 229.832031 175.570312 229.480469 175.367188 229.160156 C 175.191406 228.835938 175.015625 228.457031 174.839844 228.105469 C 174.195312 226.613281 173.695312 225.035156 173.226562 223.457031 C 172.730469 221.878906 172.320312 220.269531 171.882812 218.660156 L 169.363281 208.980469 C 169.742188 212.3125 170.269531 215.617188 170.945312 218.894531 C 171.648438 222.167969 172.40625 225.414062 173.695312 228.601562 C 173.871094 229.011719 174.046875 229.394531 174.28125 229.773438 C 174.515625 230.152344 174.75 230.5625 175.191406 230.941406 C 175.425781 231.148438 175.570312 231.207031 175.746094 231.324219 L 176.273438 231.675781 C 176.625 231.90625 176.976562 232.140625 177.359375 232.347656 C 178.851562 233.195312 180.519531 233.808594 182.191406 234.128906 C 185.585938 234.746094 188.984375 234.6875 192.324219 234.421875 Z M 192.324219 234.421875 " fill-opacity="1" fill-rule="nonzero"/></svg>