<svg xmlns="http://www.w3.org/2000/svg" xmlns:xlink="http://www.w3.org/1999/xlink" width="500" zoomAndPan="magnify" viewBox="0 0 375 374.999991" height="500" preserveAspectRatio="xMidYMid meet" version="1.0"><defs><clipPath id="6341452f7b"><path d="M 135.886719 112.5 L 239.3125 112.5 L 239.3125 262.5 L 135.886719 262.5 Z M 135.886719 112.5 " clip-rule="nonzero"/></clipPath></defs><g clip-path="url(#6341452f7b)"><path fill="#999999" d="M 187.75 262.5 L 187.65625 262.5 C 185.105469 262.457031 182.914062 262.011719 180.9375 261.136719 C 179.535156 260.511719 178.382812 259.78125 177.40625 258.90625 L 177.03125 258.90625 C 176.820312 258.917969 176.605469 258.925781 176.398438 258.925781 C 173.503906 258.925781 170.984375 257.621094 169.476562 255.34375 C 168.066406 253.269531 167.722656 250.675781 168.488281 248.308594 C 168.253906 247.597656 168.121094 246.855469 168.09375 246.109375 C 168.042969 245.136719 168.175781 244.164062 168.480469 243.238281 C 168.253906 242.53125 168.121094 241.796875 168.09375 241.058594 C 168.082031 240.828125 168.078125 240.601562 168.089844 240.371094 C 164.996094 238.085938 163.027344 234.34375 163.019531 230.5 L 162.480469 220.554688 C 162.476562 220.441406 162.472656 220.324219 162.472656 220.210938 C 162.457031 215.464844 160.519531 210.890625 157.144531 207.652344 C 156.609375 207.132812 155.933594 206.578125 155.222656 205.992188 C 154.679688 205.546875 154.136719 205.097656 153.566406 204.601562 C 153.535156 204.574219 153.496094 204.542969 153.457031 204.507812 C 152.261719 203.421875 150.710938 201.964844 149.25 200.300781 C 146.613281 197.347656 144.308594 194.101562 142.394531 190.652344 C 138.707031 184.050781 136.476562 176.257812 135.953125 168.113281 L 135.949219 168.011719 C 135.574219 160.257812 136.914062 152.316406 139.828125 145.035156 C 139.851562 144.980469 139.871094 144.929688 139.890625 144.882812 C 143.039062 137.523438 147.722656 130.925781 153.425781 125.808594 C 156.414062 123.089844 159.671875 120.757812 163.09375 118.894531 C 166.433594 116.988281 170.167969 115.445312 174.191406 114.3125 L 174.308594 114.28125 C 178.796875 113.101562 183.390625 112.5 187.953125 112.5 C 191.417969 112.5 194.851562 112.847656 198.160156 113.539062 C 206.144531 115.167969 213.621094 118.714844 219.773438 123.792969 C 232.109375 133.777344 239.417969 149.171875 239.308594 164.957031 C 239.472656 180.800781 232.171875 196.222656 219.78125 206.21875 C 216.007812 209.308594 213.613281 213.625 213.21875 218.054688 L 212.660156 228.0625 L 212.511719 230.640625 C 212.484375 231.160156 212.425781 232.257812 212.117188 233.441406 C 211.804688 234.644531 211.324219 235.777344 210.691406 236.820312 L 210.65625 236.875 C 209.785156 238.285156 208.613281 239.523438 207.265625 240.484375 C 207.269531 240.652344 207.269531 240.824219 207.261719 240.996094 C 207.238281 241.75 207.101562 242.507812 206.855469 243.234375 C 207.160156 244.136719 207.296875 245.089844 207.261719 246.042969 C 207.238281 246.824219 207.089844 247.605469 206.835938 248.351562 C 207.925781 251.71875 206.636719 255.511719 203.617188 257.480469 C 203.152344 257.785156 202.648438 258.03125 202.125 258.214844 C 200.542969 258.765625 199.125 258.820312 198.183594 258.828125 C 197.171875 259.75 196.035156 260.476562 194.605469 261.121094 C 192.605469 262.003906 190.410156 262.453125 187.875 262.5 C 187.839844 262.5 187.796875 262.5 187.75 262.5 " fill-opacity="1" fill-rule="nonzero"/></g><path fill="#f9e7bd" d="M 219.597656 124.332031 C 213.789062 119.539062 206.71875 116.191406 199.167969 114.648438 C 196.042969 113.996094 192.792969 113.664062 189.515625 113.664062 C 185.1875 113.664062 180.832031 114.234375 176.5625 115.359375 L 176.496094 115.378906 C 172.679688 116.453125 169.144531 117.910156 165.992188 119.714844 C 162.75 121.476562 159.664062 123.683594 156.816406 126.277344 C 151.40625 131.128906 146.960938 137.394531 143.964844 144.398438 C 143.953125 144.429688 143.941406 144.457031 143.929688 144.488281 C 141.160156 151.402344 139.882812 158.953125 140.242188 166.3125 L 140.246094 166.378906 C 140.742188 174.117188 142.855469 181.519531 146.351562 187.769531 C 148.167969 191.046875 150.359375 194.128906 152.863281 196.933594 C 154.234375 198.5 155.714844 199.886719 156.855469 200.921875 L 156.921875 200.984375 C 157.472656 201.460938 158.007812 201.898438 158.523438 202.324219 C 159.28125 202.949219 160 203.539062 160.605469 204.125 C 164.507812 207.875 166.753906 213.164062 166.769531 218.636719 C 166.769531 218.707031 166.769531 218.777344 166.773438 218.847656 L 167.316406 228.867188 C 167.292969 232.425781 169.472656 235.886719 172.648438 237.457031 C 172.441406 238.074219 172.351562 238.726562 172.386719 239.378906 C 172.414062 240.1875 172.625 240.972656 173.007812 241.679688 C 172.550781 242.527344 172.332031 243.476562 172.386719 244.425781 C 172.414062 245.242188 172.628906 246.027344 173.011719 246.734375 C 172.117188 248.457031 172.175781 250.605469 173.3125 252.265625 C 174.304688 253.773438 175.988281 254.636719 177.960938 254.636719 C 178.136719 254.636719 178.316406 254.628906 178.496094 254.617188 L 179.804688 254.617188 C 179.910156 254.617188 180.019531 254.621094 180.128906 254.625 C 180.273438 254.796875 180.429688 254.964844 180.59375 255.125 C 180.628906 255.160156 180.664062 255.195312 180.699219 255.226562 C 181.484375 255.953125 182.429688 256.554688 183.605469 257.082031 C 185.242188 257.804688 187.085938 258.171875 189.246094 258.210938 L 189.316406 258.210938 C 189.339844 258.210938 189.367188 258.210938 189.390625 258.210938 C 191.550781 258.171875 193.398438 257.800781 195.046875 257.070312 C 196.226562 256.542969 197.144531 255.957031 197.9375 255.222656 C 197.96875 255.191406 198.003906 255.160156 198.035156 255.125 C 198.214844 254.949219 198.382812 254.765625 198.539062 254.578125 C 198.574219 254.574219 198.605469 254.574219 198.640625 254.570312 C 198.691406 254.566406 198.746094 254.5625 198.796875 254.558594 C 198.949219 254.539062 199.199219 254.539062 199.464844 254.539062 C 200.316406 254.535156 201.476562 254.535156 202.792969 254.078125 C 203.109375 253.96875 203.40625 253.820312 203.6875 253.636719 C 205.863281 252.21875 206.660156 249.421875 205.582031 247.074219 C 205.535156 246.96875 205.484375 246.863281 205.429688 246.761719 C 205.835938 246.039062 206.070312 245.226562 206.097656 244.386719 C 206.132812 243.429688 205.902344 242.496094 205.453125 241.675781 C 205.84375 240.964844 206.070312 240.160156 206.097656 239.335938 C 206.121094 238.714844 206.03125 238.105469 205.84375 237.53125 C 207.488281 236.742188 208.917969 235.457031 209.898438 233.878906 L 209.917969 233.84375 C 210.414062 233.027344 210.789062 232.140625 211.039062 231.199219 C 211.273438 230.277344 211.324219 229.394531 211.347656 228.921875 L 211.5 226.347656 L 212.058594 216.300781 C 212.503906 211.128906 215.261719 206.113281 219.625 202.539062 C 231.382812 193.054688 238.300781 178.425781 238.140625 163.402344 C 238.25 148.425781 231.320312 133.824219 219.597656 124.332031 " fill-opacity="1" fill-rule="nonzero"/><path fill="#000000" d="M 215.953125 197.964844 C 210.246094 202.058594 206.242188 208.625 205.417969 215.746094 C 205.070312 219.238281 204.910156 222.546875 204.683594 225.957031 L 204.523438 228.496094 C 204.488281 229.375 204.382812 229.730469 204.070312 230.28125 C 203.761719 230.765625 203.316406 231.167969 202.789062 231.390625 C 202.21875 231.636719 201.828125 231.644531 200.851562 231.628906 L 198.859375 231.628906 C 198.953125 224.972656 199.054688 218.316406 198.988281 211.660156 L 198.988281 211.628906 C 198.980469 210.851562 198.34375 210.230469 197.566406 210.238281 L 195.777344 210.261719 C 195.804688 209.292969 195.839844 208.332031 195.863281 207.367188 L 201.285156 197.617188 C 203.15625 194.308594 204.90625 190.9375 206.714844 187.597656 C 210.332031 180.917969 213.894531 174.210938 217.347656 167.445312 C 217.433594 167.273438 217.492188 167.074219 217.496094 166.871094 C 217.515625 166.140625 216.933594 165.53125 216.203125 165.511719 C 214.917969 165.480469 213.480469 165.277344 212.152344 164.976562 C 210.808594 164.667969 209.5 164.230469 208.269531 163.664062 C 207.042969 163.082031 205.914062 162.351562 204.914062 161.476562 C 204.125 160.789062 203.519531 159.949219 202.96875 159.066406 C 203.007812 159.035156 203.070312 159.023438 203.101562 158.992188 C 203.515625 158.578125 203.703125 158.09375 203.847656 157.625 C 201.925781 159.691406 201.679688 157.730469 201.339844 156.839844 C 201.09375 156.226562 200.925781 155.558594 200.488281 155.058594 C 202.222656 157.449219 200.523438 157.527344 199.296875 157.71875 C 198.941406 157.597656 198.570312 157.476562 198.339844 157.34375 C 198.1875 157.253906 197.9375 157 197.839844 156.738281 C 197.5625 156.203125 197.699219 155.398438 198.296875 154.925781 C 198.871094 154.398438 199.898438 154.472656 200.488281 155.058594 C 199.914062 154.457031 198.964844 154.253906 198.101562 154.585938 C 197.242188 154.914062 196.597656 155.9375 196.765625 157.011719 C 196.875 157.546875 197.089844 158.035156 197.609375 158.425781 C 197.84375 158.582031 198.066406 158.695312 198.285156 158.78125 C 195.382812 159.632812 192.367188 160.144531 189.316406 160.222656 C 186.003906 160.289062 182.660156 159.910156 179.441406 159.027344 C 179.527344 159.007812 179.613281 159.007812 179.699219 158.984375 C 180.132812 158.875 180.558594 158.738281 181.027344 158.425781 C 181.546875 158.035156 181.761719 157.546875 181.871094 157.011719 C 182.039062 155.9375 181.394531 154.914062 180.53125 154.585938 C 179.671875 154.253906 178.722656 154.457031 178.148438 155.058594 C 178.738281 154.472656 179.765625 154.398438 180.339844 154.925781 C 180.9375 155.398438 181.074219 156.203125 180.796875 156.738281 C 180.699219 157 180.449219 157.253906 180.296875 157.34375 C 180.066406 157.476562 179.695312 157.597656 179.339844 157.71875 L 177.484375 158.273438 C 177.476562 157.164062 177.476562 155.984375 178.148438 155.058594 C 177.714844 155.558594 177.542969 156.226562 177.296875 156.839844 C 176.878906 157.929688 176.601562 159.574219 174.789062 157.625 C 174.933594 158.09375 175.121094 158.578125 175.535156 158.992188 C 175.699219 159.15625 175.941406 159.277344 176.195312 159.371094 C 175.640625 160.324219 175.019531 161.234375 174.207031 161.996094 C 173.171875 162.945312 172.011719 163.789062 170.71875 164.386719 C 168.136719 165.574219 165.25 166.207031 162.441406 166.304688 C 162.367188 166.308594 162.289062 166.328125 162.222656 166.363281 C 161.960938 166.492188 161.855469 166.8125 161.984375 167.074219 L 167.039062 177.289062 C 168.742188 180.683594 170.351562 184.128906 172.132812 187.484375 C 173.902344 190.84375 175.589844 194.25 177.445312 197.5625 L 182.792969 207.351562 C 182.804688 208.644531 182.839844 209.9375 182.875 211.226562 C 182.269531 211.230469 181.667969 211.246094 181.066406 211.25 C 180.839844 211.253906 180.65625 211.433594 180.65625 211.660156 C 180.628906 215.21875 180.605469 218.78125 180.523438 222.339844 L 180.214844 231.617188 L 177.910156 231.632812 C 176.945312 231.648438 176.464844 231.660156 175.917969 231.441406 C 174.832031 230.972656 174.09375 230.011719 174.085938 228.628906 L 173.398438 218.472656 C 173.277344 215.078125 172.609375 211.382812 171.113281 208.183594 C 169.648438 204.941406 167.511719 202.023438 164.914062 199.625 C 163.589844 198.40625 162.175781 197.410156 160.929688 196.371094 C 159.667969 195.292969 158.421875 194.191406 157.285156 192.976562 C 154.980469 190.578125 152.941406 187.917969 151.21875 185.058594 C 144.304688 173.613281 143.207031 158.726562 148.59375 146.367188 C 153.863281 133.9375 165.339844 124.625 178.179688 121.46875 C 191.027344 118.265625 205.253906 120.8125 215.964844 128.835938 C 221.34375 132.773438 225.835938 137.964844 228.96875 143.925781 C 232.101562 149.890625 233.695312 156.648438 233.773438 163.410156 C 233.6875 170.167969 232.113281 176.925781 228.984375 182.894531 C 225.855469 188.859375 221.355469 194.054688 215.953125 197.964844 Z M 196.148438 213.0625 C 196.105469 219.253906 196.1875 225.4375 196.277344 231.628906 L 195 231.625 C 195.296875 225.4375 195.519531 219.25 195.695312 213.058594 Z M 187.671875 218.285156 C 188.113281 217.398438 188.867188 217.320312 189.316406 217.320312 C 189.765625 217.320312 190.511719 217.402344 190.953125 218.285156 C 191.441406 219.148438 190.621094 220.640625 189.316406 220.59375 C 190.09375 220.605469 190.945312 220.257812 191.570312 219.578125 L 191.019531 231.625 L 187.613281 231.621094 L 187.0625 219.570312 C 187.683594 220.257812 188.539062 220.609375 189.316406 220.59375 C 188.011719 220.640625 187.1875 219.152344 187.671875 218.285156 Z M 187.164062 212.148438 C 187.425781 212.15625 187.644531 211.949219 187.652344 211.6875 L 187.65625 211.660156 C 187.804688 206.097656 188.066406 200.535156 188.253906 194.972656 C 188.445312 189.410156 188.363281 183.847656 188.269531 178.285156 L 188.269531 178.253906 C 188.261719 177.71875 187.855469 177.253906 187.308594 177.191406 C 186.34375 177.074219 185.371094 176.867188 184.585938 176.511719 C 184.203125 176.347656 183.871094 176.074219 183.832031 175.984375 C 183.832031 175.96875 183.738281 176.101562 183.960938 175.816406 C 184.441406 175.355469 185.433594 174.976562 186.355469 174.746094 C 187.308594 174.519531 188.308594 174.394531 189.316406 174.351562 C 190.605469 174.324219 191.988281 174.414062 193.222656 174.738281 L 193.257812 174.777344 C 193.308594 174.800781 193.359375 174.773438 193.414062 174.785156 C 193.988281 174.953125 194.535156 175.15625 195 175.457031 C 195.320312 175.730469 195.460938 175.960938 195.328125 176.265625 C 195.191406 176.589844 194.78125 176.914062 194.359375 177.144531 C 193.445312 177.640625 192.554688 177.886719 191.367188 178.195312 C 191.070312 183.523438 190.824219 189.042969 190.59375 194.644531 C 190.375 200.25 190.242188 205.953125 190.113281 211.660156 L 190.113281 211.675781 C 190.105469 212.40625 190.691406 213.003906 191.425781 213.011719 L 191.46875 213.011719 L 193.914062 213.039062 C 194.089844 219.234375 194.3125 225.429688 194.609375 231.625 L 192.242188 231.625 L 191.683594 219.464844 C 191.953125 219.140625 192.179688 218.761719 192.308594 218.285156 C 192.503906 217.507812 192.339844 216.558594 191.773438 215.832031 C 191.222656 215.09375 190.273438 214.644531 189.316406 214.632812 C 188.359375 214.644531 187.414062 215.097656 186.863281 215.835938 C 186.300781 216.5625 186.136719 217.507812 186.332031 218.285156 C 186.457031 218.761719 186.683594 219.136719 186.949219 219.460938 L 186.394531 231.621094 L 184.027344 231.617188 C 184.238281 227.761719 184.429688 223.902344 184.542969 220.046875 C 184.605469 217.402344 184.691406 214.761719 184.765625 212.117188 C 185.5625 212.128906 186.363281 212.125 187.164062 212.148438 Z M 200.789062 160.136719 L 193.214844 173.394531 C 191.9375 172.996094 190.613281 172.863281 189.316406 172.765625 C 188.214844 172.734375 187.105469 172.789062 185.988281 172.972656 C 185.75 173.023438 185.507812 173.074219 185.269531 173.128906 L 177.433594 159.421875 C 181.238281 160.757812 185.242188 161.617188 189.316406 161.695312 C 193.171875 161.792969 197.070312 161.28125 200.789062 160.136719 Z M 193.863281 206.578125 L 193.839844 206.621094 C 193.773438 206.757812 193.734375 206.914062 193.738281 207.078125 C 193.761719 208.144531 193.804688 209.210938 193.832031 210.28125 L 192.785156 210.292969 C 192.667969 205.328125 192.542969 200.355469 192.34375 195.300781 L 191.570312 178.371094 C 192.464844 178.386719 193.667969 178.1875 194.664062 177.773438 C 195.171875 177.546875 195.714844 177.28125 196.101562 176.675781 C 196.554688 176.023438 196.179688 175.066406 195.707031 174.679688 C 195.296875 174.339844 194.867188 174.097656 194.429688 173.875 L 200.941406 160.089844 C 200.980469 160.082031 201.015625 160.070312 201.054688 160.058594 C 201.683594 161.179688 202.402344 162.257812 203.339844 163.144531 C 204.496094 164.234375 205.796875 165.164062 207.199219 165.859375 C 208.601562 166.542969 210.066406 167.066406 211.558594 167.441406 C 212.402344 167.648438 213.238281 167.804688 214.089844 167.929688 C 210.75 174.019531 207.484375 180.148438 204.273438 186.304688 C 202.519531 189.675781 200.707031 193.011719 199.015625 196.414062 Z M 184.753906 206.605469 L 184.746094 206.589844 L 179.519531 196.464844 C 177.8125 193.070312 175.9375 189.765625 174.140625 186.421875 C 172.359375 183.066406 170.40625 179.804688 168.546875 176.492188 L 163.292969 167.261719 C 166.011719 167.003906 168.636719 166.320312 171.082031 165.132812 C 172.414062 164.460938 173.6875 163.644531 174.804688 162.628906 C 175.8125 161.722656 176.59375 160.597656 177.261719 159.414062 C 177.292969 159.40625 177.320312 159.40625 177.351562 159.394531 L 177.363281 159.398438 L 184.027344 173.507812 C 183.554688 173.695312 183.078125 173.933594 182.601562 174.320312 C 182.324219 174.582031 182.023438 174.894531 181.855469 175.40625 C 181.691406 175.910156 181.765625 176.539062 182.003906 176.957031 C 182.488281 177.796875 183.105469 178.109375 183.65625 178.410156 C 184.457031 178.800781 185.253906 179.011719 186.046875 179.179688 C 185.960938 184.441406 185.890625 189.707031 186.074219 194.972656 C 186.257812 200.375 186.503906 205.777344 186.65625 211.175781 C 186.03125 211.191406 185.40625 211.195312 184.785156 211.203125 C 184.816406 209.828125 184.859375 208.453125 184.867188 207.078125 C 184.867188 206.921875 184.832031 206.757812 184.753906 206.605469 Z M 181.609375 222.339844 C 181.527344 218.917969 181.507812 215.496094 181.480469 212.074219 C 181.949219 212.078125 182.421875 212.089844 182.890625 212.09375 C 182.964844 214.742188 183.050781 217.394531 183.113281 220.046875 C 183.226562 223.902344 183.417969 227.761719 183.628906 231.617188 L 181.914062 231.617188 Z M 201.191406 234.847656 C 200.988281 234.9375 200.742188 234.878906 200.402344 234.859375 C 198.414062 234.894531 177.46875 234.855469 177.441406 234.84375 C 177.246094 234.769531 177.085938 234.597656 176.996094 234.390625 C 177.339844 234.402344 177.664062 234.40625 177.910156 234.402344 L 180.460938 234.417969 L 200.851562 234.40625 C 201.0625 234.414062 201.335938 234.410156 201.632812 234.398438 C 201.542969 234.605469 201.386719 234.773438 201.191406 234.847656 Z M 198.847656 237.8125 L 198.347656 237.777344 L 194.878906 237.53125 C 194.863281 236.9375 194.851562 236.347656 194.828125 235.761719 C 195.457031 235.742188 196.082031 235.730469 196.707031 235.703125 L 198.75 235.597656 Z M 200.40625 238.398438 C 201.089844 238.234375 201.699219 238.523438 201.742188 239.195312 C 201.785156 239.847656 201.101562 240.3125 200.40625 240.15625 C 200.226562 240.148438 200.042969 240.136719 199.859375 240.132812 L 199.9375 238.429688 Z M 199.074219 242.875 L 198.347656 242.828125 L 194.867188 242.578125 C 194.894531 241.941406 194.894531 241.296875 194.898438 240.652344 L 198.347656 240.402344 C 198.554688 240.386719 198.757812 240.386719 198.960938 240.378906 Z M 200.40625 243.449219 C 201.089844 243.285156 201.699219 243.574219 201.742188 244.246094 C 201.785156 244.894531 201.101562 245.363281 200.40625 245.203125 C 200.148438 245.199219 199.894531 245.179688 199.636719 245.171875 L 199.710938 243.496094 Z M 199.300781 247.976562 L 194.539062 247.667969 C 194.589844 247.023438 194.644531 246.378906 194.6875 245.714844 L 198.347656 245.453125 C 198.628906 245.429688 198.90625 245.429688 199.1875 245.417969 Z M 200.402344 248.464844 C 200.933594 248.394531 201.375 248.410156 201.648438 248.847656 C 201.914062 249.238281 201.792969 249.84375 201.371094 250.105469 C 200.964844 250.390625 200.402344 250.214844 199.902344 250.234375 L 199.410156 250.214844 L 199.488281 248.523438 Z M 194.320312 249.929688 C 194.359375 249.582031 194.390625 249.207031 194.425781 248.851562 L 199.324219 248.53125 L 199.402344 250.214844 L 198.359375 250.175781 C 197.011719 250.082031 195.667969 250 194.320312 249.929688 Z M 194.75 251.699219 C 194.230469 252.011719 193.640625 252.222656 193.035156 252.363281 C 191.824219 252.648438 190.570312 252.785156 189.316406 252.777344 C 188.0625 252.78125 186.808594 252.648438 185.601562 252.363281 C 184.996094 252.21875 184.402344 252.011719 183.882812 251.699219 C 183.441406 251.476562 183.097656 251.117188 182.875 250.65625 C 183.921875 250.703125 184.96875 250.734375 186.015625 250.789062 C 189.261719 250.988281 192.507812 250.863281 195.757812 250.660156 C 195.53125 251.117188 195.191406 251.476562 194.75 251.699219 Z M 179.234375 250.140625 L 179.300781 248.660156 C 183.039062 248.835938 186.773438 248.910156 190.511719 248.921875 C 190.527344 249.214844 190.53125 249.507812 190.550781 249.800781 C 189.039062 249.777344 187.527344 249.78125 186.015625 249.875 C 183.960938 249.984375 181.902344 250.097656 179.84375 250.140625 Z M 177.132812 249.722656 C 176.929688 249.378906 177.054688 248.917969 177.359375 248.722656 C 177.609375 248.507812 178.121094 248.644531 178.660156 248.636719 C 178.824219 248.644531 178.988281 248.648438 179.152344 248.65625 L 179.21875 250.140625 L 178.300781 250.140625 C 177.753906 250.148438 177.335938 250.113281 177.132812 249.722656 Z M 179.441406 245.480469 L 179.875 245.476562 C 181.113281 245.488281 182.347656 245.554688 183.585938 245.621094 C 185.867188 245.730469 188.152344 245.792969 190.433594 245.824219 C 190.429688 246.414062 190.429688 247 190.449219 247.589844 C 186.746094 247.601562 183.042969 247.675781 179.335938 247.847656 Z M 177.039062 244.246094 C 177.085938 243.769531 177.46875 243.460938 178.023438 243.5625 L 178.925781 243.601562 L 178.992188 245.074219 C 178.011719 245.097656 176.996094 245.152344 177.039062 244.246094 Z M 179.667969 240.429688 L 179.875 240.425781 C 181.113281 240.4375 182.347656 240.507812 183.585938 240.570312 C 185.96875 240.6875 188.347656 240.757812 190.730469 240.78125 C 190.691406 241.367188 190.636719 241.953125 190.589844 242.539062 L 183.585938 242.628906 L 179.875 242.769531 L 179.5625 242.785156 Z M 177.039062 239.195312 C 177.085938 238.71875 177.46875 238.414062 178.023438 238.511719 L 178.703125 238.542969 L 178.769531 240.03125 C 177.863281 240.050781 177 240.035156 177.039062 239.195312 Z M 193.605469 242.5 C 193.785156 245.621094 193.808594 246.371094 194.152344 249.917969 C 193.253906 249.871094 192.355469 249.835938 191.453125 249.8125 C 191.796875 244.738281 190.996094 240.933594 191.34375 235.835938 C 192.105469 235.828125 192.867188 235.816406 193.628906 235.800781 C 193.539062 238.273438 193.492188 240.527344 193.605469 242.5 Z M 194.914062 238.78125 L 198.347656 238.539062 L 198.878906 238.503906 L 198.949219 240.09375 C 198.75 240.082031 198.550781 240.085938 198.347656 240.066406 L 194.910156 239.820312 C 194.910156 239.472656 194.921875 239.128906 194.914062 238.78125 Z M 194.808594 243.839844 L 198.347656 243.585938 L 199.101562 243.535156 L 199.175781 245.152344 C 198.898438 245.140625 198.625 245.140625 198.347656 245.117188 L 194.742188 244.855469 C 194.765625 244.515625 194.789062 244.179688 194.808594 243.839844 Z M 179.75 238.589844 L 179.875 238.59375 L 183.585938 238.738281 L 190.792969 238.828125 C 190.792969 238.875 190.796875 238.925781 190.796875 238.972656 C 190.800781 239.210938 190.777344 239.449219 190.773438 239.6875 C 188.375 239.710938 185.980469 239.78125 183.585938 239.898438 C 182.347656 239.960938 181.113281 240.03125 179.875 240.042969 C 179.816406 240.039062 179.75 240.039062 179.683594 240.03125 Z M 179.523438 243.628906 L 179.875 243.640625 L 183.585938 243.785156 L 190.519531 243.875 C 190.5 244.164062 190.492188 244.453125 190.480469 244.742188 C 188.183594 244.769531 185.882812 244.835938 183.585938 244.949219 C 182.347656 245.011719 181.113281 245.082031 179.875 245.09375 C 179.746094 245.078125 179.605469 245.074219 179.460938 245.070312 Z M 179.882812 235.597656 L 181.925781 235.703125 C 184.390625 235.824219 186.851562 235.84375 189.316406 235.859375 C 189.765625 235.855469 190.214844 235.847656 190.664062 235.84375 C 190.699219 236.394531 190.714844 236.941406 190.734375 237.488281 L 183.585938 237.578125 L 179.875 237.722656 L 179.789062 237.726562 Z M 217 127.496094 C 211.65625 123.085938 205.164062 120.046875 198.332031 118.652344 C 191.496094 117.226562 184.339844 117.542969 177.609375 119.316406 C 174.257812 120.257812 171 121.558594 167.992188 123.285156 C 164.941406 124.9375 162.117188 126.984375 159.566406 129.308594 C 154.421875 133.921875 150.429688 139.707031 147.734375 146.003906 C 145.183594 152.375 144.003906 159.261719 144.335938 166.117188 C 144.773438 172.949219 146.5625 179.753906 149.9375 185.789062 C 151.609375 188.808594 153.625 191.644531 155.9375 194.222656 C 157.074219 195.53125 158.332031 196.730469 159.613281 197.898438 C 160.953125 199.0625 162.296875 200.066406 163.445312 201.179688 C 168.183594 205.726562 170.847656 212.015625 170.867188 218.625 L 171.414062 228.789062 C 171.355469 230.820312 172.777344 233.183594 174.882812 233.972656 C 175.433594 234.21875 176.046875 234.324219 176.609375 234.371094 L 176.609375 234.394531 C 176.65625 234.753906 176.875 235.097656 177.207031 235.296875 C 177.558594 235.511719 177.960938 235.484375 178.230469 235.515625 L 178.570312 235.53125 L 178.667969 237.773438 L 178.023438 237.800781 C 177.328125 237.6875 176.394531 238.378906 176.484375 239.195312 C 176.472656 240.015625 177.367188 240.589844 178.023438 240.453125 L 178.789062 240.441406 L 178.890625 242.8125 L 178.023438 242.851562 C 177.328125 242.734375 176.394531 243.425781 176.484375 244.246094 C 176.472656 245.066406 177.367188 245.640625 178.023438 245.503906 L 179.011719 245.488281 L 179.117188 247.859375 C 178.964844 247.867188 178.8125 247.867188 178.660156 247.875 L 177.890625 247.90625 C 177.605469 247.898438 177.21875 248.007812 176.972656 248.222656 C 176.441406 248.648438 176.335938 249.464844 176.71875 249.988281 C 177.074219 250.574219 177.859375 250.578125 178.300781 250.527344 L 179.84375 250.523438 C 180.792969 250.542969 181.742188 250.605469 182.691406 250.648438 C 182.707031 251.234375 183.058594 251.804688 183.480469 252.222656 C 184.007812 252.707031 184.625 253.054688 185.265625 253.339844 C 186.546875 253.90625 187.941406 254.097656 189.316406 254.121094 C 190.691406 254.09375 192.085938 253.90625 193.367188 253.339844 C 194.003906 253.054688 194.625 252.707031 195.152344 252.21875 C 195.570312 251.804688 195.925781 251.234375 195.941406 250.648438 C 196.746094 250.597656 197.550781 250.546875 198.359375 250.492188 C 199.386719 250.378906 200.414062 250.570312 201.445312 250.210938 C 201.90625 249.914062 202.097656 249.257812 201.839844 248.746094 C 201.621094 248.179688 200.867188 248.023438 200.402344 248.046875 L 199.511719 247.992188 L 199.625 245.398438 C 199.886719 245.390625 200.144531 245.371094 200.40625 245.363281 C 200.734375 245.34375 201.125 245.40625 201.453125 245.1875 C 201.773438 244.996094 201.992188 244.632812 202 244.246094 C 202.019531 243.855469 201.820312 243.472656 201.5 243.234375 C 201.167969 242.96875 200.714844 242.992188 200.40625 242.96875 L 199.734375 242.921875 L 199.851562 240.339844 C 200.035156 240.335938 200.222656 240.320312 200.40625 240.316406 C 200.734375 240.296875 201.125 240.355469 201.453125 240.140625 C 201.773438 239.949219 201.992188 239.582031 202 239.195312 C 202.019531 238.808594 201.820312 238.421875 201.5 238.183594 C 201.167969 237.917969 200.714844 237.941406 200.40625 237.917969 L 199.960938 237.886719 L 200.066406 235.53125 L 200.402344 235.515625 C 200.675781 235.480469 201.074219 235.511719 201.425781 235.292969 C 201.757812 235.097656 201.976562 234.753906 202.023438 234.394531 L 202.023438 234.371094 C 202.648438 234.320312 203.339844 234.203125 203.910156 233.914062 C 204.949219 233.464844 205.820312 232.679688 206.414062 231.726562 C 206.707031 231.242188 206.925781 230.722656 207.066406 230.175781 C 207.210938 229.632812 207.238281 229.027344 207.257812 228.660156 L 207.40625 226.121094 L 207.96875 216.015625 C 208.503906 209.585938 211.960938 203.519531 217.039062 199.363281 C 227.851562 190.648438 234.199219 177.039062 234.042969 163.410156 C 234.15625 149.777344 227.78125 136.214844 217 127.496094 " fill-opacity="1" fill-rule="nonzero"/></svg>