<svg xmlns="http://www.w3.org/2000/svg" xmlns:xlink="http://www.w3.org/1999/xlink" width="500" zoomAndPan="magnify" viewBox="0 0 375 374.999991" height="500" preserveAspectRatio="xMidYMid meet" version="1.0"><defs><clipPath id="afa4e11f33"><path d="M 115.226562 210 L 204 210 L 204 262 L 115.226562 262 Z M 115.226562 210 " clip-rule="nonzero"/></clipPath></defs><path fill="#1d0e07" d="M 189.59375 119.453125 C 193.246094 122.050781 195.53125 125.695312 197.347656 129.714844 C 198.984375 133.339844 199.964844 137.386719 202.1875 140.714844 C 204.023438 143.46875 206.875 145.316406 209.28125 147.511719 C 211.046875 149.117188 215.3125 153.757812 212.429688 155.964844 C 212.121094 156.203125 212.28125 156.820312 212.722656 156.65625 C 219.671875 154.03125 207.839844 144.691406 205.777344 142.847656 C 201.90625 139.394531 200.585938 134.410156 198.554688 129.816406 C 196.613281 125.433594 194.011719 121.539062 189.855469 119.007812 C 189.566406 118.828125 189.324219 119.265625 189.59375 119.453125 Z M 189.59375 119.453125 " fill-opacity="1" fillRule="nonzero"/><path fill="#1d0e07" d="M 164.738281 119.914062 C 160.757812 122.886719 156.289062 125.164062 156.667969 130.839844 C 156.832031 133.261719 159.246094 140.042969 162.640625 136.707031 C 162.773438 136.570312 162.667969 136.359375 162.492188 136.347656 C 158.84375 136.132812 157.902344 132.761719 157.878906 129.535156 C 157.84375 125.085938 162.464844 123.164062 165.128906 120.421875 C 165.375 120.167969 165.039062 119.691406 164.738281 119.914062 Z M 164.738281 119.914062 " fill-opacity="1" fillRule="nonzero"/><path fill="#1d0e07" d="M 192.816406 119.730469 C 199.242188 126.46875 199.042969 136.003906 201.613281 141.140625 C 205.148438 147.878906 213.824219 149.804688 215.753906 157.503906 C 217.679688 165.847656 215.429688 172.90625 206.433594 174.511719 C 198.722656 175.792969 192.9375 173.546875 188.761719 166.808594 C 183.296875 156.863281 180.726562 140.820312 182.976562 129.589844 " fill-opacity="1" fillRule="nonzero"/><path fill="#a0a0c2" d="M 179.683594 192.542969 C 174.378906 193.027344 170.765625 203.226562 165.460938 204.671875 C 157.269531 207.078125 138.46875 209.484375 138.46875 220.074219 C 138.953125 238.363281 179.441406 230.664062 189.5625 234.996094 C 209.808594 242.695312 226.195312 260.503906 248.851562 247.988281 C 259.9375 241.734375 258.007812 229.699219 251.261719 220.554688 C 245.476562 212.371094 233.90625 206.597656 225.230469 201.785156 " fill-opacity="1" fillRule="nonzero"/><path fill="#cf5443" d="M 169.089844 214.519531 C 178.160156 212.992188 186.445312 215.542969 192.726562 222.335938 C 197.859375 227.890625 200.53125 235.421875 206.800781 239.980469 C 207.300781 240.34375 207.777344 239.511719 207.28125 239.15625 C 200.125 233.953125 197.28125 224.789062 190.671875 218.996094 C 184.59375 213.664062 176.636719 212.285156 168.835938 213.597656 C 168.226562 213.699219 168.488281 214.621094 169.089844 214.519531 Z M 169.089844 214.519531 " fill-opacity="1" fillRule="nonzero"/><path fill="#cf5443" d="M 193.507812 223.339844 C 199.816406 225.339844 206.261719 225.242188 212.777344 225.65625 C 215.628906 225.839844 218.457031 226.292969 221.195312 227.113281 C 224.238281 228.027344 226.183594 229.558594 228.257812 231.855469 C 228.472656 232.089844 228.925781 231.847656 228.808594 231.539062 C 227.058594 227.007812 219.960938 225.664062 215.804688 225.152344 C 212.644531 224.761719 209.507812 224.792969 206.328125 224.703125 C 202.003906 224.578125 197.847656 223.644531 193.582031 223.066406 C 193.40625 223.039062 193.324219 223.28125 193.507812 223.339844 Z M 193.507812 223.339844 " fill-opacity="1" fillRule="nonzero"/><g clipPath="url(#afa4e11f33)"><path fill="#f9efe3" d="M 163.566406 230.0625 C 166.667969 231.34375 207.40625 245.058594 203.125 249.65625 C 200.875 251.902344 176.042969 260.132812 169.191406 261.308594 C 162.339844 262.484375 124.769531 250.089844 122.414062 244.847656 C 120.058594 239.605469 115.242188 215.878906 115.5625 212.78125 C 115.882812 209.359375 119.84375 210 122.304688 210.429688 C 127.015625 211.175781 131.832031 212.246094 136.542969 213.316406 C 142.214844 214.492188 147.78125 216.09375 153.5625 217.375 C 156.238281 218.019531 160.628906 218.339844 162.554688 220.476562 C 163.945312 221.757812 164.589844 223.363281 164.910156 225.285156 C 165.125 226.675781 169.9375 256.855469 169.832031 258.246094 " fill-opacity="1" fillRule="nonzero"/></g><path fill="#cf5443" d="M 176.058594 237.910156 C 174.351562 237.246094 172.636719 236.601562 170.914062 235.972656 C 169.84375 235.585938 168.773438 235.207031 167.703125 234.832031 C 167.320312 234.699219 166.769531 234.425781 166.347656 234.527344 C 166.269531 234.546875 166.214844 234.65625 166.269531 234.726562 C 166.976562 235.667969 169.359375 236.039062 170.398438 236.402344 C 172.246094 237.050781 174.09375 237.683594 175.953125 238.292969 C 176.203125 238.375 176.296875 238 176.058594 237.910156 Z M 176.058594 237.910156 " fill-opacity="1" fillRule="nonzero"/><path fill="#cf5443" d="M 186.089844 252.539062 C 183.09375 253.480469 180.066406 254.339844 177.015625 255.101562 C 175.078125 255.585938 173.089844 256.074219 171.089844 256.203125 C 169.664062 256.292969 169.75 255.359375 169.5 254.15625 C 168.085938 247.328125 167.429688 240.292969 166.65625 233.371094 C 166.585938 232.761719 165.621094 232.753906 165.691406 233.371094 C 166.519531 240.753906 167 248.496094 168.867188 255.699219 C 169.558594 258.371094 173.546875 256.875 175.421875 256.464844 C 179.105469 255.660156 182.75 254.601562 186.34375 253.464844 C 186.933594 253.28125 186.683594 252.351562 186.089844 252.539062 Z M 186.089844 252.539062 " fill-opacity="1" fillRule="nonzero"/><path fill="#de937b" d="M 193.414062 135.425781 C 195.496094 132.167969 196.933594 135.027344 197.078125 136.953125 C 197.476562 140.464844 195.222656 141.636719 192.285156 142.59375 " fill-opacity="1" fillRule="nonzero"/><path fill="#de937b" d="M 193.363281 127.988281 C 195.605469 134.792969 192.679688 145.507812 187.480469 150.195312 C 180.457031 156.53125 170.742188 156.089844 166.203125 148.550781 C 163.871094 144.675781 161.375 134.707031 162.023438 130.113281 C 162.335938 127.878906 162.886719 119.214844 176.175781 117.09375 C 189.46875 114.972656 191.984375 123.808594 193.363281 127.988281 Z M 193.363281 127.988281 " fill-opacity="1" fillRule="nonzero"/><path fill="#1d0e07" d="M 164.027344 137.96875 C 164.371094 139.011719 165.484375 139.511719 166.488281 139.730469 C 167.304688 139.910156 168.917969 140 169.367188 139.144531 C 169.429688 139.027344 169.410156 138.84375 169.273438 138.78125 C 168.625 138.476562 167.867188 138.839844 167.167969 138.828125 C 166.046875 138.8125 165.382812 138.117188 164.46875 137.628906 C 164.246094 137.511719 163.941406 137.707031 164.027344 137.96875 Z M 164.027344 137.96875 " fill-opacity="1" fillRule="nonzero"/><path fill="#1d0e07" d="M 174.964844 139 C 175.917969 140.125 177.535156 140.042969 178.863281 139.800781 C 180.136719 139.566406 182.3125 138.890625 183.042969 137.765625 C 183.125 137.640625 183.015625 137.492188 182.882812 137.484375 C 181.871094 137.417969 180.847656 138.167969 179.9375 138.527344 C 178.277344 139.175781 176.960938 139.242188 175.316406 138.546875 C 175.015625 138.417969 174.742188 138.738281 174.964844 139 Z M 174.964844 139 " fill-opacity="1" fillRule="nonzero"/><path fill="#de937b" d="M 169.296875 137.246094 C 170.925781 141.460938 164.316406 146.871094 172.027344 144.832031 " fill-opacity="1" fillRule="nonzero"/><path fill="#cf5443" d="M 169.019531 137.324219 C 169.734375 139.796875 168.015625 141.863281 167.746094 144.226562 C 167.480469 146.53125 171.152344 145.671875 172.214844 145.148438 C 172.539062 144.988281 172.382812 144.457031 172.027344 144.46875 C 171.058594 144.503906 169.699219 145.15625 168.785156 144.679688 C 168.316406 144.433594 169.046875 142.808594 169.15625 142.492188 C 169.761719 140.75 170.292969 138.964844 169.578125 137.167969 C 169.441406 136.832031 168.910156 136.957031 169.019531 137.324219 Z M 169.019531 137.324219 " fill-opacity="1" fillRule="nonzero"/><path fill="#1d0e07" d="M 164.582031 134.574219 C 165.582031 134.210938 166.285156 134.101562 167.335938 134.453125 C 167.804688 134.609375 168.820312 135.5 169.125 134.679688 C 169.1875 134.511719 169.105469 134.335938 169 134.210938 C 168.109375 133.144531 164.921875 132.484375 164.140625 134 C 163.996094 134.28125 164.234375 134.703125 164.582031 134.574219 Z M 164.582031 134.574219 " fill-opacity="1" fillRule="nonzero"/><path fill="#1d0e07" d="M 175.320312 134.605469 C 177.503906 133.625 179.269531 133.148438 181.5625 134.175781 C 182.179688 134.453125 182.671875 133.648438 182.097656 133.257812 C 179.96875 131.820312 176.671875 132.253906 174.75 133.867188 C 174.308594 134.238281 174.871094 134.804688 175.320312 134.605469 Z M 175.320312 134.605469 " fill-opacity="1" fillRule="nonzero"/><path fill="#1d0e07" d="M 169.820312 147.558594 C 173 148.972656 176.648438 147.757812 179.355469 145.75 C 179.484375 145.65625 179.46875 145.378906 179.257812 145.402344 C 178.011719 145.542969 176.953125 146.1875 175.839844 146.734375 C 173.820312 147.726562 172.152344 147.742188 170.003906 147.125 C 169.75 147.054688 169.570312 147.449219 169.820312 147.558594 Z M 169.820312 147.558594 " fill-opacity="1" fillRule="nonzero"/><path fill="#de937b" d="M 190.6875 145.3125 C 192.617188 151.726562 193.582031 151.085938 199.042969 151.085938 C 204.183594 151.085938 206.433594 152.691406 206.753906 158.144531 C 207.398438 165.203125 204.183594 174.1875 202.257812 180.925781 C 201.613281 183.816406 200.972656 187.988281 197.757812 188.628906 C 193.582031 189.269531 188.117188 183.816406 184.902344 181.570312 C 179.441406 178.039062 164.980469 169.375 168.515625 161.035156 C 171.085938 154.9375 182.332031 156.542969 176.871094 147.234375 " fill-opacity="1" fillRule="nonzero"/><path fill="#de937b" d="M 209.324219 214.621094 L 207.71875 210.769531 C 200.972656 216.222656 193.257812 217.828125 185.546875 221.359375 C 180.40625 223.605469 180.40625 228.417969 177.191406 232.589844 C 173.976562 236.117188 172.691406 239.648438 170.121094 243.820312 C 173.015625 243.175781 174.621094 239.96875 176.226562 238.042969 C 177.835938 239.96875 176.226562 243.175781 180.082031 244.140625 C 181.367188 244.78125 184.742188 243.335938 186.1875 242.535156 C 188.757812 243.820312 189.082031 242.855469 189.402344 240.609375 C 190.042969 237.402344 187.796875 238.363281 190.367188 234.835938 C 191.332031 233.871094 192.617188 233.550781 193.257812 232.265625 C 193.578125 231.304688 192.9375 229.699219 193.578125 229.058594 C 194.867188 226.8125 197.4375 227.453125 199.683594 227.132812 C 202.898438 226.492188 210.609375 226.492188 212.859375 223.925781 C 215.429688 221.035156 212.539062 215.582031 209.324219 214.621094 Z M 209.324219 214.621094 " fill-opacity="1" fillRule="nonzero"/><path fill="#cf5443" d="M 182.167969 144.4375 C 182.691406 146.417969 185.445312 146.765625 187.527344 145.171875 C 189.921875 143.339844 191.554688 139.285156 189.878906 137.796875 C 186.753906 135.011719 181.296875 142.011719 182.167969 144.4375 Z M 182.167969 144.4375 " fill-opacity="0.4" fillRule="nonzero"/><path fill="#cf5443" d="M 165.867188 147.925781 C 165.859375 147.925781 165.859375 147.925781 165.855469 147.929688 C 164.84375 146.011719 163.835938 143.054688 163.089844 139.992188 C 164.417969 140.519531 165.75 141.460938 166.597656 142.574219 C 168.191406 144.65625 167.847656 147.40625 165.867188 147.925781 Z M 165.867188 147.925781 " fill-opacity="0.4" fillRule="nonzero"/><path fill="#cf5443" d="M 193.074219 140.085938 C 193.492188 139.21875 193.5625 138.261719 194.136719 137.445312 C 194.242188 137.292969 194.394531 137.148438 194.574219 137.085938 C 194.816406 136.996094 195 137.191406 195.210938 137.269531 C 195.660156 137.433594 195.910156 137.160156 195.613281 136.746094 C 194.988281 135.886719 193.90625 136.527344 193.457031 137.164062 C 193.152344 137.59375 192.972656 138.117188 192.8125 138.617188 C 192.679688 139.03125 192.515625 139.5 192.519531 139.9375 C 192.519531 140.214844 192.941406 140.363281 193.074219 140.085938 Z M 193.074219 140.085938 " fill-opacity="1" fillRule="nonzero"/><path fill="#1d0e07" d="M 165.410156 118.710938 C 161.449219 121.242188 155.285156 131.929688 164.125 132.621094 C 163.300781 130.960938 163.691406 128.871094 164.933594 127.5 C 165.246094 131.75 166.3125 131.800781 169.75 133.175781 C 169.695312 131.386719 170.007812 130.074219 171.070312 128.710938 C 171.410156 130.46875 171.050781 133.316406 173.121094 132.894531 C 175.542969 132.40625 176.160156 129.015625 178.183594 128.027344 C 179.21875 131.757812 176.660156 135.5 182.324219 134.820312 C 185.40625 134.449219 187.546875 132.972656 189.714844 135.546875 C 190.160156 136.074219 189.765625 137.410156 190.898438 137.5 C 191.628906 137.558594 191.535156 136.277344 192 136.058594 C 193.710938 135.246094 196.03125 135.164062 197.039062 133.238281 C 198.777344 129.925781 195.984375 124.164062 194.140625 121.40625 C 188.191406 112.492188 173.507812 113.539062 165.410156 118.710938 Z M 165.410156 118.710938 " fill-opacity="1" fillRule="nonzero"/><path fill="#cf5443" d="M 179.683594 154.449219 C 181.746094 154.65625 183.648438 153.664062 185.28125 152.5 C 186.628906 151.539062 188.515625 149.894531 188.890625 148.199219 C 188.953125 147.914062 188.605469 147.679688 188.386719 147.90625 C 187.253906 149.074219 186.460938 150.445312 185.191406 151.527344 C 183.640625 152.855469 181.730469 153.71875 179.683594 153.820312 C 179.269531 153.839844 179.28125 154.410156 179.683594 154.449219 Z M 179.683594 154.449219 " fill-opacity="1" fillRule="nonzero"/><path fill="#cf5443" d="M 200.226562 152.589844 C 200.949219 155.957031 195.589844 162.078125 193.179688 163.761719 C 194.382812 165.203125 197.035156 166.410156 197.277344 168.332031 C 197.515625 170.257812 195.589844 171.222656 194.867188 172.664062 C 193.417969 176.515625 194.382812 181.089844 191.25 184.457031 C 187.394531 178.199219 183.054688 173.867188 176.066406 171.222656 C 172.640625 169.925781 171.542969 167.707031 172.339844 164.289062 C 172.828125 162.203125 175.054688 155.996094 171.183594 156.578125 C 163.660156 159.1875 162.925781 163.28125 162.8125 166.648438 C 162.695312 170.019531 159.679688 175.070312 157.507812 178.921875 C 156.304688 180.847656 154.859375 182.292969 155.582031 184.457031 C 156.0625 186.625 158.234375 188.789062 158.957031 190.714844 C 160.882812 195.046875 160.882812 198.894531 162.089844 203.226562 C 157.75 204.191406 155.339844 194.804688 152.691406 199.378906 C 150.28125 203.710938 153.171875 207.800781 157.269531 208.761719 C 161.605469 209.726562 162.871094 211.046875 166.726562 210.082031 C 169.675781 209.242188 172.046875 207.152344 174.042969 204.910156 C 175.226562 203.574219 175.921875 201.042969 177.613281 200.230469 C 180.667969 198.761719 179.734375 204.347656 180.566406 205.953125 C 181.976562 208.675781 185.847656 209.988281 188.683594 210.496094 C 190.546875 210.828125 192.835938 210.957031 194.160156 212.507812 C 195.972656 214.628906 192.59375 216.378906 194.125 217.910156 C 195.847656 219.632812 202.160156 221.308594 203.058594 222.722656 C 204.503906 224.886719 204.023438 227.773438 206.675781 229.460938 C 211.734375 232.347656 217.519531 229.460938 220.171875 225.128906 C 223.304688 219.832031 227.160156 218.628906 232.703125 216.464844 C 237.765625 214.296875 243.066406 213.09375 243.308594 206.839844 C 243.789062 194.566406 233.183594 185.421875 228.847656 174.832031 C 224.992188 165.445312 225.195312 153.21875 207.359375 149.847656 C 202.9375 149.011719 199.503906 149.21875 200.226562 152.589844 Z M 200.226562 152.589844 " fill-opacity="1" fillRule="nonzero"/><path fill="#de937b" d="M 142.859375 170.359375 C 141.066406 168.34375 137.785156 167.476562 135.097656 167.765625 C 135.097656 169.496094 137.1875 170.933594 138.378906 172.085938 C 134.5 172.664062 138.378906 176.695312 139.277344 178.714844 C 140.171875 180.152344 139.277344 180.152344 141.066406 181.59375 C 142.261719 182.457031 144.054688 182.171875 145.246094 182.746094 C 150.621094 185.628906 153.105469 193.164062 153.90625 198.589844 C 154.859375 205.039062 163.199219 209.582031 167.34375 201.472656 C 171.488281 193.363281 158.703125 182.667969 157.507812 178.921875 C 156.914062 176.328125 158.386719 169.207031 154.207031 168.628906 " fill-opacity="1" fillRule="nonzero"/><path fill="#f9efe3" d="M 140.113281 159.519531 C 137.902344 163.988281 140.808594 176.195312 141.835938 178.507812 C 142.863281 180.816406 153.460938 181.21875 154.6875 178.507812 C 155.914062 175.792969 157.082031 162.691406 156.765625 160.925781 C 156.140625 157.433594 142.324219 155.050781 140.113281 159.519531 Z M 140.113281 159.519531 " fill-opacity="1" fillRule="nonzero"/><path fill="#cf5443" d="M 153.589844 159.652344 C 151.683594 158.914062 146.714844 158.691406 145.960938 158.785156 C 145.058594 158.898438 142.300781 158.925781 141.859375 159.789062 C 141.273438 160.992188 144.613281 161.21875 145.558594 161.421875 C 147.378906 161.816406 152.128906 161.832031 153.714844 160.9375 C 154.671875 160.398438 154.425781 159.976562 153.589844 159.652344 Z M 153.589844 159.652344 " fill-opacity="1" fillRule="nonzero"/><path fill="#cf5443" d="M 180.757812 121.339844 C 182.316406 121.785156 183.257812 123.160156 183.710938 124.640625 C 184.175781 126.164062 183.757812 127.308594 183.148438 128.675781 C 183.015625 128.960938 183.316406 129.410156 183.640625 129.167969 C 185.023438 128.136719 184.859375 125.910156 184.453125 124.4375 C 183.960938 122.660156 182.675781 121.210938 180.808594 120.964844 C 180.585938 120.933594 180.554688 121.28125 180.757812 121.339844 Z M 180.757812 121.339844 " fill-opacity="1" fillRule="nonzero"/><path fill="#cf5443" d="M 172.335938 120.78125 C 169.828125 121.234375 165.136719 124.714844 167.253906 127.609375 C 168.230469 128.945312 169.644531 127.648438 170.042969 126.511719 C 170.472656 125.273438 170.582031 124.164062 171.289062 123.003906 C 171.699219 122.332031 172.21875 121.734375 172.667969 121.085938 C 172.902344 120.75 172.40625 120.429688 172.128906 120.671875 C 171.433594 121.28125 170.914062 122.125 170.4375 122.90625 C 169.621094 124.253906 169.792969 126.125 168.722656 127.257812 C 168 128.027344 167.53125 126.792969 167.433594 126.449219 C 167.335938 126.117188 167.425781 125.753906 167.515625 125.429688 C 167.722656 124.664062 168.316406 124 168.851562 123.445312 C 169.796875 122.460938 171.101562 121.488281 172.410156 121.050781 C 172.582031 120.992188 172.511719 120.75 172.335938 120.78125 Z M 172.335938 120.78125 " fill-opacity="1" fillRule="nonzero"/><path fill="#a0a0c2" d="M 185.578125 119.175781 C 190.304688 119.828125 192.019531 126.109375 193.664062 129.667969 C 193.730469 129.8125 193.964844 129.773438 193.996094 129.625 C 194.46875 127.378906 192.351562 124.414062 191.164062 122.703125 C 189.890625 120.871094 188.039062 118.777344 185.628906 118.796875 C 185.417969 118.800781 185.355469 119.144531 185.578125 119.175781 Z M 185.578125 119.175781 " fill-opacity="1" fillRule="nonzero"/><path fill="#a0a0c2" d="M 198.382812 213.699219 C 199.472656 211.21875 201.222656 209.648438 203.863281 208.941406 C 205.789062 208.425781 207.625 208.085938 209.089844 206.625 C 209.953125 205.765625 210.046875 204.320312 210.316406 203.210938 C 210.789062 201.273438 212.671875 200.234375 214.203125 199.203125 C 216.164062 197.882812 216.605469 196.324219 215.535156 194.199219 C 214.679688 192.507812 213.175781 191.164062 212.15625 189.5625 C 210.914062 187.613281 210.925781 185.464844 210.71875 183.246094 C 210.660156 182.59375 209.75 182.585938 209.703125 183.246094 C 209.457031 186.617188 210.464844 189.34375 212.492188 191.984375 C 213.492188 193.285156 216.046875 195.597656 214.667969 197.371094 C 213.9375 198.308594 212.660156 198.832031 211.738281 199.5625 C 210.855469 200.261719 209.78125 201.222656 209.453125 202.355469 C 209.246094 203.050781 209.097656 203.746094 208.953125 204.457031 C 208.609375 206.09375 207.320312 206.890625 205.851562 207.484375 C 203.929688 208.261719 202.171875 208.382812 200.46875 209.671875 C 199.1875 210.640625 198.394531 211.996094 197.910156 213.5 C 197.820312 213.773438 198.265625 213.96875 198.382812 213.699219 Z M 198.382812 213.699219 " fill-opacity="1" fillRule="nonzero"/><path fill="#a0a0c2" d="M 177.832031 195.195312 C 179.414062 193.269531 180.027344 191.328125 179.273438 188.902344 C 178.902344 187.691406 178.175781 186.5625 177.511719 185.496094 C 176.671875 184.148438 176.007812 182.667969 175.121094 181.363281 C 174.867188 180.988281 174.320312 181.226562 174.40625 181.664062 C 175.386719 186.8125 181 189.183594 177.484375 194.925781 C 177.351562 195.136719 177.667969 195.390625 177.832031 195.195312 Z M 177.832031 195.195312 " fill-opacity="1" fillRule="nonzero"/><path fill="#cf5443" d="M 177.109375 162.128906 C 177.964844 162.390625 178.734375 162.726562 179.5 163.191406 C 180.222656 163.632812 180.863281 164.28125 181.714844 164.4375 C 181.886719 164.46875 182.058594 164.296875 181.953125 164.125 C 181.484375 163.382812 180.644531 162.941406 179.910156 162.488281 C 179.089844 161.976562 178.167969 161.566406 177.191406 161.515625 C 176.828125 161.496094 176.78125 162.027344 177.109375 162.128906 Z M 177.109375 162.128906 " fill-opacity="1" fillRule="nonzero"/><path fill="#cf5443" d="M 189.308594 163.019531 C 190.917969 162.460938 192.378906 161.640625 193.855469 160.792969 C 195.667969 159.757812 197.457031 159.101562 199.429688 158.449219 C 199.699219 158.359375 199.632812 158.003906 199.367188 157.976562 C 195.691406 157.613281 192.292969 161.214844 189.121094 162.582031 C 188.871094 162.6875 189.050781 163.109375 189.308594 163.019531 Z M 189.308594 163.019531 " fill-opacity="1" fillRule="nonzero"/><path fill="#a0a0c2" d="M 142.417969 229.160156 C 140.96875 228.195312 139.085938 229.488281 138 230.667969 C 137.035156 229.410156 135.660156 227.605469 134.222656 229.402344 C 132.617188 231.40625 136.394531 235.175781 138.078125 236.378906 C 139.285156 234.695312 145.070312 230.84375 142.417969 229.160156 Z M 142.417969 229.160156 " fill-opacity="1" fillRule="nonzero"/><path fill="#a0a0c2" d="M 142.066406 163.886719 C 140.417969 166.292969 142.160156 168.90625 144.308594 170.273438 C 145.238281 170.867188 146.480469 171.96875 145.390625 173.15625 C 145.148438 173.421875 144.699219 173.804688 144.632812 174.191406 C 144.480469 175.066406 144.90625 175.496094 145.679688 175.855469 C 146.0625 176.035156 146.375 175.609375 146.117188 175.289062 C 145.078125 173.996094 147.828125 172.714844 146.863281 171.070312 C 146.425781 170.324219 145.46875 169.914062 144.757812 169.511719 C 142.707031 168.347656 141.796875 166.316406 142.449219 164.046875 C 142.519531 163.808594 142.195312 163.695312 142.066406 163.886719 Z M 142.066406 163.886719 " fill-opacity="1" fillRule="nonzero"/><path fill="#a0a0c2" d="M 231.988281 203.460938 C 232.019531 204.789062 231.582031 206.375 232.585938 207.441406 C 233.441406 208.351562 234.441406 208.960938 235.707031 208.53125 C 237.828125 207.816406 237.875 204.902344 236.289062 203.703125 C 236.0625 203.535156 235.660156 203.707031 235.613281 203.980469 C 235.230469 206.21875 236.582031 208.296875 239.070312 207.199219 C 240.460938 206.589844 240.933594 205.410156 241.210938 203.976562 C 241.597656 201.996094 241.675781 200.066406 242.199219 198.105469 C 242.300781 197.730469 241.851562 197.5 241.578125 197.742188 C 240.460938 198.730469 240.429688 200.382812 240.316406 201.773438 C 240.21875 202.992188 240.175781 204.226562 239.660156 205.359375 C 239.300781 206.148438 238.453125 206.425781 237.675781 206.480469 C 236.359375 206.570312 236.363281 205.082031 236.5 204.222656 C 236.273438 204.316406 236.050781 204.40625 235.824219 204.5 C 237.71875 205.898438 235.59375 208.886719 233.546875 207.226562 C 232.226562 206.152344 233.191406 204.574219 232.382812 203.351562 C 232.273438 203.1875 231.984375 203.238281 231.988281 203.460938 Z M 231.988281 203.460938 " fill-opacity="1" fillRule="nonzero"/><path fill="#cf5443" d="M 240.242188 237.152344 C 240.335938 239.359375 243.394531 243.976562 246.023438 241.679688 C 248.207031 239.773438 246.238281 235.675781 245.589844 233.472656 C 245.519531 233.234375 245.304688 233.066406 245.054688 233.066406 C 244.949219 233.066406 244.839844 233.0625 244.734375 233.058594 C 244.554688 233.050781 244.320312 233.164062 244.246094 233.335938 C 243.226562 235.671875 243.980469 238.976562 246.863281 239.375 C 250.175781 239.835938 251.726562 235.164062 252.445312 232.746094 C 252.519531 232.484375 252.199219 232.199219 251.957031 232.375 C 250.523438 233.40625 250.152344 235.375 249.335938 236.863281 C 248.445312 238.484375 246.398438 238.65625 245.355469 237.105469 C 244.953125 236.507812 244.910156 235.753906 244.917969 235.0625 C 244.976562 234.789062 245.035156 234.515625 245.089844 234.238281 C 244.960938 234.121094 244.800781 234.0625 244.609375 234.070312 C 245.109375 235.710938 245.730469 237.304688 245.886719 239.03125 C 246.019531 240.507812 245.128906 241.707031 243.449219 240.832031 C 242.164062 240.160156 241.078125 238.457031 240.855469 237.070312 C 240.800781 236.71875 240.226562 236.804688 240.242188 237.152344 Z M 240.242188 237.152344 " fill-opacity="1" fillRule="nonzero"/></svg>