<svg xmlns="http://www.w3.org/2000/svg" xmlns:xlink="http://www.w3.org/1999/xlink" width="500" zoomAndPan="magnify" viewBox="0 0 375 374.999991" height="500" preserveAspectRatio="xMidYMid meet" version="1.0"><defs><clipPath id="e10e2314e8"><path d="M 112.5 191 L 262.5 191 L 262.5 251.90625 L 112.5 251.90625 Z M 112.5 191 " clip-rule="nonzero"/></clipPath></defs><g clip-path="url(#e10e2314e8)"><path fill="#000000" d="M 187.503906 239.855469 C 183.5625 239.855469 179.585938 239.730469 175.679688 239.476562 C 174.417969 239.398438 173.273438 240.367188 173.191406 241.65625 C 173.105469 242.949219 174.085938 244.0625 175.375 244.144531 C 179.382812 244.40625 183.460938 244.539062 187.503906 244.539062 C 197.320312 244.539062 206.628906 243.792969 215.152344 242.441406 C 209.324219 245.523438 199.71875 247.183594 187.082031 247.183594 C 174.109375 247.183594 164.324219 245.4375 158.550781 242.195312 C 161.445312 242.679688 164.410156 243.117188 167.5 243.460938 C 167.585938 243.472656 167.675781 243.476562 167.761719 243.476562 C 168.9375 243.476562 169.953125 242.589844 170.085938 241.390625 C 170.230469 240.105469 169.304688 238.949219 168.015625 238.808594 C 148.9375 236.699219 133.296875 231.523438 124.609375 225.078125 C 138.882812 232.097656 163.679688 235.785156 187.496094 235.785156 C 211.273438 235.785156 236.019531 232.109375 250.304688 225.113281 C 239.257812 233.328125 216.726562 239.855469 187.503906 239.855469 Z M 262.496094 211.269531 C 262.496094 206.566406 259.070312 202.285156 252.316406 198.539062 C 251.1875 197.914062 249.757812 198.324219 249.128906 199.449219 C 248.5 200.582031 248.90625 202.007812 250.039062 202.632812 C 253.582031 204.597656 257.808594 207.6875 257.808594 211.269531 C 257.808594 220.652344 228.929688 231.105469 187.496094 231.105469 C 146.0625 231.105469 117.1875 220.652344 117.1875 211.269531 C 117.1875 205.949219 126.644531 200.261719 141.859375 196.429688 C 143.113281 196.113281 143.871094 194.839844 143.558594 193.585938 C 143.238281 192.332031 141.949219 191.574219 140.710938 191.890625 C 122.519531 196.472656 112.5 203.355469 112.5 211.269531 C 112.5 211.84375 112.507812 213.453125 112.507812 213.726562 C 112.507812 225.164062 126.960938 235.164062 149.875 240.496094 C 149.949219 240.574219 150.011719 240.664062 150.097656 240.730469 C 149.972656 240.628906 149.902344 240.550781 149.894531 240.550781 C 149.894531 240.550781 149.898438 240.554688 149.90625 240.566406 C 154.644531 248.0625 167.152344 251.863281 187.082031 251.863281 C 206.714844 251.863281 219.136719 248.167969 224.132812 240.730469 C 247.191406 235.535156 262.5 225.503906 262.5 213.726562 C 262.5 213.445312 262.496094 211.832031 262.496094 211.269531 " fill-opacity="1" fill-rule="nonzero"/></g><path fill="#000000" d="M 185.304688 143.375 C 185.765625 144.371094 186.25 145.421875 186.765625 146.605469 C 189.167969 152.09375 186.191406 155.078125 185.863281 155.382812 C 184.894531 156.234375 184.800781 157.714844 185.65625 158.683594 C 186.117188 159.210938 186.765625 159.476562 187.414062 159.476562 C 187.96875 159.476562 188.519531 159.285156 188.964844 158.894531 C 189.207031 158.679688 194.910156 153.527344 191.066406 144.730469 C 190.53125 143.515625 190.035156 142.441406 189.5625 141.417969 C 188.585938 139.296875 187.742188 137.46875 186.859375 135.007812 C 185.359375 130.832031 190.246094 127.734375 190.453125 127.605469 C 191.550781 126.929688 191.898438 125.492188 191.222656 124.390625 C 190.546875 123.292969 189.109375 122.933594 188 123.617188 C 185.105469 125.382812 180.210938 130.371094 182.445312 136.585938 C 183.398438 139.242188 184.324219 141.25 185.304688 143.375 " fill-opacity="1" fill-rule="nonzero"/><path fill="#000000" d="M 198.011719 143.34375 C 198.476562 144.351562 198.960938 145.410156 199.488281 146.605469 C 201.886719 152.097656 198.914062 155.082031 198.585938 155.382812 C 197.617188 156.234375 197.523438 157.71875 198.378906 158.683594 C 198.84375 159.210938 199.488281 159.476562 200.136719 159.476562 C 200.6875 159.476562 201.242188 159.285156 201.6875 158.894531 C 201.933594 158.679688 207.625 153.527344 203.785156 144.734375 C 203.246094 143.503906 202.746094 142.417969 202.269531 141.382812 C 201.296875 139.277344 200.457031 137.457031 199.578125 135.007812 C 198.078125 130.832031 202.96875 127.734375 203.175781 127.605469 C 204.277344 126.929688 204.621094 125.496094 203.945312 124.394531 C 203.273438 123.292969 201.832031 122.933594 200.726562 123.617188 C 197.828125 125.382812 192.933594 130.371094 195.167969 136.585938 C 196.113281 139.230469 197.035156 141.226562 198.011719 143.34375 " fill-opacity="1" fill-rule="nonzero"/><path fill="#000000" d="M 172.582031 143.363281 C 173.042969 144.367188 173.527344 145.417969 174.046875 146.605469 C 176.449219 152.09375 173.46875 155.078125 173.144531 155.382812 C 172.175781 156.234375 172.078125 157.714844 172.9375 158.683594 C 173.398438 159.210938 174.046875 159.476562 174.695312 159.476562 C 175.246094 159.476562 175.800781 159.285156 176.246094 158.894531 C 176.488281 158.679688 182.191406 153.527344 178.34375 144.730469 C 177.808594 143.507812 177.3125 142.433594 176.835938 141.40625 C 175.859375 139.289062 175.019531 137.464844 174.136719 135.007812 C 172.636719 130.832031 177.527344 127.734375 177.734375 127.605469 C 178.832031 126.929688 179.179688 125.496094 178.503906 124.394531 C 177.835938 123.292969 176.390625 122.933594 175.285156 123.617188 C 172.382812 125.382812 167.488281 130.371094 169.722656 136.585938 C 170.675781 139.238281 171.601562 141.242188 172.582031 143.363281 " fill-opacity="1" fill-rule="nonzero"/><path fill="#000000" d="M 187.082031 175.039062 C 203.90625 175.039062 220.839844 172.457031 228.714844 167.476562 C 228.59375 173.425781 227.816406 182.589844 224.589844 190.175781 C 219.257812 202.726562 208.253906 216.90625 208.144531 217.046875 C 208.011719 217.214844 207.90625 217.398438 207.824219 217.597656 L 206.40625 221.0625 C 204.226562 221.972656 197.421875 224.40625 187.082031 224.40625 C 176.808594 224.40625 169.945312 221.964844 167.753906 221.058594 L 166.335938 217.597656 C 166.253906 217.398438 166.144531 217.214844 166.015625 217.046875 C 165.90625 216.90625 154.90625 202.742188 149.570312 190.175781 C 146.34375 182.589844 145.566406 173.425781 145.445312 167.476562 C 153.320312 172.453125 170.257812 175.039062 187.082031 175.039062 Z M 232.585938 178.042969 C 234.019531 177.066406 235.433594 176.195312 236.773438 175.5 C 239.847656 173.917969 243.5625 173.59375 245.804688 174.691406 C 246.839844 175.199219 247.4375 175.953125 247.621094 176.988281 C 248.324219 180.835938 245.867188 183.785156 240.449219 188.566406 C 238.609375 190.1875 233.984375 192.640625 227.25 195.605469 C 227.835938 194.402344 228.398438 193.199219 228.90625 192.003906 C 230.816406 187.507812 231.933594 182.605469 232.585938 178.042969 Z M 233.355469 169.664062 C 235.628906 168.496094 239.09375 167.058594 242.421875 167.058594 C 246.917969 167.058594 250.390625 168.390625 252.464844 170.914062 C 254.457031 173.339844 255.117188 176.878906 254.320312 180.882812 C 252.203125 191.507812 233.808594 204.085938 218.699219 211.632812 C 218.457031 211.753906 218.039062 211.890625 217.535156 212.023438 C 219.464844 209.195312 221.644531 205.804688 223.734375 202.191406 C 234.132812 197.898438 240.8125 194.492188 243.554688 192.074219 C 249.015625 187.257812 253.433594 182.734375 252.238281 176.152344 C 251.78125 173.660156 250.234375 171.652344 247.875 170.496094 C 244.257812 168.71875 239.058594 169.054688 234.617188 171.34375 C 234.160156 171.582031 233.679688 171.875 233.210938 172.140625 C 233.273438 171.285156 233.320312 170.453125 233.355469 169.664062 Z M 162.117188 219.664062 L 163.769531 223.699219 C 163.984375 224.222656 164.378906 224.648438 164.878906 224.902344 C 165.21875 225.070312 173.328125 229.089844 187.082031 229.089844 C 200.835938 229.089844 208.941406 225.070312 209.28125 224.902344 C 209.785156 224.648438 210.175781 224.222656 210.390625 223.699219 L 212.042969 219.664062 C 212.335938 219.28125 212.921875 218.511719 213.707031 217.441406 C 215.839844 217.261719 219.21875 216.609375 220.792969 215.820312 C 228.957031 211.742188 255.839844 197.242188 258.917969 181.796875 C 259.992188 176.390625 258.988281 171.472656 256.085938 167.949219 C 253.09375 164.300781 248.367188 162.375 242.421875 162.375 C 239.230469 162.375 236.085938 163.316406 233.425781 164.460938 C 233.394531 162.40625 233.300781 161.089844 233.285156 160.902344 C 233.285156 160.867188 233.261719 160.839844 233.257812 160.808594 C 232.898438 153.609375 218.820312 150.234375 210.371094 148.859375 C 209.109375 148.640625 207.886719 149.519531 207.683594 150.796875 C 207.472656 152.070312 208.339844 153.273438 209.617188 153.480469 C 223.449219 155.726562 228.605469 159.335938 228.605469 161.082031 C 228.605469 164.230469 213.949219 170.355469 187.082031 170.355469 C 160.214844 170.355469 145.554688 164.230469 145.554688 161.082031 C 145.554688 159.328125 151.753906 154.789062 170.171875 152.710938 C 171.460938 152.566406 172.382812 151.40625 172.238281 150.121094 C 172.09375 148.839844 170.917969 147.925781 169.648438 148.058594 C 161.101562 149.023438 141.40625 152.1875 140.914062 160.765625 C 140.90625 160.8125 140.878906 160.851562 140.875 160.902344 C 140.820312 161.617188 139.574219 178.640625 145.253906 192.003906 C 150.488281 204.324219 160.523438 217.59375 162.117188 219.664062 " fill-opacity="1" fill-rule="nonzero"/></svg>