<svg xmlns="http://www.w3.org/2000/svg" xmlns:xlink="http://www.w3.org/1999/xlink" width="500" zoomAndPan="magnify" viewBox="0 0 375 374.999991" height="500" preserveAspectRatio="xMidYMid meet" version="1.0"><defs><clipPath id="b97c1aee1b"><path d="M 144.65625 112.5 L 205 112.5 L 205 164 L 144.65625 164 Z M 144.65625 112.5 " clip-rule="nonzero"/></clipPath></defs><path fill="#000000" d="M 166.359375 249.707031 C 166.449219 249.886719 166.566406 250.066406 166.625 250.273438 C 166.953125 251.378906 167.222656 252.511719 167.550781 253.617188 C 167.609375 253.855469 167.789062 254.0625 167.964844 254.242188 C 169.960938 256.0625 172.371094 257.078125 174.902344 257.820312 C 181.363281 259.730469 187.941406 260.269531 194.582031 259.375 C 197.796875 258.925781 200.890625 258.0625 203.542969 256.089844 C 204.496094 255.375 205.296875 254.242188 205.625 253.046875 C 205.445312 253.136719 205.296875 253.199219 205.148438 253.257812 C 201.90625 254.71875 198.539062 255.941406 195.027344 256.507812 C 190.175781 257.285156 185.292969 257.582031 180.378906 256.777344 C 177.226562 256.269531 174.160156 255.433594 171.332031 253.914062 C 169.753906 253.046875 168.292969 252.035156 167.164062 250.601562 C 166.925781 250.304688 166.804688 249.976562 166.597656 249.648438 C 166.65625 249.617188 166.6875 249.558594 166.746094 249.527344 C 166.925781 249.617188 167.101562 249.707031 167.222656 249.828125 C 170.617188 252.898438 174.695312 254.390625 179.128906 255.136719 C 184.933594 256.089844 190.679688 255.824219 196.398438 254.511719 C 200.566406 253.554688 204.40625 252.003906 207.917969 249.585938 C 208.394531 249.257812 208.75 248.929688 208.839844 248.273438 C 209.527344 243.800781 210.269531 239.324219 210.953125 234.847656 C 211.90625 228.433594 212.800781 222.019531 213.753906 215.636719 C 214.320312 211.785156 214.945312 207.90625 215.507812 204.058594 C 215.65625 202.953125 215.6875 201.851562 215.746094 200.71875 C 215.71875 200.71875 215.65625 200.746094 215.597656 200.777344 C 211.074219 203.550781 206.132812 205.042969 200.890625 205.640625 C 196.546875 206.148438 192.199219 206.386719 187.851562 206.238281 C 181.691406 206.027344 175.617188 205.222656 169.753906 203.28125 C 168.5625 202.894531 167.429688 202.417969 166.269531 201.941406 C 165.972656 201.820312 165.675781 201.640625 165.40625 201.402344 C 165.644531 201.464844 165.851562 201.523438 166.089844 201.582031 C 170.316406 203.015625 174.664062 203.96875 179.101562 204.566406 C 189.460938 205.910156 199.640625 205.28125 209.554688 201.792969 C 211.9375 200.957031 214.167969 199.851562 216.105469 198.210938 C 216.195312 198.121094 216.3125 198.03125 216.34375 197.914062 C 216.582031 197.015625 216.789062 196.121094 216.996094 195.226562 C 216.640625 195.464844 216.222656 195.734375 215.808594 195.972656 C 213.039062 197.644531 210 198.628906 206.875 199.40625 C 200.625 201.015625 194.222656 201.464844 187.792969 201.285156 C 181.511719 201.105469 175.320312 200.417969 169.246094 198.6875 C 166.597656 197.941406 164.035156 196.929688 161.65625 195.464844 C 161.148438 195.167969 160.671875 194.808594 160.253906 194.390625 C 160.792969 194.691406 161.328125 194.988281 161.863281 195.257812 C 165.109375 196.898438 168.589844 197.851562 172.132812 198.597656 C 179.578125 200.148438 187.078125 200.476562 194.609375 199.941406 C 199.3125 199.613281 203.988281 199.015625 208.542969 197.761719 C 210.804688 197.136719 213.007812 196.332031 215.0625 195.136719 C 216.492188 194.300781 217.773438 193.257812 218.636719 191.824219 C 219.113281 190.992188 219.378906 190.035156 219.738281 189.140625 C 220.6875 186.722656 220.957031 184.128906 221.523438 181.59375 C 222.179688 178.609375 222.683594 175.566406 223.28125 172.582031 C 223.605469 170.972656 223.992188 169.390625 224.351562 167.808594 C 224.378906 167.6875 224.378906 167.539062 224.351562 167.421875 C 224.144531 166.734375 224.230469 166.464844 224.796875 166.019531 C 225.871094 165.125 226.792969 164.109375 227.417969 162.855469 C 228.519531 160.648438 228.460938 158.410156 227.417969 156.203125 C 226.464844 154.171875 224.976562 152.59375 223.21875 151.28125 C 219.886719 148.742188 216.105469 147.011719 212.117188 145.761719 C 205.953125 143.792969 199.613281 142.597656 193.152344 142.269531 C 189.90625 142.089844 186.660156 142.179688 183.417969 142.121094 C 183.058594 142.121094 182.671875 142.0625 182.316406 142.03125 C 182.316406 141.941406 182.285156 141.882812 182.285156 141.792969 C 182.523438 141.703125 182.792969 141.582031 183.03125 141.554688 C 184.339844 141.402344 185.648438 141.226562 186.988281 141.136719 C 191.8125 140.835938 196.664062 141.015625 201.457031 141.644531 C 207.621094 142.449219 213.542969 144.058594 219.140625 146.863281 C 222.148438 148.386719 224.886719 150.265625 227.089844 152.832031 C 228.011719 153.90625 228.757812 155.070312 229.261719 156.382812 C 230.15625 158.828125 230.007812 161.246094 228.847656 163.570312 C 228.132812 165.035156 227.148438 166.285156 226.046875 167.449219 C 226.019531 167.480469 226.019531 167.511719 225.988281 167.511719 C 225.183594 167.808594 225.246094 168.523438 225.183594 169.179688 C 224.828125 173.058594 224.320312 176.910156 223.546875 180.726562 C 223.128906 182.84375 222.742188 184.964844 222.265625 187.082031 C 221.640625 189.976562 220.808594 192.8125 219.527344 195.464844 C 218.664062 197.257812 218.308594 199.136719 217.890625 201.046875 C 216.582031 207.339844 215.957031 213.753906 214.972656 220.082031 C 213.871094 227.269531 212.859375 234.492188 211.847656 241.679688 C 211.519531 243.917969 211.3125 246.15625 211.042969 248.394531 C 210.925781 249.347656 210.507812 250.125 209.644531 250.601562 C 208.871094 251.019531 208.453125 251.527344 208.394531 252.453125 C 208.304688 253.945312 207.53125 255.078125 206.429688 256.121094 C 203.542969 258.835938 200.027344 260.121094 196.277344 260.925781 C 189.847656 262.328125 183.445312 262.269531 177.074219 260.65625 C 174.1875 259.941406 171.480469 258.777344 169.15625 256.898438 C 168.414062 256.300781 167.878906 255.40625 167.132812 254.777344 C 166.328125 254.121094 166.417969 253.289062 166.328125 252.421875 C 166.269531 251.734375 166.210938 251.019531 166.179688 250.332031 C 166.179688 250.15625 166.210938 249.945312 166.238281 249.765625 C 166.269531 249.738281 166.328125 249.707031 166.359375 249.707031 Z M 166.359375 249.707031 " fill-opacity="1" fill-rule="nonzero"/><g clip-path="url(#b97c1aee1b)"><path fill="#000000" d="M 189.667969 157.933594 C 189.28125 158.707031 188.03125 159.394531 187.167969 159.453125 C 187.078125 160.082031 187.050781 160.707031 186.871094 161.273438 C 186.78125 161.601562 186.484375 161.992188 186.1875 162.167969 C 185.558594 162.527344 184.90625 162.824219 184.222656 163.003906 C 182.703125 163.363281 181.09375 162.257812 180.707031 160.738281 C 179.457031 155.933594 178.117188 151.160156 176.925781 146.355469 C 175.738281 141.523438 174.664062 136.628906 173.535156 131.765625 C 173.503906 131.617188 173.382812 131.410156 173.234375 131.351562 C 172.609375 131.109375 172.371094 130.574219 172.34375 129.976562 C 172.3125 129.621094 172.253906 129.46875 171.867188 129.410156 C 171.417969 129.351562 171.210938 129.082031 171.121094 128.605469 C 171.003906 128.15625 170.765625 127.679688 170.257812 127.472656 C 163.710938 125.054688 157.128906 122.609375 150.550781 120.160156 C 149.269531 119.683594 147.992188 119.265625 146.679688 118.847656 C 145.550781 118.492188 144.65625 117 144.835938 115.625 C 145.042969 114.105469 146.085938 113 147.601562 112.730469 C 147.992188 112.671875 148.46875 112.671875 148.855469 112.820312 C 151.382812 113.835938 153.945312 114.878906 156.476562 115.953125 C 161.746094 118.164062 166.984375 120.371094 172.222656 122.578125 C 172.699219 122.785156 173.207031 122.996094 173.652344 123.265625 C 173.949219 123.441406 174.1875 123.710938 174.484375 123.949219 C 175.109375 123.503906 175.914062 123.859375 176.003906 124.785156 C 176.0625 125.324219 176.273438 125.441406 176.71875 125.5625 C 177.582031 125.769531 177.820312 126.097656 177.730469 126.992188 C 177.699219 127.351562 177.789062 127.558594 178.058594 127.769531 C 178.414062 128.039062 178.566406 128.425781 178.355469 128.84375 C 178.238281 129.113281 178.089844 129.203125 177.820312 128.933594 C 177.550781 128.664062 177.195312 128.457031 176.835938 128.15625 C 176.6875 128.546875 176.570312 128.8125 176.480469 129.082031 C 176.539062 129.140625 176.601562 129.230469 176.628906 129.203125 C 177.34375 129.082031 177.464844 129.589844 177.582031 130.097656 C 178.742188 134.542969 179.902344 138.957031 181.066406 143.402344 C 181.628906 145.519531 182.226562 147.640625 182.910156 149.726562 C 181.453125 143.375 179.992188 137.019531 178.535156 130.632812 C 178.59375 130.605469 178.683594 130.605469 178.742188 130.574219 C 180.46875 135.882812 181.957031 141.226562 183.445312 146.445312 C 186.246094 146.445312 188.925781 146.445312 191.632812 146.445312 C 191.78125 146.445312 191.929688 146.445312 192.019531 146.507812 C 192.199219 146.65625 192.40625 146.835938 192.4375 147.011719 C 192.4375 147.191406 192.230469 147.429688 192.082031 147.519531 C 191.902344 147.609375 191.664062 147.609375 191.425781 147.582031 C 188.894531 147.371094 186.363281 147.164062 183.863281 146.953125 C 183.804688 146.953125 183.773438 146.953125 183.625 146.984375 C 184.726562 150.953125 185.796875 154.890625 186.871094 158.769531 C 187.40625 158.5 187.882812 158.203125 188.417969 158.023438 C 188.953125 157.84375 189.488281 157.8125 189.90625 157.722656 C 190.265625 157.484375 190.503906 157.246094 190.800781 157.15625 C 191.8125 156.859375 192.824219 156.621094 193.867188 156.410156 C 195.683594 155.992188 197.5 155.546875 199.34375 155.246094 C 200.742188 155.007812 202.082031 155.367188 203.183594 156.261719 C 203.632812 156.621094 203.988281 157.15625 204.226562 157.664062 C 204.554688 158.351562 204.285156 158.828125 203.570312 159.125 C 201.546875 159.902344 199.492188 160.648438 197.46875 161.421875 C 196.875 161.632812 196.277344 161.839844 195.742188 162.167969 C 194.671875 162.855469 193.570312 162.886719 192.40625 162.527344 C 190.859375 162.050781 189.429688 161.273438 188.152344 160.289062 C 188.03125 160.199219 187.941406 160.109375 187.851562 159.992188 C 187.824219 159.960938 187.824219 159.902344 187.792969 159.78125 C 189.429688 160.679688 191.066406 161.453125 193.003906 161.484375 C 191.84375 160.378906 190.769531 159.1875 189.667969 157.933594 Z M 190.589844 158.230469 C 191.753906 159.277344 192.914062 160.289062 194.046875 161.304688 C 194.132812 161.394531 194.34375 161.421875 194.433594 161.394531 C 195.949219 160.976562 197.46875 160.558594 198.988281 160.050781 C 200.296875 159.632812 201.546875 159.066406 202.855469 158.589844 C 203.242188 158.441406 203.273438 158.203125 203.035156 157.902344 C 202.945312 157.785156 202.855469 157.632812 202.707031 157.574219 C 201.785156 157.039062 200.832031 156.53125 199.730469 156.472656 C 197.707031 156.351562 195.742188 156.648438 193.746094 157.039062 C 192.644531 157.277344 191.515625 157.484375 190.589844 158.230469 Z M 153.4375 116.671875 C 153.410156 116.730469 153.410156 116.761719 153.378906 116.820312 C 155.105469 117.625 156.800781 118.460938 158.558594 119.207031 C 162.101562 120.757812 165.792969 122.039062 169.15625 124.039062 C 169.515625 124.25 169.929688 124.398438 170.316406 124.515625 C 170.707031 124.605469 171.03125 124.488281 171.179688 124.070312 C 171.300781 123.683594 171.09375 123.414062 170.765625 123.234375 C 170.675781 123.175781 170.554688 123.144531 170.4375 123.113281 C 169.691406 122.875 168.949219 122.636719 168.203125 122.457031 C 164.097656 121.355469 160.195312 119.773438 156.355469 117.953125 C 155.402344 117.507812 154.421875 117.089844 153.4375 116.671875 Z M 173.921875 127.320312 C 174.160156 127.054688 174.398438 126.726562 174.664062 126.425781 C 174.8125 126.277344 174.992188 126.1875 175.140625 126.070312 C 175.199219 126.277344 175.347656 126.488281 175.320312 126.664062 C 175.230469 127.171875 175.109375 127.679688 174.960938 128.21875 C 175.199219 128.066406 175.410156 127.917969 175.617188 127.800781 C 175.855469 127.679688 176.09375 127.558594 176.332031 127.441406 C 176.390625 127.410156 176.449219 127.320312 176.449219 127.230469 C 176.6875 126.605469 176.539062 126.335938 175.914062 126.160156 C 175.4375 126.039062 175.082031 125.828125 175.082031 125.292969 C 175.109375 124.816406 174.871094 124.605469 174.574219 124.546875 C 174.367188 125.5 174.160156 126.398438 173.921875 127.320312 Z M 147.542969 117.65625 C 146.769531 117.625 146.503906 117.417969 146.324219 116.671875 C 146.113281 115.777344 146.414062 114.96875 146.976562 114.3125 C 147.425781 113.804688 148.109375 113.835938 148.585938 114.3125 C 148.617188 114.375 148.675781 114.402344 148.734375 114.433594 C 148.734375 114.285156 148.703125 114.164062 148.644531 114.132812 C 147.902344 113.65625 147.304688 113.449219 146.5625 114.132812 C 146.027344 114.640625 145.789062 115.296875 145.789062 116.042969 C 145.789062 117.148438 146.589844 117.863281 147.542969 117.65625 Z M 183.804688 153.367188 C 183.773438 153.367188 183.746094 153.367188 183.714844 153.398438 C 183.746094 153.605469 183.773438 153.816406 183.832031 154.023438 C 184.222656 156.054688 184.609375 158.082031 184.996094 160.109375 C 185.023438 160.261719 185.203125 160.410156 185.324219 160.558594 C 185.382812 160.410156 185.472656 160.261719 185.441406 160.140625 C 184.90625 157.84375 184.371094 155.605469 183.804688 153.367188 Z M 173.535156 125.054688 C 173.207031 124.84375 172.996094 124.605469 172.789062 124.605469 C 172.640625 124.605469 172.492188 124.90625 172.34375 125.085938 C 172.519531 125.234375 172.699219 125.472656 172.90625 125.53125 C 173.027344 125.589844 173.207031 125.324219 173.535156 125.054688 Z M 173.535156 125.054688 " fill-opacity="1" fill-rule="nonzero"/></g><path fill="#000000" d="M 179.070312 173.296875 C 179.367188 173.328125 179.546875 173.359375 179.726562 173.386719 C 188.835938 174.222656 197.886719 173.777344 206.816406 171.867188 C 209.761719 171.238281 212.59375 170.375 215.390625 169.242188 C 217.058594 168.554688 218.1875 167.242188 219.410156 166.019531 C 219.585938 165.839844 219.738281 165.570312 219.914062 165.390625 C 222.058594 163.066406 222.027344 160.4375 220.925781 157.695312 C 220.511719 156.648438 219.765625 155.816406 218.992188 155.039062 C 216.074219 152.054688 212.414062 150.59375 208.511719 149.550781 C 208.035156 149.429688 207.53125 149.28125 207.054688 149.160156 C 207.054688 149.101562 207.085938 149.042969 207.085938 148.953125 C 207.589844 148.980469 208.097656 148.980469 208.601562 149.070312 C 212.203125 149.609375 215.628906 150.652344 218.664062 152.742188 C 221.34375 154.5625 224.171875 158.738281 222.59375 163.660156 C 222.476562 164.050781 222.355469 164.46875 222.238281 164.945312 C 225.09375 162.527344 226.136719 158.859375 223.488281 155.246094 C 222.414062 153.757812 221.015625 152.59375 219.5 151.519531 C 216.582031 149.488281 213.304688 148.265625 209.941406 147.222656 C 205.296875 145.789062 200.535156 144.863281 195.710938 144.328125 C 192.019531 143.941406 188.328125 143.523438 184.636719 143.582031 C 184.398438 143.582031 184.160156 143.523438 183.921875 143.492188 C 183.921875 143.402344 183.921875 143.34375 183.921875 143.253906 C 184.222656 143.222656 184.488281 143.132812 184.785156 143.132812 C 188.6875 143.046875 192.617188 142.894531 196.515625 143.3125 C 202.855469 143.96875 209.078125 145.132812 214.945312 147.699219 C 217.148438 148.683594 219.320312 149.757812 221.285156 151.191406 C 222.714844 152.203125 223.964844 153.429688 224.886719 154.890625 C 226.523438 157.457031 226.671875 160.109375 225.15625 162.796875 C 223.753906 165.273438 221.671875 167.03125 219.320312 168.433594 C 216.074219 170.375 212.5625 171.628906 208.960938 172.640625 C 201.429688 174.761719 193.746094 175.417969 185.976562 175.207031 C 180.292969 175.027344 174.695312 174.371094 169.128906 173.179688 C 165.464844 172.402344 161.984375 171.089844 158.589844 169.507812 C 156.148438 168.375 153.972656 166.914062 152.039062 165.035156 C 150.90625 163.898438 150.015625 162.585938 149.539062 161.066406 C 148.734375 158.53125 149.152344 156.203125 150.699219 154.085938 C 152.160156 152.054688 154.09375 150.5625 156.238281 149.3125 C 158.140625 148.175781 160.167969 147.402344 162.28125 146.746094 C 165.40625 145.761719 168.589844 144.953125 171.867188 144.507812 C 172.042969 144.476562 172.195312 144.476562 172.402344 144.535156 C 171.894531 144.65625 171.417969 144.777344 170.914062 144.894531 C 170.40625 145.015625 169.902344 145.105469 169.425781 145.222656 C 164.632812 146.296875 160.136719 148.027344 155.910156 150.5625 C 154.449219 151.429688 153.109375 152.441406 152.007812 153.757812 C 150.96875 155.007812 150.195312 156.382812 150.015625 158.050781 C 149.835938 159.78125 150.492188 161.246094 151.503906 162.585938 C 152.753906 164.257812 154.332031 165.601562 156.117188 166.613281 C 157.816406 167.570312 159.570312 168.375 161.296875 169.242188 C 161.355469 169.269531 161.417969 169.269531 161.566406 169.300781 C 161.507812 169.152344 161.476562 169.03125 161.445312 168.941406 C 161.121094 168.136719 160.96875 167.332031 161.148438 166.4375 C 161.355469 165.390625 161.476562 164.316406 161.65625 163.273438 C 161.683594 163.125 161.714844 162.976562 161.804688 162.824219 C 161.863281 162.738281 161.984375 162.617188 162.042969 162.617188 C 162.132812 162.648438 162.28125 162.765625 162.308594 162.855469 C 162.457031 163.511719 162.546875 164.199219 162.757812 164.855469 C 163.023438 165.78125 163.351562 166.644531 163.679688 167.539062 C 163.796875 167.839844 164.066406 168.226562 163.621094 168.40625 C 163.171875 168.585938 163.023438 168.136719 162.964844 167.839844 C 162.726562 166.585938 162.546875 165.332031 162.339844 164.050781 C 162.308594 163.871094 162.308594 163.691406 162.21875 163.480469 C 162.160156 164.109375 162.132812 164.765625 161.984375 165.390625 C 161.714844 166.765625 162.070312 167.957031 162.90625 169.03125 C 162.964844 169.121094 163.054688 169.210938 163.054688 169.300781 C 163.144531 170.015625 163.710938 170.046875 164.214844 170.226562 C 168.144531 171.417969 172.105469 172.464844 176.183594 172.96875 C 176.835938 173.058594 177.582031 172.878906 178.207031 172.640625 C 178.921875 172.402344 179.578125 171.984375 180.230469 171.597656 C 180.648438 171.359375 180.886719 171 180.886719 170.523438 C 180.855469 169.628906 181.214844 168.671875 180.796875 167.808594 C 180.648438 167.511719 180.441406 167.210938 180.171875 167.03125 C 178.328125 165.78125 176.273438 165.0625 174.128906 164.46875 C 173.832031 164.378906 173.503906 164.316406 173.175781 164.226562 C 173.144531 164.226562 173.117188 164.226562 173.058594 164.257812 C 173.117188 164.644531 173.175781 165.003906 173.207031 165.390625 C 173.234375 166.4375 173.296875 167.480469 173.265625 168.496094 C 173.234375 169.179688 172.9375 169.808594 172.34375 170.195312 C 171.777344 170.582031 171.152344 170.910156 170.527344 171.238281 C 170.4375 171.300781 170.289062 171.328125 170.199219 171.300781 C 169.992188 171.238281 169.664062 171.148438 169.632812 171 C 169.605469 170.820312 169.722656 170.492188 169.871094 170.375 C 170.167969 170.136719 170.527344 169.957031 170.882812 169.808594 C 171.835938 169.359375 172.253906 168.644531 172.402344 167.570312 C 172.640625 165.511719 172.253906 163.660156 171.390625 161.8125 C 171.121094 161.246094 170.734375 160.917969 170.167969 160.765625 C 168.503906 160.261719 166.863281 160.5 165.226562 160.828125 C 164.304688 161.035156 163.410156 161.335938 162.339844 161.632812 C 162.578125 161.453125 162.695312 161.304688 162.847656 161.214844 C 165.046875 159.902344 167.460938 159.425781 169.992188 159.515625 C 171.332031 159.574219 171.894531 160.082031 172.253906 161.394531 C 172.433594 162.019531 172.582031 162.648438 172.789062 163.273438 C 172.847656 163.421875 173.058594 163.601562 173.207031 163.632812 C 175.824219 163.929688 178.265625 164.765625 180.589844 165.988281 C 181.542969 166.464844 182.105469 167.6875 181.988281 168.761719 C 181.957031 169.179688 181.957031 169.597656 182.019531 170.015625 C 182.136719 170.882812 181.988281 171.65625 181.183594 172.164062 C 180.648438 172.492188 180.082031 172.761719 179.515625 173.058594 C 179.457031 173.148438 179.308594 173.179688 179.070312 173.296875 Z M 179.070312 173.296875 " fill-opacity="1" fill-rule="nonzero"/><path fill="#000000" d="M 172.671875 141.910156 C 173.144531 141.941406 173.535156 141.910156 173.890625 141.972656 C 174.039062 142 174.1875 142.148438 174.335938 142.238281 C 174.21875 142.359375 174.128906 142.566406 173.980469 142.628906 C 173.207031 142.867188 172.433594 143.105469 171.628906 143.285156 C 167.429688 144.179688 163.292969 145.222656 159.304688 146.863281 C 156.058594 148.207031 153.050781 149.96875 150.550781 152.503906 C 149.957031 153.128906 149.359375 153.785156 148.855469 154.472656 C 146.472656 157.84375 146.53125 161.632812 149.003906 164.945312 C 149.179688 165.183594 149.332031 165.421875 149.539062 165.628906 C 150.3125 166.316406 150.667969 167.242188 150.90625 168.195312 C 151.800781 172.074219 152.664062 175.921875 153.558594 179.800781 C 154.210938 182.695312 154.835938 185.621094 155.492188 188.515625 C 155.910156 190.363281 156.625 192.125 157.605469 193.734375 C 158.054688 194.480469 158.46875 195.285156 158.828125 196.09375 C 158.976562 196.421875 158.976562 196.898438 158.855469 197.195312 C 158.527344 197.882812 157.578125 197.824219 157.160156 197.078125 C 156.59375 196.09375 156 195.078125 155.640625 194.003906 C 154.808594 191.527344 154.035156 189.023438 153.410156 186.457031 C 151.949219 180.488281 150.582031 174.523438 149.210938 168.554688 C 148.972656 167.480469 148.585938 166.554688 147.929688 165.628906 C 145.402344 162.140625 145.191406 158.441406 147.214844 154.621094 C 148.378906 152.441406 150.042969 150.742188 151.980469 149.28125 C 156.058594 146.238281 160.671875 144.296875 165.554688 143.015625 C 167.964844 142.476562 170.347656 142.03125 172.671875 141.910156 Z M 172.671875 141.910156 " fill-opacity="1" fill-rule="nonzero"/><path fill="#000000" d="M 157.964844 200.089844 C 157.964844 199.792969 157.902344 199.492188 157.992188 199.226562 C 158.023438 199.046875 158.230469 198.808594 158.378906 198.777344 C 158.527344 198.746094 158.796875 198.957031 158.855469 199.105469 C 159.035156 199.554688 159.15625 200.0625 159.242188 200.539062 C 159.957031 205.164062 160.703125 209.785156 161.386719 214.410156 C 162.847656 224.019531 164.273438 233.65625 165.734375 243.261719 C 165.941406 244.605469 166.179688 245.949219 166.386719 247.289062 C 166.507812 248.035156 166.121094 248.632812 165.496094 248.722656 C 164.871094 248.8125 164.363281 248.335938 164.246094 247.589844 C 162.429688 234.074219 160.582031 220.527344 158.765625 207.011719 C 158.46875 204.683594 158.203125 202.386719 157.933594 200.0625 C 157.902344 200.089844 157.933594 200.089844 157.964844 200.089844 Z M 157.964844 200.089844 " fill-opacity="1" fill-rule="nonzero"/><path fill="#000000" d="M 153.914062 169.390625 C 154.75 169.988281 155.523438 170.644531 156.386719 171.179688 C 159.71875 173.269531 163.382812 174.640625 167.132812 175.804688 C 173.207031 177.683594 179.457031 178.25 185.769531 178.132812 C 191.097656 178.042969 196.335938 177.238281 201.605469 176.582031 C 206.070312 176.011719 210.328125 174.878906 214.527344 173.269531 C 216.699219 172.433594 218.722656 171.238281 220.660156 169.957031 C 220.808594 169.867188 221.015625 169.867188 221.195312 169.835938 C 221.105469 170.015625 221.078125 170.226562 220.925781 170.34375 C 218.574219 172.105469 215.957031 173.417969 213.246094 174.550781 C 208.929688 176.371094 204.433594 177.742188 199.851562 178.609375 C 195.445312 179.445312 190.949219 179.535156 186.484375 179.382812 C 180.589844 179.175781 174.722656 178.398438 168.949219 177.148438 C 165.792969 176.460938 162.695312 175.476562 159.839844 173.953125 C 157.664062 172.820312 155.699219 171.417969 154.003906 169.597656 C 153.972656 169.539062 153.914062 169.507812 153.886719 169.449219 C 153.886719 169.417969 153.886719 169.417969 153.914062 169.390625 Z M 153.914062 169.390625 " fill-opacity="1" fill-rule="nonzero"/><path fill="#000000" d="M 211.429688 208.355469 C 211.101562 211.636719 210.777344 214.890625 210.417969 218.171875 C 210.152344 220.828125 209.824219 223.453125 209.554688 226.105469 C 209.136719 229.808594 208.75 233.507812 208.335938 237.175781 C 208.125 239.027344 207.859375 240.847656 207.589844 242.695312 C 207.472656 243.621094 206.785156 244.21875 205.984375 244.15625 C 205.148438 244.066406 204.582031 243.351562 204.734375 242.367188 C 204.941406 240.996094 205.296875 239.652344 205.535156 238.308594 C 206.191406 234.820312 206.785156 231.328125 207.441406 227.867188 C 208.273438 223.421875 209.136719 219.007812 210 214.5625 C 210.359375 212.679688 210.746094 210.800781 211.101562 208.890625 C 211.132812 208.683594 211.222656 208.503906 211.28125 208.324219 C 211.339844 208.324219 211.371094 208.355469 211.429688 208.355469 Z M 211.429688 208.355469 " fill-opacity="1" fill-rule="nonzero"/><path fill="#000000" d="M 189.964844 150.414062 C 190.117188 151.25 190.265625 152.054688 190.414062 152.832031 C 190.589844 153.667969 190.652344 153.695312 191.484375 153.726562 C 193.867188 153.757812 196.160156 153.308594 198.421875 152.652344 C 199.582031 152.324219 200.804688 152.054688 201.90625 151.546875 C 203.066406 151.011719 204.136719 150.207031 205.386719 149.429688 C 204.496094 148.863281 203.808594 148.238281 203.003906 147.996094 C 202.441406 147.820312 201.695312 148.027344 201.070312 148.207031 C 200.414062 148.414062 199.820312 148.804688 199.195312 149.132812 C 199.074219 149.191406 198.988281 149.429688 198.988281 149.578125 C 199.015625 150.085938 199.105469 150.59375 199.136719 151.101562 C 199.136719 151.28125 198.988281 151.488281 198.898438 151.667969 C 198.75 151.519531 198.511719 151.371094 198.480469 151.191406 C 198.363281 150.625 198.300781 150.054688 198.242188 149.519531 C 195.652344 149.757812 193.121094 149.996094 190.589844 150.234375 C 190.5625 150.175781 190.53125 150.117188 190.503906 150.085938 C 190.917969 149.757812 191.277344 149.371094 191.722656 149.132812 C 194.105469 147.910156 196.605469 146.984375 199.285156 146.65625 C 199.761719 146.59375 200.265625 146.507812 200.742188 146.445312 C 201.578125 146.386719 202.410156 146.535156 203.15625 146.953125 C 204.046875 147.460938 204.96875 147.9375 205.863281 148.445312 C 206.191406 148.652344 206.488281 148.980469 206.308594 149.371094 C 206.191406 149.640625 205.835938 149.847656 205.535156 149.996094 C 204.910156 150.355469 204.195312 150.5625 203.601562 150.980469 C 202.855469 151.519531 202.230469 152.234375 201.515625 152.832031 C 201.25 153.039062 200.890625 153.21875 200.566406 153.25 C 198.421875 153.488281 196.277344 153.636719 194.132812 153.875 C 193.210938 153.964844 192.289062 154.171875 191.394531 154.441406 C 190.265625 154.800781 189.640625 154.589844 189.519531 153.398438 C 189.429688 152.53125 189.609375 151.609375 189.667969 150.710938 C 189.667969 150.625 189.726562 150.5625 189.789062 150.472656 C 189.847656 150.472656 189.878906 150.472656 189.964844 150.414062 Z M 191.335938 149.578125 C 191.367188 149.640625 191.367188 149.667969 191.394531 149.726562 C 191.484375 149.699219 191.542969 149.699219 191.632812 149.667969 C 193.746094 149.042969 195.832031 148.445312 198.0625 148.59375 C 198.125 148.59375 198.210938 148.535156 198.273438 148.503906 C 198.75 148.296875 199.195312 148.058594 199.703125 147.910156 C 200.058594 147.789062 200.476562 147.757812 200.863281 147.699219 C 200.863281 147.640625 200.832031 147.609375 200.832031 147.550781 C 197.4375 147.132812 194.433594 148.535156 191.335938 149.578125 Z M 191.335938 149.578125 " fill-opacity="1" fill-rule="nonzero"/><path fill="#000000" d="M 206.011719 166.136719 C 204.96875 165.660156 203.898438 165.332031 202.796875 165.511719 C 199.613281 166.078125 196.457031 166.765625 193.300781 167.390625 C 193.121094 167.421875 192.945312 167.480469 192.792969 167.449219 C 193.984375 167.449219 195.207031 167.449219 196.398438 167.449219 C 197.113281 167.449219 197.824219 167.480469 198.539062 167.539062 C 198.808594 167.539062 199.164062 167.570312 199.105469 167.957031 C 199.074219 168.078125 198.71875 168.226562 198.511719 168.226562 C 195.921875 168.285156 193.300781 168.40625 190.800781 169.179688 C 190.621094 169.242188 190.441406 169.300781 190.265625 169.359375 C 188.953125 169.6875 188.300781 170.523438 188.121094 171.835938 C 188.089844 171.984375 188.03125 172.132812 187.972656 172.285156 C 187.914062 172.285156 187.851562 172.285156 187.792969 172.285156 C 187.734375 172.074219 187.613281 171.867188 187.644531 171.65625 C 187.703125 171.03125 187.734375 170.34375 187.972656 169.746094 C 188.179688 169.300781 188.597656 168.851562 189.042969 168.585938 C 191.605469 167.183594 194.34375 166.226562 197.199219 165.570312 C 198.570312 165.273438 199.941406 165.035156 201.308594 164.734375 C 203.394531 164.289062 205.386719 164.617188 207.324219 165.480469 C 208.214844 165.871094 208.8125 166.464844 209.199219 167.332031 C 209.4375 167.867188 209.675781 168.375 209.851562 168.941406 C 210.0625 169.507812 209.914062 169.988281 209.554688 170.105469 C 209.226562 170.226562 208.722656 169.988281 208.484375 169.507812 C 208.304688 169.210938 208.214844 168.882812 208.097656 168.585938 C 208.007812 168.285156 207.917969 167.988281 207.828125 167.6875 C 207.5 166.585938 207.472656 166.585938 206.398438 166.824219 C 204.96875 167.183594 203.511719 167.511719 202.082031 167.808594 C 201.785156 167.867188 201.277344 168.015625 201.21875 167.570312 C 201.128906 167.09375 201.667969 167.09375 201.992188 167.003906 C 203.15625 166.734375 204.34375 166.496094 205.535156 166.226562 C 205.65625 166.257812 205.835938 166.199219 206.011719 166.136719 Z M 206.011719 166.136719 " fill-opacity="1" fill-rule="nonzero"/><path fill="#000000" d="M 220.363281 173.984375 C 219.976562 175.535156 219.527344 177.117188 219.199219 178.667969 C 218.574219 181.710938 218.011719 184.753906 217.386719 187.769531 C 217.234375 188.484375 217.027344 189.171875 216.757812 189.855469 C 216.433594 190.664062 215.835938 191.289062 215.03125 191.648438 C 214.585938 191.824219 214.167969 192.066406 213.753906 192.273438 C 213.367188 192.453125 212.949219 192.570312 212.621094 192.214844 C 212.292969 191.824219 212.472656 191.410156 212.742188 191.050781 C 213.039062 190.632812 213.394531 190.246094 213.722656 189.828125 C 215.0625 188.097656 216.046875 186.128906 216.789062 184.070312 C 217.980469 180.785156 219.082031 177.476562 220.214844 174.164062 C 220.242188 174.074219 220.273438 174.015625 220.300781 173.953125 C 220.300781 173.953125 220.332031 173.984375 220.363281 173.984375 Z M 220.363281 173.984375 " fill-opacity="1" fill-rule="nonzero"/><path fill="#000000" d="M 166.566406 210.324219 C 166.804688 211.933594 167.042969 213.546875 167.25 215.1875 C 167.757812 219.097656 168.265625 222.972656 169.367188 226.792969 C 169.8125 228.34375 169.574219 229.835938 169.304688 231.328125 C 169.277344 231.539062 169.007812 231.835938 168.800781 231.867188 C 168.589844 231.894531 168.324219 231.6875 168.175781 231.507812 C 168.027344 231.328125 167.964844 231.058594 167.90625 230.792969 C 167.550781 229.269531 167.222656 227.746094 167.222656 226.167969 C 167.25 220.976562 166.925781 215.8125 166.507812 210.652344 C 166.507812 210.5625 166.507812 210.445312 166.507812 210.355469 C 166.539062 210.324219 166.566406 210.324219 166.566406 210.324219 Z M 166.566406 210.324219 " fill-opacity="1" fill-rule="nonzero"/><path fill="#000000" d="M 214.40625 163.722656 C 213.574219 164.289062 212.859375 164.796875 212.144531 165.273438 C 211.667969 165.601562 211.191406 165.929688 210.6875 166.199219 C 210.300781 166.40625 209.882812 166.375 209.554688 166.078125 C 209.4375 165.957031 209.316406 165.71875 209.347656 165.570312 C 209.375 165.421875 209.613281 165.300781 209.792969 165.242188 C 210.152344 165.09375 210.566406 165.035156 210.925781 164.824219 C 211.789062 164.378906 212.621094 163.898438 213.457031 163.394531 C 213.929688 163.09375 214.40625 162.765625 214.707031 162.082031 C 214.230469 161.992188 213.78125 161.871094 213.335938 161.839844 C 210.746094 161.722656 208.125 161.601562 205.535156 161.511719 C 205.296875 161.511719 205.058594 161.632812 204.851562 161.78125 C 204.257812 162.199219 203.71875 162.648438 203.15625 163.066406 C 202.945312 163.214844 202.707031 163.332031 202.46875 163.394531 C 202.351562 163.421875 202.171875 163.363281 202.082031 163.273438 C 202.023438 163.214844 202.054688 163.003906 202.082031 162.914062 C 202.410156 162.257812 204.285156 161.304688 205.089844 161.335938 C 205.476562 161.363281 205.863281 161.214844 206.25 161.214844 C 208.871094 161.183594 211.519531 161.125 214.140625 161.125 C 214.4375 161.125 214.734375 161.214844 215.03125 161.304688 C 215.390625 161.421875 215.570312 161.722656 215.539062 162.109375 C 215.390625 163.484375 215.269531 164.882812 215.09375 166.257812 C 215.03125 166.613281 214.824219 167.003906 214.558594 167.242188 C 214.082031 167.6875 213.484375 168.046875 212.949219 168.40625 C 212.742188 168.523438 212.472656 168.644531 212.234375 168.644531 C 212.054688 168.644531 211.789062 168.523438 211.699219 168.375 C 211.640625 168.257812 211.757812 167.988281 211.847656 167.839844 C 211.964844 167.6875 212.144531 167.628906 212.324219 167.539062 C 212.621094 167.359375 212.949219 167.183594 213.246094 167.003906 C 213.78125 166.703125 214.082031 166.257812 214.082031 165.601562 C 214.082031 165.003906 214.257812 164.40625 214.40625 163.722656 Z M 214.40625 163.722656 " fill-opacity="1" fill-rule="nonzero"/><path fill="#000000" d="M 156.265625 152.949219 C 157.011719 152.503906 157.753906 152.054688 158.527344 151.636719 C 161.894531 149.90625 165.464844 148.832031 169.128906 148.085938 C 171.0625 147.699219 173.027344 147.339844 174.992188 146.984375 C 175.199219 146.953125 175.4375 146.894531 175.585938 146.984375 C 175.855469 147.164062 176.152344 147.371094 176.242188 147.640625 C 176.390625 148.027344 176.125 148.324219 175.765625 148.476562 C 175.5 148.566406 175.199219 148.625 174.933594 148.625 C 168.949219 149.042969 163.171875 150.5625 157.546875 152.53125 C 157.128906 152.683594 156.742188 152.859375 156.355469 153.039062 C 156.296875 153.011719 156.265625 152.980469 156.265625 152.949219 Z M 156.265625 152.949219 " fill-opacity="1" fill-rule="nonzero"/><path fill="#000000" d="M 160.433594 157.484375 C 158.945312 156.828125 157.425781 156.144531 155.820312 155.425781 C 155.34375 156.621094 154.898438 157.8125 154.449219 159.007812 C 154.332031 159.363281 154.273438 159.722656 154.152344 160.082031 C 154.0625 160.410156 153.886719 160.738281 153.496094 160.589844 C 153.082031 160.4375 153.140625 160.050781 153.261719 159.78125 C 153.648438 158.917969 154.09375 158.050781 154.511719 157.21875 C 154.75 156.769531 155.015625 156.351562 155.34375 155.753906 C 155.046875 155.902344 154.898438 155.992188 154.75 156.054688 C 154.332031 156.230469 153.914062 156.53125 153.46875 156.5625 C 152.933594 156.621094 152.8125 156.890625 152.785156 157.304688 C 152.753906 157.753906 152.753906 158.203125 152.695312 158.621094 C 152.632812 158.949219 152.546875 159.335938 152.097656 159.335938 C 151.652344 159.304688 151.53125 158.917969 151.53125 158.558594 C 151.53125 158.292969 151.5625 158.023438 151.621094 157.753906 C 152.1875 155.785156 154.125 154.621094 156.148438 155.039062 C 157.664062 155.335938 159.066406 155.902344 160.433594 156.648438 C 160.644531 156.769531 160.882812 156.917969 161.03125 157.128906 C 161.386719 157.515625 161.355469 157.960938 160.941406 158.230469 C 159.273438 159.246094 157.605469 160.289062 155.671875 160.765625 C 155.523438 160.796875 155.34375 160.707031 155.164062 160.679688 C 155.285156 160.527344 155.375 160.320312 155.523438 160.230469 C 156.890625 159.515625 158.289062 158.828125 159.660156 158.140625 C 159.898438 158.023438 160.167969 157.875 160.40625 157.722656 C 160.40625 157.605469 160.40625 157.546875 160.433594 157.484375 Z M 160.433594 157.484375 " fill-opacity="1" fill-rule="nonzero"/><path fill="#000000" d="M 172.640625 154.234375 C 170.050781 153.011719 167.550781 153.070312 165.050781 154.292969 C 164.691406 154.472656 164.335938 154.652344 163.976562 154.800781 C 163.828125 154.859375 163.679688 154.890625 163.472656 154.832031 C 163.558594 154.742188 163.621094 154.621094 163.710938 154.53125 C 165.167969 153.1875 166.925781 152.503906 168.828125 152.203125 C 170.46875 151.964844 171.984375 152.472656 173.445312 153.21875 C 173.683594 153.339844 173.921875 153.695312 173.921875 153.964844 C 173.921875 154.171875 173.59375 154.5 173.355469 154.5625 C 172.371094 154.832031 171.359375 155.097656 170.347656 155.246094 C 168.917969 155.457031 167.460938 155.605469 166 155.753906 C 165.761719 155.785156 165.496094 155.816406 165.285156 155.726562 C 165.109375 155.664062 165.019531 155.457031 164.871094 155.308594 C 165.019531 155.1875 165.167969 154.949219 165.316406 154.917969 C 166.269531 154.832031 167.222656 154.769531 168.175781 154.710938 C 169.367188 154.621094 170.554688 154.53125 171.71875 154.414062 C 172.015625 154.414062 172.3125 154.292969 172.640625 154.234375 Z M 172.640625 154.234375 " fill-opacity="1" fill-rule="nonzero"/><path fill="#000000" d="M 188.386719 163.09375 C 188.089844 163.152344 187.824219 163.214844 187.523438 163.304688 C 186.304688 163.570312 185.085938 163.8125 184.101562 164.675781 C 183.953125 164.824219 183.832031 165.003906 183.714844 165.183594 C 183.894531 165.300781 184.070312 165.480469 184.28125 165.511719 C 185.351562 165.75 186.394531 165.71875 187.4375 165.300781 C 188.238281 164.972656 189.074219 164.675781 189.996094 164.347656 C 189.640625 164.078125 189.339844 163.898438 189.101562 163.691406 C 189.015625 163.632812 189.015625 163.453125 188.953125 163.332031 C 189.074219 163.304688 189.222656 163.183594 189.3125 163.214844 C 189.878906 163.484375 190.472656 163.691406 190.980469 164.050781 C 191.394531 164.347656 191.277344 165.09375 190.800781 165.421875 C 190.414062 165.660156 189.9375 165.898438 189.488281 165.898438 C 187.675781 165.871094 185.886719 166.167969 184.132812 166.375 C 182.851562 166.527344 182.582031 165.601562 182.941406 164.707031 C 183.179688 164.078125 183.59375 163.601562 184.222656 163.332031 C 185.558594 162.796875 186.988281 163.035156 188.359375 162.914062 C 188.359375 163.003906 188.386719 163.066406 188.386719 163.09375 Z M 188.386719 163.09375 " fill-opacity="1" fill-rule="nonzero"/><path fill="#000000" d="M 215.867188 157.21875 C 214.289062 157.128906 212.859375 157.515625 211.578125 158.738281 C 213.632812 158.949219 215.539062 159.007812 217.472656 158.859375 C 217.503906 158.796875 217.535156 158.738281 217.59375 158.679688 C 217.445312 158.441406 217.296875 158.171875 217.117188 157.960938 C 216.910156 157.722656 216.671875 157.484375 216.878906 157.21875 C 217.027344 157.039062 217.386719 156.976562 217.621094 157.007812 C 218.335938 157.128906 218.753906 157.632812 218.84375 158.320312 C 218.933594 159.125 218.515625 159.632812 217.710938 159.605469 C 215.6875 159.542969 213.632812 159.453125 211.609375 159.363281 C 211.191406 159.335938 210.65625 159.335938 210.507812 158.796875 C 210.359375 158.261719 210.835938 157.960938 211.222656 157.722656 C 212.441406 156.890625 213.84375 156.589844 215.300781 156.769531 C 215.507812 156.800781 215.6875 156.917969 215.894531 156.976562 C 215.867188 157.097656 215.867188 157.15625 215.867188 157.21875 Z M 215.867188 157.21875 " fill-opacity="1" fill-rule="nonzero"/><path fill="#000000" d="M 164.632812 157.875 C 165.4375 157.722656 166.238281 157.546875 167.042969 157.425781 C 169.78125 157.039062 172.519531 156.648438 175.199219 155.902344 C 175.585938 155.785156 175.972656 155.785156 176.273438 156.144531 C 176.628906 156.589844 176.390625 157.246094 175.824219 157.394531 C 175.675781 157.425781 175.527344 157.457031 175.378906 157.425781 C 173.800781 157.039062 172.28125 157.394531 170.734375 157.574219 C 168.710938 157.785156 166.6875 157.933594 164.660156 158.113281 C 164.632812 158.023438 164.632812 157.933594 164.632812 157.875 Z M 164.632812 157.875 " fill-opacity="1" fill-rule="nonzero"/><path fill="#000000" d="M 203.71875 153.605469 C 204.046875 153.488281 204.285156 153.367188 204.523438 153.308594 C 205.746094 152.980469 206.964844 152.621094 208.214844 152.324219 C 208.601562 152.234375 209.050781 152.265625 209.40625 152.355469 C 210.0625 152.53125 210.179688 153.21875 209.613281 153.605469 C 209.289062 153.816406 208.871094 154.023438 208.484375 154.023438 C 206.964844 153.996094 205.476562 153.84375 203.957031 153.757812 C 203.929688 153.757812 203.898438 153.695312 203.71875 153.605469 Z M 203.71875 153.605469 " fill-opacity="1" fill-rule="nonzero"/><path fill="#000000" d="M 155.671875 173.65625 C 155.851562 173.746094 156.027344 173.804688 156.175781 173.894531 C 157.875 174.96875 159.542969 176.011719 161.207031 177.085938 C 161.386719 177.207031 161.445312 177.445312 161.59375 177.59375 C 161.355469 177.652344 161.121094 177.804688 160.910156 177.714844 C 158.976562 176.96875 157.191406 175.953125 155.820312 174.34375 C 155.671875 174.164062 155.613281 173.925781 155.523438 173.714844 C 155.582031 173.714844 155.613281 173.6875 155.671875 173.65625 Z M 155.671875 173.65625 " fill-opacity="1" fill-rule="nonzero"/><path fill="#000000" d="M 179.664062 157.8125 C 179.339844 157.933594 179.070312 158.023438 178.832031 158.082031 C 178.296875 158.230469 177.761719 158.320312 177.253906 158.5 C 177.105469 158.558594 177.015625 158.769531 176.867188 158.886719 C 177.015625 158.976562 177.164062 159.125 177.285156 159.125 C 177.820312 159.035156 178.355469 158.949219 178.863281 158.769531 C 179.488281 158.589844 179.84375 158.621094 179.964844 158.976562 C 180.082031 159.335938 179.785156 159.722656 179.160156 159.753906 C 178.355469 159.8125 177.523438 159.753906 176.75 159.664062 C 176.570312 159.632812 176.273438 159.304688 176.273438 159.097656 C 176.273438 158.769531 176.421875 158.410156 176.628906 158.140625 C 176.898438 157.875 179.101562 157.605469 179.664062 157.8125 Z M 179.664062 157.8125 " fill-opacity="1" fill-rule="nonzero"/><path fill="#000000" d="M 159.71875 191.320312 C 159.839844 191.378906 159.988281 191.4375 160.105469 191.496094 C 162.21875 192.570312 164.363281 193.644531 166.476562 194.75 C 166.625 194.839844 166.714844 194.988281 166.835938 195.136719 C 166.65625 195.136719 166.449219 195.226562 166.300781 195.167969 C 164.183594 194.363281 162.191406 193.378906 160.316406 192.09375 C 160.046875 191.914062 159.839844 191.707031 159.601562 191.496094 C 159.660156 191.410156 159.691406 191.347656 159.71875 191.320312 Z M 159.71875 191.320312 " fill-opacity="1" fill-rule="nonzero"/><path fill="#000000" d="M 180.203125 167.511719 C 180.082031 167.660156 179.964844 167.867188 179.785156 167.988281 C 178.265625 169.03125 176.777344 170.046875 175.261719 171.089844 C 175.171875 171.148438 175.050781 171.210938 174.933594 171.210938 C 174.753906 171.210938 174.574219 171.148438 174.398438 171.089844 C 174.484375 170.910156 174.515625 170.644531 174.636719 170.554688 C 175.4375 170.074219 176.242188 169.628906 177.074219 169.152344 C 178 168.613281 178.890625 168.078125 179.816406 167.570312 C 179.933594 167.511719 180.054688 167.480469 180.140625 167.421875 C 180.171875 167.449219 180.171875 167.480469 180.203125 167.511719 Z M 180.203125 167.511719 " fill-opacity="1" fill-rule="nonzero"/><path fill="#000000" d="M 160.910156 179.414062 C 160.554688 179.296875 160.226562 179.175781 159.898438 179.054688 C 158.707031 178.578125 157.636719 177.921875 156.652344 177.058594 C 156.503906 176.910156 156.355469 176.789062 156.238281 176.609375 C 156.175781 176.550781 156.175781 176.371094 156.207031 176.339844 C 156.265625 176.28125 156.414062 176.222656 156.503906 176.253906 C 156.683594 176.3125 156.832031 176.402344 157.011719 176.492188 C 158.351562 177.296875 159.691406 178.101562 161 178.9375 C 161.089844 178.996094 161.148438 179.144531 161.207031 179.234375 C 161.121094 179.296875 161 179.355469 160.910156 179.414062 Z M 160.910156 179.414062 " fill-opacity="1" fill-rule="nonzero"/><path fill="#000000" d="M 174.039062 249.050781 C 173.175781 248.691406 172.3125 248.394531 171.507812 248.007812 C 170.914062 247.738281 170.347656 247.378906 169.78125 247.050781 C 169.605469 246.933594 169.515625 246.722656 169.367188 246.542969 C 169.574219 246.542969 169.8125 246.515625 169.992188 246.605469 C 171.121094 247.109375 172.222656 247.679688 173.355469 248.183594 C 173.621094 248.304688 173.890625 248.425781 174.128906 248.574219 C 174.21875 248.632812 174.277344 248.78125 174.367188 248.902344 C 174.246094 248.929688 174.128906 248.992188 174.039062 249.050781 Z M 174.039062 249.050781 " fill-opacity="1" fill-rule="nonzero"/><path fill="#000000" d="M 189.460938 149.609375 C 188.925781 149.550781 188.300781 149.488281 187.675781 149.371094 C 187.523438 149.339844 187.40625 149.191406 187.289062 149.101562 C 187.375 148.980469 187.464844 148.804688 187.613281 148.742188 C 188.210938 148.535156 188.835938 148.296875 189.429688 148.148438 C 189.964844 148.027344 190.414062 148.324219 190.472656 148.773438 C 190.503906 149.25 190.117188 149.578125 189.460938 149.609375 Z M 189.460938 149.609375 " fill-opacity="1" fill-rule="nonzero"/><path fill="#000000" d="M 178.625 162.289062 C 178.355469 162.4375 178.089844 162.558594 177.820312 162.707031 C 178.355469 162.886719 178.832031 163.066406 179.277344 162.558594 C 179.398438 162.4375 179.84375 162.410156 179.933594 162.496094 C 180.082031 162.675781 180.171875 163.09375 180.082031 163.242188 C 179.902344 163.484375 179.546875 163.660156 179.25 163.722656 C 178.832031 163.78125 178.355469 163.722656 177.9375 163.660156 C 177.582031 163.601562 177.253906 163.421875 177.195312 163.003906 C 177.164062 162.558594 177.492188 162.378906 177.820312 162.257812 C 178.058594 162.199219 178.355469 162.199219 178.59375 162.167969 C 178.625 162.199219 178.625 162.230469 178.625 162.289062 Z M 178.625 162.289062 " fill-opacity="1" fill-rule="nonzero"/><path fill="#000000" d="M 171.957031 150.59375 C 172.28125 150.535156 172.640625 150.445312 172.96875 150.382812 C 173.652344 150.234375 174.367188 150.117188 175.050781 149.96875 C 175.140625 149.9375 175.261719 149.9375 175.347656 149.9375 C 175.675781 149.9375 175.972656 149.996094 176.0625 150.355469 C 176.152344 150.773438 175.855469 151.011719 175.527344 151.011719 C 174.335938 151.101562 173.144531 150.953125 171.984375 150.773438 C 171.957031 150.710938 171.957031 150.652344 171.957031 150.59375 Z M 171.957031 150.59375 " fill-opacity="1" fill-rule="nonzero"/><path fill="#000000" d="M 200.328125 168.824219 C 201.039062 169.628906 201.578125 170.492188 201.785156 171.507812 C 201.84375 171.804688 201.875 172.164062 201.488281 172.285156 C 201.101562 172.402344 200.863281 172.105469 200.773438 171.777344 C 200.535156 170.882812 200.386719 169.988281 200.175781 169.089844 C 200.175781 169.03125 200.265625 168.941406 200.328125 168.824219 Z M 200.328125 168.824219 " fill-opacity="1" fill-rule="nonzero"/><path fill="#000000" d="M 204.671875 247.410156 C 204.792969 247.109375 204.882812 246.753906 205.089844 246.515625 C 205.238281 246.335938 205.566406 246.1875 205.773438 246.246094 C 205.984375 246.304688 206.222656 246.574219 206.28125 246.78125 C 206.371094 247.050781 206.308594 247.378906 206.25 247.679688 C 206.132812 248.246094 205.773438 248.542969 205.359375 248.453125 C 204.941406 248.394531 204.703125 248.007812 204.671875 247.410156 Z M 204.671875 247.410156 " fill-opacity="1" fill-rule="nonzero"/><path fill="#000000" d="M 160.96875 180.875 C 160.761719 180.875 160.613281 180.90625 160.523438 180.847656 C 159.453125 180.21875 158.378906 179.5625 157.308594 178.9375 C 157.21875 178.878906 157.128906 178.816406 157.101562 178.726562 C 157.039062 178.609375 157.011719 178.488281 156.980469 178.371094 C 157.128906 178.371094 157.308594 178.28125 157.398438 178.339844 C 158.558594 179.085938 159.71875 179.863281 160.882812 180.636719 C 160.910156 180.636719 160.910156 180.726562 160.96875 180.875 Z M 160.96875 180.875 " fill-opacity="1" fill-rule="nonzero"/><path fill="#000000" d="M 169.574219 248.183594 C 171.449219 249.140625 173.355469 250.09375 175.320312 251.109375 C 174.546875 251.378906 170.199219 249.230469 169.484375 248.335938 C 169.515625 248.304688 169.542969 248.246094 169.574219 248.183594 Z M 169.574219 248.183594 " fill-opacity="1" fill-rule="nonzero"/><path fill="#000000" d="M 165.167969 192.960938 C 164.273438 193.109375 160.34375 190.929688 160.078125 190.125 C 161.894531 191.019531 163.558594 191.914062 165.167969 192.960938 Z M 165.167969 192.960938 " fill-opacity="1" fill-rule="nonzero"/><path fill="#000000" d="M 169.039062 244.246094 C 169.15625 244.308594 169.304688 244.335938 169.425781 244.425781 C 170.554688 245.082031 171.71875 245.769531 172.847656 246.453125 C 172.96875 246.515625 173.027344 246.664062 173.117188 246.78125 C 172.96875 246.8125 172.789062 246.902344 172.671875 246.84375 C 171.417969 246.425781 170.257812 245.796875 169.277344 244.902344 C 169.128906 244.753906 169.007812 244.574219 168.890625 244.425781 C 168.949219 244.335938 169.007812 244.277344 169.039062 244.246094 Z M 169.039062 244.246094 " fill-opacity="1" fill-rule="nonzero"/><path fill="#000000" d="M 159.867188 188.394531 C 161.269531 189.230469 162.578125 190.007812 163.949219 190.839844 C 163.113281 191.140625 159.988281 189.289062 159.867188 188.394531 Z M 159.867188 188.394531 " fill-opacity="1" fill-rule="nonzero"/><path fill="#000000" d="M 172.28125 244.484375 C 172.164062 244.457031 171.984375 244.484375 171.894531 244.425781 C 170.972656 243.859375 170.050781 243.292969 169.15625 242.664062 C 169.039062 242.578125 169.007812 242.335938 168.917969 242.1875 C 169.097656 242.21875 169.304688 242.1875 169.425781 242.277344 C 170.316406 242.875 171.242188 243.5 172.132812 244.097656 C 172.222656 244.15625 172.28125 244.246094 172.371094 244.335938 C 172.34375 244.394531 172.3125 244.425781 172.28125 244.484375 Z M 172.28125 244.484375 " fill-opacity="1" fill-rule="nonzero"/><path fill="#000000" d="M 162.070312 153.367188 C 161.863281 153.21875 161.507812 153.101562 161.445312 152.890625 C 161.296875 152.53125 161.683594 152.355469 161.984375 152.292969 C 162.398438 152.203125 162.847656 152.175781 163.292969 152.203125 C 163.441406 152.203125 163.648438 152.414062 163.679688 152.5625 C 163.710938 152.652344 163.53125 152.890625 163.382812 152.949219 C 162.996094 153.128906 162.578125 153.21875 162.070312 153.367188 Z M 162.070312 153.367188 " fill-opacity="1" fill-rule="nonzero"/><path fill="#000000" d="M 169.335938 239.503906 C 170.140625 239.742188 170.734375 240.1875 171.179688 240.785156 C 171.242188 240.847656 171.242188 241.054688 171.179688 241.113281 C 171.09375 241.203125 170.855469 241.292969 170.792969 241.234375 C 170.199219 240.847656 169.632812 240.429688 169.066406 240.011719 C 169.007812 239.949219 169.007812 239.742188 169.039062 239.652344 C 169.097656 239.5625 169.246094 239.5625 169.335938 239.503906 Z M 169.335938 239.503906 " fill-opacity="1" fill-rule="nonzero"/><path fill="#000000" d="M 168.621094 233.027344 C 169.039062 233.117188 169.453125 233.179688 169.84375 233.328125 C 170.230469 233.476562 170.40625 233.863281 170.257812 234.164062 C 170.050781 234.519531 169.722656 234.609375 169.394531 234.402344 C 169.007812 234.132812 168.652344 233.773438 168.324219 233.417969 C 168.265625 233.355469 168.265625 233.179688 168.324219 233.148438 C 168.382812 233.089844 168.503906 233.058594 168.621094 233.027344 Z M 168.621094 233.027344 " fill-opacity="1" fill-rule="nonzero"/><path fill="#000000" d="M 162.371094 188.605469 C 162.21875 188.605469 162.070312 188.664062 161.953125 188.605469 C 161.238281 188.214844 160.492188 187.828125 159.78125 187.378906 C 159.660156 187.320312 159.628906 187.113281 159.542969 186.992188 C 159.71875 186.992188 159.898438 186.964844 160.019531 187.023438 C 160.820312 187.46875 161.59375 187.949219 162.371094 188.425781 C 162.398438 188.484375 162.371094 188.542969 162.371094 188.605469 Z M 162.371094 188.605469 " fill-opacity="1" fill-rule="nonzero"/><path fill="#000000" d="M 215.0625 155.070312 C 214.914062 155.039062 214.765625 155.007812 214.617188 154.949219 C 214.496094 154.890625 214.320312 154.769531 214.320312 154.652344 C 214.320312 154.5 214.4375 154.292969 214.558594 154.261719 C 214.882812 154.171875 215.242188 154.113281 215.570312 154.113281 C 215.71875 154.113281 215.984375 154.351562 215.957031 154.472656 C 215.925781 154.652344 215.746094 154.832031 215.597656 154.949219 C 215.480469 155.007812 215.269531 155.007812 215.0625 155.070312 Z M 215.0625 155.070312 " fill-opacity="1" fill-rule="nonzero"/><path fill="#000000" d="M 187.050781 151.757812 C 186.960938 151.636719 186.691406 151.457031 186.632812 151.21875 C 186.542969 150.890625 186.988281 150.652344 187.496094 150.652344 C 187.792969 150.652344 188.089844 150.742188 188.089844 151.128906 C 188.089844 151.457031 187.675781 151.785156 187.050781 151.757812 Z M 187.050781 151.757812 " fill-opacity="1" fill-rule="nonzero"/><path fill="#000000" d="M 211.28125 154.054688 C 211.042969 154.023438 210.894531 154.023438 210.804688 153.964844 C 210.6875 153.90625 210.539062 153.785156 210.507812 153.667969 C 210.476562 153.578125 210.597656 153.367188 210.6875 153.339844 C 211.132812 153.277344 211.609375 153.1875 212.054688 153.21875 C 212.355469 153.25 212.355469 153.636719 212.054688 153.785156 C 211.816406 153.933594 211.492188 153.996094 211.28125 154.054688 Z M 211.28125 154.054688 " fill-opacity="1" fill-rule="nonzero"/><path fill="#000000" d="M 170.554688 237.175781 C 170.378906 237.234375 170.167969 237.386719 170.050781 237.355469 C 169.722656 237.207031 169.453125 236.996094 169.1875 236.757812 C 169.097656 236.667969 169.128906 236.460938 169.097656 236.3125 C 169.246094 236.28125 169.453125 236.222656 169.542969 236.28125 C 169.902344 236.488281 170.199219 236.757812 170.527344 236.996094 C 170.554688 237.027344 170.554688 237.085938 170.554688 237.175781 Z M 170.554688 237.175781 " fill-opacity="1" fill-rule="nonzero"/><path fill="#000000" d="M 208.363281 157.21875 C 208.125 156.976562 207.886719 156.828125 207.859375 156.679688 C 207.828125 156.261719 208.214844 156.203125 208.511719 156.230469 C 208.722656 156.261719 208.871094 156.472656 209.078125 156.621094 C 208.839844 156.769531 208.632812 156.949219 208.363281 157.21875 Z M 208.363281 157.21875 " fill-opacity="1" fill-rule="nonzero"/><path fill="#000000" d="M 158.140625 181.027344 C 158.796875 181.503906 159.480469 181.949219 160.136719 182.429688 C 159.363281 182.128906 158.558594 181.859375 157.992188 181.234375 C 158.023438 181.144531 158.082031 181.085938 158.140625 181.027344 Z M 158.140625 181.027344 " fill-opacity="1" fill-rule="nonzero"/><path fill="#000000" d="M 160.851562 185.410156 C 160.433594 185.261719 160.019531 185.113281 159.601562 184.933594 C 159.511719 184.902344 159.480469 184.753906 159.453125 184.664062 C 159.542969 184.636719 159.691406 184.546875 159.75 184.574219 C 160.167969 184.753906 160.554688 184.992188 160.941406 185.203125 C 160.910156 185.261719 160.882812 185.320312 160.851562 185.410156 Z M 160.851562 185.410156 " fill-opacity="1" fill-rule="nonzero"/></svg>