<svg xmlns="http://www.w3.org/2000/svg" xmlns:xlink="http://www.w3.org/1999/xlink" width="500" zoomAndPan="magnify" viewBox="0 0 375 374.999991" height="500" preserveAspectRatio="xMidYMid meet" version="1.0"><defs><clipPath id="e5720ca946"><path d="M 166 214 L 262.5 214 L 262.5 254 L 166 254 Z M 166 214 " clip-rule="nonzero"/></clipPath><clipPath id="1570b5dd97"><path d="M 128 119.625 L 223 119.625 L 223 201 L 128 201 Z M 128 119.625 " clip-rule="nonzero"/></clipPath></defs><g clip-path="url(#e5720ca946)"><path fill="#ffffff" d="M 250.117188 240.957031 C 230.988281 253.882812 195.808594 255.339844 166.984375 252.453125 C 176.683594 252.128906 186.25 250.84375 195.691406 248.597656 C 205.132812 246.347656 214.253906 243.183594 223.058594 239.105469 C 238.011719 232.070312 249.601562 222.976562 254.472656 214.765625 C 256.894531 216.261719 261.722656 219.847656 262.089844 224.921875 C 262.457031 229.992188 258.429688 235.34375 250.117188 240.957031 Z M 250.117188 240.957031 " fill-opacity="1" fill-rule="nonzero"/></g><path fill="#ffffff" d="M 253.382812 208.96875 C 253.136719 209.914062 252.800781 210.820312 252.371094 211.695312 C 252.371094 211.695312 252.371094 211.746094 252.320312 211.78125 C 252.316406 211.808594 252.316406 211.839844 252.320312 211.871094 C 244.285156 228.089844 202.519531 252.085938 153.40625 248.949219 C 137.714844 247.941406 128.527344 245.296875 123.203125 242.277344 L 123.085938 242.207031 L 122.988281 242.152344 C 119.648438 240.222656 117.863281 238.144531 116.980469 236.261719 C 116.386719 234.898438 116.113281 233.480469 116.160156 231.996094 C 116.207031 230.511719 116.570312 229.109375 117.246094 227.792969 C 123.378906 232.878906 132.523438 234.464844 141.511719 234.464844 C 145.777344 234.441406 150.023438 234.136719 154.25 233.554688 C 184.898438 229.433594 226.605469 210.902344 238.847656 190.585938 C 241.566406 191.269531 248.617188 193.480469 251.988281 198.671875 C 253.890625 201.566406 254.347656 205.03125 253.382812 208.96875 Z M 253.382812 208.96875 " fill-opacity="1" fill-rule="nonzero"/><path fill="#ffffff" d="M 236.558594 187.902344 C 226.882812 205.546875 187.433594 225.738281 153.800781 230.253906 C 136.828125 232.53125 124.128906 230.3125 118.023438 223.996094 C 112.65625 218.453125 112.589844 212.746094 113.476562 208.976562 C 115.050781 202.335938 120.585938 196.46875 128.09375 193.390625 C 128.980469 194.878906 130.019531 196.25 131.207031 197.511719 C 134.976562 201.515625 144.105469 203.828125 154.941406 203.828125 C 158.171875 203.828125 161.386719 203.632812 164.589844 203.246094 C 169.308594 202.660156 173.953125 201.710938 178.519531 200.394531 C 183.089844 199.078125 187.527344 197.410156 191.832031 195.394531 C 196.136719 193.375 200.257812 191.03125 204.191406 188.359375 C 208.125 185.691406 211.828125 182.726562 215.292969 179.472656 C 220.140625 174.910156 223.285156 170.035156 224.703125 164.898438 C 228.042969 166.089844 235.550781 169.351562 238.054688 175.375 C 239.640625 179.03125 239.136719 183.246094 236.558594 187.902344 Z M 236.558594 187.902344 " fill-opacity="1" fill-rule="nonzero"/><g clip-path="url(#1570b5dd97)"><path fill="#ffffff" d="M 212.988281 177.046875 C 181.925781 206.246094 140.867188 202.910156 133.617188 195.226562 C 132.460938 194.050781 131.476562 192.746094 130.667969 191.308594 C 129.855469 189.875 129.242188 188.359375 128.832031 186.761719 C 128.421875 185.164062 128.222656 183.542969 128.238281 181.894531 C 128.253906 180.242188 128.484375 178.625 128.929688 177.039062 C 131.980469 166.625 143.945312 158.296875 162.535156 153.589844 C 189.503906 146.765625 192.4375 127.484375 192.472656 119.625 C 199.875 124.488281 220.171875 139.25 222.09375 155.929688 C 222.953125 163.445312 219.875 170.519531 212.988281 177.046875 Z M 212.988281 177.046875 " fill-opacity="1" fill-rule="nonzero"/></g></svg>