<svg xmlns="http://www.w3.org/2000/svg" xmlns:xlink="http://www.w3.org/1999/xlink" width="500" zoomAndPan="magnify" viewBox="0 0 375 374.999991" height="500" preserveAspectRatio="xMidYMid meet" version="1.0"><defs><clipPath id="7ce7abc0c5"><path d="M 112.5 123.75 L 262.5 123.75 L 262.5 251.25 L 112.5 251.25 Z M 112.5 123.75 " clip-rule="nonzero"/></clipPath></defs><g clip-path="url(#7ce7abc0c5)"><path fill="#000000" d="M 251.4375 183.925781 C 255.199219 180.164062 257.832031 174.523438 257.832031 168.507812 C 257.832031 156.472656 248.054688 146.691406 236.019531 146.691406 C 233.386719 146.691406 230.375 147.070312 228.121094 148.195312 C 227.742188 141.425781 223.230469 135.410156 215.332031 130.894531 C 207.433594 126.382812 196.902344 123.75 185.621094 123.75 C 162.300781 123.75 143.121094 135.410156 143.121094 149.703125 C 143.121094 157.222656 143.496094 163.992188 144.625 170.761719 C 141.238281 172.269531 137.855469 173.773438 134.84375 175.277344 C 120.554688 183.550781 112.65625 194.835938 112.65625 206.871094 C 112.65625 218.90625 120.554688 230.1875 134.84375 238.460938 C 148.761719 246.738281 167.566406 251.25 187.5 251.25 C 207.433594 251.25 225.863281 246.738281 240.15625 238.460938 C 254.445312 230.1875 262.34375 218.90625 262.34375 206.871094 C 262.34375 198.59375 258.585938 190.695312 251.4375 183.925781 Z M 237.898438 234.703125 C 224.359375 242.597656 206.679688 246.738281 187.5 246.738281 C 168.320312 246.738281 150.640625 242.597656 137.101562 234.703125 C 123.9375 227.179688 116.792969 217.402344 116.792969 206.871094 C 116.792969 196.339844 123.9375 186.558594 137.101562 179.039062 C 139.734375 177.53125 142.367188 176.40625 145.375 174.902344 C 147.257812 185.429688 150.640625 194.082031 155.15625 201.226562 C 162.675781 212.511719 173.207031 218.152344 185.242188 218.152344 C 202.542969 218.152344 216.085938 206.492188 222.476562 185.808594 C 226.238281 188.441406 230.753906 189.945312 235.640625 189.945312 C 240.15625 189.945312 244.292969 188.441406 247.675781 186.183594 C 254.070312 192.203125 257.832031 199.347656 257.832031 206.492188 C 258.207031 217.402344 251.0625 227.179688 237.898438 234.703125 Z M 147.632812 149.703125 C 147.632812 138.042969 164.933594 128.261719 185.621094 128.261719 C 196.152344 128.261719 205.554688 130.519531 213.074219 134.65625 C 219.84375 138.792969 223.605469 143.683594 223.605469 149.324219 C 223.605469 150.078125 223.605469 150.828125 223.605469 151.957031 L 223.605469 156.09375 L 226.992188 153.839844 C 229.625 152.335938 233.007812 151.207031 236.019531 151.207031 C 245.421875 151.207031 253.320312 159.105469 253.320312 168.507812 C 253.320312 173.394531 251.4375 177.910156 248.054688 180.917969 C 247.675781 181.292969 246.925781 182.046875 246.171875 182.421875 C 245.421875 182.796875 245.042969 183.175781 244.292969 183.550781 C 241.660156 185.054688 239.027344 185.808594 236.019531 185.808594 C 231.128906 185.808594 226.992188 183.925781 223.605469 180.542969 L 220.972656 177.910156 L 219.84375 181.671875 C 213.828125 202.730469 201.792969 214.390625 185.621094 214.390625 C 174.710938 214.390625 165.6875 209.125 158.914062 199.347656 C 154.402344 192.578125 151.394531 183.925781 149.511719 173.773438 C 149.511719 173.019531 149.136719 172.269531 149.136719 171.515625 C 149.136719 170.761719 148.761719 170.011719 148.761719 169.257812 C 148.007812 163.242188 147.632812 156.847656 147.632812 149.703125 Z M 147.632812 149.703125 " fill-opacity="1" fill-rule="nonzero"/></g><path fill="#000000" d="M 159.292969 162.488281 C 160.421875 163.242188 161.546875 164.371094 163.054688 165.121094 C 164.179688 165.875 164.933594 166.25 166.0625 166.625 C 167.191406 167.378906 168.695312 167.753906 170.199219 168.128906 C 174.710938 169.636719 179.976562 170.386719 185.621094 170.386719 C 191.636719 170.386719 197.277344 169.257812 202.167969 167.753906 C 203.671875 167.378906 204.800781 166.625 205.929688 166.25 C 207.058594 165.875 208.1875 165.121094 208.9375 164.371094 C 210.066406 163.617188 210.820312 163.242188 211.570312 162.488281 C 215.332031 159.105469 217.589844 155.34375 217.589844 150.828125 C 217.589844 139.921875 203.296875 131.273438 185.242188 131.273438 C 167.191406 131.273438 152.898438 139.921875 152.898438 150.828125 C 153.273438 155.34375 155.53125 159.480469 159.292969 162.488281 Z M 185.621094 135.785156 C 200.664062 135.785156 213.453125 142.929688 213.453125 151.207031 C 213.453125 154.589844 211.570312 157.597656 208.1875 159.855469 C 202.542969 156.09375 194.644531 153.839844 185.242188 153.839844 C 175.839844 153.839844 167.941406 156.09375 162.300781 159.855469 C 158.914062 157.222656 157.035156 154.214844 157.035156 151.207031 C 157.789062 142.929688 170.574219 135.785156 185.621094 135.785156 Z M 185.621094 135.785156 " fill-opacity="1" fill-rule="nonzero"/><path fill="#000000" d="M 236.019531 182.796875 C 238.273438 182.796875 240.15625 182.421875 241.660156 181.671875 C 242.410156 181.292969 243.164062 180.917969 243.914062 180.542969 C 244.667969 180.164062 245.042969 179.789062 245.796875 179.039062 C 247.675781 177.15625 248.804688 175.277344 248.804688 172.644531 C 248.804688 167.003906 243.164062 162.488281 236.394531 162.488281 C 231.503906 162.488281 226.992188 164.746094 225.109375 168.507812 C 224.359375 169.257812 223.980469 170.011719 223.980469 170.761719 C 223.605469 171.515625 223.605469 172.269531 223.605469 173.019531 C 223.605469 178.285156 229.246094 182.796875 236.019531 182.796875 Z M 236.019531 167.003906 C 240.53125 167.003906 244.292969 169.636719 244.292969 172.644531 C 244.292969 174.148438 243.539062 175.277344 242.035156 176.40625 C 241.285156 176.027344 240.90625 175.652344 240.15625 175.277344 C 236.769531 173.394531 233.007812 171.515625 229.246094 170.011719 C 230.375 168.507812 233.007812 167.003906 236.019531 167.003906 Z M 236.394531 178.285156 C 232.632812 178.285156 229.625 176.78125 228.496094 174.523438 C 231.128906 175.652344 234.136719 177.15625 236.394531 178.285156 Z M 236.394531 178.285156 " fill-opacity="1" fill-rule="nonzero"/></svg>