<svg xmlns="http://www.w3.org/2000/svg" xmlns:xlink="http://www.w3.org/1999/xlink" width="500" zoomAndPan="magnify" viewBox="0 0 375 374.999991" height="500" preserveAspectRatio="xMidYMid meet" version="1.0"><defs><filter x="0%" y="0%" width="100%" height="100%" id="ff375ce864"><feColorMatrix values="0 0 0 0 1 0 0 0 0 1 0 0 0 0 1 0 0 0 1 0" color-interpolation-filters="sRGB"/></filter><clipPath id="b616bc9158"><path d="M 115.3125 210 L 204 210 L 204 262 L 115.3125 262 Z M 115.3125 210 " clip-rule="nonzero"/></clipPath><mask id="51ad38d5f4"><g filter="url(#ff375ce864)"><rect x="-37.5" width="450" fill="#000000" y="-37.499999" height="449.999989" fill-opacity="0.4"/></g></mask><clipPath id="e97aed6248"><path d="M 1 0.0390625 L 10 0.0390625 L 10 9.640625 L 1 9.640625 Z M 1 0.0390625 " clip-rule="nonzero"/></clipPath><clipPath id="5cd0334439"><rect x="0" width="11" y="0" height="10"/></clipPath><mask id="eeb4bf48b2"><g filter="url(#ff375ce864)"><rect x="-37.5" width="450" fill="#000000" y="-37.499999" height="449.999989" fill-opacity="0.4"/></g></mask><clipPath id="2772309637"><rect x="0" width="6" y="0" height="10"/></clipPath></defs><path fill="#432818" d="M 189.679688 119.507812 C 193.335938 122.101562 195.621094 125.742188 197.4375 129.757812 C 199.074219 133.382812 200.054688 137.425781 202.277344 140.753906 C 204.113281 143.503906 206.964844 145.347656 209.375 147.542969 C 211.140625 149.148438 215.40625 153.785156 212.523438 155.988281 C 212.214844 156.226562 212.378906 156.84375 212.816406 156.679688 C 219.769531 154.058594 207.933594 144.722656 205.867188 142.882812 C 202 139.433594 200.675781 134.449219 198.644531 129.859375 C 196.703125 125.480469 194.101562 121.589844 189.941406 119.058594 C 189.652344 118.882812 189.410156 119.316406 189.679688 119.507812 Z M 189.679688 119.507812 " fill-opacity="1" fill-rule="nonzero"/><path fill="#432818" d="M 164.816406 119.96875 C 160.832031 122.933594 156.363281 125.214844 156.742188 130.882812 C 156.90625 133.304688 159.320312 140.078125 162.714844 136.746094 C 162.851562 136.609375 162.742188 136.398438 162.566406 136.386719 C 158.917969 136.171875 157.976562 132.800781 157.953125 129.582031 C 157.917969 125.132812 162.542969 123.214844 165.207031 120.472656 C 165.453125 120.21875 165.117188 119.742188 164.816406 119.96875 Z M 164.816406 119.96875 " fill-opacity="1" fill-rule="nonzero"/><path fill="#432818" d="M 192.902344 119.785156 C 199.332031 126.515625 199.132812 136.046875 201.703125 141.175781 C 205.238281 147.910156 213.917969 149.832031 215.847656 157.527344 C 217.777344 165.863281 215.527344 172.917969 206.527344 174.519531 C 198.8125 175.800781 193.023438 173.558594 188.84375 166.824219 C 183.378906 156.886719 180.808594 140.855469 183.058594 129.632812 " fill-opacity="1" fill-rule="nonzero"/><path fill="#e8cfb7" d="M 179.765625 192.539062 C 174.460938 193.023438 170.84375 203.214844 165.539062 204.660156 C 157.34375 207.0625 138.539062 209.46875 138.539062 220.046875 C 139.019531 238.324219 179.523438 230.628906 189.648438 234.957031 C 209.902344 242.652344 226.296875 260.449219 248.957031 247.941406 C 260.046875 241.691406 258.121094 229.667969 251.367188 220.53125 C 245.582031 212.355469 234.011719 206.582031 225.332031 201.773438 " fill-opacity="1" fill-rule="nonzero"/><path fill="#8e4023" d="M 169.167969 214.496094 C 178.242188 212.972656 186.53125 215.523438 192.8125 222.308594 C 197.949219 227.859375 200.621094 235.382812 206.890625 239.9375 C 207.390625 240.300781 207.867188 239.472656 207.375 239.113281 C 200.214844 233.917969 197.367188 224.761719 190.757812 218.972656 C 184.675781 213.644531 176.71875 212.265625 168.914062 213.578125 C 168.304688 213.679688 168.566406 214.597656 169.167969 214.496094 Z M 169.167969 214.496094 " fill-opacity="1" fill-rule="nonzero"/><path fill="#8e4023" d="M 193.59375 223.3125 C 199.90625 225.308594 206.351562 225.210938 212.871094 225.628906 C 215.722656 225.808594 218.554688 226.261719 221.292969 227.085938 C 224.335938 227.996094 226.285156 229.523438 228.359375 231.824219 C 228.570312 232.058594 229.027344 231.8125 228.90625 231.503906 C 227.15625 226.976562 220.058594 225.632812 215.902344 225.121094 C 212.738281 224.730469 209.601562 224.761719 206.421875 224.671875 C 202.09375 224.550781 197.9375 223.617188 193.671875 223.039062 C 193.492188 223.011719 193.414062 223.253906 193.59375 223.3125 Z M 193.59375 223.3125 " fill-opacity="1" fill-rule="nonzero"/><g clip-path="url(#b616bc9158)"><path fill="#f9e7bd" d="M 163.640625 230.03125 C 166.746094 231.3125 207.5 245.015625 203.214844 249.609375 C 200.964844 251.851562 176.125 260.074219 169.269531 261.25 C 162.417969 262.425781 124.832031 250.039062 122.476562 244.800781 C 120.117188 239.5625 115.300781 215.859375 115.621094 212.761719 C 115.941406 209.34375 119.90625 209.984375 122.367188 210.410156 C 127.078125 211.160156 131.898438 212.226562 136.609375 213.292969 C 142.285156 214.46875 147.851562 216.070312 153.636719 217.351562 C 156.3125 217.996094 160.703125 218.316406 162.632812 220.449219 C 164.023438 221.730469 164.664062 223.335938 164.988281 225.257812 C 165.199219 226.644531 170.015625 256.800781 169.910156 258.191406 " fill-opacity="1" fill-rule="nonzero"/></g><path fill="#8e4023" d="M 176.140625 237.871094 C 174.429688 237.207031 172.714844 236.5625 170.992188 235.9375 C 169.925781 235.546875 168.855469 235.167969 167.78125 234.796875 C 167.398438 234.664062 166.847656 234.390625 166.425781 234.492188 C 166.347656 234.511719 166.292969 234.621094 166.347656 234.691406 C 167.054688 235.628906 169.441406 236 170.480469 236.363281 C 172.324219 237.011719 174.175781 237.644531 176.035156 238.253906 C 176.285156 238.335938 176.375 237.960938 176.140625 237.871094 Z M 176.140625 237.871094 " fill-opacity="1" fill-rule="nonzero"/><path fill="#8e4023" d="M 186.171875 252.488281 C 183.175781 253.429688 180.148438 254.289062 177.097656 255.050781 C 175.160156 255.53125 173.167969 256.023438 171.167969 256.148438 C 169.746094 256.242188 169.828125 255.304688 169.578125 254.105469 C 168.164062 247.28125 167.507812 240.253906 166.734375 233.335938 C 166.664062 232.726562 165.699219 232.71875 165.769531 233.335938 C 166.597656 240.710938 167.078125 248.449219 168.945312 255.648438 C 169.636719 258.316406 173.625 256.820312 175.503906 256.410156 C 179.1875 255.609375 182.832031 254.546875 186.429688 253.414062 C 187.019531 253.230469 186.769531 252.300781 186.171875 252.488281 Z M 186.171875 252.488281 " fill-opacity="1" fill-rule="nonzero"/><path fill="#de937b" d="M 193.503906 135.46875 C 195.585938 132.210938 197.019531 135.070312 197.167969 136.992188 C 197.566406 140.503906 195.3125 141.671875 192.371094 142.628906 " fill-opacity="1" fill-rule="nonzero"/><path fill="#de937b" d="M 193.449219 128.035156 C 195.695312 134.835938 192.765625 145.539062 187.566406 150.226562 C 180.542969 156.554688 170.824219 156.117188 166.28125 148.582031 C 163.945312 144.710938 161.453125 134.746094 162.097656 130.15625 C 162.414062 127.925781 162.964844 119.269531 176.257812 117.148438 C 189.554688 115.03125 192.074219 123.859375 193.449219 128.035156 Z M 193.449219 128.035156 " fill-opacity="1" fill-rule="nonzero"/><path fill="#432818" d="M 164.101562 138.007812 C 164.449219 139.050781 165.558594 139.546875 166.566406 139.769531 C 167.382812 139.945312 168.996094 140.039062 169.445312 139.183594 C 169.511719 139.0625 169.488281 138.882812 169.351562 138.820312 C 168.703125 138.511719 167.945312 138.875 167.246094 138.867188 C 166.125 138.847656 165.460938 138.15625 164.546875 137.667969 C 164.324219 137.550781 164.015625 137.742188 164.101562 138.007812 Z M 164.101562 138.007812 " fill-opacity="1" fill-rule="nonzero"/><path fill="#432818" d="M 175.042969 139.039062 C 176 140.160156 177.617188 140.082031 178.945312 139.835938 C 180.21875 139.601562 182.394531 138.925781 183.128906 137.804688 C 183.210938 137.679688 183.097656 137.53125 182.964844 137.523438 C 181.953125 137.457031 180.933594 138.207031 180.019531 138.566406 C 178.359375 139.214844 177.042969 139.28125 175.394531 138.582031 C 175.09375 138.457031 174.824219 138.777344 175.042969 139.039062 Z M 175.042969 139.039062 " fill-opacity="1" fill-rule="nonzero"/><path fill="#de937b" d="M 169.375 137.285156 C 171.003906 141.496094 164.394531 146.90625 172.109375 144.867188 " fill-opacity="1" fill-rule="nonzero"/><path fill="#8e4023" d="M 169.097656 137.363281 C 169.8125 139.832031 168.09375 141.898438 167.824219 144.257812 C 167.558594 146.5625 171.230469 145.707031 172.292969 145.179688 C 172.621094 145.019531 172.464844 144.488281 172.109375 144.5 C 171.136719 144.539062 169.777344 145.1875 168.863281 144.710938 C 168.394531 144.46875 169.125 142.84375 169.234375 142.527344 C 169.839844 140.785156 170.371094 139 169.65625 137.207031 C 169.519531 136.871094 168.992188 136.996094 169.097656 137.363281 Z M 169.097656 137.363281 " fill-opacity="1" fill-rule="nonzero"/><path fill="#432818" d="M 164.660156 134.617188 C 165.660156 134.253906 166.363281 134.140625 167.414062 134.492188 C 167.882812 134.652344 168.898438 135.539062 169.203125 134.722656 C 169.265625 134.550781 169.183594 134.378906 169.078125 134.25 C 168.1875 133.1875 165 132.527344 164.214844 134.042969 C 164.070312 134.320312 164.3125 134.742188 164.660156 134.617188 Z M 164.660156 134.617188 " fill-opacity="1" fill-rule="nonzero"/><path fill="#432818" d="M 175.398438 134.644531 C 177.585938 133.667969 179.351562 133.191406 181.644531 134.214844 C 182.265625 134.492188 182.757812 133.691406 182.179688 133.300781 C 180.050781 131.863281 176.753906 132.296875 174.828125 133.90625 C 174.386719 134.277344 174.949219 134.847656 175.398438 134.644531 Z M 175.398438 134.644531 " fill-opacity="1" fill-rule="nonzero"/><path fill="#432818" d="M 169.898438 147.589844 C 173.082031 149 176.730469 147.789062 179.4375 145.785156 C 179.566406 145.6875 179.550781 145.410156 179.339844 145.433594 C 178.09375 145.574219 177.035156 146.21875 175.921875 146.765625 C 173.902344 147.753906 172.234375 147.773438 170.082031 147.15625 C 169.828125 147.085938 169.648438 147.480469 169.898438 147.589844 Z M 169.898438 147.589844 " fill-opacity="1" fill-rule="nonzero"/><path fill="#de937b" d="M 190.773438 145.34375 C 192.703125 151.757812 193.667969 151.113281 199.132812 151.113281 C 204.277344 151.113281 206.527344 152.71875 206.847656 158.167969 C 207.488281 165.222656 204.277344 174.199219 202.347656 180.933594 C 201.703125 183.820312 201.0625 187.988281 197.847656 188.628906 C 193.667969 189.269531 188.203125 183.816406 184.988281 181.574219 C 179.523438 178.046875 165.058594 169.390625 168.59375 161.054688 C 171.164062 154.960938 182.417969 156.566406 176.953125 147.265625 " fill-opacity="1" fill-rule="nonzero"/><path fill="#de937b" d="M 209.417969 214.597656 L 207.8125 210.75 C 201.0625 216.203125 193.347656 217.804688 185.632812 221.332031 C 180.488281 223.574219 180.488281 228.386719 177.273438 232.554688 C 174.058594 236.082031 172.773438 239.605469 170.199219 243.773438 C 173.09375 243.132812 174.699219 239.925781 176.308594 238.003906 C 177.914062 239.925781 176.308594 243.132812 180.164062 244.097656 C 181.453125 244.738281 184.828125 243.292969 186.273438 242.492188 C 188.84375 243.773438 189.167969 242.8125 189.488281 240.570312 C 190.132812 237.363281 187.878906 238.324219 190.453125 234.796875 C 191.417969 233.835938 192.703125 233.515625 193.347656 232.234375 C 193.667969 231.269531 193.023438 229.667969 193.667969 229.027344 C 194.953125 226.78125 197.523438 227.421875 199.773438 227.101562 C 202.988281 226.460938 210.703125 226.460938 212.953125 223.894531 C 215.527344 221.011719 212.632812 215.558594 209.417969 214.597656 Z M 209.417969 214.597656 " fill-opacity="1" fill-rule="nonzero"/><g mask="url(#51ad38d5f4)"><g transform="matrix(1, 0, 0, 1, 181, 137)"><g clip-path="url(#5cd0334439)"><g clip-path="url(#e97aed6248)"><path fill="#8e4023" d="M 1.253906 7.472656 C 1.773438 9.449219 4.527344 9.796875 6.613281 8.203125 C 9.007812 6.375 10.640625 2.320312 8.964844 0.835938 C 5.835938 -1.945312 0.378906 5.046875 1.253906 7.472656 Z M 1.253906 7.472656 " fill-opacity="1" fill-rule="nonzero"/></g></g></g></g><g mask="url(#eeb4bf48b2)"><g transform="matrix(1, 0, 0, 1, 162, 139)"><g clip-path="url(#2772309637)"><path fill="#8e4023" d="M 3.941406 8.957031 C 3.9375 8.957031 3.9375 8.957031 3.933594 8.960938 C 2.921875 7.042969 1.914062 4.089844 1.164062 1.03125 C 2.496094 1.554688 3.828125 2.496094 4.675781 3.609375 C 6.273438 5.691406 5.925781 8.4375 3.941406 8.957031 Z M 3.941406 8.957031 " fill-opacity="1" fill-rule="nonzero"/></g></g></g><path fill="#8e4023" d="M 193.160156 140.121094 C 193.578125 139.257812 193.652344 138.300781 194.222656 137.484375 C 194.328125 137.332031 194.484375 137.1875 194.660156 137.125 C 194.90625 137.035156 195.085938 137.230469 195.296875 137.308594 C 195.75 137.472656 196 137.199219 195.699219 136.785156 C 195.074219 135.929688 193.992188 136.566406 193.542969 137.203125 C 193.238281 137.628906 193.058594 138.15625 192.902344 138.652344 C 192.769531 139.066406 192.601562 139.535156 192.605469 139.972656 C 192.609375 140.253906 193.027344 140.398438 193.160156 140.121094 Z M 193.160156 140.121094 " fill-opacity="1" fill-rule="nonzero"/><path fill="#432818" d="M 165.484375 118.765625 C 161.523438 121.292969 155.359375 131.972656 164.203125 132.664062 C 163.375 131.007812 163.769531 128.914062 165.007812 127.546875 C 165.324219 131.792969 166.390625 131.84375 169.832031 133.214844 C 169.773438 131.429688 170.085938 130.117188 171.148438 128.757812 C 171.492188 130.511719 171.128906 133.355469 173.199219 132.9375 C 175.621094 132.449219 176.242188 129.0625 178.265625 128.074219 C 179.304688 131.800781 176.742188 135.539062 182.410156 134.859375 C 185.488281 134.492188 187.632812 133.011719 189.800781 135.585938 C 190.25 136.113281 189.851562 137.449219 190.984375 137.539062 C 191.714844 137.597656 191.621094 136.320312 192.085938 136.097656 C 193.800781 135.285156 196.117188 135.203125 197.128906 133.277344 C 198.867188 129.96875 196.070312 124.210938 194.230469 121.457031 C 188.277344 112.550781 173.585938 113.597656 165.484375 118.765625 Z M 165.484375 118.765625 " fill-opacity="1" fill-rule="nonzero"/><path fill="#8e4023" d="M 179.765625 154.476562 C 181.828125 154.683594 183.730469 153.691406 185.367188 152.527344 C 186.714844 151.566406 188.601562 149.925781 188.976562 148.230469 C 189.039062 147.945312 188.691406 147.710938 188.472656 147.9375 C 187.339844 149.105469 186.546875 150.472656 185.277344 151.554688 C 183.722656 152.882812 181.8125 153.742188 179.765625 153.84375 C 179.351562 153.867188 179.363281 154.4375 179.765625 154.476562 Z M 179.765625 154.476562 " fill-opacity="1" fill-rule="nonzero"/><path fill="#8e4023" d="M 200.316406 152.617188 C 201.039062 155.984375 195.675781 162.097656 193.265625 163.78125 C 194.472656 165.222656 197.125 166.425781 197.363281 168.347656 C 197.605469 170.273438 195.675781 171.234375 194.953125 172.675781 C 193.507812 176.523438 194.472656 181.09375 191.335938 184.460938 C 187.480469 178.207031 183.140625 173.878906 176.148438 171.234375 C 172.722656 169.9375 171.625 167.722656 172.421875 164.308594 C 172.90625 162.222656 175.136719 156.023438 171.265625 156.601562 C 163.738281 159.210938 163.003906 163.296875 162.886719 166.664062 C 162.773438 170.03125 159.753906 175.082031 157.585938 178.929688 C 156.378906 180.851562 154.933594 182.296875 155.65625 184.460938 C 156.136719 186.625 158.308594 188.789062 159.03125 190.710938 C 160.960938 195.039062 160.960938 198.886719 162.164062 203.214844 C 157.824219 204.179688 155.414062 194.800781 152.761719 199.367188 C 150.351562 203.695312 153.246094 207.785156 157.34375 208.746094 C 161.683594 209.707031 162.945312 211.027344 166.804688 210.066406 C 169.753906 209.226562 172.128906 207.140625 174.121094 204.898438 C 175.308594 203.5625 176.003906 201.035156 177.695312 200.222656 C 180.75 198.753906 179.816406 204.332031 180.648438 205.9375 C 182.058594 208.65625 185.929688 209.972656 188.765625 210.480469 C 190.632812 210.8125 192.925781 210.941406 194.246094 212.488281 C 196.0625 214.605469 192.679688 216.355469 194.214844 217.886719 C 195.933594 219.605469 202.25 221.28125 203.148438 222.695312 C 204.597656 224.859375 204.113281 227.742188 206.765625 229.425781 C 211.828125 232.3125 217.617188 229.425781 220.265625 225.097656 C 223.402344 219.808594 227.257812 218.605469 232.804688 216.441406 C 237.867188 214.277344 243.171875 213.074219 243.414062 206.824219 C 243.894531 194.558594 233.285156 185.421875 228.945312 174.839844 C 225.089844 165.460938 225.292969 153.242188 207.453125 149.875 C 203.027344 149.042969 199.59375 149.25 200.316406 152.617188 Z M 200.316406 152.617188 " fill-opacity="1" fill-rule="nonzero"/><path fill="#de937b" d="M 142.929688 170.371094 C 141.136719 168.355469 137.851562 167.492188 135.160156 167.78125 C 135.160156 169.507812 137.253906 170.949219 138.449219 172.097656 C 134.566406 172.675781 138.449219 176.707031 139.34375 178.71875 C 140.238281 180.160156 139.34375 180.160156 141.136719 181.597656 C 142.332031 182.460938 144.121094 182.175781 145.316406 182.75 C 150.695312 185.628906 153.179688 193.160156 153.980469 198.582031 C 154.933594 205.023438 163.277344 209.566406 167.421875 201.460938 C 171.566406 193.355469 158.777344 182.671875 157.582031 178.929688 C 156.988281 176.339844 158.460938 169.21875 154.277344 168.644531 " fill-opacity="1" fill-rule="nonzero"/><path fill="#f9e7bd" d="M 140.179688 159.539062 C 137.96875 164.007812 140.875 176.207031 141.902344 178.511719 C 142.933594 180.820312 153.535156 181.222656 154.761719 178.511719 C 155.988281 175.800781 157.15625 162.710938 156.839844 160.949219 C 156.214844 157.457031 142.390625 155.074219 140.179688 159.539062 Z M 140.179688 159.539062 " fill-opacity="1" fill-rule="nonzero"/><path fill="#8e4023" d="M 153.664062 159.671875 C 151.757812 158.933594 146.785156 158.714844 146.03125 158.808594 C 145.128906 158.921875 142.371094 158.945312 141.925781 159.808594 C 141.34375 161.015625 144.679688 161.238281 145.628906 161.445312 C 147.449219 161.835938 152.199219 161.851562 153.789062 160.957031 C 154.742188 160.417969 154.496094 159.996094 153.664062 159.671875 Z M 153.664062 159.671875 " fill-opacity="1" fill-rule="nonzero"/><path fill="#8e4023" d="M 180.839844 121.390625 C 182.398438 121.835938 183.339844 123.210938 183.792969 124.691406 C 184.261719 126.210938 183.839844 127.355469 183.230469 128.71875 C 183.101562 129.007812 183.398438 129.457031 183.726562 129.214844 C 185.105469 128.183594 184.945312 125.957031 184.535156 124.488281 C 184.046875 122.710938 182.757812 121.261719 180.890625 121.015625 C 180.671875 120.988281 180.636719 121.335938 180.839844 121.390625 Z M 180.839844 121.390625 " fill-opacity="1" fill-rule="nonzero"/><path fill="#8e4023" d="M 172.414062 120.832031 C 169.90625 121.285156 165.210938 124.761719 167.332031 127.65625 C 168.3125 128.988281 169.726562 127.695312 170.121094 126.558594 C 170.554688 125.320312 170.660156 124.214844 171.367188 123.054688 C 171.777344 122.382812 172.300781 121.785156 172.75 121.140625 C 172.980469 120.804688 172.488281 120.480469 172.210938 120.726562 C 171.515625 121.332031 170.992188 122.175781 170.515625 122.957031 C 169.699219 124.304688 169.871094 126.171875 168.800781 127.304688 C 168.078125 128.074219 167.605469 126.839844 167.511719 126.496094 C 167.414062 126.164062 167.503906 125.800781 167.59375 125.476562 C 167.800781 124.710938 168.394531 124.050781 168.929688 123.492188 C 169.875 122.511719 171.183594 121.539062 172.488281 121.101562 C 172.660156 121.042969 172.589844 120.800781 172.414062 120.832031 Z M 172.414062 120.832031 " fill-opacity="1" fill-rule="nonzero"/><path fill="#e8cfb7" d="M 185.660156 119.226562 C 190.390625 119.882812 192.105469 126.15625 193.753906 129.714844 C 193.820312 129.855469 194.054688 129.816406 194.082031 129.671875 C 194.558594 127.425781 192.441406 124.464844 191.25 122.753906 C 189.976562 120.921875 188.125 118.832031 185.710938 118.851562 C 185.503906 118.851562 185.441406 119.195312 185.660156 119.226562 Z M 185.660156 119.226562 " fill-opacity="1" fill-rule="nonzero"/><path fill="#e8cfb7" d="M 198.472656 213.675781 C 199.5625 211.199219 201.3125 209.632812 203.953125 208.925781 C 205.878906 208.410156 207.71875 208.066406 209.183594 206.609375 C 210.042969 205.75 210.140625 204.308594 210.410156 203.199219 C 210.882812 201.261719 212.765625 200.226562 214.296875 199.195312 C 216.257812 197.875 216.703125 196.316406 215.628906 194.195312 C 214.773438 192.503906 213.273438 191.160156 212.25 189.5625 C 211.007812 187.613281 211.019531 185.46875 210.8125 183.246094 C 210.753906 182.597656 209.84375 182.589844 209.796875 183.246094 C 209.550781 186.617188 210.558594 189.34375 212.585938 191.980469 C 213.589844 193.28125 216.140625 195.589844 214.761719 197.363281 C 214.03125 198.300781 212.753906 198.824219 211.832031 199.550781 C 210.949219 200.253906 209.875 201.214844 209.542969 202.34375 C 209.339844 203.035156 209.191406 203.734375 209.042969 204.441406 C 208.703125 206.078125 207.410156 206.875 205.945312 207.46875 C 204.019531 208.242188 202.261719 208.367188 200.558594 209.65625 C 199.277344 210.621094 198.484375 211.976562 198 213.476562 C 197.910156 213.753906 198.355469 213.949219 198.472656 213.675781 Z M 198.472656 213.675781 " fill-opacity="1" fill-rule="nonzero"/><path fill="#e8cfb7" d="M 177.914062 195.1875 C 179.496094 193.265625 180.109375 191.328125 179.355469 188.902344 C 178.984375 187.691406 178.257812 186.5625 177.59375 185.496094 C 176.753906 184.148438 176.085938 182.671875 175.203125 181.367188 C 174.949219 180.992188 174.402344 181.230469 174.484375 181.667969 C 175.464844 186.8125 181.085938 189.179688 177.5625 194.917969 C 177.433594 195.128906 177.75 195.386719 177.914062 195.1875 Z M 177.914062 195.1875 " fill-opacity="1" fill-rule="nonzero"/><path fill="#8e4023" d="M 177.191406 162.148438 C 178.046875 162.410156 178.816406 162.746094 179.582031 163.210938 C 180.304688 163.648438 180.945312 164.296875 181.796875 164.453125 C 181.96875 164.484375 182.144531 164.3125 182.035156 164.144531 C 181.566406 163.398438 180.726562 162.960938 179.992188 162.507812 C 179.171875 161.996094 178.25 161.585938 177.273438 161.535156 C 176.910156 161.515625 176.863281 162.046875 177.191406 162.148438 Z M 177.191406 162.148438 " fill-opacity="1" fill-rule="nonzero"/><path fill="#8e4023" d="M 189.394531 163.039062 C 191.007812 162.480469 192.464844 161.660156 193.941406 160.816406 C 195.757812 159.777344 197.546875 159.121094 199.519531 158.472656 C 199.789062 158.382812 199.722656 158.023438 199.453125 158 C 195.78125 157.632812 192.382812 161.234375 189.207031 162.601562 C 188.957031 162.707031 189.136719 163.128906 189.394531 163.039062 Z M 189.394531 163.039062 " fill-opacity="1" fill-rule="nonzero"/><path fill="#e8cfb7" d="M 142.488281 229.128906 C 141.035156 228.164062 139.152344 229.457031 138.066406 230.636719 C 137.101562 229.375 135.726562 227.574219 134.289062 229.367188 C 132.683594 231.371094 136.460938 235.140625 138.148438 236.34375 C 139.351562 234.660156 145.140625 230.8125 142.488281 229.128906 Z M 142.488281 229.128906 " fill-opacity="1" fill-rule="nonzero"/><path fill="#e8cfb7" d="M 142.132812 163.902344 C 140.488281 166.308594 142.230469 168.921875 144.378906 170.289062 C 145.308594 170.882812 146.550781 171.980469 145.460938 173.167969 C 145.21875 173.433594 144.769531 173.816406 144.703125 174.203125 C 144.550781 175.074219 144.976562 175.503906 145.75 175.863281 C 146.132812 176.042969 146.445312 175.621094 146.1875 175.296875 C 145.148438 174.007812 147.898438 172.726562 146.933594 171.082031 C 146.496094 170.339844 145.539062 169.925781 144.824219 169.523438 C 142.773438 168.363281 141.867188 166.335938 142.519531 164.066406 C 142.589844 163.828125 142.265625 163.714844 142.132812 163.902344 Z M 142.132812 163.902344 " fill-opacity="1" fill-rule="nonzero"/><path fill="#e8cfb7" d="M 232.089844 203.445312 C 232.121094 204.773438 231.683594 206.359375 232.6875 207.425781 C 233.546875 208.332031 234.546875 208.941406 235.808594 208.515625 C 237.929688 207.800781 237.980469 204.890625 236.390625 203.691406 C 236.167969 203.523438 235.761719 203.691406 235.714844 203.964844 C 235.332031 206.207031 236.6875 208.277344 239.175781 207.183594 C 240.566406 206.574219 241.039062 205.394531 241.316406 203.964844 C 241.703125 201.984375 241.78125 200.058594 242.304688 198.09375 C 242.40625 197.722656 241.957031 197.492188 241.683594 197.734375 C 240.566406 198.722656 240.53125 200.375 240.421875 201.761719 C 240.320312 202.980469 240.277344 204.210938 239.765625 205.34375 C 239.40625 206.132812 238.558594 206.414062 237.777344 206.464844 C 236.460938 206.554688 236.464844 205.066406 236.605469 204.210938 C 236.378906 204.300781 236.152344 204.394531 235.925781 204.484375 C 237.820312 205.882812 235.695312 208.871094 233.648438 207.210938 C 232.328125 206.136719 233.292969 204.558594 232.484375 203.339844 C 232.375 203.171875 232.085938 203.226562 232.089844 203.445312 Z M 232.089844 203.445312 " fill-opacity="1" fill-rule="nonzero"/><path fill="#8e4023" d="M 240.347656 237.113281 C 240.441406 239.316406 243.5 243.929688 246.128906 241.640625 C 248.3125 239.734375 246.34375 235.636719 245.699219 233.4375 C 245.628906 233.199219 245.410156 233.03125 245.160156 233.03125 C 245.054688 233.03125 244.945312 233.027344 244.839844 233.023438 C 244.660156 233.015625 244.425781 233.128906 244.351562 233.300781 C 243.332031 235.636719 244.085938 238.9375 246.96875 239.335938 C 250.285156 239.792969 251.835938 235.125 252.550781 232.710938 C 252.628906 232.449219 252.308594 232.164062 252.066406 232.339844 C 250.632812 233.371094 250.261719 235.335938 249.441406 236.828125 C 248.550781 238.445312 246.503906 238.617188 245.460938 237.066406 C 245.058594 236.46875 245.015625 235.714844 245.023438 235.027344 C 245.082031 234.753906 245.140625 234.476562 245.199219 234.203125 C 245.066406 234.085938 244.90625 234.027344 244.714844 234.035156 C 245.214844 235.671875 245.839844 237.269531 245.992188 238.988281 C 246.128906 240.46875 245.238281 241.667969 243.554688 240.789062 C 242.269531 240.121094 241.179688 238.417969 240.960938 237.03125 C 240.90625 236.679688 240.332031 236.765625 240.347656 237.113281 Z M 240.347656 237.113281 " fill-opacity="1" fill-rule="nonzero"/></svg>