<svg xmlns="http://www.w3.org/2000/svg" xmlns:xlink="http://www.w3.org/1999/xlink" width="500" zoomAndPan="magnify" viewBox="0 0 375 374.999991" height="500" preserveAspectRatio="xMidYMid meet" version="1.0"><defs><clipPath id="7a6a4af979"><path d="M 136.03125 162 L 238 162 L 238 262 L 136.03125 262 Z M 136.03125 162 " clip-rule="nonzero"/></clipPath><clipPath id="9d67b30beb"><path d="M 136.03125 167 L 238.78125 167 L 238.78125 261 L 136.03125 261 Z M 136.03125 167 " clip-rule="nonzero"/></clipPath></defs><g clip-path="url(#7a6a4af979)"><path fill="#ffffff" d="M 143.136719 259.035156 C 160.035156 261.613281 177.246094 261.734375 194.269531 260.816406 C 201.003906 260.324219 207.800781 260.203125 214.539062 260.875 C 218.519531 261.183594 235.972656 262.53125 237.378906 258.914062 C 236.460938 239.894531 234.6875 220.691406 229.113281 202.347656 C 226.847656 195.84375 224.828125 190.445312 220.355469 185.046875 C 218.949219 183.574219 215.886719 180.507812 214.171875 179.464844 C 212.640625 178.605469 212.027344 178.914062 211.171875 177.441406 C 210.3125 175.84375 209.699219 173.085938 208.476562 171.980469 C 207.25 170.816406 205.351562 171.246094 203.085938 171.613281 C 203.515625 165.90625 200.882812 164.496094 197.269531 163.390625 C 190.902344 160.9375 184.652344 162.164062 183.0625 169.957031 C 180.121094 169.957031 178.40625 171.246094 176.632812 172.472656 C 175.898438 172.960938 176.386719 174.25 175.53125 174.617188 C 173.875 175.171875 171.058594 175.046875 169.46875 175.785156 C 162.363281 179.035156 155.996094 183.757812 151.832031 190.628906 C 142.460938 205.292969 136.03125 236.273438 137.132812 253.636719 C 136.644531 254.371094 137.316406 255.476562 137.5 256.335938 C 137.746094 257.074219 138.417969 257.5 139.15625 257.441406 C 140.132812 258.542969 141.726562 258.789062 143.136719 259.035156 Z M 143.136719 259.035156 " fill-opacity="1" fill-rule="evenodd"/></g><g clip-path="url(#9d67b30beb)"><path fill="#6b4031" d="M 213.070312 179.097656 C 212.945312 179.035156 213.070312 178.914062 213.191406 178.914062 C 218.210938 181.246094 222.070312 185.414062 224.765625 190.203125 C 227.582031 195.171875 229.175781 200.753906 230.519531 206.273438 L 230.582031 206.457031 C 232.050781 212.347656 233.277344 218.238281 234.441406 224.1875 C 235.605469 230.203125 236.523438 236.273438 237.257812 242.347656 C 237.625 245.355469 237.929688 248.359375 238.175781 251.367188 C 238.296875 252.902344 238.421875 254.371094 238.542969 255.90625 C 238.605469 256.519531 238.605469 257.132812 238.667969 257.746094 L 238.667969 258.175781 C 238.667969 258.605469 238.726562 258.972656 238.605469 259.402344 C 238.542969 259.773438 238.359375 260.078125 238.175781 260.386719 C 237.871094 261 236.953125 260.9375 236.644531 260.386719 L 236.523438 260.203125 C 236.277344 259.832031 236.09375 259.527344 236.03125 259.097656 C 235.972656 258.667969 235.972656 258.238281 235.910156 257.808594 C 235.847656 257.011719 235.789062 256.214844 235.726562 255.414062 C 235.605469 253.757812 235.480469 252.042969 235.359375 250.386719 C 235.054688 247.074219 234.746094 243.757812 234.378906 240.445312 C 233.707031 234.558594 232.847656 228.730469 231.867188 222.902344 C 230.890625 217.195312 229.664062 211.613281 228.378906 205.96875 L 228.253906 205.414062 C 225.929688 195.660156 222.5 184.371094 213.070312 179.097656 Z M 159.667969 217.5 C 159.730469 217.378906 159.851562 217.378906 159.914062 217.5 C 160.28125 219.035156 160.28125 220.570312 160.34375 222.164062 C 160.402344 223.699219 160.402344 225.230469 160.34375 226.765625 C 160.28125 232.472656 160.097656 238.117188 159.976562 243.757812 C 159.914062 246.582031 159.851562 249.402344 159.792969 252.226562 C 159.792969 253.269531 159.730469 254.371094 159.730469 255.414062 L 159.730469 256.828125 C 159.730469 257.441406 159.730469 258.054688 159.609375 258.667969 C 159.546875 259.097656 159.425781 259.464844 159.242188 259.832031 C 159.058594 260.078125 158.871094 260.203125 158.628906 260.386719 L 158.566406 260.445312 C 158.261719 260.691406 158.015625 260.691406 157.710938 260.445312 L 157.648438 260.386719 C 157.402344 260.203125 157.160156 260.015625 156.976562 259.710938 C 156.730469 259.28125 156.730469 258.730469 156.667969 258.238281 C 156.605469 257.441406 156.667969 256.703125 156.667969 255.90625 C 156.667969 254.371094 156.730469 252.839844 156.730469 251.246094 C 156.851562 245.601562 157.035156 239.894531 157.402344 234.25 C 157.585938 231.613281 157.769531 228.914062 158.078125 226.273438 L 158.199219 225.785156 C 158.320312 224.988281 158.382812 224.1875 158.445312 223.390625 C 157.035156 222.410156 155.75 221.183594 154.707031 219.773438 C 154.648438 219.648438 154.769531 219.527344 154.832031 219.648438 C 155.933594 220.753906 157.160156 221.671875 158.566406 222.410156 C 158.8125 220.753906 159.117188 219.097656 159.667969 217.5 Z M 183.492188 167.074219 C 183.492188 167.074219 183.550781 167.074219 183.550781 167.074219 C 183.859375 167.441406 183.796875 167.992188 183.796875 168.421875 L 183.796875 168.484375 C 183.796875 169.160156 183.796875 169.832031 183.796875 170.445312 L 183.796875 172.53125 C 183.796875 172.839844 183.796875 173.144531 183.796875 173.390625 L 183.796875 173.515625 C 183.980469 173.699219 184.042969 173.945312 183.980469 174.128906 C 183.980469 174.433594 183.796875 174.679688 183.550781 174.863281 L 184.042969 175.601562 L 184.53125 176.335938 C 185.574219 177.808594 186.613281 179.28125 187.714844 180.691406 C 188.820312 182.164062 190.042969 183.574219 191.269531 184.925781 C 191.878906 185.601562 192.492188 186.214844 193.105469 186.886719 C 193.351562 187.132812 193.59375 187.378906 193.902344 187.625 L 194.144531 187.871094 C 194.269531 187.992188 194.511719 188.175781 194.574219 188.359375 C 194.636719 188.484375 194.636719 188.730469 194.695312 188.789062 C 194.882812 189.21875 194.574219 189.894531 194.023438 189.648438 C 194.144531 189.585938 194.085938 189.585938 193.839844 189.648438 C 193.71875 189.648438 193.535156 189.585938 193.410156 189.527344 L 193.351562 189.527344 C 193.167969 189.464844 193.042969 189.28125 192.859375 189.097656 L 192.800781 189.035156 C 192.492188 188.730469 192.1875 188.421875 191.820312 188.054688 C 191.144531 187.378906 190.53125 186.703125 189.921875 186.03125 C 188.695312 184.617188 187.53125 183.207031 186.429688 181.671875 C 185.328125 180.140625 184.285156 178.542969 183.367188 176.886719 C 183 176.273438 182.695312 175.601562 182.386719 174.925781 C 181.777344 174.742188 181.652344 174.128906 181.714844 173.390625 C 181.46875 172.902344 181.285156 172.347656 181.164062 171.859375 C 181.164062 171.796875 181.226562 171.734375 181.285156 171.796875 C 181.46875 171.980469 181.652344 172.226562 181.835938 172.472656 C 181.960938 171.980469 182.082031 171.550781 182.144531 171.246094 L 182.386719 169.957031 C 180.917969 169.894531 179.328125 170.507812 178.347656 171.550781 C 178.285156 171.796875 178.101562 172.042969 177.855469 172.289062 C 177.613281 172.59375 177.429688 172.902344 177.246094 173.269531 C 176.878906 174.003906 177.121094 175.171875 176.449219 175.722656 C 176.386719 175.785156 176.324219 175.84375 176.203125 175.84375 C 176.507812 177.378906 176.386719 179.035156 176.386719 180.628906 L 176.386719 180.753906 C 176.386719 182.472656 176.324219 184.25 176.265625 185.96875 L 176.386719 187.746094 C 176.324219 190.015625 176.265625 192.347656 176.449219 194.617188 C 177.488281 193.699219 178.53125 192.839844 179.570312 192.042969 C 180.304688 191.488281 181.042969 191 181.777344 190.507812 L 182.386719 190.078125 C 183.125 189.585938 183.859375 189.097656 184.652344 188.730469 C 185.695312 188.300781 186.675781 188.421875 187.65625 188.914062 C 188.632812 189.402344 189.613281 189.894531 190.59375 190.445312 C 191.574219 190.9375 192.554688 191.488281 193.59375 191.980469 C 194.269531 192.285156 195.1875 192.59375 195.675781 193.269531 C 195.738281 193.144531 195.738281 193.023438 195.800781 192.839844 C 195.738281 192.65625 195.800781 192.410156 195.859375 192.164062 C 197.453125 189.160156 198.984375 186.152344 200.453125 183.085938 C 201.1875 181.550781 201.921875 179.957031 202.65625 178.421875 L 203.394531 176.886719 C 203.515625 176.644531 203.636719 176.398438 203.761719 176.152344 C 203.945312 175.785156 204.128906 175.414062 204.3125 175.046875 C 204.371094 174.863281 204.496094 174.742188 204.554688 174.558594 L 204.617188 174.496094 C 204.617188 174.496094 204.800781 173.945312 204.679688 174.003906 C 204.617188 174.066406 204.554688 173.945312 204.617188 173.882812 C 204.800781 173.636719 205.109375 173.882812 205.167969 174.066406 C 205.476562 174.679688 204.925781 175.660156 204.679688 176.214844 L 204.679688 176.273438 C 204.003906 178.175781 203.269531 180.015625 202.472656 181.859375 C 201.003906 185.414062 199.414062 188.914062 197.820312 192.410156 L 197.820312 192.472656 C 198.1875 192.226562 198.492188 191.980469 198.863281 191.734375 C 199.65625 191.183594 200.453125 190.628906 201.25 190.078125 C 202.71875 189.097656 204.25 188.117188 205.78125 187.195312 L 206.085938 187.011719 C 206.882812 186.582031 207.617188 186.214844 208.535156 186.335938 C 209.394531 186.457031 210.191406 186.886719 210.925781 187.316406 L 210.988281 187.378906 L 213.375 188.484375 C 213.128906 187.441406 212.824219 186.457031 212.578125 185.476562 C 212.027344 183.515625 211.414062 181.550781 210.742188 179.648438 C 210.128906 177.871094 209.457031 176.089844 208.722656 174.3125 L 208.535156 173.757812 C 208.230469 173.023438 207.984375 172.226562 207.128906 172.042969 C 206.269531 171.796875 205.351562 172.164062 204.617188 171.671875 C 204.554688 171.613281 204.554688 171.488281 204.617188 171.488281 L 205.109375 171.367188 C 205.964844 171.121094 207.007812 170.9375 207.863281 171.121094 C 208.78125 171.367188 209.515625 172.101562 209.945312 172.902344 C 210.433594 173.757812 210.804688 174.742188 211.171875 175.722656 L 211.230469 175.84375 C 211.660156 176.886719 212.089844 177.992188 212.457031 179.035156 C 213.253906 181.183594 213.925781 183.328125 214.597656 185.539062 C 214.90625 186.582031 215.210938 187.625 215.457031 188.730469 C 215.519531 189.035156 215.703125 189.402344 215.761719 189.773438 C 215.886719 189.894531 216.007812 190.015625 216.128906 190.203125 C 216.3125 190.445312 216.191406 190.753906 215.945312 190.9375 C 215.945312 191.183594 215.886719 191.429688 215.761719 191.671875 C 215.210938 192.53125 213.742188 192.289062 213.804688 191.183594 C 213.804688 191 213.863281 190.875 213.988281 190.691406 L 213.988281 190.628906 C 213.679688 190.507812 213.375 190.386719 213.128906 190.203125 L 210.617188 188.972656 C 209.882812 188.605469 209.089844 188.054688 208.292969 187.929688 C 207.558594 187.808594 206.761719 188.359375 206.085938 188.730469 L 206.027344 188.730469 C 204.496094 189.527344 202.964844 190.324219 201.371094 191.183594 C 200.636719 191.613281 199.902344 191.980469 199.167969 192.410156 C 198.554688 192.777344 197.882812 193.269531 197.148438 193.453125 C 196.839844 193.699219 196.472656 193.636719 196.226562 193.453125 C 196.351562 194.25 196.351562 195.109375 196.410156 195.90625 C 196.472656 197.011719 196.472656 198.117188 196.472656 199.21875 L 196.472656 199.648438 C 196.535156 202.101562 196.535156 204.558594 196.535156 207.011719 C 196.59375 215.722656 196.472656 224.496094 196.472656 233.207031 C 196.472656 237.625 196.351562 241.980469 196.289062 246.398438 C 196.226562 248.238281 196.167969 250.140625 196.042969 251.980469 L 195.984375 253.023438 C 195.859375 255.171875 195.800781 257.316406 195.371094 259.402344 C 195.308594 259.648438 194.882812 259.710938 194.820312 259.402344 C 194.453125 257.132812 194.453125 254.863281 194.390625 252.53125 L 194.390625 252.101562 C 194.328125 249.648438 194.269531 247.195312 194.269531 244.742188 C 194.328125 235.96875 194.511719 227.257812 194.695312 218.542969 C 194.820312 214.128906 194.882812 209.773438 195.003906 205.355469 C 195.066406 203.144531 195.1875 200.9375 195.25 198.789062 C 195.308594 197.808594 195.308594 196.828125 195.371094 195.84375 L 195.371094 195.414062 C 195.371094 195.171875 195.433594 194.863281 195.433594 194.617188 C 194.574219 194.925781 193.71875 194.371094 192.921875 193.945312 C 192.003906 193.453125 191.085938 193.023438 190.164062 192.53125 L 189.371094 192.042969 L 187.53125 191.121094 C 186.734375 190.691406 186.0625 190.261719 185.207031 190.753906 C 182.019531 192.53125 179.082031 194.925781 176.449219 197.441406 C 175.957031 197.929688 174.855469 197.808594 174.734375 197.011719 C 174.183594 193.574219 174.550781 190.078125 174.792969 186.644531 L 174.917969 185.355469 C 175.039062 183.820312 175.164062 182.285156 175.347656 180.816406 C 175.40625 180.140625 175.53125 179.464844 175.589844 178.789062 L 175.652344 178.300781 C 175.773438 177.5 175.835938 176.703125 176.082031 175.90625 C 176.019531 175.90625 175.957031 175.84375 175.898438 175.785156 C 175.164062 175.109375 175.53125 173.945312 175.835938 173.085938 C 176.140625 172.285156 176.632812 171.613281 177.246094 171 C 177.367188 170.875 177.550781 170.753906 177.734375 170.753906 C 179.203125 169.773438 180.859375 169.28125 182.570312 169.832031 C 182.632812 169.585938 182.695312 169.402344 182.695312 169.160156 L 182.753906 168.914062 C 182.941406 168.359375 183 167.441406 183.492188 167.074219 Z M 198.800781 256.644531 C 199.289062 256.519531 199.78125 256.644531 200.085938 257.011719 C 200.453125 257.378906 200.574219 257.871094 200.453125 258.300781 C 200.390625 258.542969 200.269531 258.730469 200.085938 258.914062 C 199.902344 259.097656 199.71875 259.160156 199.535156 259.21875 L 199.472656 259.21875 L 199.414062 259.28125 C 199.167969 259.34375 198.921875 259.34375 198.738281 259.28125 C 198.492188 259.21875 198.308594 259.097656 198.1875 258.914062 C 198.003906 258.730469 197.941406 258.542969 197.820312 258.359375 C 197.757812 258.117188 197.757812 257.871094 197.820312 257.6875 L 197.882812 257.625 C 197.941406 257.378906 198.066406 257.195312 198.25 257.011719 C 198.371094 256.828125 198.617188 256.765625 198.800781 256.644531 Z M 226.355469 210.324219 C 226.417969 210.261719 226.539062 210.324219 226.480469 210.445312 C 225.746094 211.859375 224.949219 213.269531 224.152344 214.679688 C 224.214844 215.046875 224.273438 215.414062 224.335938 215.785156 C 224.640625 217.378906 225.011719 218.914062 225.253906 220.507812 C 226.113281 226.214844 226.601562 232.042969 226.96875 237.808594 C 227.335938 243.636719 227.398438 249.402344 227.460938 255.230469 C 227.460938 255.722656 227.09375 256.335938 226.539062 256.398438 C 226.296875 256.457031 226.113281 256.457031 225.867188 256.398438 C 225.316406 256.335938 225.011719 255.722656 224.949219 255.230469 C 224.765625 251.980469 224.582031 248.730469 224.335938 245.476562 C 223.90625 239.710938 223.664062 233.945312 223.296875 228.175781 L 223.171875 226.152344 C 223.050781 223.945312 222.929688 221.796875 222.867188 219.585938 C 222.867188 218.117188 222.929688 216.703125 222.867188 215.230469 C 222.804688 213.882812 222.683594 212.472656 222.988281 211.121094 C 222.988281 211.058594 223.050781 211.058594 223.113281 211.121094 C 223.417969 211.734375 223.601562 212.472656 223.785156 213.207031 C 224.765625 212.285156 225.5625 211.304688 226.355469 210.324219 Z M 174.792969 175.109375 C 174.917969 175.109375 174.917969 175.292969 174.792969 175.292969 C 173.265625 175.476562 171.734375 176.089844 170.324219 176.644531 L 170.203125 176.703125 C 168.730469 177.257812 167.261719 177.871094 165.914062 178.605469 C 163.222656 180.078125 160.710938 181.917969 158.566406 184.066406 C 149.75 192.59375 145.769531 204.925781 142.828125 216.519531 C 141.175781 222.960938 140.074219 229.527344 139.277344 236.089844 C 138.910156 239.34375 138.664062 242.65625 138.480469 245.90625 C 138.417969 247.5625 138.359375 249.28125 138.359375 250.9375 C 138.359375 251.796875 138.359375 252.65625 138.359375 253.515625 C 138.359375 253.882812 138.417969 254.433594 138.296875 254.800781 C 138.175781 255.171875 137.929688 255.476562 137.746094 255.785156 C 137.5 256.152344 137.074219 256.089844 136.828125 255.785156 L 136.765625 255.660156 C 136.519531 255.292969 136.277344 254.988281 136.214844 254.558594 C 136.152344 254.066406 136.214844 253.574219 136.214844 253.085938 C 136.214844 252.101562 136.214844 251.121094 136.214844 250.140625 C 136.277344 248.238281 136.335938 246.335938 136.460938 244.496094 C 136.703125 240.691406 137.074219 236.828125 137.5625 233.023438 C 138.480469 226.273438 139.890625 219.585938 141.726562 213.023438 C 143.503906 206.828125 145.523438 200.628906 148.460938 194.925781 C 151.21875 189.585938 154.769531 184.617188 159.484375 180.9375 C 161.691406 179.21875 164.078125 177.746094 166.648438 176.703125 C 167.9375 176.152344 169.285156 175.722656 170.691406 175.476562 C 172.101562 175.171875 173.449219 175.171875 174.792969 175.109375 Z M 199.105469 245.722656 C 199.351562 245.722656 199.597656 245.785156 199.839844 245.90625 L 200.148438 246.152344 C 200.207031 246.273438 200.269531 246.335938 200.390625 246.457031 C 200.574219 246.703125 200.574219 247.074219 200.574219 247.316406 C 200.574219 247.5 200.515625 247.6875 200.390625 247.808594 L 200.207031 248.117188 C 200.023438 248.300781 199.839844 248.421875 199.597656 248.484375 C 199.472656 248.542969 199.351562 248.542969 199.230469 248.542969 L 199.105469 248.542969 C 199.046875 248.542969 199.046875 248.542969 198.984375 248.542969 C 198.984375 248.542969 198.921875 248.542969 198.921875 248.542969 C 198.921875 248.542969 198.863281 248.542969 198.863281 248.542969 C 198.554688 248.542969 198.25 248.421875 198.003906 248.175781 C 197.820312 247.992188 197.636719 247.625 197.636719 247.316406 L 197.636719 247.195312 C 197.636719 247.011719 197.699219 246.949219 197.757812 246.703125 C 197.820312 246.519531 197.941406 246.335938 198.125 246.214844 C 198.308594 245.90625 198.675781 245.722656 199.105469 245.722656 Z M 198.125 231.304688 C 198.554688 230.875 199.289062 230.816406 199.78125 231.058594 C 199.902344 231.121094 200.023438 231.246094 200.148438 231.304688 C 200.453125 231.550781 200.515625 231.917969 200.574219 232.285156 C 200.574219 232.65625 200.390625 233.023438 200.148438 233.269531 L 200.085938 233.328125 C 199.964844 233.453125 199.71875 233.574219 199.535156 233.636719 C 199.230469 233.699219 198.921875 233.699219 198.617188 233.574219 C 198.371094 233.453125 198.125 233.269531 198.003906 233.023438 L 198.003906 232.960938 C 198.003906 232.960938 198.003906 232.902344 198.003906 232.902344 C 197.574219 232.410156 197.699219 231.796875 198.125 231.304688 Z M 198.308594 216.828125 C 198.492188 216.765625 198.675781 216.765625 198.863281 216.828125 C 198.984375 216.828125 199.105469 216.886719 199.230469 216.949219 C 199.351562 217.011719 199.472656 217.074219 199.535156 217.132812 C 199.65625 217.195312 199.71875 217.257812 199.78125 217.378906 C 199.902344 217.5 199.964844 217.6875 200.023438 217.871094 L 200.085938 218.238281 L 200.023438 218.605469 L 199.902344 218.972656 C 199.839844 219.035156 199.839844 219.097656 199.78125 219.160156 C 199.71875 219.28125 199.65625 219.34375 199.535156 219.402344 C 199.472656 219.464844 199.414062 219.527344 199.289062 219.585938 C 198.984375 219.832031 198.554688 219.894531 198.1875 219.773438 C 197.941406 219.710938 197.757812 219.585938 197.636719 219.402344 C 197.453125 219.21875 197.332031 219.035156 197.269531 218.851562 L 197.269531 218.667969 C 197.207031 218.421875 197.207031 218.300781 197.269531 217.992188 C 197.269531 217.871094 197.390625 217.6875 197.453125 217.5625 C 197.636719 217.132812 197.941406 216.886719 198.308594 216.828125 Z M 214.785156 206.335938 C 215.335938 206.335938 215.886719 206.335938 216.4375 206.335938 L 216.867188 206.335938 C 217.539062 206.335938 218.152344 206.273438 218.640625 206.765625 C 219.007812 207.132812 218.886719 207.6875 218.519531 207.929688 C 217.96875 208.300781 217.234375 208.117188 216.621094 208.054688 C 215.945312 207.992188 215.273438 207.992188 214.597656 207.929688 C 213.3125 207.871094 211.964844 207.808594 210.617188 207.808594 C 209.332031 207.808594 207.984375 207.808594 206.699219 207.808594 C 205.351562 207.808594 203.945312 207.929688 202.65625 207.808594 C 202.472656 207.808594 202.414062 207.5625 202.597656 207.5 C 203.820312 207.074219 205.230469 206.949219 206.578125 206.765625 C 207.925781 206.582031 209.273438 206.457031 210.679688 206.398438 C 211.964844 206.398438 213.375 206.398438 214.785156 206.335938 Z M 198.308594 202.101562 C 198.617188 202.101562 198.800781 202.164062 199.046875 202.285156 L 199.105469 202.285156 L 199.414062 202.53125 C 199.597656 202.714844 199.71875 202.902344 199.78125 203.144531 L 199.839844 203.515625 C 199.839844 203.699219 199.78125 203.882812 199.71875 204.066406 C 199.65625 204.25 199.535156 204.371094 199.414062 204.496094 C 199.289062 204.617188 199.105469 204.742188 198.984375 204.800781 C 198.738281 204.925781 198.617188 204.925781 198.433594 204.925781 L 198.371094 204.925781 C 198.125 204.925781 197.882812 204.863281 197.636719 204.742188 L 197.332031 204.496094 C 197.148438 204.3125 197.023438 204.128906 196.964844 203.882812 L 196.902344 203.515625 C 196.902344 203.328125 196.964844 203.144531 197.023438 202.960938 C 197.085938 202.777344 197.207031 202.65625 197.332031 202.53125 C 197.453125 202.410156 197.636719 202.285156 197.757812 202.226562 C 198.003906 202.164062 198.125 202.101562 198.308594 202.101562 Z M 202.535156 168.667969 C 202.84375 168.238281 203.394531 168.605469 203.332031 168.972656 C 203.332031 169.957031 203.394531 170.9375 203.636719 171.917969 C 203.761719 172.347656 203.882812 172.839844 204.066406 173.207031 L 204.128906 173.390625 C 204.371094 173.945312 204.617188 174.433594 204.25 175.046875 C 204.066406 175.355469 203.761719 175.539062 203.453125 175.539062 C 201.921875 175.476562 201.738281 173.390625 201.679688 172.226562 C 201.554688 171 201.863281 169.710938 202.535156 168.667969 Z M 202.535156 168.667969 " fill-opacity="1" fill-rule="evenodd"/></g><path fill="#ffffff" d="M 193.863281 114.488281 C 199.679688 114.488281 206.597656 117.3125 207.210938 117.371094 C 207.519531 117.371094 208.742188 118.292969 210.886719 120.132812 L 208.621094 124.613281 L 208.804688 124.796875 C 209.722656 125.65625 210.457031 126.453125 211.070312 127.066406 C 215.96875 132.097656 216.828125 151.730469 215.664062 158.601562 C 214.5 165.472656 212.355469 172.160156 202.433594 172.160156 C 192.515625 172.160156 181.371094 166.144531 179.714844 164.304688 C 178.550781 163.078125 177.328125 162.464844 175.917969 162.527344 C 175.859375 162.464844 175.796875 162.402344 175.734375 162.28125 L 175.550781 162.28125 C 173.59375 161.972656 172.183594 161.605469 171.328125 161.117188 C 169.613281 160.195312 167.773438 155.226562 167.773438 154.121094 C 167.773438 153.015625 165.082031 145.226562 165.019531 144.367188 C 165.019531 143.691406 161.46875 140.5 161.46875 139.457031 C 161.46875 138.414062 160.730469 138.539062 161.46875 134.917969 L 161.652344 133.875 C 162.386719 130.074219 163.917969 123.816406 169.613281 121.054688 C 175.859375 118.109375 187.984375 114.488281 193.863281 114.488281 Z M 193.863281 114.488281 " fill-opacity="1" fill-rule="evenodd"/><path fill="#6b4031" d="M 168.632812 120.992188 C 171.753906 117.679688 189.453125 112.527344 198.394531 113.628906 L 198.636719 113.691406 C 199.375 113.753906 200.046875 113.9375 200.71875 114.121094 C 202.988281 114.671875 205.3125 115.472656 207.152344 116.757812 C 208.679688 117.863281 213.582031 119.644531 212.171875 122.464844 C 212.722656 123.507812 212.90625 124.734375 212.539062 125.714844 C 212.476562 126.085938 212.417969 126.390625 212.234375 126.699219 C 213.398438 128.355469 214.253906 130.316406 214.988281 132.097656 C 216.273438 136.636719 217.070312 141.421875 217.195312 146.085938 C 217.5625 154.917969 216.640625 165.53125 208.925781 171.238281 C 204.273438 174.859375 196.984375 174.980469 191.78125 170.5 C 191.472656 170.132812 190.066406 169.214844 190.554688 169.03125 C 190.675781 169.152344 190.859375 169.335938 190.984375 169.457031 C 190.984375 169.457031 190.984375 169.398438 190.984375 169.398438 L 190.859375 169.273438 C 190.617188 169.03125 190.25 168.660156 190.675781 168.785156 C 190.675781 168.785156 190.738281 168.84375 190.738281 168.84375 C 190.800781 168.90625 190.859375 168.90625 190.921875 168.96875 C 190.675781 168.722656 190.554688 168.476562 190.921875 168.660156 L 190.984375 168.660156 C 191.105469 168.785156 191.289062 168.96875 191.414062 169.089844 C 191.414062 169.089844 191.414062 169.03125 191.414062 169.03125 L 191.289062 168.90625 C 191.167969 168.785156 191.167969 168.785156 191.230469 168.660156 C 190.921875 168.230469 191.472656 168.476562 191.535156 168.660156 C 191.902344 168.601562 192.148438 169.214844 192.390625 169.273438 C 201.945312 176.636719 215.847656 170.132812 215.664062 149.582031 L 215.664062 149.152344 C 215.601562 142.585938 215.050781 135.839844 212.355469 129.886719 C 212.109375 129.335938 211.804688 128.785156 211.5 128.230469 C 211.253906 127.800781 211.007812 127.433594 210.761719 127.066406 C 210.027344 127.003906 209.355469 126.882812 208.621094 126.699219 C 208.375 126.636719 208.128906 126.574219 207.886719 126.515625 C 204.394531 126.699219 201.027344 126.882812 197.535156 127.128906 L 196.433594 127.1875 C 193.433594 127.3125 190.371094 127.617188 187.984375 129.398438 C 185.65625 131.117188 185.59375 134.367188 183.636719 136.207031 C 180.757812 138.171875 180.757812 139.886719 180.207031 142.773438 C 180.265625 144.917969 181.738281 148.046875 178.980469 148.96875 C 179.472656 149.644531 178.796875 149.335938 178.734375 149.089844 C 179.164062 149.886719 178.550781 149.398438 178.492188 149.152344 C 178.429688 149.152344 178.429688 149.089844 178.367188 149.089844 C 178.796875 149.765625 178.125 149.273438 178.125 149.152344 C 177.328125 147.925781 175.675781 147.742188 174.511719 148.046875 C 174.511719 148.109375 174.449219 148.109375 174.386719 148.046875 C 169.429688 149.152344 170.714844 159.398438 175.796875 158.414062 C 176.042969 158.355469 175.980469 158.476562 176.042969 158.476562 C 175.917969 158.171875 176.226562 158.292969 176.226562 158.355469 C 176.101562 157.742188 176.777344 158.660156 176.714844 158.660156 C 176.714844 158.660156 176.777344 158.660156 176.777344 158.660156 L 176.777344 158.601562 C 176.652344 158.292969 176.652344 158.414062 176.652344 158.292969 C 176.59375 158.109375 176.59375 158.171875 176.59375 158.046875 C 176.898438 157.800781 176.960938 158.476562 177.023438 158.539062 C 176.835938 158.292969 176.960938 158.109375 177.144531 158.230469 C 178.308594 160.625 179.777344 162.894531 181.675781 164.671875 C 181.859375 164.859375 182.105469 164.980469 182.289062 165.164062 C 183.085938 165.902344 184.371094 166.328125 185.105469 166.945312 C 185.105469 166.945312 185.105469 166.945312 185.105469 167.003906 L 185.535156 167.128906 C 185.59375 167.1875 185.65625 167.25 185.71875 167.371094 C 185.777344 167.433594 185.839844 167.558594 185.902344 167.617188 C 185.902344 167.742188 185.902344 167.800781 185.777344 167.742188 C 185.71875 167.742188 185.71875 167.679688 185.65625 167.679688 C 185.65625 167.679688 185.777344 167.925781 185.65625 167.925781 C 185.59375 167.925781 185.535156 167.863281 185.472656 167.863281 C 185.535156 167.925781 185.59375 167.988281 185.65625 168.109375 C 185.71875 168.171875 185.777344 168.230469 185.777344 168.355469 C 185.777344 168.414062 185.777344 168.414062 185.71875 168.414062 C 185.65625 168.414062 185.59375 168.355469 185.472656 168.355469 L 185.472656 168.414062 C 185.535156 168.539062 185.59375 168.660156 185.472656 168.660156 C 185.351562 168.601562 185.226562 168.601562 185.167969 168.539062 C 185.167969 168.539062 185.167969 168.539062 185.105469 168.539062 C 184.738281 168.414062 184.429688 168.292969 184.125 168.109375 C 183.820312 167.925781 183.574219 167.679688 183.269531 167.496094 C 183.023438 167.25 182.714844 167.066406 182.472656 166.882812 C 180.816406 165.839844 179.410156 164.488281 178.246094 162.957031 C 176.347656 164.613281 172.550781 163.015625 170.222656 161.730469 C 168.140625 160.5625 167.347656 158.414062 167.101562 156.144531 C 166.671875 153.078125 164.160156 151.972656 164.285156 145.164062 C 164.222656 145.164062 164.101562 145.101562 164.039062 145.042969 C 163.976562 144.980469 163.855469 144.980469 163.792969 144.917969 L 163.671875 144.796875 C 163.609375 144.796875 163.550781 144.734375 163.550781 144.734375 C 163.488281 144.796875 163.550781 144.671875 163.550781 144.671875 L 163.367188 144.429688 C 162.996094 143.875 162.570312 143.324219 162.203125 142.832031 C 161.34375 141.667969 160.609375 140.195312 160.363281 138.785156 C 160.121094 137.742188 160.179688 136.574219 160.425781 135.59375 C 161.40625 132.21875 164.527344 124.367188 168.632812 120.992188 Z M 191.105469 169.152344 C 191.105469 169.214844 191.167969 169.214844 191.167969 169.273438 C 191.167969 169.152344 191.105469 169.152344 191.105469 169.152344 Z M 198.394531 115.347656 C 192.269531 114.859375 186.328125 116.207031 180.511719 117.800781 L 180.082031 117.925781 C 176.777344 118.84375 173.285156 119.703125 170.53125 121.730469 C 166.671875 124.734375 164.710938 129.457031 162.9375 133.875 C 161.40625 137.128906 162.203125 140.808594 164.46875 143.078125 C 164.710938 140.808594 165.140625 138.601562 165.753906 136.453125 C 165.875 136.085938 165.816406 136.023438 166.058594 135.960938 C 166.488281 141.851562 164.34375 146.144531 168.570312 153.140625 C 170.40625 156.390625 168.265625 158.84375 173.46875 160.5625 L 173.59375 160.625 C 174.695312 161.054688 175.859375 161.359375 176.898438 161.117188 L 176.777344 160.929688 C 176.652344 160.746094 176.652344 160.6875 176.777344 160.625 C 176.652344 160.378906 176.53125 160.195312 176.46875 159.949219 C 176.410156 159.949219 176.410156 159.949219 176.347656 160.011719 C 176.347656 160.074219 176.410156 160.132812 176.285156 160.132812 C 175.980469 160.257812 175.734375 160.257812 175.429688 160.257812 L 175.367188 160.257812 C 175 160.257812 174.816406 160.195312 174.632812 160.132812 C 174.570312 160.132812 174.511719 160.132812 174.449219 160.074219 C 173.835938 159.949219 173.164062 159.582031 172.734375 159.273438 C 167.957031 156.574219 168.449219 147.25 174.328125 146.390625 C 174.449219 140.5625 177.207031 130.6875 181.859375 125.101562 C 186.023438 119.949219 197.414062 117.742188 205.3125 118.539062 C 205.4375 118.601562 205.558594 118.601562 205.679688 118.660156 C 206.90625 118.785156 208.070312 119.335938 209.292969 119.582031 C 208.4375 118.90625 207.394531 118.476562 206.414062 118.109375 C 204.394531 116.882812 202.007812 116.207031 199.800781 115.714844 C 199.3125 115.472656 198.820312 115.410156 198.394531 115.347656 Z M 174.144531 150.992188 C 174.449219 150.808594 174.449219 150.992188 174.511719 150.929688 C 176.777344 150.746094 179.289062 152.773438 180.511719 154.429688 C 180.390625 154.550781 180.144531 154.246094 180.082031 154.183594 L 180.144531 154.246094 C 180.632812 154.980469 179.65625 154.121094 179.53125 153.9375 C 179.53125 153.9375 179.472656 153.9375 179.472656 153.9375 C 179.53125 154 179.777344 154.246094 179.839844 154.367188 L 179.898438 154.429688 C 180.511719 154.980469 180.449219 155.347656 179.777344 154.613281 C 179.777344 154.671875 179.777344 154.671875 179.777344 154.734375 C 180.144531 154.980469 180.390625 155.65625 179.65625 154.980469 C 179.714844 155.472656 178.917969 154.488281 178.917969 154.488281 C 177.574219 153.386719 175.550781 152.34375 173.777344 152.21875 L 173.714844 152.21875 C 173.410156 152.160156 173.226562 152.097656 173.347656 151.851562 C 172.980469 151.730469 173.042969 151.542969 173.226562 151.542969 C 172.980469 151.359375 173.226562 151.175781 173.347656 151.238281 C 173.226562 150.929688 173.652344 151.117188 173.714844 151.117188 C 174.082031 150.746094 174.144531 151.054688 174.144531 150.992188 Z M 169.367188 132.160156 C 170.46875 131.730469 173.714844 132.957031 173.46875 134.550781 C 173.285156 134.917969 172.796875 135.101562 172.429688 134.917969 L 171.9375 134.613281 C 171.144531 134.058594 170.40625 133.570312 169.550781 133.140625 C 169.0625 132.832031 168.875 132.34375 169.367188 132.160156 Z M 175.613281 129.765625 L 175.183594 129.457031 C 172.917969 127.988281 169.671875 125.65625 175.367188 128.046875 C 176.042969 128.355469 176.898438 128.476562 177.265625 129.089844 C 177.816406 130.257812 176.347656 130.378906 175.613281 129.765625 Z M 175.859375 123.015625 C 175.675781 122.34375 177.941406 123.140625 178.613281 123.324219 L 178.734375 123.386719 C 179.410156 123.628906 180.144531 123.875 180.511719 124.429688 C 180.941406 125.226562 180.023438 125.347656 179.472656 125.042969 C 178.308594 124.246094 177.023438 123.691406 175.859375 123.015625 Z M 181.675781 119.765625 C 180.390625 118.355469 183.820312 119.703125 184.371094 120.074219 C 184.738281 120.316406 184.675781 120.929688 184.308594 121.117188 C 183.269531 121.117188 182.53125 120.257812 181.675781 119.765625 Z M 187.554688 118.230469 C 185.535156 116.757812 188.226562 117.433594 189.148438 118.046875 C 189.757812 118.601562 189.085938 119.519531 187.554688 118.230469 Z M 187.554688 118.230469 " fill-opacity="1" fill-rule="evenodd"/><path fill="#6b4031" d="M 194.835938 155.171875 C 197.039062 154.925781 199.183594 155.601562 201.390625 155.90625 C 202.492188 156.089844 203.65625 156.214844 204.816406 156.277344 C 205.0625 156.277344 205.308594 156.277344 205.492188 156.277344 C 205.492188 156.089844 205.613281 155.90625 205.859375 155.785156 C 206.347656 155.539062 206.777344 155.476562 207.328125 155.476562 C 207.820312 155.476562 208.371094 155.539062 208.859375 155.660156 C 209.777344 155.847656 210.695312 156.214844 211.371094 156.890625 C 212.902344 158.421875 212.65625 160.875 211.492188 162.59375 C 209.042969 166.03125 204.511719 166.152344 200.652344 166.089844 L 200.285156 166.089844 C 196.734375 166.03125 191.714844 166.582031 190.121094 162.53125 C 189.507812 161.0625 189.632812 159.34375 190.304688 157.933594 C 191.222656 156.277344 193 155.355469 194.835938 155.171875 Z M 205.859375 160.9375 C 204.207031 161 202.550781 161.0625 200.960938 161.0625 C 201.019531 161.488281 201.082031 161.917969 201.144531 162.289062 C 201.144531 162.65625 201.203125 162.960938 201.265625 163.332031 C 201.265625 163.453125 201.390625 163.699219 201.328125 163.820312 L 201.328125 163.882812 C 201.390625 163.882812 201.449219 163.945312 201.511719 164.003906 C 201.511719 164.003906 201.574219 164.066406 201.574219 164.128906 C 202.859375 164.128906 204.207031 164.128906 205.492188 163.882812 C 205.492188 163.699219 205.554688 163.636719 205.675781 163.515625 C 205.738281 162.960938 205.738281 162.410156 205.796875 161.917969 C 205.796875 161.550781 205.796875 161.246094 205.859375 160.9375 Z M 199.675781 161.0625 C 198.511719 161.0625 197.347656 161.121094 196.183594 161.0625 L 195.632812 161.0625 C 195.753906 161.675781 195.878906 162.289062 195.9375 162.902344 C 196.0625 163.515625 195.511719 163.945312 195.019531 163.945312 C 195.082031 163.945312 195.140625 163.945312 195.203125 163.945312 C 196.734375 164.128906 198.265625 164.128906 199.796875 164.128906 C 199.734375 163.636719 199.734375 163.085938 199.734375 162.71875 L 199.734375 162.65625 C 199.734375 162.105469 199.734375 161.613281 199.675781 161.0625 Z M 191.714844 161 C 191.773438 161.304688 191.835938 161.613281 191.957031 161.917969 C 192.449219 163.148438 193.613281 163.699219 194.835938 163.945312 C 194.652344 163.882812 194.46875 163.699219 194.40625 163.390625 C 194.285156 162.65625 194.285156 161.859375 194.285156 161.121094 C 193.429688 161.0625 192.570312 161.0625 191.714844 161 Z M 210.269531 160.691406 C 209.65625 160.816406 208.980469 160.753906 208.371094 160.816406 C 207.820312 160.816406 207.265625 160.875 206.714844 160.875 C 206.714844 161.246094 206.777344 161.613281 206.777344 162.042969 C 206.839844 162.53125 206.839844 163.023438 206.898438 163.515625 C 208.003906 163.148438 209.042969 162.53125 209.777344 161.550781 C 209.960938 161.304688 210.144531 161 210.269531 160.691406 Z M 194.589844 157.132812 C 193.613281 157.378906 192.632812 157.871094 192.140625 158.789062 C 191.835938 159.34375 191.714844 159.957031 191.714844 160.632812 C 192.570312 160.507812 193.429688 160.507812 194.285156 160.445312 C 194.285156 160.261719 194.285156 160.140625 194.285156 159.957031 L 194.285156 159.589844 C 194.347656 158.851562 194.347656 157.933594 194.589844 157.132812 Z M 199.796875 157.257812 L 199.367188 157.195312 C 198.144531 157.074219 196.917969 156.890625 195.695312 157.011719 C 195.511719 157.011719 195.324219 157.074219 195.140625 157.074219 C 195.386719 157.871094 195.324219 158.789062 195.449219 159.527344 C 195.511719 159.832031 195.511719 160.140625 195.570312 160.445312 L 195.753906 160.445312 C 197.039062 160.324219 198.386719 160.324219 199.675781 160.261719 C 199.675781 160.019531 199.675781 159.773438 199.675781 159.527344 L 199.675781 159.28125 C 199.734375 158.605469 199.675781 157.933594 199.796875 157.257812 Z M 205.921875 157.132812 C 204.632812 157.320312 203.285156 157.378906 202.0625 157.378906 C 201.574219 157.378906 201.082031 157.378906 200.53125 157.320312 C 200.59375 157.5625 200.59375 157.871094 200.59375 158.117188 C 200.652344 158.667969 200.714844 159.21875 200.777344 159.710938 L 200.835938 160.203125 C 202.429688 160.140625 204.082031 160.019531 205.675781 159.957031 L 205.921875 159.957031 L 205.980469 159.035156 C 206.042969 158.421875 206.105469 157.871094 206.164062 157.257812 L 206.105469 157.257812 C 206.042969 157.195312 205.980469 157.195312 205.921875 157.132812 Z M 206.472656 157.378906 C 206.53125 158.238281 206.59375 159.097656 206.65625 159.894531 L 207.695312 159.832031 C 207.878906 159.832031 208.0625 159.832031 208.246094 159.832031 C 208.921875 159.773438 209.839844 159.589844 210.511719 159.773438 C 210.574219 159.160156 210.390625 158.546875 209.839844 158.117188 C 208.859375 157.378906 207.574219 157.625 206.472656 157.378906 Z M 202.859375 149.773438 C 204.449219 148.851562 208.429688 147.933594 208.675781 150.816406 C 208.796875 152.105469 207.820312 153.207031 206.65625 153.699219 L 206.59375 153.699219 C 205.554688 154.128906 203.65625 154.617188 202.675781 153.699219 C 201.878906 152.902344 202.917969 151.488281 203.898438 152.105469 C 204.390625 152.410156 205.429688 152.164062 205.980469 152.042969 L 206.042969 152.042969 C 206.65625 151.859375 207.453125 151.304688 207.207031 150.570312 C 206.960938 149.894531 206.042969 149.832031 205.492188 149.773438 C 204.632812 149.710938 203.777344 149.957031 202.917969 150.019531 C 202.796875 150.078125 202.734375 149.832031 202.859375 149.773438 Z M 209.410156 145.171875 C 211.554688 145.046875 212.902344 147.441406 212.410156 149.34375 C 212.351562 149.648438 211.984375 150.019531 211.617188 149.957031 L 211.554688 149.957031 C 211.492188 149.957031 211.433594 149.957031 211.433594 149.957031 C 211.0625 149.832031 210.757812 149.527344 210.820312 149.160156 L 210.820312 149.035156 C 210.878906 148.117188 210.757812 147.074219 209.71875 146.828125 C 208.796875 146.644531 208.308594 147.503906 208.246094 148.363281 C 208.246094 148.484375 208.0625 148.605469 207.941406 148.546875 C 207.265625 148.117188 207.144531 147.320312 207.390625 146.644531 C 207.695312 145.785156 208.492188 145.234375 209.410156 145.171875 Z M 193.429688 145.722656 C 195.019531 145.171875 196.671875 146.03125 197.46875 147.441406 C 197.714844 147.503906 198.019531 147.746094 197.960938 148.054688 C 197.898438 148.484375 197.835938 148.789062 197.53125 149.160156 C 197.039062 149.710938 196.121094 149.402344 195.9375 148.730469 C 195.695312 147.871094 194.773438 147.320312 193.917969 147.625 C 192.9375 147.992188 192.9375 149.035156 192.265625 149.648438 C 192.203125 149.710938 192.082031 149.710938 191.957031 149.710938 C 191.222656 149.34375 191.34375 148.238281 191.589844 147.625 C 191.898438 146.703125 192.570312 145.96875 193.429688 145.722656 Z M 191.285156 140.9375 C 192.570312 139.648438 195.878906 138.363281 196.734375 140.753906 C 196.917969 141.183594 196.550781 141.796875 196.0625 141.917969 C 195.265625 142.105469 194.589844 141.734375 193.796875 141.796875 C 193.183594 141.859375 192.507812 142.042969 192.019531 142.472656 C 190.609375 143.574219 190.304688 145.355469 189.386719 146.703125 C 189.324219 146.765625 189.261719 146.765625 189.261719 146.644531 C 189.019531 144.679688 189.875 142.347656 191.285156 140.9375 Z M 207.878906 139.648438 C 208.738281 139.34375 209.65625 139.402344 210.511719 139.648438 C 211.371094 139.894531 212.167969 140.445312 212.777344 141.0625 C 213.023438 141.367188 213.332031 141.675781 213.515625 142.042969 C 213.636719 142.226562 213.757812 142.59375 213.882812 142.839844 C 214.554688 143.207031 214.800781 144.128906 214.25 144.742188 L 214.066406 144.863281 C 213.757812 145.171875 213.269531 145.292969 212.839844 145.171875 C 211.859375 144.863281 211.738281 144.128906 211.433594 143.269531 C 211.1875 142.71875 210.820312 142.226562 210.390625 141.917969 C 209.289062 141.0625 207.511719 140.816406 206.164062 141.246094 C 206.105469 141.246094 206.042969 141.183594 206.042969 141.121094 C 206.289062 140.816406 206.410156 140.507812 206.777344 140.261719 C 207.082031 139.957031 207.453125 139.773438 207.878906 139.648438 Z M 207.878906 139.648438 " fill-opacity="1" fill-rule="evenodd"/><path fill="#6b4031" d="M 193.300781 163.039062 C 194.34375 160.585938 196.609375 158.746094 199.242188 158.132812 C 201.203125 157.640625 203.222656 157.640625 205.183594 157.824219 C 206.222656 157.949219 207.324219 158.007812 208.304688 158.378906 C 209.164062 158.683594 209.835938 159.296875 210.324219 160.035156 C 210.9375 160.894531 211.367188 161.875 211.613281 162.917969 C 211.671875 163.039062 211.671875 163.222656 211.734375 163.347656 C 211.613281 164.082031 211.367188 164.757812 210.632812 165.25 C 209.957031 165.738281 209.101562 165.921875 208.304688 165.984375 C 208.242188 165.921875 208.121094 165.921875 208.058594 165.863281 C 206.773438 165.125 205.855469 163.40625 204.261719 163.652344 C 202.855469 163.835938 201.875 165.679688 201.019531 166.722656 C 198.261719 167.027344 195.507812 166.230469 193.300781 164.636719 C 193.242188 164.144531 193.242188 163.59375 193.300781 163.039062 M 213.632812 161.199219 C 213.386719 160.585938 213.144531 159.972656 212.835938 159.421875 C 211.734375 157.578125 210.082031 156.046875 208.121094 155.25 C 203.46875 153.222656 197.40625 154.636719 193.609375 157.949219 C 192.320312 159.050781 191.035156 160.707031 190.605469 162.488281 C 190.484375 162.488281 190.363281 162.550781 190.300781 162.671875 C 187.546875 160.953125 184.789062 159.296875 182.585938 156.90625 C 180.992188 155.1875 179.890625 153.101562 179.21875 150.894531 C 179.15625 150.707031 178.847656 150.707031 178.847656 150.953125 C 178.847656 151.015625 178.847656 151.078125 178.847656 151.078125 C 178.847656 151.015625 178.664062 151.015625 178.664062 151.136719 C 178.296875 153.898438 177.871094 156.78125 178.238281 159.542969 C 178.480469 161.199219 179.21875 162.363281 180.257812 163.714844 C 181.300781 165.125 182.523438 166.414062 183.75 167.640625 C 184.542969 168.4375 185.339844 169.359375 186.320312 169.910156 C 187.421875 170.585938 188.707031 171.078125 189.871094 171.628906 C 191.097656 172.179688 192.320312 172.671875 193.546875 173.039062 C 196.058594 173.898438 198.628906 174.449219 201.261719 174.757812 C 203.34375 174.941406 205.792969 175.1875 207.816406 174.390625 C 209.347656 173.777344 210.632812 172.671875 211.613281 171.382812 C 212.714844 169.910156 213.570312 168.316406 214 166.535156 C 214.550781 164.574219 213.753906 161.445312 213.632812 161.199219 " fill-opacity="1" fill-rule="evenodd"/><path fill="#6b4031" d="M 218.621094 146.351562 C 217.394531 154.695312 208.761719 155.617188 207.230469 147.332031 C 207.472656 147.210938 207.660156 147.027344 207.597656 146.597656 C 207.597656 144.816406 208.148438 142.855469 209.800781 141.871094 C 211.453125 140.828125 213.476562 140.707031 215.375 140.769531 C 219.109375 140.644531 219.046875 143.773438 218.621094 146.351562 M 205.882812 142.671875 C 204.71875 142.609375 203.25 142.671875 202.207031 143.34375 C 201.902344 142.546875 201.167969 141.75 200.433594 141.320312 C 203.25 141.382812 206.128906 141.136719 208.945312 140.890625 C 208.269531 141.382812 207.660156 142.058594 207.230469 142.855469 C 206.800781 142.671875 206.3125 142.730469 205.882812 142.671875 M 200.738281 147.210938 C 197.492188 158.375 189.410156 153.53125 188.550781 152.058594 C 186.960938 149.664062 186.652344 143.957031 188.0625 142.425781 C 190.023438 141.015625 192.839844 141.382812 195.164062 141.382812 C 199.453125 141.382812 202.515625 142.671875 200.738281 147.210938 M 222.417969 142.058594 C 221.558594 141.933594 220.578125 141.933594 219.785156 142.300781 C 219.539062 141.257812 218.742188 140.339844 217.824219 139.972656 C 217.703125 139.847656 217.761719 139.785156 217.332031 139.785156 C 215.066406 139.113281 212.558594 139.480469 210.351562 140.15625 C 206.984375 140.460938 203.371094 140.644531 199.941406 141.074219 C 196.695312 139.601562 186.898438 139.417969 186.285156 142.976562 C 185.488281 142.855469 184.203125 142.242188 183.589844 143.101562 C 178.875 142.300781 173.976562 143.40625 169.261719 143.898438 C 168.097656 144.144531 167.425781 146.472656 168.832031 146.472656 C 169.566406 146.289062 168.832031 145 169.8125 144.878906 C 174.40625 144.386719 178.875 143.652344 183.46875 143.589844 C 183.285156 144.386719 186.53125 144.449219 186.59375 143.957031 C 185.796875 146.964844 186.46875 151.257812 187.941406 153.101562 C 189.960938 155.492188 194.980469 156.230469 197.246094 154.632812 C 200.125 153.222656 203.125 146.042969 202.269531 143.652344 C 203.800781 143.160156 205.332031 143.285156 206.921875 143.53125 C 206.554688 144.574219 205.945312 147.085938 206.863281 147.332031 C 206.679688 152.363281 211.269531 155.492188 215.496094 153.46875 C 219.171875 151.75 220.394531 146.289062 219.96875 143.039062 C 220.394531 143.835938 224.191406 142.914062 222.417969 142.058594 " fill-opacity="1" fill-rule="evenodd"/></svg>